<svg width="46" height="46" viewBox="0 0 46 46" fill="none" xmlns="http://www.w3.org/2000/svg">
<path d="M9.2699 9.54032L9.2461 9.57453L9.22424 9.61001C7.82904 11.8742 6.05919 15.0067 5.29331 18.2654C4.28468 18.5397 3.45765 19.1215 2.85277 19.7899C2.04226 20.6855 1.5 21.8807 1.5 23C1.5 24.9008 2.17607 26.2067 3.2733 27.0734C3.90031 27.5686 4.66498 27.8946 5.27404 28.1228C5.95196 30.8026 7.27205 33.1719 8.57888 34.9852C9.99535 36.9507 11.7745 38.2978 13.7578 39.1944C13.8857 39.9446 14.1425 40.8483 14.5659 41.6846C15.2159 42.9686 16.4918 44.5 18.6614 44.5C19.6852 44.5 20.5687 44.304 21.3049 43.8937C22.0532 43.4767 22.5474 42.8946 22.8715 42.293C22.918 42.2067 22.9609 42.1201 23.0006 42.0338C23.0193 42.0666 23.0384 42.0993 23.0579 42.1317C23.8021 43.3691 25.161 44.5 27.4092 44.5C29.7119 44.5 30.9603 42.7998 31.5572 41.4418C31.9486 40.5515 32.1622 39.6085 32.2643 38.8589C34.4397 37.837 36.4095 36.364 37.8675 34.3409C39.241 32.435 39.9673 30.1419 40.3535 27.8032C41.3796 27.601 42.2882 27.1525 43.004 26.4553C44.0155 25.4702 44.5 24.1257 44.5 22.6907C44.5 21.1065 43.7455 19.7377 42.7208 18.8234C42.0481 18.2232 41.1985 17.7669 40.2788 17.5878C39.553 14.6442 38.1677 11.7267 36.9606 9.64458L36.9215 9.5771L36.8756 9.51405C35.01 6.95145 33.1138 4.92395 30.8435 3.54986C28.5448 2.15859 25.9681 1.5 22.8469 1.5C19.7713 1.5 17.2116 2.25412 14.9748 3.6857C12.7649 5.10009 10.9503 7.12468 9.2699 9.54032Z" fill="#B49BC7"/>
<path d="M9.2699 9.54032L9.2461 9.57453L9.22424 9.61001C7.82904 11.8742 6.05919 15.0067 5.29331 18.2654C4.28468 18.5397 3.45765 19.1215 2.85277 19.7899C2.04226 20.6855 1.5 21.8807 1.5 23C1.5 24.9008 2.17607 26.2067 3.2733 27.0734C3.90031 27.5686 4.66498 27.8946 5.27404 28.1228C5.95196 30.8026 7.27205 33.1719 8.57888 34.9852C9.99535 36.9507 11.7745 38.2978 13.7578 39.1944C13.8857 39.9446 14.1425 40.8483 14.5659 41.6846C15.2159 42.9686 16.4918 44.5 18.6614 44.5C19.6852 44.5 20.5687 44.304 21.3049 43.8937C22.0532 43.4767 22.5474 42.8946 22.8715 42.293C22.918 42.2067 22.9609 42.1201 23.0006 42.0338C23.0193 42.0666 23.0384 42.0993 23.0579 42.1317C23.8021 43.3691 25.161 44.5 27.4092 44.5C29.7119 44.5 30.9603 42.7998 31.5572 41.4418C31.9486 40.5515 32.1622 39.6085 32.2643 38.8589C34.4397 37.837 36.4095 36.364 37.8675 34.3409C39.241 32.435 39.9673 30.1419 40.3535 27.8032C41.3796 27.601 42.2882 27.1525 43.004 26.4553C44.0155 25.4702 44.5 24.1257 44.5 22.6907C44.5 21.1065 43.7455 19.7377 42.7208 18.8234C42.0481 18.2232 41.1985 17.7669 40.2788 17.5878C39.553 14.6442 38.1677 11.7267 36.9606 9.64458L36.9215 9.5771L36.8756 9.51405C35.01 6.95145 33.1138 4.92395 30.8435 3.54986C28.5448 2.15859 25.9681 1.5 22.8469 1.5C19.7713 1.5 17.2116 2.25412 14.9748 3.6857C12.7649 5.10009 10.9503 7.12468 9.2699 9.54032Z" fill="black" fill-opacity="0.6"/>
<path d="M9.2699 9.54032L9.2461 9.57453L9.22424 9.61001C7.82904 11.8742 6.05919 15.0067 5.29331 18.2654C4.28468 18.5397 3.45765 19.1215 2.85277 19.7899C2.04226 20.6855 1.5 21.8807 1.5 23C1.5 24.9008 2.17607 26.2067 3.2733 27.0734C3.90031 27.5686 4.66498 27.8946 5.27404 28.1228C5.95196 30.8026 7.27205 33.1719 8.57888 34.9852C9.99535 36.9507 11.7745 38.2978 13.7578 39.1944C13.8857 39.9446 14.1425 40.8483 14.5659 41.6846C15.2159 42.9686 16.4918 44.5 18.6614 44.5C19.6852 44.5 20.5687 44.304 21.3049 43.8937C22.0532 43.4767 22.5474 42.8946 22.8715 42.293C22.918 42.2067 22.9609 42.1201 23.0006 42.0338C23.0193 42.0666 23.0384 42.0993 23.0579 42.1317C23.8021 43.3691 25.161 44.5 27.4092 44.5C29.7119 44.5 30.9603 42.7998 31.5572 41.4418C31.9486 40.5515 32.1622 39.6085 32.2643 38.8589C34.4397 37.837 36.4095 36.364 37.8675 34.3409C39.241 32.435 39.9673 30.1419 40.3535 27.8032C41.3796 27.601 42.2882 27.1525 43.004 26.4553C44.0155 25.4702 44.5 24.1257 44.5 22.6907C44.5 21.1065 43.7455 19.7377 42.7208 18.8234C42.0481 18.2232 41.1985 17.7669 40.2788 17.5878C39.553 14.6442 38.1677 11.7267 36.9606 9.64458L36.9215 9.5771L36.8756 9.51405C35.01 6.95145 33.1138 4.92395 30.8435 3.54986C28.5448 2.15859 25.9681 1.5 22.8469 1.5C19.7713 1.5 17.2116 2.25412 14.9748 3.6857C12.7649 5.10009 10.9503 7.12468 9.2699 9.54032Z" stroke="#B49BC7" stroke-width="3"/>
<path d="M9.2699 9.54032L9.2461 9.57453L9.22424 9.61001C7.82904 11.8742 6.05919 15.0067 5.29331 18.2654C4.28468 18.5397 3.45765 19.1215 2.85277 19.7899C2.04226 20.6855 1.5 21.8807 1.5 23C1.5 24.9008 2.17607 26.2067 3.2733 27.0734C3.90031 27.5686 4.66498 27.8946 5.27404 28.1228C5.95196 30.8026 7.27205 33.1719 8.57888 34.9852C9.99535 36.9507 11.7745 38.2978 13.7578 39.1944C13.8857 39.9446 14.1425 40.8483 14.5659 41.6846C15.2159 42.9686 16.4918 44.5 18.6614 44.5C19.6852 44.5 20.5687 44.304 21.3049 43.8937C22.0532 43.4767 22.5474 42.8946 22.8715 42.293C22.918 42.2067 22.9609 42.1201 23.0006 42.0338C23.0193 42.0666 23.0384 42.0993 23.0579 42.1317C23.8021 43.3691 25.161 44.5 27.4092 44.5C29.7119 44.5 30.9603 42.7998 31.5572 41.4418C31.9486 40.5515 32.1622 39.6085 32.2643 38.8589C34.4397 37.837 36.4095 36.364 37.8675 34.3409C39.241 32.435 39.9673 30.1419 40.3535 27.8032C41.3796 27.601 42.2882 27.1525 43.004 26.4553C44.0155 25.4702 44.5 24.1257 44.5 22.6907C44.5 21.1065 43.7455 19.7377 42.7208 18.8234C42.0481 18.2232 41.1985 17.7669 40.2788 17.5878C39.553 14.6442 38.1677 11.7267 36.9606 9.64458L36.9215 9.5771L36.8756 9.51405C35.01 6.95145 33.1138 4.92395 30.8435 3.54986C28.5448 2.15859 25.9681 1.5 22.8469 1.5C19.7713 1.5 17.2116 2.25412 14.9748 3.6857C12.7649 5.10009 10.9503 7.12468 9.2699 9.54032Z" stroke="black" stroke-opacity="0.6" stroke-width="3"/>
</svg>
