<?xml version="1.0" encoding="UTF-8"?>
<svg id="Camada_1" data-name="Camada 1" xmlns="http://www.w3.org/2000/svg" xmlns:xlink="http://www.w3.org/1999/xlink" viewBox="0 0 55.7 70.81">
  <defs>
    <style>
      .cls-1 {
        fill: #010101;
      }

      .cls-2 {
        fill: url(#Gradiente_sem_nome_3);
      }

      .cls-3 {
        fill: #926cac;
      }

      .cls-4 {
        fill: #353039;
      }

      .cls-5 {
        opacity: .31;
      }

      .cls-6 {
        fill: #dc9bc3;
      }

      .cls-7 {
        fill: #8a63a5;
      }

      .cls-8 {
        fill: #ececed;
        stroke: #0e0915;
        stroke-miterlimit: 10;
        stroke-width: .25px;
      }

      .cls-9 {
        fill: #252128;
      }

      .cls-10 {
        fill: #161616;
      }
    </style>
    <linearGradient id="Gradiente_sem_nome_3" data-name="Gradiente sem nome 3" x1="15.95" y1="46.05" x2="15.95" y2="7.04" gradientTransform="translate(13.48 3.98) rotate(-.05) scale(.97 .98) skewX(-.1)" gradientUnits="userSpaceOnUse">
      <stop offset="0" stop-color="#c5b1d4"/>
      <stop offset=".43" stop-color="#c3afd2"/>
      <stop offset=".59" stop-color="#bea8ce"/>
      <stop offset=".7" stop-color="#b49cc7"/>
      <stop offset=".79" stop-color="#a78bbe"/>
      <stop offset=".87" stop-color="#9675b1"/>
      <stop offset=".94" stop-color="#815ba1"/>
      <stop offset="1" stop-color="#683b8e"/>
      <stop offset="1" stop-color="#673a8e"/>
    </linearGradient>
  </defs>
  <g>
    <g>
      <path class="cls-7" d="M19.09,45.63h9.42c-.25,1.2-.49,2.4-.74,3.61-.14,1.79-1.55,3.23-3.32,3.4-1.75.17-3.4-.94-3.9-2.64-.49-1.46-.97-2.91-1.46-4.37Z"/>
      <path class="cls-7" d="M28.51,45.63h9.42c-.25,1.2-.49,2.4-.74,3.61-.14,1.79-1.55,3.23-3.32,3.4-1.75.17-3.4-.94-3.9-2.64-.49-1.46-.97-2.91-1.46-4.37Z"/>
      <path class="cls-7" d="M13.72,27.15l.17,9.42c-1.21-.22-2.41-.45-3.62-.67-1.79-.1-3.26-1.49-3.46-3.26-.2-1.75.88-3.41,2.57-3.95,1.45-.51,2.9-1.03,4.34-1.54Z"/>
      <path class="cls-7" d="M44.04,36.57l-.15-9.42c1.21.23,2.41.46,3.62.68,1.79.11,3.25,1.5,3.45,3.27.2,1.75-.89,3.41-2.58,3.94-1.45.51-2.9,1.02-4.35,1.53Z"/>
    </g>
    <path class="cls-2" d="M20.96,14.44c-.35.21-1.14-.29-1.45-.08-.34.23-.57.6-.87.84-.32.25-.73.4-1.02.65-.31.27-.45.71-.72.98-.3.3-.32.81-.56,1.09-.29.32-.47.66-.69.93-.25.32-.29.74-.51,1.05-.23.33-1.47-.02-1.67.31-.21.34-.47.68-.65,1.02s.67,1.23.5,1.57-1.12.34-1.28.7.28.97.12,1.33c-.14.34-.38.62-.51.93s-1.1.34-1.22.67.48.92.38,1.26.34.79.26,1.14c-.07.33-.85.53-.91.89-.06.4.43.85.4,1.23-.03.41.1.78.09,1.15,0,.42.17.76.19,1.13.02.43-.59.85-.54,1.2.05.32.51.58.59.95.07.33-.75.88-.66,1.24.09.33.71.53.82.88.11.33,0,.74.14,1.08.13.34.67.49.8.8.15.33.67.44.82.74.17.33-.31.97-.14,1.25.19.32.15.76.33,1.03.17.27.36.66.63,1.02.22.28,1.1.05,1.38.36.25.27.34.69.64.97.28.25.81.15,1.14.4.3.23.03,1.29.37,1.5.32.2.64.44.96.61.34.17.62.56.95.69.36.15.79.19,1.12.3.37.12.84-.09,1.18-.01.39.09.8-.05,1.13,0,.43.06.83-.28,1.12-.26.39.03.72,1.04,1.13,1.06s.83-1.01,1.24-.99.77.95,1.18.95.81.17,1.21.16c.4,0,.75-1.16,1.13-1.17s.86,1,1.24.97.68-1.19,1.07-1.23.93,1.14,1.31,1.09.59-1.45.97-1.51.74-.21,1.12-.28c.39-.07,1.06,1.28,1.43,1.2.3-.06.69-.21,1.02-.33.29-.1.41-.79.73-.93.28-.13.29-.82.6-.99.28-.15.97.41,1.27.23.33-.2.48-.7.77-.92.32-.23.66-.41.94-.65.3-.26.09-1.01.35-1.27.28-.28,1.35.2,1.59-.08.26-.31.61-.57.82-.86.25-.34.59-.65.76-.93.19-.35-.6-1.23-.43-1.56.18-.36.53-.61.67-.96.15-.37,1.16-.42,1.28-.77.13-.38-.61-1.03-.51-1.39.11-.39-.22-.84-.15-1.2.08-.4,1.22-.6,1.27-.96.05-.41-.78-.88-.76-1.24.02-.42.57-.79.56-1.14-.01-.46.14-.88.1-1.18-.04-.35-.29-.67-.34-1.01-.06-.35.1-.75.03-1.07-.08-.36-.1-.74-.18-1.04-.11-.39-.72-.58-.81-.83-.13-.36.14-.87,0-1.22s-.27-.72-.41-1.07c-.15-.36-1.16-.34-1.31-.67-.16-.36-.07-.8-.23-1.13-.17-.35-.55-.56-.72-.88-.19-.35.42-1.12.24-1.43-.16-.25-.45-.5-.67-.83-.18-.27-.04-.81-.26-1.12-.19-.27-1.2.03-1.42-.26-.21-.27-.65-.33-.89-.61-.23-.26-.16-.77-.42-1.03-.18-.18.04-1.01-.33-1.35-.25-.23-.94-.04-1.28-.31-.28-.23-.8-.16-1.13-.4-.3-.21-.51-.57-.86-.78-.32-.2-.59-.49-.94-.68-.33-.18-.82,0-1.19-.17s-.65-.36-1.02-.49-.65-.41-1.04-.51-.66-.59-1.05-.66-.8.05-1.19.02-.78.62-1.18.61c-.37,0-.78-1.34-1.13-1.31-.37.03-.65,1.02-1,1.07-.37.05-.83-.43-1.17-.36-.37.08-.84-.15-1.18-.05-.36.11-.72.32-1.05.45-.36.14-.33,1.15-.65,1.3-.36.16-1.18-.66-1.47-.5-.37.2-.04,1.5-.3,1.66Z"/>
    <g class="cls-5">
      <path class="cls-3" d="M21.05,13.84c-.35.21-.3.98-.61,1.2-.34.23-1.04-.07-1.34.16-.32.25-.16,1.05-.44,1.3-.31.27-1.47-.39-1.74-.12-.3.3-.54.66-.79.94-.29.32.1,1.18-.12,1.45-.25.32-1.02.23-1.24.54-.23.33-.28.79-.48,1.11-.21.34.25,1.04.07,1.38s-.61.55-.77.9-.44.65-.6,1.01-.19.76-.35,1.12c-.14.34-.65.5-.78.82s-.58.55-.7.87-.49.61-.59.95.55.89.47,1.24c-.07.33-.53.61-.59.98-.06.4.65.88.61,1.26-.03.41-.27.77-.28,1.14,0,.42-.65.83-.63,1.2.02.43.17.84.21,1.19.05.32,0,.72.07,1.09.07.33,1.15.43,1.25.79.09.33.04.68.15,1.03.11.33.33.6.46.94.13.34-.26.86-.13,1.17.15.33-.13.87.02,1.17.17.33.92.32,1.08.61.19.32.6.46.78.73.17.27.5.48.77.83.22.28-.47,1.37-.18,1.68.25.27,1.05.06,1.36.33.28.25.27.89.6,1.14.3.23.82.2,1.17.42.32.2.36.94.68,1.1.34.17.96-.21,1.29-.08.36.15.82-.07,1.16.03.37.12.6.68.94.76.39.09.75.33,1.08.37.43.06.88-.77,1.18-.75.39.03.77.24,1.17.26s.76.6,1.16.61.8-.75,1.2-.75.79.79,1.2.78c.4,0,.78-.35,1.16-.37s.78-.14,1.16-.17.83.4,1.21.36.82.12,1.2.07.82.05,1.2,0,.8-.13,1.17-.2c.39-.07.61-1.01.98-1.09.3-.06.64-.02.97-.14.29-.1.45-.54.77-.69.28-.13.42-.51.73-.68.28-.15.6-.19.89-.37.33-.2.52-.52.82-.73.32-.23.86-.1,1.14-.34.3-.26,1.14.06,1.4-.2.28-.28.57-.6.8-.87.26-.31-.44-1.35-.24-1.63.25-.34,1.27-.11,1.44-.39.19-.35.02-.9.18-1.23.18-.36.34-.71.48-1.06.15-.37-.3-.94-.18-1.29.13-.38.61-.6.71-.96.11-.39.67-.65.74-1.01.08-.4-.52-.88-.47-1.25.05-.41.11-.75.13-1.11.02-.42.31-.78.3-1.12-.01-.46-.37-.79-.41-1.09-.04-.35.43-.75.38-1.08-.06-.35-.11-.69-.19-1.01-.08-.36.09-.77,0-1.07-.11-.39-.23-.74-.32-1-.13-.36-.39-.68-.52-1.02s-.98-.43-1.12-.77c-.15-.36-.19-.74-.34-1.07-.16-.36.39-1.02.24-1.35-.17-.35-1.03-.33-1.2-.65-.19-.35.56-1.21.37-1.52-.16-.25-1.31.05-1.53-.28-.18-.27-.44-.49-.66-.8-.19-.27-.25-.63-.48-.92-.21-.27-.09-.81-.34-1.08-.23-.26-.79-.19-1.05-.45-.18-.18.18-1.14-.2-1.48-.25-.23-.97,0-1.31-.27-.28-.23-.4-.71-.74-.95-.3-.21-.97.12-1.32-.09-.32-.2-.55-.52-.9-.71-.33-.18-.44-.85-.8-1s-1.01.52-1.38.38-.56-.7-.94-.8-.74-.15-1.13-.21-.74-.18-1.14-.21-.76.4-1.16.4c-.37,0-.76-1.1-1.12-1.08-.37.03-.67.77-1.02.82-.37.05-.63.49-.97.57-.37.08-.74-.04-1.08.06-.36.11-.6.43-.93.56-.36.14-.89-.25-1.2-.1-.36.16-.91-.11-1.2.05-.37.2-.54.66-.8.82Z"/>
    </g>
    <g>
      <path class="cls-9" d="M26.23,38.14c-.1-.19-.13-.36-.08-.4.06-.05.23.04.41.22.23.19.77.58,1.56.7,1.06.16,1.86-.27,2.11-.42.03-.02.07-.05.1-.07.02-.02.12-.14.29-.14.08,0,.14.03.17.05-.06.12-.16.29-.32.46-.05.05-.23.29-.55.42-.26.1-.63.21-1.09.24-.7.05-1.25-.12-1.57-.24-.21-.1-.47-.26-.72-.5-.12-.11-.22-.23-.31-.34Z"/>
      <path class="cls-4" d="M19.17,22.69c-.1.05-.14.16-.1.23.04.08.17.12.28.05.22-.14.61-.33,1.11-.36.03,0,.13,0,.27,0,.26.02.74.09,1.33.46.11.08.24.1.29.05.07-.06.06-.24-.09-.39-.13-.13-.65-.58-1.45-.62-.91-.05-1.52.48-1.64.59Z"/>
      <path class="cls-4" d="M35.34,22.86c-.08.02-.16,0-.21-.07-.05-.08-.03-.19.05-.26.07-.06.18-.14.32-.22.48-.24.98-.14,1.42-.06.21.04.49.11.81.25.05.01.43.14.46.38,0,.06,0,.16-.06.19-.05.02-.11-.01-.16-.04-.09-.06-.23-.13-.42-.21-.13-.06-.32-.12-.55-.17-.12-.02-.26-.05-.45-.04-.23,0-.34.06-.66.14-.13.03-.32.07-.55.11Z"/>
      <ellipse class="cls-6" cx="24.21" cy="38.47" rx=".47" ry=".53"/>
      <path class="cls-6" d="M33.69,37.43c-.19.04-.35.23-.35.23h0c-.14.3-.06.61.14.75.2.13.46.03.48.02.04-.02.23-.1.31-.31.06-.14.04-.27.03-.33,0-.06-.02-.13-.07-.2-.1-.15-.32-.21-.54-.16Z"/>
      <ellipse class="cls-8" cx="36.66" cy="30.32" rx="6.06" ry="4.62" transform="translate(1.84 62.73) rotate(-82.55)"/>
      <ellipse class="cls-8" cx="20.71" cy="30.32" rx="6.06" ry="4.62" transform="translate(-10.82 49.13) rotate(-86.49)"/>
      <ellipse class="cls-1" cx="21.73" cy="30.47" rx="3.41" ry="4.65" transform="translate(-1.89 1.44) rotate(-3.64)"/>
      <ellipse class="cls-1" cx="35.32" cy="30.69" rx="4.65" ry="3.41" transform="translate(2.45 63.98) rotate(-86.36)"/>
    </g>
  </g>
  <g>
    <path class="cls-10" d="M19.52,55.79c.07-.32.14-.65.2-.99-1.23.14-2.52.18-3.21.2.35.45.96.82,1.82,1.1.33.11.68.19,1.06.27.05-.19.09-.39.13-.58Z"/>
    <path class="cls-10" d="M18.18,48.48c-.02.32-.05.65-.09.97.67,0,1.35-.05,2.05-.14,0-.24-.01-.48-.03-.71,0-.08,0-.16-.01-.24-.71.06-1.39.09-1.92.1Z"/>
    <path class="cls-10" d="M18.13,46.25s-.03,0-.05,0c.02.17.05.35.06.52.02.22.03.45.04.67.6,0,1.21-.05,1.82-.12-.03-.3-.07-.6-.11-.89-.58-.05-1.16-.11-1.77-.18Z"/>
    <path class="cls-10" d="M16.63,53.94c1.27.01,2.43-.13,3.27-.28.01-.1.03-.2.04-.3.01-.09.02-.19.03-.29.02-.16.03-.32.05-.48-1.08.11-2.17.14-2.82.16-.21.51-.42.91-.57,1.19Z"/>
    <path class="cls-10" d="M17.59,51.71c.95,0,1.82-.1,2.52-.21.02-.37.03-.73.04-1.07,0-.02,0-.03,0-.05-.83.07-1.63.1-2.23.12-.09.41-.2.82-.33,1.21Z"/>
    <path class="cls-10" d="M20.03,47.48c-.62.07-1.23.11-1.83.12,0,.24,0,.49,0,.73.52-.02,1.19-.05,1.9-.1-.02-.22-.03-.43-.05-.63,0-.04,0-.08-.01-.12Z"/>
    <path class="cls-10" d="M17.95,50.34c.6-.02,1.39-.05,2.2-.12,0-.26,0-.51,0-.76-.7.09-1.39.13-2.07.14-.03.24-.08.48-.13.74Z"/>
    <path class="cls-10" d="M17.26,52.6c.66-.02,1.72-.06,2.77-.16.02-.26.04-.53.06-.79-.71.11-1.6.2-2.56.2-.08.25-.17.49-.27.74Z"/>
    <path class="cls-10" d="M19.83,54.16h0c.02-.11.03-.22.05-.33-.87.15-2.04.3-3.33.27-.14.24-.24.4-.28.46.04.1.08.2.14.29.66-.01,2.05-.05,3.34-.2.03-.16.05-.32.08-.48Z"/>
    <path class="cls-10" d="M24.22,46.7c-.75-.02-1.54-.06-2.33-.11-.55-.04-1.09-.08-1.6-.12-.07,0-.14-.01-.21-.02.05.34.09.7.13,1.06,1.19-.04,3.95-.09,5.97.21-.07-.34-.15-.67-.24-1-.56,0-1.13,0-1.71-.03Z"/>
    <path class="cls-10" d="M19.33,57.21c-.15.53-.31,1.06-.49,1.58.33.11,1.73.58,3.54.83,1.62.23,3.1.23,4.42,0,0-.05.01-.14.02-.26-.61-.33-2.76-1.38-7.41-2.41-.02.09-.05.17-.07.26Z"/>
    <path class="cls-10" d="M20.28,48.69c.03.54.04,1.1.03,1.67,1.56-.04,4.35-.05,6.32.29-.05-.48-.11-.92-.18-1.33-.89-.22-2.83-.58-6.17-.62Z"/>
    <path class="cls-10" d="M20.15,53.01c1.39.08,4.61.31,6.73.89-.02-.52-.05-1.05-.09-1.58-.92-.24-2.96-.64-6.52-.7-.03.45-.07.92-.12,1.39Z"/>
    <path class="cls-10" d="M19.7,55.74c1.23.22,4.95.92,7.2,1.84.02-.66.03-1.32.02-1.96-.93-.35-3.02-.98-6.94-1.37-.08.52-.18,1.01-.28,1.49Z"/>
    <path class="cls-10" d="M21.98,46.44c.74.05,1.46.08,2.16.1.27-2.25.45-5.5-.2-8.41-.57.07-1.18.13-1.92.21.27,2.04.48,5.07-.04,8.1Z"/>
    <path class="cls-10" d="M37.77,35.43c-.36.16-.73.3-1.09.42-.28.1-.61.2-.97.3.37,2.4.63,5.98-.12,9.59.83-.16,1.65-.34,2.43-.55.29-1.87.63-5.56-.25-9.76Z"/>
    <path class="cls-10" d="M14.25,39.02c-.37.03-.75.05-1.12.08-.03,0-.11,0-.18.14-.24.54.2,2.2.63,2.65.37.39.42,1.8.4,2.92,0,.38.28.71.69.78.22.04.47.08.77.13.04-1.78-.05-4.35-.66-6.74l-.53.04Z"/>
    <path class="cls-10" d="M46.58,36.76c-.1-.13-.24-.25-.39-.37-.48-.4-1.02-.85-.27-1.83.22-.28.27-.56.17-.83-.22-.55-1.07-.96-1.66-1.13.4,2.19.9,6.36,0,10.56,2.34-.96,2.52-1.61,2.37-2.16-.21-.76.06-1.2.28-1.55.1-.17.2-.32.21-.46.04-.46-.26-1.67-.69-2.22Z"/>
    <path class="cls-10" d="M41.34,33.53c-.12.07-.25.15-.38.22-.4.23-.81.48-1.26.72.4,2.12.94,6.19.16,10.2.63-.18,1.18-.35,1.65-.5.32-1.94.93-6.74-.17-10.65Z"/>
    <path class="cls-10" d="M28.9,37.49c-.59.09-1.22.18-1.85.26.3,2.2.52,5.48-.12,8.82.71,0,1.41-.03,2.06-.07.09,0,.19,0,.28-.01.26-2.12.4-5.37-.37-9Z"/>
    <path class="cls-10" d="M32.64,36.86c-.55.11-1.12.21-1.7.31.39,2.31.72,5.76.13,9.2.58-.05,1.14-.11,1.69-.18.3-2.06.66-5.94-.12-9.32Z"/>
    <path class="cls-10" d="M18.23,46.11c.69.08,1.34.15,1.98.2.2-1.82.33-4.62-.21-7.76-.65.06-1.35.13-2.15.2.33,1.81.65,4.53.38,7.37Z"/>
    <path class="cls-10" d="M44.25,32.55s-.1-.02-.14-.03c-.75-.11-1.63.35-2.62.92,1.11,3.89.53,8.67.2,10.68,1.02-.32,1.86-.62,2.55-.89.94-4.26.42-8.5.01-10.68Z"/>
    <path class="cls-10" d="M35.55,36.2c-.76.21-1.68.42-2.74.63.78,3.38.43,7.25.13,9.33.85-.11,1.68-.24,2.48-.39.76-3.6.5-7.17.13-9.58Z"/>
    <path class="cls-10" d="M24.31,46.55c.84.02,1.67.03,2.45.02.64-3.32.42-6.6.12-8.8-.88.12-1.81.23-2.77.34.65,2.92.47,6.18.2,8.43Z"/>
    <path class="cls-10" d="M18.07,46.09c.27-2.82-.05-5.53-.38-7.33-.87.07-1.8.15-2.75.22.6,2.41.69,4.99.65,6.77.79.13,1.62.24,2.47.34Z"/>
    <path class="cls-10" d="M39.55,34.56c-.56.31-1.1.57-1.62.8.89,4.19.56,7.88.27,9.79.31-.08.63-.17.95-.27.18-.05.36-.1.54-.15.79-3.98.27-8.03-.13-10.17Z"/>
    <path class="cls-10" d="M30.78,37.19c-.55.09-1.13.18-1.72.27.77,3.63.63,6.89.38,9.02.52-.03,1-.06,1.46-.11.59-3.43.27-6.87-.12-9.18Z"/>
    <path class="cls-10" d="M20.38,46.32c.46.04.94.08,1.44.11.52-3.01.32-6.04.04-8.07-.56.06-1.12.11-1.69.17.54,3.16.41,5.97.21,7.79Z"/>
    <path class="cls-10" d="M20.21,47.66c.03.28.05.57.06.88,3.28.04,5.23.39,6.15.61-.07-.42-.14-.85-.23-1.27-2.01-.31-4.79-.26-5.99-.22Z"/>
    <path class="cls-10" d="M20.31,50.5c0,.31-.02.63-.03.96,3.51.06,5.54.45,6.5.69-.03-.46-.08-.92-.13-1.36-2.03-.36-5.05-.33-6.34-.3Z"/>
    <path class="cls-10" d="M26.88,54.06c-2.1-.59-5.36-.82-6.75-.9-.04.33-.08.64-.13.94,3.84.38,5.95,1,6.91,1.36,0-.47-.01-.93-.03-1.39Z"/>
    <path class="cls-10" d="M19.44,56.81c4.42.98,6.57,1.95,7.38,2.39.02-.29.04-.79.07-1.45-2.22-.93-5.99-1.64-7.23-1.86-.07.3-.14.61-.22.92Z"/>
  </g>
</svg>