<?xml version="1.0" encoding="UTF-8"?>
<svg xmlns="http://www.w3.org/2000/svg" xmlns:xlink="http://www.w3.org/1999/xlink" viewBox="0 0 55.7 70.81">
  <defs>
    <style>
      .cls-1, .cls-2, .cls-3 {
        mix-blend-mode: multiply;
      }

      .cls-1, .cls-3, .cls-4 {
        opacity: .5;
      }

      .cls-1, .cls-5 {
        fill: #5e2d87;
      }

      .cls-2 {
        opacity: .6;
      }

      .cls-2, .cls-6 {
        fill: #eadac0;
      }

      .cls-3, .cls-7 {
        fill: #309737;
      }

      .cls-8 {
        fill: #010101;
      }

      .cls-9 {
        opacity: .4;
      }

      .cls-9, .cls-4 {
        fill: #fff;
        mix-blend-mode: overlay;
      }

      .cls-10 {
        fill: url(#Gradiente_sem_nome_3);
      }

      .cls-11 {
        isolation: isolate;
      }

      .cls-12 {
        fill: #926cac;
      }

      .cls-13 {
        fill: #353039;
      }

      .cls-14 {
        opacity: .31;
      }

      .cls-15 {
        fill: #dc9bc3;
      }

      .cls-16 {
        fill: #8a63a5;
      }

      .cls-17 {
        fill: #ececed;
        stroke: #0e0915;
        stroke-miterlimit: 10;
        stroke-width: .25px;
      }

      .cls-18 {
        fill: #252128;
      }

      .cls-19 {
        fill: #422774;
      }
    </style>
    <linearGradient id="Gradiente_sem_nome_3" data-name="Gradiente sem nome 3" x1="15.2" y1="44.37" x2="15.2" y2="5.36" gradientTransform="translate(12.3 9.78) rotate(-.05) scale(.97 .98) skewX(-.1)" gradientUnits="userSpaceOnUse">
      <stop offset="0" stop-color="#c5b1d4"/>
      <stop offset=".43" stop-color="#c3afd2"/>
      <stop offset=".59" stop-color="#bea8ce"/>
      <stop offset=".7" stop-color="#b49cc7"/>
      <stop offset=".79" stop-color="#a78bbe"/>
      <stop offset=".87" stop-color="#9675b1"/>
      <stop offset=".94" stop-color="#815ba1"/>
      <stop offset="1" stop-color="#683b8e"/>
      <stop offset="1" stop-color="#673a8e"/>
    </linearGradient>
  </defs>
  <g class="cls-11">
    <g id="Camada_1" data-name="Camada 1">
      <path class="cls-16" d="M17.19,49.79h9.42c-.25,1.2-.49,2.4-.74,3.61-.14,1.79-1.55,3.23-3.32,3.4-1.75.17-3.4-.94-3.9-2.64-.49-1.46-.97-2.91-1.46-4.37Z"/>
      <path class="cls-16" d="M26.61,49.79h9.42c-.25,1.2-.49,2.4-.74,3.61-.14,1.79-1.55,3.23-3.32,3.4-1.75.17-3.4-.94-3.9-2.64-.49-1.46-.97-2.91-1.46-4.37Z"/>
      <path class="cls-16" d="M11.82,31.3l.17,9.42c-1.21-.22-2.41-.45-3.62-.67-1.79-.1-3.26-1.49-3.46-3.26-.2-1.75.88-3.41,2.57-3.95,1.45-.51,2.9-1.03,4.34-1.54Z"/>
      <path class="cls-16" d="M42.14,40.72l-.15-9.42c1.21.23,2.41.46,3.62.68,1.79.11,3.25,1.5,3.45,3.27.2,1.75-.89,3.41-2.58,3.94-1.45.51-2.9,1.02-4.35,1.53Z"/>
      <path class="cls-10" d="M19.06,18.6c-.35.21-1.14-.29-1.45-.08-.34.23-.57.6-.87.84-.32.25-.73.4-1.02.65-.31.27-.45.71-.72.98-.3.3-.32.81-.56,1.09-.29.32-.47.66-.69.93-.25.32-.29.74-.51,1.05-.23.33-1.47-.02-1.67.31-.21.34-.47.68-.65,1.02s.67,1.23.5,1.57-1.12.34-1.28.7.28.97.12,1.33c-.14.34-.38.62-.51.93s-1.1.34-1.22.67.48.92.38,1.26.34.79.26,1.14c-.07.33-.85.53-.91.89-.06.4.43.85.4,1.23-.03.41.1.78.09,1.15,0,.42.17.76.19,1.13.02.43-.59.85-.54,1.2.05.32.51.58.59.95.07.33-.75.88-.66,1.24.09.33.71.53.82.88.11.33,0,.74.14,1.08.13.34.67.49.8.8.15.33.67.44.82.74.17.33-.31.97-.14,1.25.19.32.15.76.33,1.03.17.27.36.66.63,1.02.22.28,1.1.05,1.38.36.25.27.34.69.64.97.28.25.81.15,1.14.4.3.23.03,1.29.37,1.5.32.2.64.44.96.61.34.17.62.56.95.69.36.15.79.19,1.12.3.37.12.84-.09,1.18-.01.39.09.8-.05,1.13,0,.43.06.83-.28,1.12-.26.39.03.72,1.04,1.13,1.06s.83-1.01,1.24-.99.77.95,1.18.95.81.17,1.21.16c.4,0,.75-1.16,1.13-1.17s.86,1,1.24.97.68-1.19,1.07-1.23.93,1.14,1.31,1.09.59-1.45.97-1.51.74-.21,1.12-.28c.39-.07,1.06,1.28,1.43,1.2.3-.06.69-.21,1.02-.33.29-.1.41-.79.73-.93.28-.13.29-.82.6-.99.28-.15.97.41,1.27.23.33-.2.48-.7.77-.92.32-.23.66-.41.94-.65.3-.26.09-1.01.35-1.27.28-.28,1.35.2,1.59-.08.26-.31.61-.57.82-.86.25-.34.59-.65.76-.93.19-.35-.6-1.23-.43-1.56.18-.36.53-.61.67-.96.15-.37,1.16-.42,1.28-.77.13-.38-.61-1.03-.51-1.39.11-.39-.22-.84-.15-1.2.08-.4,1.22-.6,1.27-.96.05-.41-.78-.88-.76-1.24.02-.42.57-.79.56-1.14-.01-.46.14-.88.1-1.18-.04-.35-.29-.67-.34-1.01-.06-.35.1-.75.03-1.07-.08-.36-.1-.74-.18-1.04-.11-.39-.72-.58-.81-.83-.13-.36.14-.87,0-1.22s-.27-.72-.41-1.07c-.15-.36-1.16-.34-1.31-.67-.16-.36-.07-.8-.23-1.13-.17-.35-.55-.56-.72-.88-.19-.35.42-1.12.24-1.43-.16-.25-.45-.5-.67-.83-.18-.27-.04-.81-.26-1.12-.19-.27-1.2.03-1.42-.26-.21-.27-.65-.33-.89-.61-.23-.26-.16-.77-.42-1.03-.18-.18.04-1.01-.33-1.35-.25-.23-.94-.04-1.28-.31-.28-.23-.8-.16-1.13-.4-.3-.21-.51-.57-.86-.78-.32-.2-.59-.49-.94-.68-.33-.18-.82,0-1.19-.17s-.65-.36-1.02-.49-.65-.41-1.04-.51-.66-.59-1.05-.66-.8.05-1.19.02-.78.62-1.18.61c-.37,0-.78-1.34-1.13-1.31-.37.03-.65,1.02-1,1.07-.37.05-.83-.43-1.17-.36-.37.08-.84-.15-1.18-.05-.36.11-.72.32-1.05.45-.36.14-.33,1.15-.65,1.3-.36.16-1.18-.66-1.47-.5-.37.2-.04,1.5-.3,1.66Z"/>
      <g class="cls-14">
        <path class="cls-12" d="M19.15,18c-.35.21-.3.98-.61,1.2-.34.23-1.04-.07-1.34.16-.32.25-.16,1.05-.44,1.3-.31.27-1.47-.39-1.74-.12-.3.3-.54.66-.79.94-.29.32.1,1.18-.12,1.45-.25.32-1.02.23-1.24.54-.23.33-.28.79-.48,1.11-.21.34.25,1.04.07,1.38s-.61.55-.77.9-.44.65-.6,1.01-.19.76-.35,1.12c-.14.34-.65.5-.78.82s-.58.55-.7.87-.49.61-.59.95.55.89.47,1.24c-.07.33-.53.61-.59.98-.06.4.65.88.61,1.26-.03.41-.27.77-.28,1.14,0,.42-.65.83-.63,1.2.02.43.17.84.21,1.19.05.32,0,.72.07,1.09.07.33,1.15.43,1.25.79.09.33.04.68.15,1.03.11.33.33.6.46.94.13.34-.26.86-.13,1.17.15.33-.13.87.02,1.17.17.33.92.32,1.08.61.19.32.6.46.78.73.17.27.5.48.77.83.22.28-.47,1.37-.18,1.68.25.27,1.05.06,1.36.33.28.25.27.89.6,1.14.3.23.82.2,1.17.42.32.2.36.94.68,1.1.34.17.96-.21,1.29-.08.36.15.82-.07,1.16.03.37.12.6.68.94.76.39.09.75.33,1.08.37.43.06.88-.77,1.18-.75.39.03.77.24,1.17.26s.76.6,1.16.61.8-.75,1.2-.75.79.79,1.2.78c.4,0,.78-.35,1.16-.37s.78-.14,1.16-.17.83.4,1.21.36.82.12,1.2.07.82.05,1.2,0,.8-.13,1.17-.2c.39-.07.61-1.01.98-1.09.3-.06.64-.02.97-.14.29-.1.45-.54.77-.69.28-.13.42-.51.73-.68.28-.15.6-.19.89-.37.33-.2.52-.52.82-.73.32-.23.86-.1,1.14-.34.3-.26,1.14.06,1.4-.2.28-.28.57-.6.8-.87.26-.31-.44-1.35-.24-1.63.25-.34,1.27-.11,1.44-.39.19-.35.02-.9.18-1.23.18-.36.34-.71.48-1.06.15-.37-.3-.94-.18-1.29.13-.38.61-.6.71-.96.11-.39.67-.65.74-1.01.08-.4-.52-.88-.47-1.25.05-.41.11-.75.13-1.11.02-.42.31-.78.3-1.12-.01-.46-.37-.79-.41-1.09-.04-.35.43-.75.38-1.08-.06-.35-.11-.69-.19-1.01-.08-.36.09-.77,0-1.07-.11-.39-.23-.74-.32-1-.13-.36-.39-.68-.52-1.02s-.98-.43-1.12-.77c-.15-.36-.19-.74-.34-1.07-.16-.36.39-1.02.24-1.35-.17-.35-1.03-.33-1.2-.65-.19-.35.56-1.21.37-1.52-.16-.25-1.31.05-1.53-.28-.18-.27-.44-.49-.66-.8-.19-.27-.25-.63-.48-.92-.21-.27-.09-.81-.34-1.08-.23-.26-.79-.19-1.05-.45-.18-.18.18-1.14-.2-1.48-.25-.23-.97,0-1.31-.27-.28-.23-.4-.71-.74-.95-.3-.21-.97.12-1.32-.09-.32-.2-.55-.52-.9-.71-.33-.18-.44-.85-.8-1s-1.01.52-1.38.38-.56-.7-.94-.8-.74-.15-1.13-.21-.74-.18-1.14-.21-.76.4-1.16.4c-.37,0-.76-1.1-1.12-1.08-.37.03-.67.77-1.02.82-.37.05-.63.49-.97.57-.37.08-.74-.04-1.08.06-.36.11-.6.43-.93.56-.36.14-.89-.25-1.2-.1-.36.16-.91-.11-1.2.05-.37.2-.54.66-.8.82Z"/>
      </g>
      <g>
        <path class="cls-18" d="M24.33,42.29c-.1-.19-.13-.36-.08-.4.06-.05.23.04.41.22.23.19.77.58,1.56.7,1.06.16,1.86-.27,2.11-.42.03-.02.07-.05.1-.07.02-.02.12-.14.29-.14.08,0,.14.03.17.05-.06.12-.16.29-.32.46-.05.05-.23.29-.55.42-.26.1-.63.21-1.09.24-.7.05-1.25-.12-1.57-.24-.21-.1-.47-.26-.72-.5-.12-.11-.22-.23-.31-.34Z"/>
        <path class="cls-13" d="M17.27,26.85c-.1.05-.14.16-.1.23.04.08.17.12.28.05.22-.14.61-.33,1.11-.36.03,0,.13,0,.27,0,.26.02.74.09,1.33.46.11.08.24.1.29.05.07-.06.06-.24-.09-.39-.13-.13-.65-.58-1.45-.62-.91-.05-1.52.48-1.64.59Z"/>
        <path class="cls-13" d="M33.44,27.01c-.08.02-.16,0-.21-.07-.05-.08-.03-.19.05-.26.07-.06.18-.14.32-.22.48-.24.98-.14,1.42-.06.21.04.49.11.81.25.05.01.43.14.46.38,0,.06,0,.16-.06.19-.05.02-.11-.01-.16-.04-.09-.06-.23-.13-.42-.21-.13-.06-.32-.12-.55-.17-.12-.02-.26-.05-.45-.04-.23,0-.34.06-.66.14-.13.03-.32.07-.55.11Z"/>
        <ellipse class="cls-15" cx="22.31" cy="42.63" rx=".47" ry=".53"/>
        <path class="cls-15" d="M31.79,41.58c-.19.04-.35.23-.35.23h0c-.14.3-.06.61.14.75.2.13.46.03.48.02.04-.02.23-.1.31-.31.06-.14.04-.27.03-.33,0-.06-.02-.13-.07-.2-.1-.15-.32-.21-.54-.16Z"/>
        <ellipse class="cls-17" cx="34.76" cy="34.47" rx="6.06" ry="4.62" transform="translate(-3.93 64.46) rotate(-82.55)"/>
        <ellipse class="cls-17" cx="18.81" cy="34.47" rx="6.06" ry="4.62" transform="translate(-16.75 51.14) rotate(-86.49)"/>
        <ellipse class="cls-8" cx="19.83" cy="34.63" rx="3.41" ry="4.65" transform="translate(-2.16 1.33) rotate(-3.64)"/>
        <ellipse class="cls-8" cx="33.42" cy="34.84" rx="4.65" ry="3.41" transform="translate(-3.48 65.98) rotate(-86.36)"/>
      </g>
      <g>
        <g>
          <path class="cls-7" d="M27.68,27.02c9.8,0,16.76-4.59,19.25-6.52.28-.22.09-.67-.26-.62-3.68.55-6.59.24-6.59.24-1.31-5.26-3.47-8.87-3.9-9.55-.05-.08-.12-.14-.21-.19-.61-.31-3.34-1.54-8.3-1.54s-7.69,1.23-8.3,1.54c-.09.04-.15.11-.21.19-.43.69-2.59,4.29-3.9,9.55,0,0-2.91.31-6.59-.24-.35-.05-.54.4-.26.62,2.49,1.93,9.46,6.52,19.25,6.52Z"/>
          <g>
            <path class="cls-3" d="M34.63,14.71c0,.2-.16.36-.36.36s-.36-.16-.36-.36.16-.36.36-.36.36.16.36.36Z"/>
            <path class="cls-3" d="M32.58,17.23c0,.16-.13.3-.3.3s-.3-.13-.3-.3.13-.3.3-.3.3.13.3.3Z"/>
            <circle class="cls-3" cx="32.58" cy="15.56" r=".24"/>
            <path class="cls-3" d="M31.91,18.63c0,.1-.08.18-.18.18s-.18-.08-.18-.18.08-.18.18-.18.18.08.18.18Z"/>
            <circle class="cls-3" cx="34.04" cy="16.51" r=".24"/>
            <path class="cls-4" d="M33.11,14.71c0,.07-.05.12-.12.12s-.12-.05-.12-.12.05-.12.12-.12.12.05.12.12Z"/>
            <path class="cls-4" d="M31.67,16.75c0,.1-.08.18-.18.18s-.18-.08-.18-.18.08-.18.18-.18.18.08.18.18Z"/>
            <circle class="cls-4" cx="33.59" cy="18.22" r=".18"/>
            <polygon class="cls-4" points="35.23 13.39 35.29 12.86 35.35 13.39 35.88 13.45 35.35 13.51 35.29 14.05 35.23 13.51 34.69 13.45 35.23 13.39"/>
            <polygon class="cls-4" points="29.9 18.74 29.98 18.07 30.05 18.74 30.72 18.81 30.05 18.89 29.98 19.55 29.9 18.89 29.24 18.81 29.9 18.74"/>
            <path class="cls-3" d="M20.55,14.05c0,.2.16.36.36.36s.36-.16.36-.36-.16-.36-.36-.36-.36.16-.36.36Z"/>
            <path class="cls-3" d="M21.89,17.47c0,.16.13.3.3.3s.3-.13.3-.3-.13-.3-.3-.3-.3.13-.3.3Z"/>
            <circle class="cls-3" cx="22.18" cy="14.39" r=".24"/>
            <circle class="cls-3" cx="22.84" cy="19.25" r=".18"/>
            <circle class="cls-3" cx="21.14" cy="15.85" r=".24"/>
            <path class="cls-4" d="M21.95,13.21c0,.07.05.12.12.12s.12-.05.12-.12-.05-.12-.12-.12-.12.05-.12.12Z"/>
            <circle class="cls-4" cx="23.51" cy="17.65" r=".18"/>
            <circle class="cls-4" cx="20.9" cy="18.6" r=".18"/>
            <polygon class="cls-4" points="19.95 12.73 19.89 12.2 19.83 12.73 19.3 12.79 19.83 12.85 19.89 13.38 19.95 12.85 20.49 12.79 19.95 12.73"/>
            <polygon class="cls-4" points="24.08 20.22 24.01 19.55 23.93 20.22 23.26 20.29 23.93 20.37 24.01 21.03 24.08 20.37 24.75 20.29 24.08 20.22"/>
          </g>
          <path class="cls-3" d="M27.68,21.22c4,0,8.94-.92,8.94-.92,0,0-4.32,2.21-8.94,2.21s-8.94-2.21-8.94-2.21c0,0,4.94.92,8.94.92Z"/>
          <path class="cls-3" d="M16.45,20.7c.15.07.32.11.49.11.66,0,1.19-.53,1.19-1.19s-.53-1.19-1.19-1.19c-.1,0-.19.02-.28.04-.13-.48-.29-.96-.47-1.43-.33.94-.64,1.97-.91,3.07,0,0-1.86.2-4.48,0,1.38,1.42,4.07,1.69,5.66.59ZM15.78,19.86s0,.01,0,.02c-.1-.04-.19-.08-.29-.12.1.03.19.07.29.1Z"/>
        </g>
        <g>
          <path class="cls-5" d="M9.62,18.41c2.21-.02,4.87.39,6.77,1.57-1.85,1.75-6.03,1.06-6.77-1.57Z"/>
          <path class="cls-19" d="M9.62,18.41c1.61.48,3.37.96,5.02,1.23.57.11,1.14.19,1.76.35-1.13.55-2.43.6-3.65.34-1.2-.29-2.4-.87-3.12-1.92h0Z"/>
          <path class="cls-1" d="M12.46,18.63c.45.2.89.43,1.34.65.34.16.89.3,1.19.56.29.24.44.47.69.65.26-.14.5-.3.71-.5-1.13-.7-2.52-1.13-3.93-1.36Z"/>
          <path class="cls-5" d="M8.29,16.02c2.85-1.21,7.49.63,8.23,3.77-1.4-.36-2.79-.97-4.12-1.53-1.43-.6-2.89-1.26-4.11-2.24Z"/>
          <path class="cls-19" d="M8.29,16.02c3.07-.25,6.65,1,8.23,3.77-2.62-1.68-5.36-2.54-8.23-3.77h0Z"/>
          <path class="cls-1" d="M15.07,19.33c.48.17.97.34,1.46.46-.38-1.63-1.82-2.9-3.51-3.59.38,1.19,1.06,2.39,2.05,3.13Z"/>
          <path class="cls-5" d="M14.09,11.14c.36,1.39.56,2.79,1.12,4.12.61,1.44,1.25,2.96,1.32,4.54-2.84-1.41-5.15-6.08-2.44-8.66Z"/>
          <path class="cls-19" d="M14.09,11.14c-.32,3.24,1.43,5.68,2.44,8.66-2.29-2.12-4.29-5.66-2.44-8.66h0Z"/>
          <g>
            <circle class="cls-6" cx="16.52" cy="19.2" r="1.19"/>
            <path class="cls-2" d="M17.27,18.29c.01.07.02.14.02.21,0,.66-.53,1.19-1.19,1.19-.29,0-.54-.1-.75-.27.1.56.58.98,1.17.98.66,0,1.19-.53,1.19-1.19,0-.37-.17-.7-.44-.92Z"/>
            <circle class="cls-9" cx="16.52" cy="18.41" r=".28"/>
            <circle class="cls-9" cx="15.93" cy="18.55" r=".2"/>
          </g>
        </g>
      </g>
    </g>
  </g>
</svg>