<?xml version="1.0" encoding="UTF-8"?>
<svg xmlns="http://www.w3.org/2000/svg" xmlns:xlink="http://www.w3.org/1999/xlink" viewBox="0 0 55.7 70.81">
  <defs>
    <style>
      .cls-1, .cls-2, .cls-3, .cls-4 {
        opacity: .5;
      }

      .cls-1, .cls-2, .cls-4 {
        mix-blend-mode: multiply;
      }

      .cls-1, .cls-5 {
        fill: #5e2d87;
      }

      .cls-2, .cls-6 {
        fill: #309737;
      }

      .cls-7 {
        fill: #010101;
      }

      .cls-8 {
        opacity: .4;
      }

      .cls-8, .cls-3, .cls-9 {
        fill: #fff;
        mix-blend-mode: overlay;
      }

      .cls-9 {
        opacity: .6;
      }

      .cls-10 {
        fill: url(#Gradiente_sem_nome_3);
      }

      .cls-4, .cls-11 {
        fill: #ffd704;
      }

      .cls-12 {
        isolation: isolate;
      }

      .cls-13 {
        fill: #926cac;
      }

      .cls-14 {
        fill: #353039;
      }

      .cls-15 {
        opacity: .31;
      }

      .cls-16 {
        fill: #dc9bc3;
      }

      .cls-17 {
        fill: #8a63a5;
      }

      .cls-18 {
        fill: #ececed;
        stroke: #0e0915;
        stroke-miterlimit: 10;
        stroke-width: .25px;
      }

      .cls-19 {
        fill: #252128;
      }
    </style>
    <linearGradient id="Gradiente_sem_nome_3" data-name="Gradiente sem nome 3" x1="17.35" y1="44.44" x2="17.35" y2="5.43" gradientTransform="translate(10.22 9.72) rotate(-.05) scale(.97 .98) skewX(-.1)" gradientUnits="userSpaceOnUse">
      <stop offset="0" stop-color="#c5b1d4"/>
      <stop offset=".43" stop-color="#c3afd2"/>
      <stop offset=".59" stop-color="#bea8ce"/>
      <stop offset=".7" stop-color="#b49cc7"/>
      <stop offset=".79" stop-color="#a78bbe"/>
      <stop offset=".87" stop-color="#9675b1"/>
      <stop offset=".94" stop-color="#815ba1"/>
      <stop offset="1" stop-color="#683b8e"/>
      <stop offset="1" stop-color="#673a8e"/>
    </linearGradient>
  </defs>
  <g class="cls-12">
    <g id="Camada_1" data-name="Camada 1">
      <path class="cls-17" d="M17.19,49.79h9.42c-.25,1.2-.49,2.4-.74,3.61-.14,1.79-1.55,3.23-3.32,3.4-1.75.17-3.4-.94-3.9-2.64-.49-1.46-.97-2.91-1.46-4.37Z"/>
      <path class="cls-17" d="M26.61,49.79h9.42c-.25,1.2-.49,2.4-.74,3.61-.14,1.79-1.55,3.23-3.32,3.4-1.75.17-3.4-.94-3.9-2.64-.49-1.46-.97-2.91-1.46-4.37Z"/>
      <path class="cls-17" d="M11.82,31.3l.17,9.42c-1.21-.22-2.41-.45-3.62-.67-1.79-.1-3.26-1.49-3.46-3.26-.2-1.75.88-3.41,2.57-3.95,1.45-.51,2.9-1.03,4.34-1.54Z"/>
      <path class="cls-17" d="M42.14,40.72l-.15-9.42c1.21.23,2.41.46,3.62.68,1.79.11,3.25,1.5,3.45,3.27.2,1.75-.89,3.41-2.58,3.94-1.45.51-2.9,1.02-4.35,1.53Z"/>
      <path class="cls-10" d="M19.06,18.6c-.35.21-1.14-.29-1.45-.08-.34.23-.57.6-.87.84-.32.25-.73.4-1.02.65-.31.27-.45.71-.72.98-.3.3-.32.81-.56,1.09-.29.32-.47.66-.69.93-.25.32-.29.74-.51,1.05-.23.33-1.47-.02-1.67.31-.21.34-.47.68-.65,1.02s.67,1.23.5,1.57-1.12.34-1.28.7.28.97.12,1.33c-.14.34-.38.62-.51.93s-1.1.34-1.22.67.48.92.38,1.26.34.79.26,1.14c-.07.33-.85.53-.91.89-.06.4.43.85.4,1.23-.03.41.1.78.09,1.15,0,.42.17.76.19,1.13.02.43-.59.85-.54,1.2.05.32.51.58.59.95.07.33-.75.88-.66,1.24.09.33.71.53.82.88.11.33,0,.74.14,1.08.13.34.67.49.8.8.15.33.67.44.82.74.17.33-.31.97-.14,1.25.19.32.15.76.33,1.03.17.27.36.66.63,1.02.22.28,1.1.05,1.38.36.25.27.34.69.64.97.28.25.81.15,1.14.4.3.23.03,1.29.37,1.5.32.2.64.44.96.61.34.17.62.56.95.69.36.15.79.19,1.12.3.37.12.84-.09,1.18-.01.39.09.8-.05,1.13,0,.43.06.83-.28,1.12-.26.39.03.72,1.04,1.13,1.06s.83-1.01,1.24-.99.77.95,1.18.95.81.17,1.21.16c.4,0,.75-1.16,1.13-1.17s.86,1,1.24.97.68-1.19,1.07-1.23.93,1.14,1.31,1.09.59-1.45.97-1.51.74-.21,1.12-.28c.39-.07,1.06,1.28,1.43,1.2.3-.06.69-.21,1.02-.33.29-.1.41-.79.73-.93.28-.13.29-.82.6-.99.28-.15.97.41,1.27.23.33-.2.48-.7.77-.92.32-.23.66-.41.94-.65.3-.26.09-1.01.35-1.27.28-.28,1.35.2,1.59-.08.26-.31.61-.57.82-.86.25-.34.59-.65.76-.93.19-.35-.6-1.23-.43-1.56.18-.36.53-.61.67-.96.15-.37,1.16-.42,1.28-.77.13-.38-.61-1.03-.51-1.39.11-.39-.22-.84-.15-1.2.08-.4,1.22-.6,1.27-.96.05-.41-.78-.88-.76-1.24.02-.42.57-.79.56-1.14-.01-.46.14-.88.1-1.18-.04-.35-.29-.67-.34-1.01-.06-.35.1-.75.03-1.07-.08-.36-.1-.74-.18-1.04-.11-.39-.72-.58-.81-.83-.13-.36.14-.87,0-1.22s-.27-.72-.41-1.07c-.15-.36-1.16-.34-1.31-.67-.16-.36-.07-.8-.23-1.13-.17-.35-.55-.56-.72-.88-.19-.35.42-1.12.24-1.43-.16-.25-.45-.5-.67-.83-.18-.27-.04-.81-.26-1.12-.19-.27-1.2.03-1.42-.26-.21-.27-.65-.33-.89-.61-.23-.26-.16-.77-.42-1.03-.18-.18.04-1.01-.33-1.35-.25-.23-.94-.04-1.28-.31-.28-.23-.8-.16-1.13-.4-.3-.21-.51-.57-.86-.78-.32-.2-.59-.49-.94-.68-.33-.18-.82,0-1.19-.17s-.65-.36-1.02-.49-.65-.41-1.04-.51-.66-.59-1.05-.66-.8.05-1.19.02-.78.62-1.18.61c-.37,0-.78-1.34-1.13-1.31-.37.03-.65,1.02-1,1.07-.37.05-.83-.43-1.17-.36-.37.08-.84-.15-1.18-.05-.36.11-.72.32-1.05.45-.36.14-.33,1.15-.65,1.3-.36.16-1.18-.66-1.47-.5-.37.2-.04,1.5-.3,1.66Z"/>
      <g class="cls-15">
        <path class="cls-13" d="M19.15,18c-.35.21-.3.98-.61,1.2-.34.23-1.04-.07-1.34.16-.32.25-.16,1.05-.44,1.3-.31.27-1.47-.39-1.74-.12-.3.3-.54.66-.79.94-.29.32.1,1.18-.12,1.45-.25.32-1.02.23-1.24.54-.23.33-.28.79-.48,1.11-.21.34.25,1.04.07,1.38s-.61.55-.77.9-.44.65-.6,1.01-.19.76-.35,1.12c-.14.34-.65.5-.78.82s-.58.55-.7.87-.49.61-.59.95.55.89.47,1.24c-.07.33-.53.61-.59.98-.06.4.65.88.61,1.26-.03.41-.27.77-.28,1.14,0,.42-.65.83-.63,1.2.02.43.17.84.21,1.19.05.32,0,.72.07,1.09.07.33,1.15.43,1.25.79.09.33.04.68.15,1.03.11.33.33.6.46.94.13.34-.26.86-.13,1.17.15.33-.13.87.02,1.17.17.33.92.32,1.08.61.19.32.6.46.78.73.17.27.5.48.77.83.22.28-.47,1.37-.18,1.68.25.27,1.05.06,1.36.33.28.25.27.89.6,1.14.3.23.82.2,1.17.42.32.2.36.94.68,1.1.34.17.96-.21,1.29-.08.36.15.82-.07,1.16.03.37.12.6.68.94.76.39.09.75.33,1.08.37.43.06.88-.77,1.18-.75.39.03.77.24,1.17.26s.76.6,1.16.61.8-.75,1.2-.75.79.79,1.2.78c.4,0,.78-.35,1.16-.37s.78-.14,1.16-.17.83.4,1.21.36.82.12,1.2.07.82.05,1.2,0,.8-.13,1.17-.2c.39-.07.61-1.01.98-1.09.3-.06.64-.02.97-.14.29-.1.45-.54.77-.69.28-.13.42-.51.73-.68.28-.15.6-.19.89-.37.33-.2.52-.52.82-.73.32-.23.86-.1,1.14-.34.3-.26,1.14.06,1.4-.2.28-.28.57-.6.8-.87.26-.31-.44-1.35-.24-1.63.25-.34,1.27-.11,1.44-.39.19-.35.02-.9.18-1.23.18-.36.34-.71.48-1.06.15-.37-.3-.94-.18-1.29.13-.38.61-.6.71-.96.11-.39.67-.65.74-1.01.08-.4-.52-.88-.47-1.25.05-.41.11-.75.13-1.11.02-.42.31-.78.3-1.12-.01-.46-.37-.79-.41-1.09-.04-.35.43-.75.38-1.08-.06-.35-.11-.69-.19-1.01-.08-.36.09-.77,0-1.07-.11-.39-.23-.74-.32-1-.13-.36-.39-.68-.52-1.02s-.98-.43-1.12-.77c-.15-.36-.19-.74-.34-1.07-.16-.36.39-1.02.24-1.35-.17-.35-1.03-.33-1.2-.65-.19-.35.56-1.21.37-1.52-.16-.25-1.31.05-1.53-.28-.18-.27-.44-.49-.66-.8-.19-.27-.25-.63-.48-.92-.21-.27-.09-.81-.34-1.08-.23-.26-.79-.19-1.05-.45-.18-.18.18-1.14-.2-1.48-.25-.23-.97,0-1.31-.27-.28-.23-.4-.71-.74-.95-.3-.21-.97.12-1.32-.09-.32-.2-.55-.52-.9-.71-.33-.18-.44-.85-.8-1s-1.01.52-1.38.38-.56-.7-.94-.8-.74-.15-1.13-.21-.74-.18-1.14-.21-.76.4-1.16.4c-.37,0-.76-1.1-1.12-1.08-.37.03-.67.77-1.02.82-.37.05-.63.49-.97.57-.37.08-.74-.04-1.08.06-.36.11-.6.43-.93.56-.36.14-.89-.25-1.2-.1-.36.16-.91-.11-1.2.05-.37.2-.54.66-.8.82Z"/>
      </g>
      <g>
        <path class="cls-19" d="M24.33,42.29c-.1-.19-.13-.36-.08-.4.06-.05.23.04.41.22.23.19.77.58,1.56.7,1.06.16,1.86-.27,2.11-.42.03-.02.07-.05.1-.07.02-.02.12-.14.29-.14.08,0,.14.03.17.05-.06.12-.16.29-.32.46-.05.05-.23.29-.55.42-.26.1-.63.21-1.09.24-.7.05-1.25-.12-1.57-.24-.21-.1-.47-.26-.72-.5-.12-.11-.22-.23-.31-.34Z"/>
        <path class="cls-14" d="M17.27,26.85c-.1.05-.14.16-.1.23.04.08.17.12.28.05.22-.14.61-.33,1.11-.36.03,0,.13,0,.27,0,.26.02.74.09,1.33.46.11.08.24.1.29.05.07-.06.06-.24-.09-.39-.13-.13-.65-.58-1.45-.62-.91-.05-1.52.48-1.64.59Z"/>
        <path class="cls-14" d="M33.44,27.01c-.08.02-.16,0-.21-.07-.05-.08-.03-.19.05-.26.07-.06.18-.14.32-.22.48-.24.98-.14,1.42-.06.21.04.49.11.81.25.05.01.43.14.46.38,0,.06,0,.16-.06.19-.05.02-.11-.01-.16-.04-.09-.06-.23-.13-.42-.21-.13-.06-.32-.12-.55-.17-.12-.02-.26-.05-.45-.04-.23,0-.34.06-.66.14-.13.03-.32.07-.55.11Z"/>
        <ellipse class="cls-16" cx="22.31" cy="42.63" rx=".47" ry=".53"/>
        <path class="cls-16" d="M31.79,41.58c-.19.04-.35.23-.35.23h0c-.14.3-.06.61.14.75.2.13.46.03.48.02.04-.02.23-.1.31-.31.06-.14.04-.27.03-.33,0-.06-.02-.13-.07-.2-.1-.15-.32-.21-.54-.16Z"/>
        <ellipse class="cls-18" cx="34.76" cy="34.47" rx="6.06" ry="4.62" transform="translate(-3.93 64.46) rotate(-82.55)"/>
        <ellipse class="cls-18" cx="18.81" cy="34.47" rx="6.06" ry="4.62" transform="translate(-16.75 51.14) rotate(-86.49)"/>
        <ellipse class="cls-7" cx="19.83" cy="34.63" rx="3.41" ry="4.65" transform="translate(-2.16 1.33) rotate(-3.64)"/>
        <ellipse class="cls-7" cx="33.42" cy="34.84" rx="4.65" ry="3.41" transform="translate(-3.48 65.98) rotate(-86.36)"/>
      </g>
      <g>
        <path class="cls-5" d="M27.1,21.83h10.63v-1.33c0-8.07,2.06-13.06,2.06-13.06-4.71,0-8.81,5.34-8.81,5.34-1.36-5.38-3.88-7.98-3.88-7.98,0,0-2.52,2.59-3.88,7.98,0,0-4.11-5.34-8.81-5.34,0,0,2.06,4.99,2.06,13.06v1.33h10.63"/>
        <path class="cls-1" d="M34.4,16.26c-2.86,1.23-5.9,2.37-9.06,2.26-2.47-.09-4.5-1.14-6.15-2.96-.83-.91-1.53-1.93-2.22-2.94-.49-.72-1.02-1.32-1.58-1.89.53,2.26,1.08,5.6,1.08,9.77v1.33h21.27v-1.33c0-2.2.15-4.17.38-5.88-1.25.52-2.47,1.12-3.71,1.65Z"/>
        <g>
          <path class="cls-6" d="M38.91,6.96c0,.75.61,1.36,1.36,1.36s1.36-.61,1.36-1.36-.61-1.36-1.36-1.36-1.36.61-1.36,1.36Z"/>
          <path class="cls-2" d="M39.41,5.91c-.01.08-.02.15-.02.24,0,.75.61,1.36,1.36,1.36.33,0,.62-.12.85-.31-.11.64-.66,1.12-1.33,1.12-.75,0-1.36-.61-1.36-1.36,0-.42.2-.8.5-1.05Z"/>
          <path class="cls-8" d="M39.95,6.06c0,.17.14.32.32.32s.32-.14.32-.32-.14-.32-.32-.32-.32.14-.32.32Z"/>
          <path class="cls-8" d="M40.72,6.21c0,.12.1.23.23.23s.23-.1.23-.23-.1-.23-.23-.23-.23.1-.23.23Z"/>
        </g>
        <path class="cls-11" d="M37.5,23.19h-20.8c-.75,0-1.36-.61-1.36-1.36h0c0-.75.61-1.36,1.36-1.36h20.8c.75,0,1.36.61,1.36,1.36h0c0,.75-.61,1.36-1.36,1.36Z"/>
        <path class="cls-4" d="M37.5,21.83h-20.8c-.5,0-.93-.27-1.17-.68-.12.2-.19.43-.19.68h0c0,.75.61,1.36,1.36,1.36h20.8c.75,0,1.36-.61,1.36-1.36h0c0-.25-.07-.48-.19-.68-.23.4-.67.68-1.17.68Z"/>
        <g>
          <path class="cls-11" d="M28.46,3.72c0,.75-.61,1.36-1.36,1.36s-1.36-.61-1.36-1.36.61-1.36,1.36-1.36,1.36.61,1.36,1.36Z"/>
          <path class="cls-4" d="M27.95,2.68c.01.08.02.15.02.24,0,.75-.61,1.36-1.36,1.36-.33,0-.62-.12-.85-.31.11.64.66,1.12,1.33,1.12.75,0,1.36-.61,1.36-1.36,0-.42-.2-.8-.5-1.05Z"/>
          <path class="cls-9" d="M27.42,2.82c0,.17-.14.32-.32.32s-.32-.14-.32-.32.14-.32.32-.32.32.14.32.32Z"/>
          <path class="cls-9" d="M26.65,2.98c0,.12-.1.23-.23.23s-.23-.1-.23-.23.1-.23.23-.23.23.1.23.23Z"/>
        </g>
        <g>
          <path class="cls-6" d="M15.29,6.96c0,.75-.61,1.36-1.36,1.36s-1.36-.61-1.36-1.36.61-1.36,1.36-1.36,1.36.61,1.36,1.36Z"/>
          <path class="cls-2" d="M14.79,5.91c.01.08.02.15.02.24,0,.75-.61,1.36-1.36,1.36-.33,0-.62-.12-.85-.31.11.64.66,1.12,1.33,1.12.75,0,1.36-.61,1.36-1.36,0-.42-.2-.8-.5-1.05Z"/>
          <path class="cls-8" d="M14.25,6.06c0,.17-.14.32-.32.32s-.32-.14-.32-.32.14-.32.32-.32.32.14.32.32Z"/>
          <path class="cls-8" d="M13.48,6.21c0,.12-.1.23-.23.23s-.23-.1-.23-.23.1-.23.23-.23.23.1.23.23Z"/>
        </g>
        <g>
          <path class="cls-1" d="M34.38,13.13c0,.15-.12.27-.27.27s-.27-.12-.27-.27.12-.27.27-.27.27.12.27.27Z"/>
          <path class="cls-1" d="M32.18,15.37c0,.12-.1.23-.23.23s-.23-.1-.23-.23.1-.23.23-.23.23.1.23.23Z"/>
          <circle class="cls-1" cx="32.49" cy="13.78" r=".18"/>
          <path class="cls-1" d="M31.35,16.44c0,.07-.06.14-.14.14s-.14-.06-.14-.14.06-.14.14-.14.14.06.14.14Z"/>
          <circle class="cls-1" cx="33.93" cy="14.5" r=".18"/>
          <path class="cls-3" d="M33.22,13.13s-.04.09-.09.09-.09-.04-.09-.09.04-.09.09-.09.09.04.09.09Z"/>
          <path class="cls-3" d="M31.16,15c0,.07-.06.14-.14.14s-.14-.06-.14-.14.06-.14.14-.14.14.06.14.14Z"/>
          <path class="cls-3" d="M28.18,12.47c0,.07-.06.14-.14.14s-.14-.06-.14-.14.06-.14.14-.14.14.06.14.14Z"/>
          <circle class="cls-3" cx="33.58" cy="15.8" r=".14"/>
          <polygon class="cls-3" points="34.83 12.13 34.88 11.72 34.92 12.13 35.33 12.17 34.92 12.22 34.88 12.63 34.83 12.22 34.42 12.17 34.83 12.13"/>
          <path class="cls-1" d="M26.94,10.29c0,.15-.12.27-.27.27s-.27-.12-.27-.27.12-.27.27-.27.27.12.27.27Z"/>
          <circle class="cls-1" cx="26.48" cy="11.66" r=".18"/>
          <polygon class="cls-3" points="27.39 9.28 27.44 8.87 27.48 9.28 27.89 9.33 27.48 9.37 27.44 9.78 27.39 9.37 26.98 9.33 27.39 9.28"/>
          <polygon class="cls-3" points="29.82 16.52 29.88 16.01 29.93 16.52 30.44 16.57 29.93 16.63 29.88 17.14 29.82 16.63 29.31 16.57 29.82 16.52"/>
          <path class="cls-1" d="M18.93,12.47c0,.15.12.27.27.27s.27-.12.27-.27-.12-.27-.27-.27-.27.12-.27.27Z"/>
          <circle class="cls-1" cx="22.32" cy="15.66" r=".23"/>
          <circle class="cls-1" cx="20.18" cy="12.73" r=".18"/>
          <path class="cls-1" d="M22.68,17.01c0,.07.06.14.14.14s.14-.06.14-.14-.06-.14-.14-.14-.14.06-.14.14Z"/>
          <circle class="cls-1" cx="19.38" cy="13.84" r=".18"/>
          <path class="cls-3" d="M20,11.84s.04.09.09.09.09-.04.09-.09-.04-.09-.09-.09-.09.04-.09.09Z"/>
          <path class="cls-3" d="M23.57,15.59c0,.07.06.14.14.14s.14-.06.14-.14-.06-.14-.14-.14-.14.06-.14.14Z"/>
          <path class="cls-3" d="M21.21,16.51c0,.07.06.14.14.14s.14-.06.14-.14-.06-.14-.14-.14-.14.06-.14.14Z"/>
          <polygon class="cls-3" points="18.48 11.47 18.43 11.06 18.39 11.47 17.98 11.51 18.39 11.56 18.43 11.96 18.48 11.56 18.88 11.51 18.48 11.47"/>
          <polygon class="cls-3" points="24.33 17.08 24.27 16.57 24.21 17.08 23.7 17.14 24.21 17.2 24.27 17.7 24.33 17.2 24.83 17.14 24.33 17.08"/>
        </g>
      </g>
    </g>
  </g>
</svg>