<?xml version="1.0" encoding="UTF-8"?>
<svg xmlns="http://www.w3.org/2000/svg" xmlns:xlink="http://www.w3.org/1999/xlink" viewBox="0 0 55.7 70.81">
  <defs>
    <style>
      .cls-1, .cls-2 {
        fill: #e3f1f1;
      }

      .cls-1, .cls-3, .cls-4 {
        mix-blend-mode: multiply;
        opacity: .5;
      }

      .cls-5 {
        fill: #010101;
      }

      .cls-6 {
        fill: url(#Gradiente_sem_nome_3);
      }

      .cls-3, .cls-7 {
        fill: #ffd704;
      }

      .cls-8 {
        isolation: isolate;
      }

      .cls-4, .cls-9 {
        fill: #2e2b27;
      }

      .cls-10 {
        fill: #926cac;
      }

      .cls-11 {
        fill: #353039;
      }

      .cls-12 {
        opacity: .31;
      }

      .cls-13 {
        fill: #dc9bc3;
      }

      .cls-14 {
        fill: #8a63a5;
      }

      .cls-15 {
        fill: #ececed;
        stroke: #0e0915;
        stroke-miterlimit: 10;
        stroke-width: .25px;
      }

      .cls-16 {
        fill: #252128;
      }

      .cls-17 {
        fill: #e1a103;
      }
    </style>
    <linearGradient id="Gradiente_sem_nome_3" data-name="Gradiente sem nome 3" x1="19.48" y1="44.49" x2="19.48" y2="5.48" gradientTransform="translate(8.16 9.66) rotate(-.05) scale(.97 .98) skewX(-.1)" gradientUnits="userSpaceOnUse">
      <stop offset="0" stop-color="#c5b1d4"/>
      <stop offset=".43" stop-color="#c3afd2"/>
      <stop offset=".59" stop-color="#bea8ce"/>
      <stop offset=".7" stop-color="#b49cc7"/>
      <stop offset=".79" stop-color="#a78bbe"/>
      <stop offset=".87" stop-color="#9675b1"/>
      <stop offset=".94" stop-color="#815ba1"/>
      <stop offset="1" stop-color="#683b8e"/>
      <stop offset="1" stop-color="#673a8e"/>
    </linearGradient>
  </defs>
  <g class="cls-8">
    <g id="Camada_1" data-name="Camada 1">
      <path class="cls-14" d="M17.19,49.79h9.42c-.25,1.2-.49,2.4-.74,3.61-.14,1.79-1.55,3.23-3.32,3.4-1.75.17-3.4-.94-3.9-2.64-.49-1.46-.97-2.91-1.46-4.37Z"/>
      <path class="cls-14" d="M26.61,49.79h9.42c-.25,1.2-.49,2.4-.74,3.61-.14,1.79-1.55,3.23-3.32,3.4-1.75.17-3.4-.94-3.9-2.64-.49-1.46-.97-2.91-1.46-4.37Z"/>
      <path class="cls-14" d="M11.82,31.3l.17,9.42c-1.21-.22-2.41-.45-3.62-.67-1.79-.1-3.26-1.49-3.46-3.26-.2-1.75.88-3.41,2.57-3.95,1.45-.51,2.9-1.03,4.34-1.54Z"/>
      <path class="cls-14" d="M42.14,40.72l-.15-9.42c1.21.23,2.41.46,3.62.68,1.79.11,3.25,1.5,3.45,3.27.2,1.75-.89,3.41-2.58,3.94-1.45.51-2.9,1.02-4.35,1.53Z"/>
      <path class="cls-6" d="M19.06,18.6c-.35.21-1.14-.29-1.45-.08-.34.23-.57.6-.87.84-.32.25-.73.4-1.02.65-.31.27-.45.71-.72.98-.3.3-.32.81-.56,1.09-.29.32-.47.66-.69.93-.25.32-.29.74-.51,1.05-.23.33-1.47-.02-1.67.31-.21.34-.47.68-.65,1.02s.67,1.23.5,1.57-1.12.34-1.28.7.28.97.12,1.33c-.14.34-.38.62-.51.93s-1.1.34-1.22.67.48.92.38,1.26.34.79.26,1.14c-.07.33-.85.53-.91.89-.06.4.43.85.4,1.23-.03.41.1.78.09,1.15,0,.42.17.76.19,1.13.02.43-.59.85-.54,1.2.05.32.51.58.59.95.07.33-.75.88-.66,1.24.09.33.71.53.82.88.11.33,0,.74.14,1.08.13.34.67.49.8.8.15.33.67.44.82.74.17.33-.31.97-.14,1.25.19.32.15.76.33,1.03.17.27.36.66.63,1.02.22.28,1.1.05,1.38.36.25.27.34.69.64.97.28.25.81.15,1.14.4.3.23.03,1.29.37,1.5.32.2.64.44.96.61.34.17.62.56.95.69.36.15.79.19,1.12.3.37.12.84-.09,1.18-.01.39.09.8-.05,1.13,0,.43.06.83-.28,1.12-.26.39.03.72,1.04,1.13,1.06s.83-1.01,1.24-.99.77.95,1.18.95.81.17,1.21.16c.4,0,.75-1.16,1.13-1.17s.86,1,1.24.97.68-1.19,1.07-1.23.93,1.14,1.31,1.09.59-1.45.97-1.51.74-.21,1.12-.28c.39-.07,1.06,1.28,1.43,1.2.3-.06.69-.21,1.02-.33.29-.1.41-.79.73-.93.28-.13.29-.82.6-.99.28-.15.97.41,1.27.23.33-.2.48-.7.77-.92.32-.23.66-.41.94-.65.3-.26.09-1.01.35-1.27.28-.28,1.35.2,1.59-.08.26-.31.61-.57.82-.86.25-.34.59-.65.76-.93.19-.35-.6-1.23-.43-1.56.18-.36.53-.61.67-.96.15-.37,1.16-.42,1.28-.77.13-.38-.61-1.03-.51-1.39.11-.39-.22-.84-.15-1.2.08-.4,1.22-.6,1.27-.96.05-.41-.78-.88-.76-1.24.02-.42.57-.79.56-1.14-.01-.46.14-.88.1-1.18-.04-.35-.29-.67-.34-1.01-.06-.35.1-.75.03-1.07-.08-.36-.1-.74-.18-1.04-.11-.39-.72-.58-.81-.83-.13-.36.14-.87,0-1.22s-.27-.72-.41-1.07c-.15-.36-1.16-.34-1.31-.67-.16-.36-.07-.8-.23-1.13-.17-.35-.55-.56-.72-.88-.19-.35.42-1.12.24-1.43-.16-.25-.45-.5-.67-.83-.18-.27-.04-.81-.26-1.12-.19-.27-1.2.03-1.42-.26-.21-.27-.65-.33-.89-.61-.23-.26-.16-.77-.42-1.03-.18-.18.04-1.01-.33-1.35-.25-.23-.94-.04-1.28-.31-.28-.23-.8-.16-1.13-.4-.3-.21-.51-.57-.86-.78-.32-.2-.59-.49-.94-.68-.33-.18-.82,0-1.19-.17s-.65-.36-1.02-.49-.65-.41-1.04-.51-.66-.59-1.05-.66-.8.05-1.19.02-.78.62-1.18.61c-.37,0-.78-1.34-1.13-1.31-.37.03-.65,1.02-1,1.07-.37.05-.83-.43-1.17-.36-.37.08-.84-.15-1.18-.05-.36.11-.72.32-1.05.45-.36.14-.33,1.15-.65,1.3-.36.16-1.18-.66-1.47-.5-.37.2-.04,1.5-.3,1.66Z"/>
      <g class="cls-12">
        <path class="cls-10" d="M19.15,18c-.35.21-.3.98-.61,1.2-.34.23-1.04-.07-1.34.16-.32.25-.16,1.05-.44,1.3-.31.27-1.47-.39-1.74-.12-.3.3-.54.66-.79.94-.29.32.1,1.18-.12,1.45-.25.32-1.02.23-1.24.54-.23.33-.28.79-.48,1.11-.21.34.25,1.04.07,1.38s-.61.55-.77.9-.44.65-.6,1.01-.19.76-.35,1.12c-.14.34-.65.5-.78.82s-.58.55-.7.87-.49.61-.59.95.55.89.47,1.24c-.07.33-.53.61-.59.98-.06.4.65.88.61,1.26-.03.41-.27.77-.28,1.14,0,.42-.65.83-.63,1.2.02.43.17.84.21,1.19.05.32,0,.72.07,1.09.07.33,1.15.43,1.25.79.09.33.04.68.15,1.03.11.33.33.6.46.94.13.34-.26.86-.13,1.17.15.33-.13.87.02,1.17.17.33.92.32,1.08.61.19.32.6.46.78.73.17.27.5.48.77.83.22.28-.47,1.37-.18,1.68.25.27,1.05.06,1.36.33.28.25.27.89.6,1.14.3.23.82.2,1.17.42.32.2.36.94.68,1.1.34.17.96-.21,1.29-.08.36.15.82-.07,1.16.03.37.12.6.68.94.76.39.09.75.33,1.08.37.43.06.88-.77,1.18-.75.39.03.77.24,1.17.26s.76.6,1.16.61.8-.75,1.2-.75.79.79,1.2.78c.4,0,.78-.35,1.16-.37s.78-.14,1.16-.17.83.4,1.21.36.82.12,1.2.07.82.05,1.2,0,.8-.13,1.17-.2c.39-.07.61-1.01.98-1.09.3-.06.64-.02.97-.14.29-.1.45-.54.77-.69.28-.13.42-.51.73-.68.28-.15.6-.19.89-.37.33-.2.52-.52.82-.73.32-.23.86-.1,1.14-.34.3-.26,1.14.06,1.4-.2.28-.28.57-.6.8-.87.26-.31-.44-1.35-.24-1.63.25-.34,1.27-.11,1.44-.39.19-.35.02-.9.18-1.23.18-.36.34-.71.48-1.06.15-.37-.3-.94-.18-1.29.13-.38.61-.6.71-.96.11-.39.67-.65.74-1.01.08-.4-.52-.88-.47-1.25.05-.41.11-.75.13-1.11.02-.42.31-.78.3-1.12-.01-.46-.37-.79-.41-1.09-.04-.35.43-.75.38-1.08-.06-.35-.11-.69-.19-1.01-.08-.36.09-.77,0-1.07-.11-.39-.23-.74-.32-1-.13-.36-.39-.68-.52-1.02s-.98-.43-1.12-.77c-.15-.36-.19-.74-.34-1.07-.16-.36.39-1.02.24-1.35-.17-.35-1.03-.33-1.2-.65-.19-.35.56-1.21.37-1.52-.16-.25-1.31.05-1.53-.28-.18-.27-.44-.49-.66-.8-.19-.27-.25-.63-.48-.92-.21-.27-.09-.81-.34-1.08-.23-.26-.79-.19-1.05-.45-.18-.18.18-1.14-.2-1.48-.25-.23-.97,0-1.31-.27-.28-.23-.4-.71-.74-.95-.3-.21-.97.12-1.32-.09-.32-.2-.55-.52-.9-.71-.33-.18-.44-.85-.8-1s-1.01.52-1.38.38-.56-.7-.94-.8-.74-.15-1.13-.21-.74-.18-1.14-.21-.76.4-1.16.4c-.37,0-.76-1.1-1.12-1.08-.37.03-.67.77-1.02.82-.37.05-.63.49-.97.57-.37.08-.74-.04-1.08.06-.36.11-.6.43-.93.56-.36.14-.89-.25-1.2-.1-.36.16-.91-.11-1.2.05-.37.2-.54.66-.8.82Z"/>
      </g>
      <g>
        <path class="cls-16" d="M24.33,42.29c-.1-.19-.13-.36-.08-.4.06-.05.23.04.41.22.23.19.77.58,1.56.7,1.06.16,1.86-.27,2.11-.42.03-.02.07-.05.1-.07.02-.02.12-.14.29-.14.08,0,.14.03.17.05-.06.12-.16.29-.32.46-.05.05-.23.29-.55.42-.26.1-.63.21-1.09.24-.7.05-1.25-.12-1.57-.24-.21-.1-.47-.26-.72-.5-.12-.11-.22-.23-.31-.34Z"/>
        <path class="cls-11" d="M17.27,26.85c-.1.05-.14.16-.1.23.04.08.17.12.28.05.22-.14.61-.33,1.11-.36.03,0,.13,0,.27,0,.26.02.74.09,1.33.46.11.08.24.1.29.05.07-.06.06-.24-.09-.39-.13-.13-.65-.58-1.45-.62-.91-.05-1.52.48-1.64.59Z"/>
        <path class="cls-11" d="M33.44,27.01c-.08.02-.16,0-.21-.07-.05-.08-.03-.19.05-.26.07-.06.18-.14.32-.22.48-.24.98-.14,1.42-.06.21.04.49.11.81.25.05.01.43.14.46.38,0,.06,0,.16-.06.19-.05.02-.11-.01-.16-.04-.09-.06-.23-.13-.42-.21-.13-.06-.32-.12-.55-.17-.12-.02-.26-.05-.45-.04-.23,0-.34.06-.66.14-.13.03-.32.07-.55.11Z"/>
        <ellipse class="cls-13" cx="22.31" cy="42.63" rx=".47" ry=".53"/>
        <path class="cls-13" d="M31.79,41.58c-.19.04-.35.23-.35.23h0c-.14.3-.06.61.14.75.2.13.46.03.48.02.04-.02.23-.1.31-.31.06-.14.04-.27.03-.33,0-.06-.02-.13-.07-.2-.1-.15-.32-.21-.54-.16Z"/>
        <ellipse class="cls-15" cx="34.76" cy="34.47" rx="6.06" ry="4.62" transform="translate(-3.93 64.46) rotate(-82.55)"/>
        <ellipse class="cls-15" cx="18.81" cy="34.47" rx="6.06" ry="4.62" transform="translate(-16.75 51.14) rotate(-86.49)"/>
        <ellipse class="cls-5" cx="19.83" cy="34.63" rx="3.41" ry="4.65" transform="translate(-2.16 1.33) rotate(-3.64)"/>
        <ellipse class="cls-5" cx="33.42" cy="34.84" rx="4.65" ry="3.41" transform="translate(-3.48 65.98) rotate(-86.36)"/>
      </g>
      <path class="cls-2" d="M32.28,45.43c-1.7.57-3.4,1.13-5.1,1.7-2.01-.65-4.01-1.31-6.02-1.96-3.44-.03-6.89-.06-10.33-.09.27,1.05.88,2.87,2.35,4.67,1.21,1.48,2.52,2.37,3.4,2.88,3.18.38,6.83.61,10.85.52,3.09-.07,5.94-.31,8.5-.65,1.16-.37,3.35-1.23,5.36-3.27,1.51-1.53,2.32-3.11,2.75-4.15-3.92.12-7.85.24-11.77.35Z"/>
      <path class="cls-1" d="M21.42,48.81c.58,1.22,1.42,1.08,2.42.51.54-.31,1.06-.68,1.58-1.03.58-.39,1.14-1.2,1.88-1.26.48-.04.76.17,1.08.49.72.7,1.28,1.4,2.2,1.9.65.36,1.56.68,2.28.24.48-.29.76-1.31.88-1.8.06-.27.11-.55.14-.83l-4.36-1.22-2.16.88-2.15-.88-4.37,1.22c.14.61.32,1.21.58,1.77Z"/>
      <g>
        <g>
          <path class="cls-9" d="M27.87,48.37c0,.21-.19.38-.43.38s-.43-.17-.43-.38.19-.38.43-.38.43.17.43.38Z"/>
          <path class="cls-4" d="M27.44,48.56c-.2,0-.37-.12-.41-.29,0,.03-.02.06-.02.1,0,.21.19.38.43.38s.43-.17.43-.38c0-.03,0-.07-.02-.1-.05.16-.21.29-.41.29Z"/>
        </g>
        <g>
          <path class="cls-9" d="M27.87,50.41c0,.21-.19.38-.43.38s-.43-.17-.43-.38.19-.38.43-.38.43.17.43.38Z"/>
          <path class="cls-4" d="M27.44,50.6c-.2,0-.37-.12-.41-.29,0,.03-.02.06-.02.1,0,.21.19.38.43.38s.43-.17.43-.38c0-.03,0-.07-.02-.1-.05.16-.21.29-.41.29Z"/>
        </g>
        <g>
          <path class="cls-9" d="M27.87,52.44c0,.21-.19.38-.43.38s-.43-.17-.43-.38.19-.38.43-.38.43.17.43.38Z"/>
          <path class="cls-4" d="M27.44,52.63c-.2,0-.37-.12-.41-.29,0,.03-.02.06-.02.1,0,.21.19.38.43.38s.43-.17.43-.38c0-.03,0-.07-.02-.1-.05.16-.21.29-.41.29Z"/>
        </g>
      </g>
      <g>
        <path class="cls-9" d="M18.2,45.27l1.02,7.74h1.01l-.91-7.97c0-.07-.1-.12-.18-.1l-.84.21c-.07.02-.11.07-.1.12Z"/>
        <path class="cls-4" d="M18.85,46.88c.21.24.46.34.72.36l-.25-2.2c0-.07-.1-.12-.18-.1l-.84.21c-.07.02-.11.07-.1.12l.1.75c.17.29.33.6.55.86Z"/>
      </g>
      <g>
        <path class="cls-7" d="M26.78,46.28s-1.67-1.66-4.26-1.82c-.22-.01-.41.16-.4.39.03.83.14,2.86.63,4.98.05.22.29.34.5.26.77-.31,2.49-1.12,3.52-2.58v-1.23Z"/>
        <path class="cls-7" d="M27.94,46.28s1.67-1.66,4.26-1.82c.22-.01.41.16.4.39-.03.83-.14,2.86-.63,4.98-.05.22-.29.34-.5.26-.77-.31-2.49-1.12-3.52-2.58v-1.23Z"/>
        <path class="cls-17" d="M24.06,46.9c.34.44.69.21,1.14.14.45-.09.97-.23,1.53-.06-.65.53-1.4.98-2.27.71-.33-.11-.56-.51-.41-.78h0Z"/>
        <path class="cls-17" d="M27.97,46.97c.49-.12,3.15.36,2.57-.44.49-.04.46.72.09.91-.9.49-1.98.23-2.66-.47h0Z"/>
        <path class="cls-3" d="M30.06,48.72c-.03-.13.03-.26.01-.39-.06-.38-.19-.47-.36-.73-.17-.26-.28-.23-.34-.56-.07-.41.33-.74.31-1.1-.03-.43-.3-.53-.6-.5-.73.43-1.15.84-1.15.84v1.23c.71,1.01,1.75,1.71,2.58,2.14-.22-.24-.38-.55-.47-.93Z"/>
        <path class="cls-3" d="M24.66,48.72c.03-.13-.03-.26-.01-.39.06-.38.19-.47.36-.73.17-.26.28-.23.34-.56.07-.41-.33-.74-.31-1.1.03-.43.3-.53.6-.5.73.43,1.15.84,1.15.84v1.23c-.71,1.01-1.75,1.71-2.58,2.14.22-.24.38-.55.47-.93Z"/>
        <rect class="cls-7" x="26.77" y="46.17" width="1.19" height="1.51" rx=".59" ry=".59"/>
      </g>
      <g>
        <path class="cls-9" d="M35.87,45.45l-.98,7.43h-.97l.87-7.66c0-.07.09-.12.17-.1l.81.2c.06.02.1.07.1.12Z"/>
        <path class="cls-4" d="M35.25,46.99c-.2.23-.44.33-.69.34l.24-2.11c0-.07.09-.12.17-.1l.81.2c.06.02.1.07.1.12l-.09.72c-.16.28-.31.57-.53.83Z"/>
      </g>
    </g>
  </g>
</svg>