<?xml version="1.0" encoding="UTF-8"?>
<svg xmlns="http://www.w3.org/2000/svg" xmlns:xlink="http://www.w3.org/1999/xlink" viewBox="0 0 1242 2208">
  <defs>
    <style>
      .cls-1 {
        fill: url(#radial-gradient-4);
      }

      .cls-1, .cls-2, .cls-3, .cls-4, .cls-5, .cls-6, .cls-7, .cls-8, .cls-9, .cls-10, .cls-11 {
        mix-blend-mode: screen;
      }

      .cls-2 {
        fill: url(#radial-gradient-8);
      }

      .cls-3 {
        fill: url(#radial-gradient-2);
      }

      .cls-4 {
        fill: url(#radial-gradient-6);
      }

      .cls-12 {
        fill: #4f0000;
      }

      .cls-13 {
        fill: #751212;
      }

      .cls-14 {
        opacity: .2;
      }

      .cls-14, .cls-15 {
        fill: #fff;
      }

      .cls-5 {
        fill: url(#radial-gradient);
      }

      .cls-5, .cls-8, .cls-9, .cls-10, .cls-11 {
        opacity: .15;
      }

      .cls-16 {
        fill: #ffebff;
      }

      .cls-17 {
        isolation: isolate;
      }

      .cls-6 {
        fill: url(#radial-gradient-10);
      }

      .cls-18 {
        fill: #9212d6;
      }

      .cls-19 {
        fill: #09bacc;
      }

      .cls-20 {
        fill: #136fd3;
      }

      .cls-21 {
        fill: #630000;
      }

      .cls-22 {
        fill: #d8a30f;
      }

      .cls-23 {
        fill: #4d6699;
      }

      .cls-24 {
        fill: #7c0505;
      }

      .cls-25 {
        fill: #7494ce;
      }

      .cls-26 {
        fill: #bc8b13;
      }

      .cls-8 {
        fill: url(#radial-gradient-5);
      }

      .cls-9 {
        fill: url(#radial-gradient-3);
      }

      .cls-10 {
        fill: url(#radial-gradient-9);
      }

      .cls-11 {
        fill: url(#radial-gradient-7);
      }

      .cls-27 {
        fill: #d9c9a8;
      }

      .cls-28 {
        fill: #bf1200;
      }

      .cls-29 {
        fill: #050e23;
      }
    </style>
    <radialGradient id="radial-gradient" cx="140.05" cy="257.56" fx="140.05" fy="257.56" r="210.94" gradientUnits="userSpaceOnUse">
      <stop offset="0" stop-color="#230000"/>
      <stop offset=".73" stop-color="#93432a"/>
      <stop offset="1" stop-color="#230000"/>
    </radialGradient>
    <radialGradient id="radial-gradient-2" cx="140.05" cy="257.56" fx="140.05" fy="257.56" r="87.89" gradientTransform="translate(43.48 -19.25) rotate(9.3)" gradientUnits="userSpaceOnUse">
      <stop offset=".15" stop-color="#fff"/>
      <stop offset=".28" stop-color="#c2c2c2"/>
      <stop offset=".43" stop-color="#878787"/>
      <stop offset=".56" stop-color="#575757"/>
      <stop offset=".69" stop-color="#313131"/>
      <stop offset=".81" stop-color="#161616"/>
      <stop offset=".92" stop-color="#050505"/>
      <stop offset="1" stop-color="#000"/>
    </radialGradient>
    <radialGradient id="radial-gradient-3" cx="675.26" cy="337.51" fx="675.26" fy="337.51" r="139.59" gradientTransform="translate(436.43 -378.63) rotate(45)" xlink:href="#radial-gradient"/>
    <radialGradient id="radial-gradient-4" cx="675.26" cy="337.51" fx="675.26" fy="337.51" r="58.16" gradientTransform="translate(63.22 -104.41) rotate(9.27)" xlink:href="#radial-gradient-2"/>
    <radialGradient id="radial-gradient-5" cx="942.87" cy="337.51" fx="942.87" fy="337.51" r="139.59" gradientTransform="translate(514.81 -567.86) rotate(45)" xlink:href="#radial-gradient"/>
    <radialGradient id="radial-gradient-6" cx="942.87" cy="337.51" fx="942.87" fy="337.51" r="58.16" gradientTransform="translate(66.72 -147.54) rotate(9.27)" xlink:href="#radial-gradient-2"/>
    <radialGradient id="radial-gradient-7" cx="407.65" cy="315.19" fx="407.65" fy="315.19" r="163.41" xlink:href="#radial-gradient"/>
    <radialGradient id="radial-gradient-8" cx="407.65" cy="315.19" fx="407.65" fy="315.19" r="68.09" gradientTransform="translate(56.19 -61.64) rotate(9.28)" xlink:href="#radial-gradient-2"/>
    <radialGradient id="radial-gradient-9" cx="1210.48" cy="315.19" fx="1210.48" fy="315.19" r="163.41" xlink:href="#radial-gradient"/>
    <radialGradient id="radial-gradient-10" cx="1210.48" cy="315.19" fx="1210.48" fy="315.19" r="68.09" gradientTransform="translate(577.41 -763.62) rotate(45)" xlink:href="#radial-gradient-2"/>
  </defs>
  <g class="cls-17">
    <g id="Camada_1" data-name="Camada 1">
      <rect class="cls-29" x="3.8" y="3" width="1491.55" height="2200"/>
      <path class="cls-16" d="M698.49,1514.24c0,7.69-6.23,13.92-13.92,13.92s-13.92-6.23-13.92-13.92,6.23-13.92,13.92-13.92,13.92,6.23,13.92,13.92Z"/>
      <path class="cls-23" d="M-10.4,324.13c162.75,60.8,447.59,101.09,771.77,101.09s609.26-40.33,771.98-101.17V88.14H-10.4v235.99Z"/>
      <path class="cls-25" d="M-1.4,235.58c162.75,60.79,447.59,101.09,771.77,101.09s609.26-40.33,771.98-101.17V-.41H-1.4v235.99Z"/>
      <path class="cls-19" d="M1227.54,1121.27h12.97c1.62,0,2.93,1.31,2.93,2.93v20.41c0,1.62-1.31,2.93-2.93,2.93h-12.97c-1.62,0-2.93-1.31-2.93-2.93v-20.41c0-1.62,1.31-2.93,2.93-2.93Z" transform="translate(-34.38 38.58) rotate(-1.77)"/>
      <path class="cls-19" d="M1012.29,1098.41h12.97c1.62,0,2.93,1.31,2.93,2.93v20.41c0,1.62-1.31,2.93-2.93,2.93h-12.97c-1.62,0-2.93-1.31-2.93-2.93v-20.41c0-1.62,1.31-2.93,2.93-2.93Z" transform="translate(-34.01 32.16) rotate(-1.78)"/>
      <path class="cls-20" d="M1108.16,1163.17h12.97c1.62,0,2.93,1.31,2.93,2.93v20.41c0,1.62-1.31,2.93-2.93,2.93h-12.97c-1.62,0-2.93-1.31-2.93-2.93v-20.41c0-1.62,1.31-2.93,2.93-2.93Z" transform="translate(-35.98 35.16) rotate(-1.78)"/>
      <path class="cls-22" d="M1175.92,1148.42h12.97c1.62,0,2.93,1.31,2.93,2.93v20.41c0,1.62-1.31,2.93-2.93,2.93h-12.97c-1.62,0-2.93-1.31-2.93-2.93v-20.41c0-1.62,1.31-2.93,2.93-2.93Z" transform="translate(-35.24 37) rotate(-1.77)"/>
      <path class="cls-27" d="M981.17,1151.63h12.97c1.62,0,2.93,1.31,2.93,2.93v20.41c0,1.62-1.31,2.93-2.93,2.93h-12.97c-1.62,0-2.93-1.31-2.93-2.93v-20.41c0-1.62,1.31-2.93,2.93-2.93Z" transform="translate(-35.43 31) rotate(-1.77)"/>
      <path class="cls-22" d="M1062.48,1119.71h12.97c1.62,0,2.93,1.31,2.93,2.93v20.41c0,1.62-1.31,2.93-2.93,2.93h-12.97c-1.62,0-2.93-1.31-2.93-2.93v-20.41c0-1.62,1.31-2.93,2.93-2.93Z" transform="translate(-34.4 33.48) rotate(-1.77)"/>
      <path class="cls-13" d="M893.14,1157.18h12.97c1.62,0,2.93,1.31,2.93,2.93v20.41c0,1.62-1.31,2.93-2.93,2.93h-12.97c-1.62,0-2.93-1.31-2.93-2.93v-20.41c0-1.62,1.31-2.93,2.93-2.93Z" transform="translate(-35.64 28.28) rotate(-1.77)"/>
      <path class="cls-18" d="M1130.01,1111.14h12.97c1.62,0,2.93,1.31,2.93,2.93v20.41c0,1.62-1.31,2.93-2.93,2.93h-12.97c-1.62,0-2.93-1.31-2.93-2.93v-20.41c0-1.62,1.31-2.93,2.93-2.93Z" transform="translate(-34.36 35.83) rotate(-1.78)"/>
      <path class="cls-27" d="M937.71,1100.72h12.97c1.62,0,2.93,1.31,2.93,2.93v20.41c0,1.62-1.31,2.93-2.93,2.93h-12.97c-1.62,0-2.93-1.31-2.93-2.93v-20.41c0-1.62,1.31-2.93,2.93-2.93Z" transform="translate(-33.88 29.63) rotate(-1.77)"/>
      <rect class="cls-19" x="362.23" y="1128.59" width="18.83" height="26.28" rx="2.93" ry="2.93" transform="translate(-113.84 43.56) rotate(-5.82)"/>
      <rect class="cls-19" x="145.9" y="1120.98" width="18.83" height="26.28" rx="2.93" ry="2.93" transform="translate(-114.18 21.59) rotate(-5.82)"/>
      <rect class="cls-19" x="671.06" y="1088.04" width="18.83" height="26.28" rx="2.93" ry="2.93"/>
      <rect class="cls-20" x="246.1" y="1178.82" width="18.83" height="26.28" rx="2.93" ry="2.93" transform="translate(-119.53 32.05) rotate(-5.82)"/>
      <rect class="cls-22" x="312.65" y="1159.32" width="18.83" height="26.28" rx="2.93" ry="2.93" transform="translate(-117.23 38.7) rotate(-5.82)"/>
      <rect class="cls-27" x="118.61" y="1176.27" width="18.83" height="26.28" rx="2.93" ry="2.93" transform="translate(-119.95 19.11) rotate(-5.82)"/>
      <rect class="cls-22" x="197.47" y="1138.69" width="18.83" height="26.28" rx="2.93" ry="2.93" transform="translate(-115.74 26.92) rotate(-5.82)"/>
      <rect class="cls-13" x="689.88" y="1128.78" width="18.83" height="26.28" rx="2.93" ry="2.93"/>
      <rect class="cls-13" x="31.19" y="1188.01" width="18.83" height="26.28" rx="2.93" ry="2.93" transform="translate(-121.57 10.31) rotate(-5.82)"/>
      <rect class="cls-18" x="415.39" y="1177.3" width="18.83" height="26.28" rx="2.93" ry="2.93" transform="translate(-118.5 49.2) rotate(-5.82)"/>
      <rect class="cls-18" x="264.23" y="1125.38" width="18.83" height="26.28" rx="2.93" ry="2.93" transform="translate(-114.04 33.62) rotate(-5.82)"/>
      <rect class="cls-20" x="436.86" y="1120.98" width="18.83" height="26.28" rx="2.93" ry="2.93" transform="translate(-112.71 51.1) rotate(-5.82)"/>
      <rect class="cls-20" x="648.15" y="1160.73" width="18.83" height="26.28" rx="2.93" ry="2.93"/>
      <rect class="cls-20" x="746.46" y="1118.87" width="18.83" height="26.28" rx="2.93" ry="2.93"/>
      <rect class="cls-27" x="477.4" y="1147.9" width="18.83" height="26.28" rx="2.93" ry="2.93" transform="translate(-115.23 55.35) rotate(-5.82)"/>
      <rect class="cls-27" x="71.67" y="1128.55" width="18.83" height="26.28" rx="2.93" ry="2.93" transform="translate(-115.36 14.11) rotate(-5.82)"/>
      <path class="cls-19" d="M942.43,1044.22h0c-3.73.19-6.91-2.68-7.1-6.41l-.27-5.34c-.19-3.73,2.68-6.91,6.41-7.1h0c3.73-.19,6.91,2.68,7.1,6.41l.27,5.34c.19,3.73-2.68,6.91-6.41,7.1Z"/>
      <path class="cls-19" d="M782.37,1011.99h9.31c1.16,0,2.11.94,2.11,2.11v14.66c0,1.16-.94,2.11-2.11,2.11h-9.31c-1.16,0-2.11-.94-2.11-2.11v-14.66c0-1.16.94-2.11,2.11-2.11Z" transform="translate(-50.74 41.19) rotate(-2.9)"/>
      <path class="cls-19" d="M1053.43,1043.89h0c-3.73.19-6.91-2.68-7.1-6.41l-.27-5.34c-.19-3.73,2.68-6.91,6.41-7.1h0c3.73-.19,6.91,2.68,7.1,6.41l.27,5.34c.19,3.73-2.68,6.91-6.41,7.1Z"/>
      <path class="cls-20" d="M852.14,1057.15h9.31c1.16,0,2.11.94,2.11,2.11v14.66c0,1.16-.94,2.11-2.11,2.11h-9.31c-1.16,0-2.11-.94-2.11-2.11v-14.66c0-1.16.94-2.11,2.11-2.11Z" transform="translate(-52.94 44.78) rotate(-2.9)"/>
      <path class="cls-22" d="M905.74,1064.46h0c-3.73.19-6.91-2.68-7.1-6.41l-.27-5.34c-.19-3.73,2.68-6.91,6.41-7.1h0c3.73-.19,6.91,2.68,7.1,6.41l.27,5.34c.19,3.73-2.68,6.91-6.41,7.1Z"/>
      <path class="cls-27" d="M760.77,1050.66h9.31c1.16,0,2.11.94,2.11,2.11v14.66c0,1.16-.94,2.11-2.11,2.11h-9.31c-1.16,0-2.11-.94-2.11-2.11v-14.66c0-1.16.94-2.11,2.11-2.11Z" transform="translate(-52.73 40.14) rotate(-2.9)"/>
      <path class="cls-22" d="M818.72,1026.58h9.31c1.16,0,2.11.94,2.11,2.11v14.66c0,1.16-.94,2.11-2.11,2.11h-9.31c-1.16,0-2.11-.94-2.11-2.11v-14.66c0-1.16.94-2.11,2.11-2.11Z" transform="translate(-51.45 43.06) rotate(-2.91)"/>
      <path class="cls-13" d="M1068.42,1072.43h0c-3.73.19-6.91-2.68-7.1-6.41l-.27-5.34c-.19-3.73,2.68-6.91,6.41-7.1h0c3.73-.19,6.91,2.68,7.1,6.41l.27,5.34c.19,3.73-2.68,6.91-6.41,7.1Z"/>
      <path class="cls-13" d="M697.62,1055.89h9.31c1.16,0,2.11.94,2.11,2.11v14.66c0,1.16-.94,2.11-2.11,2.11h-9.31c-1.16,0-2.11-.94-2.11-2.11v-14.66c0-1.16.94-2.11,2.11-2.11Z" transform="translate(-53.07 36.95) rotate(-2.9)"/>
      <path class="cls-18" d="M978.78,1081.11h0c-3.73.19-6.91-2.68-7.1-6.41l-.27-5.34c-.19-3.73,2.68-6.91,6.41-7.1h0c3.73-.19,6.91,2.68,7.1,6.41l.27,5.34c.19,3.73-2.68,6.91-6.41,7.1Z"/>
      <path class="cls-18" d="M867.1,1019.47h9.31c1.16,0,2.11.94,2.11,2.11v14.66c0,1.16-.94,2.11-2.11,2.11h-9.31c-1.16,0-2.11-.94-2.11-2.11v-14.66c0-1.16.94-2.11,2.11-2.11Z" transform="translate(-51.01 45.49) rotate(-2.9)"/>
      <path class="cls-20" d="M996.25,1041.49h0c-3.73.19-6.91-2.68-7.1-6.41l-.27-5.34c-.19-3.73,2.68-6.91,6.41-7.1h0c3.73-.19,6.91,2.68,7.1,6.41l.27,5.34c.19,3.73-2.68,6.91-6.41,7.1Z"/>
      <path class="cls-20" d="M1039.65,1096.88h0c-3.73.19-6.91-2.68-7.1-6.41l-.27-5.34c-.19-3.73,2.68-6.91,6.41-7.1h0c3.73-.19,6.91,2.68,7.1,6.41l.27,5.34c.19,3.73-2.68,6.91-6.41,7.1Z"/>
      <path class="cls-20" d="M1108.65,1063.25h0c-3.73.19-6.91-2.68-7.1-6.41l-.27-5.34c-.19-3.73,2.68-6.91,6.41-7.1h0c3.73-.19,6.91,2.68,7.1,6.41l.27,5.34c.19,3.73-2.68,6.91-6.41,7.1Z"/>
      <path class="cls-27" d="M1024.35,1062.28h0c-3.73.19-6.91-2.68-7.1-6.41l-.27-5.34c-.19-3.73,2.68-6.91,6.41-7.1h0c3.73-.19,6.91,2.68,7.1,6.41l.27,5.34c.19,3.73-2.68,6.91-6.41,7.1Z"/>
      <path class="cls-19" d="M1190.05,1043.31h0c-3.73.19-6.91-2.68-7.1-6.41l-.27-5.34c-.19-3.73,2.68-6.91,6.41-7.1h0c3.73-.19,6.91,2.68,7.1,6.41l.27,5.34c.19,3.73-2.68,6.91-6.41,7.1Z"/>
      <path class="cls-22" d="M1153.36,1063.54h0c-3.73.19-6.91-2.68-7.1-6.41l-.27-5.34c-.19-3.73,2.68-6.91,6.41-7.1h0c3.73-.19,6.91,2.68,7.1,6.41l.27,5.34c.19,3.73-2.68,6.91-6.41,7.1Z"/>
      <path class="cls-18" d="M1226.41,1080.19h0c-3.73.19-6.91-2.68-7.1-6.41l-.27-5.34c-.19-3.73,2.68-6.91,6.41-7.1h0c3.73-.19,6.91,2.68,7.1,6.41l.27,5.34c.19,3.73-2.68,6.91-6.41,7.1Z"/>
      <path class="cls-20" d="M1243.87,1040.58h0c-3.73.19-6.91-2.68-7.1-6.41l-.27-5.34c-.19-3.73,2.68-6.91,6.41-7.1h0c3.73-.19,6.91,2.68,7.1,6.41l.27,5.34c.19,3.73-2.68,6.91-6.41,7.1Z"/>
      <rect class="cls-27" x="726.73" y="1014.71" width="13.53" height="18.88" rx="2.11" ry="2.11" transform="translate(-50.95 38.48) rotate(-2.9)"/>
      <rect class="cls-19" x="541.43" y="1111.31" width="18.83" height="26.28" rx="2.93" ry="2.93"/>
      <rect class="cls-13" x="560.25" y="1152.04" width="18.83" height="26.28" rx="2.93" ry="2.93"/>
      <rect class="cls-20" x="518.52" y="1184" width="18.83" height="26.28" rx="2.93" ry="2.93"/>
      <rect class="cls-20" x="616.83" y="1142.14" width="18.83" height="26.28" rx="2.93" ry="2.93"/>
      <path class="cls-19" d="M652.74,1035.26h9.31c1.16,0,2.11.94,2.11,2.11v14.66c0,1.16-.94,2.11-2.11,2.11h-9.31c-1.16,0-2.11-.94-2.11-2.11v-14.66c0-1.16.94-2.11,2.11-2.11Z" transform="translate(-52.09 34.65) rotate(-2.9)"/>
      <rect class="cls-27" x="629.04" y="1073.93" width="13.53" height="18.88" rx="2.11" ry="2.11" transform="translate(-54.07 33.61) rotate(-2.9)"/>
      <path class="cls-13" d="M567.99,1079.16h9.31c1.16,0,2.11.94,2.11,2.11v14.66c0,1.16-.94,2.11-2.11,2.11h-9.31c-1.16,0-2.11-.94-2.11-2.11v-14.66c0-1.16.94-2.11,2.11-2.11Z" transform="translate(-54.42 30.41) rotate(-2.9)"/>
      <rect class="cls-27" x="597.1" y="1037.98" width="13.53" height="18.88" rx="2.11" ry="2.11" transform="translate(-52.29 31.94) rotate(-2.9)"/>
      <path class="cls-19" d="M262.87,1024.58h9.31c1.16,0,2.11.94,2.11,2.11v14.66c0,1.16-.94,2.11-2.11,2.11h-9.31c-1.16,0-2.11-.94-2.11-2.11v-14.66c0-1.16.94-2.11,2.11-2.11Z" transform="translate(-123.39 40.06) rotate(-6.96)"/>
      <path class="cls-19" d="M107.39,1022.18h9.31c1.16,0,2.11.94,2.11,2.11v14.66c0,1.16-.94,2.11-2.11,2.11h-9.31c-1.16,0-2.11-.94-2.11-2.11v-14.66c0-1.16.94-2.11,2.11-2.11Z" transform="translate(-123.94 21.12) rotate(-6.95)"/>
      <path class="cls-19" d="M407.52,1025.07h9.31c1.16,0,2.11.94,2.11,2.11v14.66c0,1.16-.94,2.11-2.11,2.11h-9.31c-1.16,0-2.11-.94-2.11-2.11v-14.66c0-1.16.94-2.11,2.11-2.11Z" transform="translate(-20.18 8.27) rotate(-1.12)"/>
      <path class="cls-20" d="M180.18,1062.3h9.31c1.16,0,2.11.94,2.11,2.11v14.66c0,1.16-.94,2.11-2.11,2.11h-9.31c-1.16,0-2.11-.94-2.11-2.11v-14.66c0-1.16.94-2.11,2.11-2.11Z" transform="translate(-128.57 30.32) rotate(-6.96)"/>
      <path class="cls-22" d="M227.7,1047.35h9.31c1.16,0,2.11.94,2.11,2.11v14.66c0,1.16-.94,2.11-2.11,2.11h-9.31c-1.16,0-2.11-.94-2.11-2.11v-14.66c0-1.16.94-2.11,2.11-2.11Z" transform="translate(-126.41 35.97) rotate(-6.96)"/>
      <path class="cls-27" d="M88.58,1062.28h9.31c1.16,0,2.11.94,2.11,2.11v14.66c0,1.16-.94,2.11-2.11,2.11h-9.31c-1.16,0-2.11-.94-2.11-2.11v-14.66c0-1.16.94-2.11,2.11-2.11Z" transform="translate(-129.25 19.21) rotate(-6.96)"/>
      <path class="cls-22" d="M144.68,1034.17h9.31c1.16,0,2.11.94,2.11,2.11v14.66c0,1.16-.94,2.11-2.11,2.11h-9.31c-1.16,0-2.11-.94-2.11-2.11v-14.66c0-1.16.94-2.11,2.11-2.11Z" transform="translate(-125.43 25.8) rotate(-6.96)"/>
      <path class="cls-13" d="M421.61,1054.06h9.31c1.16,0,2.11.94,2.11,2.11v14.66c0,1.16-.94,2.11-2.11,2.11h-9.31c-1.16,0-2.11-.94-2.11-2.11v-14.66c0-1.16.94-2.11,2.11-2.11Z" transform="translate(-20.75 8.55) rotate(-1.12)"/>
      <path class="cls-13" d="M25.95,1071.95h9.31c1.16,0,2.11.94,2.11,2.11v14.66c0,1.16-.94,2.11-2.11,2.11h-9.31c-1.16,0-2.11-.94-2.11-2.11v-14.66c0-1.16.94-2.11,2.11-2.11Z" transform="translate(-130.55 11.64) rotate(-6.95)"/>
      <path class="cls-18" d="M301.74,1058.8h9.31c1.16,0,2.11.94,2.11,2.11v14.66c0,1.16-.94,2.11-2.11,2.11h-9.31c-1.16,0-2.11-.94-2.11-2.11v-14.66c0-1.16.94-2.11,2.11-2.11Z" transform="translate(-127.25 45.03) rotate(-6.96)"/>
      <path class="cls-18" d="M192.44,1023.66h9.31c1.16,0,2.11.94,2.11,2.11v14.66c0,1.16-.94,2.11-2.11,2.11h-9.31c-1.16,0-2.11-.94-2.11-2.11v-14.66c0-1.16.94-2.11,2.11-2.11Z" transform="translate(-123.8 31.52) rotate(-6.96)"/>
      <path class="cls-20" d="M316.36,1018.05h9.31c1.16,0,2.11.94,2.11,2.11v14.66c0,1.16-.94,2.11-2.11,2.11h-9.31c-1.16,0-2.11-.94-2.11-2.11v-14.66c0-1.16.94-2.11,2.11-2.11Z" transform="translate(-121.91 46.36) rotate(-6.95)"/>
      <path class="cls-20" d="M392.1,1077.61h9.31c1.16,0,2.11.94,2.11,2.11v14.66c0,1.16-.94,2.11-2.11,2.11h-9.31c-1.16,0-2.11-.94-2.11-2.11v-14.66c0-1.16.94-2.11,2.11-2.11Z" transform="translate(-21.21 7.98) rotate(-1.12)"/>
      <path class="cls-20" d="M462.11,1046.14h9.31c1.16,0,2.11.94,2.11,2.11v14.66c0,1.16-.94,2.11-2.11,2.11h-9.31c-1.16,0-2.11-.94-2.11-2.11v-14.66c0-1.16.94-2.11,2.11-2.11Z" transform="translate(-20.58 9.34) rotate(-1.12)"/>
      <path class="cls-27" d="M345.86,1036.81h9.31c1.16,0,2.11.94,2.11,2.11v14.66c0,1.16-.94,2.11-2.11,2.11h-9.31c-1.16,0-2.11-.94-2.11-2.11v-14.66c0-1.16.94-2.11,2.11-2.11Z" transform="translate(-123.99 50.09) rotate(-6.95)"/>
      <path class="cls-27" d="M54.18,1028.67h9.31c1.16,0,2.11.94,2.11,2.11v14.66c0,1.16-.94,2.11-2.11,2.11h-9.31c-1.16,0-2.11-.94-2.11-2.11v-14.66c0-1.16.94-2.11,2.11-2.11Z" transform="translate(-125.43 14.79) rotate(-6.96)"/>
      <rect class="cls-19" x="1190.3" y="952.59" width="9.43" height="13.15" rx="1.47" ry="1.47" transform="translate(-46.83 61.45) rotate(-2.89)"/>
      <rect class="cls-20" x="1238.93" y="984.06" width="9.43" height="13.15" rx="1.47" ry="1.47" transform="translate(-48.79 64.55) rotate(-2.92)"/>
      <rect class="cls-27" x="1175.25" y="979.54" width="9.43" height="13.15" rx="1.47" ry="1.47" transform="translate(-48.61 61.27) rotate(-2.91)"/>
      <rect class="cls-22" x="1215.64" y="962.76" width="9.43" height="13.15" rx="1.47" ry="1.47" transform="translate(-47.33 62.77) rotate(-2.89)"/>
      <rect class="cls-13" x="1131.24" y="983.19" width="9.43" height="13.15" rx="1.47" ry="1.47" transform="translate(-48.86 59.04) rotate(-2.91)"/>
      <path class="cls-19" d="M907.79,967.55h0c-2.6.13-4.81-1.87-4.95-4.47l-.19-3.72c-.13-2.6,1.87-4.81,4.47-4.95h0c2.6-.13,4.81,1.87,4.95,4.47l.19,3.72c.13,2.6-1.87,4.81-4.47,4.95Z"/>
      <path class="cls-19" d="M985.15,967.32h0c-2.6.13-4.81-1.87-4.95-4.47l-.19-3.72c-.13-2.6,1.87-4.81,4.47-4.95h0c2.6-.13,4.81,1.87,4.95,4.47l.19,3.72c.13,2.6-1.87,4.81-4.47,4.95Z"/>
      <path class="cls-22" d="M882.22,981.65h0c-2.6.13-4.81-1.87-4.95-4.47l-.19-3.72c-.13-2.6,1.87-4.81,4.47-4.95h0c2.6-.13,4.81,1.87,4.95,4.47l.19,3.72c.13,2.6-1.87,4.81-4.47,4.95Z"/>
      <path class="cls-13" d="M995.6,987.21h0c-2.6.13-4.81-1.87-4.95-4.47l-.19-3.72c-.13-2.6,1.87-4.81,4.47-4.95h0c2.6-.13,4.81,1.87,4.95,4.47l.19,3.72c.13,2.6-1.87,4.81-4.47,4.95Z"/>
      <path class="cls-18" d="M933.13,993.25h0c-2.6.13-4.81-1.87-4.95-4.47l-.19-3.72c-.13-2.6,1.87-4.81,4.47-4.95h0c2.6-.13,4.81,1.87,4.95,4.47l.19,3.72c.13,2.6-1.87,4.81-4.47,4.95Z"/>
      <path class="cls-20" d="M945.3,965.64h0c-2.6.13-4.81-1.87-4.95-4.47l-.19-3.72c-.13-2.6,1.87-4.81,4.47-4.95h0c2.6-.13,4.81,1.87,4.95,4.47l.19,3.72c.13,2.6-1.87,4.81-4.47,4.95Z"/>
      <path class="cls-19" d="M1054.94,986.72h0c-2.6.13-4.81-1.87-4.95-4.47l-.19-3.72c-.13-2.6,1.87-4.81,4.47-4.95h0c2.6-.13,4.81,1.87,4.95,4.47l.19,3.72c.13,2.6-1.87,4.81-4.47,4.95Z"/>
      <path class="cls-22" d="M1029.37,1000.82h0c-2.6.13-4.81-1.87-4.95-4.47l-.19-3.72c-.13-2.6,1.87-4.81,4.47-4.95h0c2.6-.13,4.81,1.87,4.95,4.47l.19,3.72c.13,2.6-1.87,4.81-4.47,4.95Z"/>
      <path class="cls-18" d="M1080.28,1012.43h0c-2.6.13-4.81-1.87-4.95-4.47l-.19-3.72c-.13-2.6,1.87-4.81,4.47-4.95h0c2.6-.13,4.81,1.87,4.95,4.47l.19,3.72c.13,2.6-1.87,4.81-4.47,4.95Z"/>
      <path class="cls-20" d="M1092.45,984.82h0c-2.6.13-4.81-1.87-4.95-4.47l-.19-3.72c-.13-2.6,1.87-4.81,4.47-4.95h0c2.6-.13,4.81,1.87,4.95,4.47l.19,3.72c.13,2.6-1.87,4.81-4.47,4.95Z"/>
      <path class="cls-20" d="M975.55,1004.25h0c-2.6.13-4.81-1.87-4.95-4.47l-.19-3.72c-.13-2.6,1.87-4.81,4.47-4.95h0c2.6-.13,4.81,1.87,4.95,4.47l.19,3.72c.13,2.6-1.87,4.81-4.47,4.95Z"/>
      <path class="cls-20" d="M1023.64,980.81h0c-2.6.13-4.81-1.87-4.95-4.47l-.19-3.72c-.13-2.6,1.87-4.81,4.47-4.95h0c2.6-.13,4.81,1.87,4.95,4.47l.19,3.72c.13,2.6-1.87,4.81-4.47,4.95Z"/>
      <path class="cls-27" d="M964.89,980.13h0c-2.6.13-4.81-1.87-4.95-4.47l-.19-3.72c-.13-2.6,1.87-4.81,4.47-4.95h0c2.6-.13,4.81,1.87,4.95,4.47l.19,3.72c.13,2.6-1.87,4.81-4.47,4.95Z"/>
      <rect class="cls-27" x="1152.99" y="954.49" width="9.43" height="13.15" rx="1.47" ry="1.47" transform="translate(-46.97 59.58) rotate(-2.89)"/>
      <rect class="cls-19" x="260.15" y="954.49" width="9.43" height="13.15" rx="1.47" ry="1.47" transform="translate(-114.25 39.07) rotate(-6.94)"/>
      <rect class="cls-19" x="151.79" y="952.82" width="9.43" height="13.15" rx="1.47" ry="1.47" transform="translate(-114.85 25.96) rotate(-6.94)"/>
      <rect class="cls-19" x="360.96" y="954.84" width="9.43" height="13.15" rx="1.47" ry="1.47" transform="translate(-18.8 7.36) rotate(-1.12)"/>
      <rect class="cls-20" x="202.52" y="980.78" width="9.43" height="13.15" rx="1.47" ry="1.47" transform="translate(-117.8 32.28) rotate(-6.94)"/>
      <rect class="cls-22" x="235.64" y="970.36" width="9.43" height="13.15" rx="1.47" ry="1.47" transform="translate(-116.35 36.23) rotate(-6.94)"/>
      <path class="cls-27" d="M140.15,980.77h6.49c.81,0,1.47.66,1.47,1.47v10.22c0,.81-.66,1.47-1.47,1.47h-6.49c-.81,0-1.47-.66-1.47-1.47v-10.22c0-.81.66-1.47,1.47-1.47Z" transform="translate(-118.75 24.7) rotate(-6.97)"/>
      <rect class="cls-22" x="177.78" y="961.18" width="9.43" height="13.15" rx="1.47" ry="1.47" transform="translate(-115.62 29.15) rotate(-6.94)"/>
      <path class="cls-13" d="M372.25,975.04h6.49c.81,0,1.47.66,1.47,1.47v10.22c0,.81-.66,1.47-1.47,1.47h-6.49c-.81,0-1.47-.66-1.47-1.47v-10.22c0-.81.66-1.47,1.47-1.47Z" transform="translate(-18.76 7.38) rotate(-1.1)"/>
      <path class="cls-13" d="M96.5,987.51h6.49c.81,0,1.47.66,1.47,1.47v10.22c0,.81-.66,1.47-1.47,1.47h-6.49c-.81,0-1.47-.66-1.47-1.47v-10.22c0-.81.66-1.47,1.47-1.47Z" transform="translate(-119.46 19.35) rotate(-6.94)"/>
      <rect class="cls-18" x="287.24" y="978.35" width="9.43" height="13.15" rx="1.47" ry="1.47" transform="translate(-116.89 42.5) rotate(-6.94)"/>
      <path class="cls-18" d="M212.53,953.85h6.49c.81,0,1.47.66,1.47,1.47v10.22c0,.81-.66,1.47-1.47,1.47h-6.49c-.81,0-1.47-.66-1.47-1.47v-10.22c0-.81.66-1.47,1.47-1.47Z" transform="translate(-114.95 33.28) rotate(-6.97)"/>
      <path class="cls-20" d="M298.9,949.94h6.49c.81,0,1.47.66,1.47,1.47v10.22c0,.81-.66,1.47-1.47,1.47h-6.49c-.81,0-1.47-.66-1.47-1.47v-10.22c0-.81.66-1.47,1.47-1.47Z" transform="translate(-113.43 43.55) rotate(-6.94)"/>
      <rect class="cls-20" x="350.21" y="991.45" width="9.43" height="13.15" rx="1.47" ry="1.47" transform="translate(-19.51 7.16) rotate(-1.12)"/>
      <path class="cls-20" d="M400.47,969.52h6.49c.81,0,1.47.66,1.47,1.47v10.22c0,.81-.66,1.47-1.47,1.47h-6.49c-.81,0-1.47-.66-1.47-1.47v-10.22c0-.81.66-1.47,1.47-1.47Z" transform="translate(-18.65 7.92) rotate(-1.1)"/>
      <rect class="cls-27" x="317.99" y="963.02" width="9.43" height="13.15" rx="1.47" ry="1.47" transform="translate(-114.86 46.13) rotate(-6.94)"/>
      <path class="cls-27" d="M116.18,957.35h6.49c.81,0,1.47.66,1.47,1.47v10.22c0,.81-.66,1.47-1.47,1.47h-6.49c-.81,0-1.47-.66-1.47-1.47v-10.22c0-.81.66-1.47,1.47-1.47Z" transform="translate(-116.08 21.61) rotate(-6.97)"/>
      <polygon class="cls-15" points="175.55 992.41 161.01 1007.76 140.49 1012.84 155.84 1027.38 160.92 1047.9 175.46 1032.55 195.99 1027.47 180.63 1012.93 175.55 992.41"/>
      <polygon class="cls-15" points="77.68 858.86 59.64 869.88 38.5 869.43 49.53 887.47 49.07 908.61 67.12 897.59 88.25 898.04 77.23 880 77.68 858.86"/>
      <polygon class="cls-15" points="1106.89 984.63 1095.85 990.92 1083.15 990.25 1089.44 1001.3 1088.77 1013.99 1099.82 1007.7 1112.51 1008.37 1106.23 997.32 1106.89 984.63"/>
      <polygon class="cls-15" points="926.67 858.6 919.52 853.64 919.21 862.34 914.25 869.49 922.95 869.81 930.1 874.76 930.42 866.06 935.37 858.91 926.67 858.6"/>
      <polygon class="cls-15" points="949.35 1029.81 942.4 1035.05 933.72 1035.72 938.97 1042.67 939.64 1051.34 946.58 1046.1 955.26 1045.43 950.01 1038.49 949.35 1029.81"/>
      <polygon class="cls-15" points="1103.7 857.97 1096.33 867.47 1085 871.48 1094.49 878.86 1098.51 890.19 1105.88 880.69 1117.21 876.68 1107.72 869.3 1103.7 857.97"/>
      <polygon class="cls-15" points="694.08 1036.2 693.74 1057.34 682.06 1074.96 703.2 1075.29 720.82 1086.97 721.15 1065.83 732.84 1048.21 711.7 1047.88 694.08 1036.2"/>
      <polygon class="cls-15" points="846.32 1167.59 843.5 1144.2 825.34 1159.19 801.96 1162.02 816.95 1180.18 819.77 1203.56 837.93 1188.57 861.31 1185.75 846.32 1167.59"/>
      <polygon class="cls-15" points="848.39 1048.13 850.09 1041.68 855.01 1037.17 848.56 1035.47 844.05 1030.56 842.35 1037 837.44 1041.51 843.88 1043.22 848.39 1048.13"/>
      <polygon class="cls-15" points="582.19 891.66 568.14 897.99 552.9 895.75 559.24 909.79 557 925.04 571.04 918.7 586.28 920.94 579.95 906.9 582.19 891.66"/>
      <polygon class="cls-15" points="542.75 1032.79 557.29 1023.68 541.78 1016.35 532.67 1001.8 525.34 1017.32 510.79 1026.43 526.31 1033.76 535.42 1048.3 542.75 1032.79"/>
      <polygon class="cls-15" points="622.16 997.11 626.94 996.24 631.44 998.08 630.56 993.3 632.4 988.8 627.62 989.68 623.13 987.84 624 992.62 622.16 997.11"/>
      <polygon class="cls-15" points="370.29 972.13 369.98 980.83 365.02 987.98 373.72 988.3 380.87 993.25 381.18 984.56 386.14 977.4 377.44 977.09 370.29 972.13"/>
      <polygon class="cls-15" points="243.76 818.59 243.44 827.29 238.49 834.44 247.19 834.75 254.34 839.71 254.65 831.01 259.61 823.86 250.91 823.55 243.76 818.59"/>
      <path class="cls-25" d="M-29.4,2203h1543.53v-527.31c-184.43-79.15-411.49-149.31-659.36-198.82-345.5-69.02-661.43-83.93-884.18-51.8v777.93Z"/>
      <path class="cls-21" d="M1514.34,1419.09c-157.44-29.16-328.49-50.92-507.61-63.14-403.99-27.57-771.21-1.38-1036.14,63.08v24.01c222.75-31.39,538.67-16.82,884.18,50.6.01,0,.03,0,.04,0-.04,0-505.24-22.84-884.22,341.57v367.78h730.95s24.19-145.77,178.7-349.98c142.57-188.42,246.03-258.84,292.51-283.43,124.36,35.46,239.4,75.52,341.38,118.27l.21-268.78Z"/>
      <path class="cls-12" d="M854.71,1457.12s-.03,0-.04,0c-345.45-52.36-661.33-63.68-884.07-39.31v3.36c217.6-23.81,524.12-13.55,860.25,35.76,15.44-.09,23.85.2,23.86.2Z"/>
      <path class="cls-12" d="M1514.23,1402.55l-.21,205.42c-101.98-33.21-217.02-64.32-341.38-91.86-46.48,19.1-149.94,73.79-292.51,220.14-154.51,158.6-178.7,271.83-178.7,271.83H-29.4v3.35h730.95s24.19-113.22,178.7-271.83c142.57-146.34,246.03-201.04,292.51-220.14,124.36,27.54,239.4,58.66,341.38,91.86l.21-208.76s-.07-.01-.11-.02Z"/>
      <path class="cls-24" d="M1035.02,1397.03c168.56,16.32,329.76,38.68,479.26,65.53l.06-59.99c-157.44-22.65-328.49-39.55-507.61-49.04-373.07-19.78-714.7-3.92-973.46,38.05,266.59-31.01,618.66-31.64,1001.75,5.46Z"/>
      <ellipse class="cls-14" cx="736.52" cy="1800.8" rx="392.2" ry="105.08"/>
      <ellipse class="cls-14" cx="302.14" cy="1524.04" rx="225.63" ry="60.45"/>
      <ellipse class="cls-14" cx="1328.32" cy="1616.23" rx="30.23" ry="112.82" transform="translate(-399.51 2795.73) rotate(-84.9)"/>
      <path class="cls-14" d="M994.17,1421.29c-.36,9.39-29.07,15.91-64.12,14.57-35.05-1.34-63.18-10.05-62.82-19.44.36-9.39,29.07-15.91,64.12-14.57,35.05,1.34,63.18,10.05,62.82,19.44Z"/>
      <path class="cls-26" d="M784.18,1268.37h0c0-2.15-1.74-3.9-3.9-3.9h-16.18c-2.15,0-3.9,1.74-3.9,3.9h0c0,2.15,1.74,3.9,3.9,3.9h.3c2.15,0,3.9,1.74,3.9,3.9v.59c0,2.15-1.74,3.9-3.9,3.9h-.3c-2.15,0-3.9,1.74-3.9,3.9v167.41c0,2.15,1.74,3.9,3.9,3.9h16.18c2.15,0,3.9-1.74,3.9-3.9v-167.41c0-2.15-1.74-3.9-3.9-3.9h-.3c-2.15,0-3.9-1.74-3.9-3.9v-.59c0-2.15,1.74-3.9,3.9-3.9h.3c2.15,0,3.9-1.74,3.9-3.9Z"/>
      <path class="cls-26" d="M788.2,1248.47c0,8.84-7.17,16.01-16.01,16.01s-16.01-7.17-16.01-16.01,7.17-16.01,16.01-16.01,16.01,7.17,16.01,16.01Z"/>
      <path class="cls-22" d="M783.87,1244.77c0,5.65-5.23,10.23-11.68,10.23s-11.68-4.58-11.68-10.23,5.23-10.23,11.68-10.23,11.68,4.58,11.68,10.23Z"/>
      <path class="cls-22" d="M772.19,1264.48h-8.09c-2.15,0-3.9,1.74-3.9,3.9s1.74,3.9,3.9,3.9h.3c2.15,0,3.9,1.74,3.9,3.9v.59c0,2.15-1.74,3.9-3.9,3.9h-.3c-2.15,0-3.9,1.74-3.9,3.9v167.41c0,2.15,1.74,3.9,3.9,3.9h8.09v-191.37Z"/>
      <path class="cls-28" d="M615.12,1333.04c-49.99,0-91.17-15.19-121.76-32.37-59.14-33.21-91.29-79.93-92.63-81.9-5.09-7.5-3.14-17.7,4.36-22.79,7.49-5.08,17.68-3.15,22.77,4.33h0c.29.43,29.85,43.06,82.64,72.35,69.5,38.56,145.28,37.02,225.25-4.58,8.03-4.19,17.94-1.06,22.13,6.98,4.18,8.04,1.05,17.95-6.98,22.13-50.26,26.14-95.82,35.85-135.77,35.85Z"/>
      <path class="cls-28" d="M70.05,1361.04c-27.46,0-52.77-3.29-75.17-8.13-91.95-19.86-153.66-68.66-156.24-70.73-9.81-7.86-11.39-22.18-3.54-31.99,7.85-9.8,22.15-11.4,31.96-3.56h0c.56.45,57.16,44.89,139.1,62.14,107.88,22.73,207.7-10.28,296.7-98.09,8.95-8.83,23.36-8.73,32.18.22,8.83,8.95,8.73,23.36-.22,32.18-92.98,91.73-187.34,117.95-264.78,117.95Z"/>
      <path class="cls-26" d="M383.49,1198.88h0c0-3.56-2.89-6.45-6.45-6.45h-26.78c-3.56,0-6.45,2.89-6.45,6.45h0c0,3.56,2.89,6.45,6.45,6.45h.49c3.56,0,6.45,2.89,6.45,6.45v.97c0,3.56-2.89,6.45-6.45,6.45h-.49c-3.56,0-6.45,2.89-6.45,6.45v277.03c0,3.56,2.89,6.45,6.45,6.45h26.78c3.56,0,6.45-2.89,6.45-6.45v-277.03c0-3.56-2.89-6.45-6.45-6.45h-.49c-3.56,0-6.45-2.89-6.45-6.45v-.97c0-3.56,2.89-6.45,6.45-6.45h.49c3.56,0,6.45-2.89,6.45-6.45Z"/>
      <circle class="cls-26" cx="363.65" cy="1165.94" r="26.49" transform="translate(-854.57 1253.08) rotate(-76.77)"/>
      <path class="cls-22" d="M382.98,1159.81c0,9.35-8.65,16.94-19.33,16.94s-19.33-7.58-19.33-16.94,8.65-16.94,19.33-16.94,19.33,7.58,19.33,16.94Z"/>
      <path class="cls-22" d="M363.65,1192.43h-13.39c-3.56,0-6.45,2.89-6.45,6.45s2.89,6.45,6.45,6.45h.49c3.56,0,6.45,2.89,6.45,6.45v.97c0,3.56-2.89,6.45-6.45,6.45h-.49c-3.56,0-6.45,2.89-6.45,6.45v277.03c0,3.56,2.89,6.45,6.45,6.45h13.39v-316.69Z"/>
      <circle class="cls-26" cx="1256.88" cy="1363.33" r="16.59"/>
      <path class="cls-28" d="M1189.94,1508.21c-34.78,0-65.3-43.03-98.56-138.63-3.25-9.34,1.69-19.54,11.02-22.79,9.34-3.24,19.54,1.69,22.79,11.02,39.97,114.89,64.22,114.67,65.23,114.58,11.11-.75,28.85-37.3,36.49-75.21,1.95-9.69,11.38-15.95,21.09-14.01,9.69,1.95,15.96,11.4,14.01,21.09-.19.95-4.82,23.63-14.11,46.95-14.45,36.25-32.97,55.39-55.04,56.89-.97.06-1.94.1-2.9.1Z"/>
      <path class="cls-26" d="M1108.28,1363.7h0c0-4.26-3.45-7.72-7.72-7.72h-32.04c-4.26,0-7.72,3.45-7.72,7.72h0c0,4.26,3.45,7.72,7.72,7.72h.59c4.26,0,7.72,3.45,7.72,7.72v1.16c0,4.26-3.45,7.72-7.72,7.72h-.59c-4.26,0-7.72,3.45-7.72,7.72v331.5c0,4.26,3.45,7.72,7.72,7.72h32.04c4.26,0,7.72-3.45,7.72-7.72v-331.5c0-4.26-3.45-7.72-7.72-7.72h-.59c-4.26,0-7.72-3.45-7.72-7.72v-1.16c0-4.26,3.45-7.72,7.72-7.72h.59c4.26,0,7.72-3.45,7.72-7.72Z"/>
      <circle class="cls-26" cx="1084.54" cy="1324.28" r="31.7"/>
      <ellipse class="cls-22" cx="1084.54" cy="1316.95" rx="23.13" ry="20.27"/>
      <path class="cls-22" d="M1084.54,1355.98h-16.02c-4.26,0-7.72,3.45-7.72,7.72s3.45,7.72,7.72,7.72h.59c4.26,0,7.72,3.45,7.72,7.72v1.16c0,4.26-3.45,7.72-7.72,7.72h-.59c-4.26,0-7.72,3.45-7.72,7.72v331.5c0,4.26,3.45,7.72,7.72,7.72h16.02v-378.96Z"/>
      <path class="cls-28" d="M1017.38,1676.77c-42.77,0-81.53-51.71-108.06-92.85-8.04-12.46-4.45-29.08,8.01-37.11,12.47-8.04,29.08-4.45,37.11,8.01,43.26,67.08,62.61,68.19,63.05,68.19h0s20.29-11.24,27.23-110.83c3.98-57.14,1.17-112.08,1.14-112.62-.78-14.81,10.59-27.44,25.4-28.22,14.74-.8,27.44,10.59,28.22,25.4.13,2.43,3.09,60.2-1.35,121.39-6.85,94.47-27.28,144.05-64.31,156.02-5.54,1.79-11.02,2.62-16.44,2.62Z"/>
      <path class="cls-26" d="M957.38,1568.39h0c0-7.37-5.98-13.35-13.35-13.35h-55.43c-7.37,0-13.35,5.98-13.35,13.35h0c0,7.37,5.98,13.35,13.35,13.35h1.02c7.37,0,13.35,5.98,13.35,13.35v2.01c0,7.37-5.98,13.35-13.35,13.35h-1.02c-7.37,0-13.35,5.98-13.35,13.35v573.49c0,7.37,5.98,13.35,13.35,13.35h55.43c7.37,0,13.35-5.98,13.35-13.35v-573.49c0-7.37-5.98-13.35-13.35-13.35h-1.02c-7.37,0-13.35-5.98-13.35-13.35v-2.01c0-7.37,5.98-13.35,13.35-13.35h1.02c7.37,0,13.35-5.98,13.35-13.35Z"/>
      <circle class="cls-26" cx="916.32" cy="1500.2" r="54.84"/>
      <ellipse class="cls-22" cx="916.32" cy="1487.51" rx="40.02" ry="35.06"/>
      <path class="cls-22" d="M916.32,1555.04h-27.72c-7.37,0-13.35,5.98-13.35,13.35s5.98,13.35,13.35,13.35h1.02c7.37,0,13.35,5.98,13.35,13.35v2.01c0,7.37-5.98,13.35-13.35,13.35h-1.02c-7.37,0-13.35,5.98-13.35,13.35v573.49c0,7.37,5.98,13.35,13.35,13.35h27.72v-655.59Z"/>
      <g class="cls-7">
        <circle class="cls-5" cx="140.05" cy="257.56" r="210.94"/>
        <circle class="cls-3" cx="140.05" cy="257.56" r="87.89" transform="translate(-39.8 26.03) rotate(-9.3)"/>
      </g>
      <g class="cls-7">
        <circle class="cls-9" cx="675.26" cy="337.51" r="139.59" transform="translate(-40.87 576.34) rotate(-45)"/>
        <circle class="cls-1" cx="675.26" cy="337.51" r="58.16" transform="translate(-45.57 113.24) rotate(-9.27)"/>
      </g>
      <g class="cls-7">
        <circle class="cls-8" cx="942.87" cy="337.51" r="139.59" transform="translate(37.51 765.56) rotate(-45)"/>
        <circle class="cls-4" cx="942.87" cy="337.51" r="58.16" transform="translate(-42.07 156.37) rotate(-9.27)"/>
      </g>
      <g class="cls-7">
        <circle class="cls-11" cx="407.65" cy="315.19" r="163.41"/>
        <circle class="cls-2" cx="407.65" cy="315.19" r="68.09" transform="translate(-45.51 69.9) rotate(-9.28)"/>
      </g>
      <g class="cls-7">
        <circle class="cls-10" cx="1210.48" cy="315.19" r="163.41"/>
        <circle class="cls-6" cx="1210.48" cy="315.19" r="68.09" transform="translate(131.67 948.25) rotate(-45)"/>
      </g>
      <polygon class="cls-15" points="254.92 697.04 240.38 712.39 219.86 717.47 235.21 732.01 240.29 752.54 254.83 737.18 275.36 732.1 260 717.56 254.92 697.04"/>
      <polygon class="cls-15" points="157.05 563.49 139.01 574.51 117.87 574.06 128.9 592.1 128.44 613.24 146.49 602.22 167.62 602.67 156.6 584.63 157.05 563.49"/>
      <polygon class="cls-15" points="1186.26 689.26 1175.22 695.55 1162.52 694.88 1168.81 705.93 1168.14 718.62 1179.19 712.34 1191.88 713 1185.6 701.96 1186.26 689.26"/>
      <polygon class="cls-15" points="1006.04 563.23 998.89 558.28 998.58 566.97 993.62 574.12 1002.32 574.44 1009.47 579.39 1009.79 570.7 1014.74 563.54 1006.04 563.23"/>
      <polygon class="cls-15" points="1183.07 562.6 1175.7 572.1 1164.37 576.12 1173.86 583.49 1177.88 594.82 1185.25 585.33 1196.58 581.31 1187.09 573.94 1183.07 562.6"/>
      <polygon class="cls-15" points="773.45 740.83 773.11 761.97 761.43 779.59 782.57 779.92 800.19 791.61 800.52 770.47 812.21 752.84 791.07 752.51 773.45 740.83"/>
      <polygon class="cls-15" points="661.56 596.29 647.51 602.62 632.27 600.38 638.61 614.43 636.37 629.67 650.41 623.33 665.65 625.57 659.32 611.53 661.56 596.29"/>
      <polygon class="cls-15" points="622.12 737.42 636.66 728.31 621.15 720.98 612.04 706.44 604.71 721.95 590.16 731.06 605.68 738.39 614.79 752.94 622.12 737.42"/>
      <polygon class="cls-15" points="701.53 701.75 706.31 700.87 710.81 702.71 709.93 697.93 711.77 693.44 707 694.31 702.5 692.47 703.37 697.25 701.53 701.75"/>
      <polygon class="cls-15" points="323.13 523.22 322.81 531.92 317.86 539.07 326.56 539.38 333.71 544.34 334.02 535.64 338.98 528.49 330.28 528.18 323.13 523.22"/>
    </g>
  </g>
</svg>