<?xml version="1.0" encoding="UTF-8"?>
<svg xmlns="http://www.w3.org/2000/svg" xmlns:xlink="http://www.w3.org/1999/xlink" viewBox="0 0 1242 2208">
  <defs>
    <style>
      .cls-1 {
        fill: none;
      }

      .cls-2 {
        fill: #4f4b49;
      }

      .cls-3, .cls-4, .cls-5, .cls-6, .cls-7, .cls-8, .cls-9, .cls-10, .cls-11 {
        mix-blend-mode: multiply;
      }

      .cls-3, .cls-12, .cls-8 {
        opacity: .5;
      }

      .cls-3, .cls-13, .cls-10 {
        fill: #d1d0d1;
      }

      .cls-14 {
        fill: #b11922;
      }

      .cls-4 {
        fill: #fbd9a7;
      }

      .cls-15 {
        fill: #c71932;
      }

      .cls-5 {
        fill: #94a0a9;
      }

      .cls-16 {
        fill: #d76d1a;
      }

      .cls-17 {
        fill: #6e1e19;
      }

      .cls-18 {
        fill: #e69359;
      }

      .cls-19 {
        fill: url(#radial-gradient);
      }

      .cls-20 {
        fill: url(#linear-gradient);
      }

      .cls-21 {
        fill: #ab1922;
      }

      .cls-22 {
        fill: #d1744c;
      }

      .cls-6 {
        fill: #b8b7b9;
      }

      .cls-23 {
        isolation: isolate;
      }

      .cls-24 {
        fill: #6b141c;
      }

      .cls-7 {
        opacity: .4;
      }

      .cls-7, .cls-25, .cls-26 {
        fill: #747274;
      }

      .cls-27 {
        fill: #d6152d;
      }

      .cls-12 {
        fill: #e1e1e2;
      }

      .cls-8, .cls-9 {
        fill: #ebd2c9;
      }

      .cls-9 {
        opacity: .7;
      }

      .cls-28, .cls-29 {
        fill: #fff;
      }

      .cls-30 {
        fill: #481c14;
      }

      .cls-31 {
        fill: #4a4849;
      }

      .cls-32 {
        fill: #494847;
      }

      .cls-33 {
        fill: #595758;
      }

      .cls-29 {
        opacity: .6;
      }

      .cls-29, .cls-13, .cls-26 {
        mix-blend-mode: screen;
      }

      .cls-34 {
        fill: #2b2523;
      }

      .cls-35 {
        fill: #ae202a;
      }

      .cls-36 {
        fill: #8c1a1a;
      }

      .cls-37 {
        fill: #ae1927;
      }

      .cls-38 {
        fill: #f08497;
      }

      .cls-39 {
        fill: #e40e2e;
      }

      .cls-40 {
        fill: #f0f8f6;
      }

      .cls-41 {
        clip-path: url(#clippath);
      }

      .cls-11 {
        fill: #d0b185;
      }

      .cls-42 {
        fill: #b01922;
      }

      .cls-43 {
        fill: #f4a764;
      }
    </style>
    <clipPath id="clippath">
      <rect class="cls-1" x="1.73" y="4.26" width="3522.9" height="2193.14"/>
    </clipPath>
    <radialGradient id="radial-gradient" cx="126.96" cy="1732.66" fx="126.96" fy="1732.66" r="112.77" gradientUnits="userSpaceOnUse">
      <stop offset="0" stop-color="#7589a6"/>
      <stop offset=".13" stop-color="#6e7f9c"/>
      <stop offset=".34" stop-color="#5d6682"/>
      <stop offset=".58" stop-color="#46445e"/>
      <stop offset=".93" stop-color="#2e222b"/>
    </radialGradient>
    <linearGradient id="linear-gradient" x1="161.58" y1="1675.44" x2="161.58" y2="1690.31" gradientUnits="userSpaceOnUse">
      <stop offset="0" stop-color="#221b1f"/>
      <stop offset=".03" stop-color="#2a262d"/>
      <stop offset=".13" stop-color="#4a5061"/>
      <stop offset=".22" stop-color="#616f86"/>
      <stop offset=".29" stop-color="#6f829d"/>
      <stop offset=".33" stop-color="#7589a6"/>
      <stop offset=".4" stop-color="#6e7f9c"/>
      <stop offset=".52" stop-color="#5d6682"/>
      <stop offset=".64" stop-color="#46445e"/>
      <stop offset=".93" stop-color="#2e222b"/>
    </linearGradient>
  </defs>
  <g class="cls-23">
    <g id="Camada_1" data-name="Camada 1">
      <g class="cls-41">
        <rect class="cls-16" x="-34.27" y="-6.97" width="3580.08" height="1627.83"/>
        <rect class="cls-43" x="-2.79" y="1608.46" width="165.17" height="60.98"/>
        <rect class="cls-43" x="173.16" y="1608.46" width="165.17" height="60.98"/>
        <rect class="cls-43" x="349.1" y="1608.46" width="165.17" height="60.98"/>
        <rect class="cls-43" x="525.04" y="1608.46" width="165.17" height="60.98"/>
        <rect class="cls-43" x="701.79" y="1608.46" width="165.17" height="60.98"/>
        <rect class="cls-43" x="878.1" y="1608.46" width="165.15" height="60.98"/>
        <rect class="cls-43" x="1054.4" y="1608.46" width="165.17" height="60.98"/>
        <rect class="cls-43" x="1230.7" y="1608.46" width="165.15" height="60.98"/>
        <rect class="cls-43" x="-96.63" y="1535.03" width="165.17" height="60.98"/>
        <rect class="cls-43" x="79.31" y="1535.03" width="165.17" height="60.98"/>
        <rect class="cls-18" x="255.25" y="1535.03" width="165.17" height="60.98"/>
        <rect class="cls-43" x="431.2" y="1535.03" width="165.17" height="60.98"/>
        <rect class="cls-43" x="607.94" y="1535.03" width="165.17" height="60.98"/>
        <rect class="cls-43" x="784.23" y="1535.03" width="165.17" height="60.98"/>
        <rect class="cls-43" x="960.55" y="1535.03" width="165.17" height="60.98"/>
        <rect class="cls-43" x="1136.84" y="1535.03" width="165.17" height="60.98"/>
        <rect class="cls-43" x="-2.79" y="1461.6" width="165.17" height="60.98"/>
        <rect class="cls-43" x="173.16" y="1461.6" width="165.17" height="60.98"/>
        <rect class="cls-43" x="349.1" y="1461.6" width="165.17" height="60.98"/>
        <rect class="cls-43" x="525.04" y="1461.6" width="165.17" height="60.98"/>
        <rect class="cls-43" x="701.79" y="1461.6" width="165.17" height="60.98"/>
        <rect class="cls-43" x="878.1" y="1461.6" width="165.15" height="60.98"/>
        <rect class="cls-43" x="1054.4" y="1461.6" width="165.17" height="60.98"/>
        <rect class="cls-43" x="1230.7" y="1461.6" width="165.15" height="60.98"/>
        <rect class="cls-43" x="-96.63" y="1388.17" width="165.17" height="60.98"/>
        <rect class="cls-22" x="79.31" y="1388.17" width="165.17" height="60.98"/>
        <rect class="cls-18" x="255.25" y="1388.17" width="165.17" height="60.98"/>
        <rect class="cls-43" x="431.2" y="1388.17" width="165.17" height="60.98"/>
        <rect class="cls-43" x="607.94" y="1388.17" width="165.17" height="60.98"/>
        <rect class="cls-43" x="784.23" y="1388.17" width="165.17" height="60.98"/>
        <rect class="cls-43" x="960.55" y="1388.17" width="165.17" height="60.98"/>
        <rect class="cls-18" x="1136.84" y="1388.17" width="165.17" height="60.98"/>
        <rect class="cls-18" x="-2.79" y="1314.75" width="165.17" height="60.98"/>
        <rect class="cls-43" x="173.16" y="1314.75" width="165.17" height="60.98"/>
        <rect class="cls-43" x="349.1" y="1314.75" width="165.17" height="60.98"/>
        <rect class="cls-43" x="525.04" y="1314.75" width="165.17" height="60.98"/>
        <rect class="cls-43" x="701.79" y="1314.75" width="165.17" height="60.98"/>
        <rect class="cls-43" x="878.1" y="1314.75" width="165.15" height="60.98"/>
        <rect class="cls-43" x="1054.4" y="1314.75" width="165.17" height="60.98"/>
        <rect class="cls-43" x="1230.7" y="1314.75" width="165.15" height="60.98"/>
        <rect class="cls-43" x="-96.63" y="1241.32" width="165.17" height="60.99"/>
        <rect class="cls-18" x="79.31" y="1241.32" width="165.17" height="60.99"/>
        <rect class="cls-43" x="255.25" y="1241.32" width="165.17" height="60.99"/>
        <rect class="cls-43" x="431.2" y="1241.32" width="165.17" height="60.99"/>
        <rect class="cls-43" x="607.94" y="1241.32" width="165.17" height="60.99"/>
        <rect class="cls-43" x="784.23" y="1241.32" width="165.17" height="60.99"/>
        <rect class="cls-43" x="960.55" y="1241.32" width="165.17" height="60.99"/>
        <rect class="cls-18" x="1136.84" y="1241.32" width="165.17" height="60.99"/>
        <rect class="cls-43" x="-2.79" y="1167.89" width="165.17" height="60.98"/>
        <rect class="cls-43" x="173.16" y="1167.89" width="165.17" height="60.98"/>
        <rect class="cls-22" x="349.1" y="1167.89" width="165.17" height="60.98"/>
        <rect class="cls-43" x="525.04" y="1167.89" width="165.17" height="60.98"/>
        <rect class="cls-43" x="701.79" y="1167.89" width="165.17" height="60.98"/>
        <rect class="cls-43" x="878.1" y="1167.89" width="165.15" height="60.98"/>
        <rect class="cls-43" x="1054.4" y="1167.89" width="165.17" height="60.98"/>
        <rect class="cls-43" x="1230.7" y="1167.89" width="165.15" height="60.98"/>
        <rect class="cls-43" x="-96.63" y="1094.47" width="165.17" height="60.97"/>
        <rect class="cls-43" x="79.31" y="1094.47" width="165.17" height="60.97"/>
        <rect class="cls-43" x="255.25" y="1094.47" width="165.17" height="60.97"/>
        <rect class="cls-43" x="431.2" y="1094.47" width="165.17" height="60.97"/>
        <rect class="cls-43" x="607.94" y="1094.47" width="165.17" height="60.97"/>
        <rect class="cls-43" x="784.23" y="1094.47" width="165.17" height="60.97"/>
        <rect class="cls-43" x="960.55" y="1094.47" width="165.17" height="60.97"/>
        <rect class="cls-43" x="1136.84" y="1094.47" width="165.17" height="60.97"/>
        <rect class="cls-18" x="-2.79" y="1021.03" width="165.17" height="60.98"/>
        <rect class="cls-22" x="173.16" y="1021.03" width="165.17" height="60.98"/>
        <rect class="cls-43" x="349.1" y="1021.03" width="165.17" height="60.98"/>
        <rect class="cls-43" x="525.04" y="1021.03" width="165.17" height="60.98"/>
        <rect class="cls-43" x="701.79" y="1021.03" width="165.17" height="60.98"/>
        <rect class="cls-18" x="878.1" y="1021.03" width="165.15" height="60.98"/>
        <rect class="cls-43" x="1054.4" y="1021.03" width="165.17" height="60.98"/>
        <rect class="cls-43" x="1230.7" y="1021.03" width="165.15" height="60.98"/>
        <rect class="cls-22" x="-96.63" y="947.6" width="165.17" height="60.98"/>
        <rect class="cls-43" x="79.31" y="947.6" width="165.17" height="60.98"/>
        <rect class="cls-18" x="255.25" y="947.6" width="165.17" height="60.98"/>
        <rect class="cls-43" x="431.2" y="947.6" width="165.17" height="60.98"/>
        <rect class="cls-43" x="607.94" y="947.6" width="165.17" height="60.98"/>
        <rect class="cls-43" x="784.23" y="947.6" width="165.17" height="60.98"/>
        <rect class="cls-43" x="960.55" y="947.6" width="165.17" height="60.98"/>
        <rect class="cls-43" x="1136.84" y="947.6" width="165.17" height="60.98"/>
        <rect class="cls-43" x="-2.79" y="874.18" width="165.17" height="60.97"/>
        <rect class="cls-43" x="173.16" y="874.18" width="165.17" height="60.97"/>
        <rect class="cls-43" x="349.1" y="874.18" width="165.17" height="60.97"/>
        <rect class="cls-43" x="525.04" y="874.18" width="165.17" height="60.97"/>
        <rect class="cls-43" x="701.79" y="874.18" width="165.17" height="60.97"/>
        <rect class="cls-43" x="878.1" y="874.18" width="165.15" height="60.97"/>
        <rect class="cls-43" x="1054.4" y="874.18" width="165.17" height="60.97"/>
        <rect class="cls-43" x="1230.7" y="874.18" width="165.15" height="60.97"/>
        <rect class="cls-43" x="-96.63" y="800.74" width="165.17" height="61"/>
        <rect class="cls-43" x="79.31" y="800.74" width="165.17" height="61"/>
        <rect class="cls-22" x="255.25" y="800.74" width="165.17" height="61"/>
        <rect class="cls-43" x="431.2" y="800.74" width="165.17" height="61"/>
        <rect class="cls-22" x="607.94" y="800.74" width="165.17" height="61"/>
        <rect class="cls-43" x="784.23" y="800.74" width="165.17" height="61"/>
        <rect class="cls-18" x="960.55" y="800.74" width="165.17" height="61"/>
        <rect class="cls-43" x="1136.84" y="800.74" width="165.17" height="61"/>
        <rect class="cls-43" x="-2.79" y="727.32" width="165.17" height="60.98"/>
        <rect class="cls-43" x="173.16" y="727.32" width="165.17" height="60.98"/>
        <rect class="cls-43" x="349.1" y="727.32" width="165.17" height="60.98"/>
        <rect class="cls-43" x="525.04" y="727.32" width="165.17" height="60.98"/>
        <rect class="cls-43" x="701.79" y="727.32" width="165.17" height="60.98"/>
        <rect class="cls-43" x="878.1" y="727.32" width="165.15" height="60.98"/>
        <rect class="cls-43" x="1054.4" y="727.32" width="165.17" height="60.98"/>
        <rect class="cls-22" x="1230.7" y="727.32" width="165.15" height="60.98"/>
        <rect class="cls-43" x="-96.63" y="653.89" width="165.17" height="60.98"/>
        <rect class="cls-43" x="79.31" y="653.89" width="165.17" height="60.98"/>
        <rect class="cls-43" x="255.25" y="653.89" width="165.17" height="60.98"/>
        <rect class="cls-22" x="431.2" y="653.89" width="165.17" height="60.98"/>
        <rect class="cls-43" x="607.94" y="653.89" width="165.17" height="60.98"/>
        <rect class="cls-22" x="784.23" y="653.89" width="165.17" height="60.98"/>
        <rect class="cls-18" x="960.55" y="653.89" width="165.17" height="60.98"/>
        <rect class="cls-43" x="1136.84" y="653.89" width="165.17" height="60.98"/>
        <rect class="cls-22" x="-2.79" y="580.46" width="165.17" height="60.98"/>
        <rect class="cls-43" x="173.16" y="580.46" width="165.17" height="60.98"/>
        <rect class="cls-22" x="349.1" y="580.46" width="165.17" height="60.98"/>
        <rect class="cls-43" x="525.04" y="580.46" width="165.17" height="60.98"/>
        <rect class="cls-43" x="701.79" y="580.46" width="165.17" height="60.98"/>
        <rect class="cls-43" x="878.1" y="580.46" width="165.15" height="60.98"/>
        <rect class="cls-43" x="1054.4" y="580.46" width="165.17" height="60.98"/>
        <rect class="cls-43" x="1230.7" y="580.46" width="165.15" height="60.98"/>
        <rect class="cls-43" x="-96.63" y="507.02" width="165.17" height="60.98"/>
        <rect class="cls-43" x="79.31" y="507.02" width="165.17" height="60.98"/>
        <rect class="cls-18" x="255.25" y="507.02" width="165.17" height="60.98"/>
        <rect class="cls-43" x="431.2" y="507.02" width="165.17" height="60.98"/>
        <rect class="cls-43" x="607.94" y="507.02" width="165.17" height="60.98"/>
        <rect class="cls-43" x="784.23" y="507.02" width="165.17" height="60.98"/>
        <rect class="cls-43" x="960.55" y="507.02" width="165.17" height="60.98"/>
        <rect class="cls-43" x="1136.84" y="507.02" width="165.17" height="60.98"/>
        <rect class="cls-43" x="-2.79" y="433.6" width="165.17" height="60.99"/>
        <rect class="cls-18" x="173.16" y="433.6" width="165.17" height="60.99"/>
        <rect class="cls-43" x="349.1" y="433.6" width="165.17" height="60.99"/>
        <rect class="cls-43" x="525.04" y="433.6" width="165.17" height="60.99"/>
        <rect class="cls-43" x="701.79" y="433.6" width="165.17" height="60.99"/>
        <rect class="cls-43" x="878.1" y="433.6" width="165.15" height="60.99"/>
        <rect class="cls-18" x="1054.4" y="433.6" width="165.17" height="60.99"/>
        <rect class="cls-43" x="1230.7" y="433.6" width="165.15" height="60.99"/>
        <rect class="cls-43" x="-96.63" y="360.17" width="165.17" height="60.98"/>
        <rect class="cls-43" x="79.31" y="360.17" width="165.17" height="60.98"/>
        <rect class="cls-43" x="255.25" y="360.17" width="165.17" height="60.98"/>
        <rect class="cls-43" x="431.2" y="360.17" width="165.17" height="60.98"/>
        <rect class="cls-43" x="607.94" y="360.17" width="165.17" height="60.98"/>
        <rect class="cls-43" x="784.23" y="360.17" width="165.17" height="60.98"/>
        <rect class="cls-43" x="960.55" y="360.17" width="165.17" height="60.98"/>
        <rect class="cls-43" x="1136.84" y="360.17" width="165.17" height="60.98"/>
        <rect class="cls-43" x="-2.79" y="286.74" width="165.17" height="60.97"/>
        <rect class="cls-43" x="173.16" y="286.74" width="165.17" height="60.97"/>
        <rect class="cls-43" x="349.1" y="286.74" width="165.17" height="60.97"/>
        <rect class="cls-43" x="525.04" y="286.74" width="165.17" height="60.97"/>
        <rect class="cls-43" x="701.79" y="286.74" width="165.17" height="60.97"/>
        <rect class="cls-43" x="878.1" y="286.74" width="165.15" height="60.97"/>
        <rect class="cls-43" x="1054.4" y="286.74" width="165.17" height="60.97"/>
        <rect class="cls-43" x="1230.7" y="286.74" width="165.15" height="60.97"/>
        <rect class="cls-22" x="-96.63" y="213.32" width="165.17" height="60.98"/>
        <rect class="cls-43" x="79.31" y="213.32" width="165.17" height="60.98"/>
        <rect class="cls-22" x="255.25" y="213.32" width="165.17" height="60.98"/>
        <rect class="cls-43" x="431.2" y="213.32" width="165.17" height="60.98"/>
        <rect class="cls-43" x="607.94" y="213.32" width="165.17" height="60.98"/>
        <rect class="cls-43" x="784.23" y="213.32" width="165.17" height="60.98"/>
        <rect class="cls-43" x="960.55" y="213.32" width="165.17" height="60.98"/>
        <rect class="cls-18" x="1136.84" y="213.32" width="165.17" height="60.98"/>
        <rect class="cls-18" x="-2.79" y="139.88" width="165.17" height="60.98"/>
        <rect class="cls-43" x="173.16" y="139.88" width="165.17" height="60.98"/>
        <rect class="cls-43" x="349.1" y="139.88" width="165.17" height="60.98"/>
        <rect class="cls-43" x="525.04" y="139.88" width="165.17" height="60.98"/>
        <rect class="cls-43" x="701.79" y="139.88" width="165.17" height="60.98"/>
        <rect class="cls-43" x="878.1" y="139.88" width="165.15" height="60.98"/>
        <rect class="cls-43" x="1054.4" y="139.88" width="165.17" height="60.98"/>
        <rect class="cls-43" x="1230.7" y="139.88" width="165.15" height="60.98"/>
        <rect class="cls-43" x="-96.63" y="66.45" width="165.17" height="60.98"/>
        <rect class="cls-43" x="79.31" y="66.45" width="165.17" height="60.98"/>
        <rect class="cls-18" x="255.25" y="66.45" width="165.17" height="60.98"/>
        <rect class="cls-43" x="431.2" y="66.45" width="165.17" height="60.98"/>
        <rect class="cls-43" x="607.94" y="66.45" width="165.17" height="60.98"/>
        <rect class="cls-43" x="784.23" y="66.45" width="165.17" height="60.98"/>
        <rect class="cls-43" x="1136.84" y="66.45" width="165.17" height="60.98"/>
        <rect class="cls-43" x="-2.79" y="-6.97" width="165.17" height="60.98"/>
        <rect class="cls-43" x="173.16" y="-6.97" width="165.17" height="60.98"/>
        <rect class="cls-43" x="349.1" y="-6.97" width="165.17" height="60.98"/>
        <rect class="cls-43" x="525.04" y="-6.97" width="165.17" height="60.98"/>
        <rect class="cls-43" x="701.79" y="-6.97" width="165.17" height="60.98"/>
        <rect class="cls-43" x="878.1" y="-6.97" width="165.15" height="60.98"/>
        <rect class="cls-43" x="1054.4" y="-6.97" width="165.17" height="60.98"/>
        <rect class="cls-43" x="1230.7" y="-6.97" width="165.15" height="60.98"/>
        <path class="cls-4" d="M3392.21,372.48c-94.35,162.6-212.18,305.54-354.11,411.62-169.48,126.67-365.3,201.47-560.85,250.56-212.12,53.26-429.89,75.3-646.7,70.76-337.22-7.07-675.68-74.26-988.73-224.13-185.32-88.74-361.82-202.11-526.39-335.5-69.43-56.27-136.02-117.63-191.69-192.5C69.17,279.86,24.62,198.43-11.28,111.94v1575.55h3534.09V106.55c-38.7,91.82-81.44,181.18-130.61,265.92Z"/>
        <path class="cls-4" d="M1220.29,685.89c-1.43-3.1-4.18-5.26-7.48-6.56-4.52-1.78-8.83,1.48-11.28,4.96-3.59,5.14-5.54,10.48-7.94,16.2-2.16,5.05-1.31,9.23,4.31,10.79,5.2,1.46,11.15-2.38,15.42-4.8,4.69-2.68,9.72-6.2,11.14-11.78,1.01-4.01-1.16-6.7-4.16-8.82Z"/>
        <path class="cls-4" d="M1263.85,715.23c-1.27-4.74-7.22-4.64-10.94-3.34-1.41,0-2.83.27-4.08.77-2.51,1.04-4.8,3.51-6.15,5.77-1.1,1.74-2.51,6-1.01,7.79,1.61,1.91,3.76,1.95,6.05,2.37,2.62.5,5.3.47,7.82-.46,4.82-1.78,9.76-7.47,8.32-12.9Z"/>
        <path class="cls-4" d="M1172.5,768.52c-.21-1.56-1.56-2.08-2.98-2.38-.04,0-.11-.01-.14-.02.12-.46.08-.93-.21-1.34-.89-1.24-2.68-1.38-4.05-1.03-3.04.8-5.83,4.21-6.4,7.24-.44,2.48,1.03,4.95,3.78,4.63,1.94-.24,3.88-.23,5.75-.97,2.07-.84,4.6-3.7,4.27-6.12Z"/>
        <path class="cls-4" d="M1156.83,749.55c-1.95-.81-3.81.4-5.2,1.8-.21-.11-.42-.21-.64-.27-1.52-.53-3.23,1.46-3.46,2.81-.38,2.32,2.28,4.67,4.43,5.02,3.55.61,9.12-7.55,4.87-9.36Z"/>
        <path class="cls-4" d="M945.17,781.02c.43-3.41-.8-6.7-2.91-9.52-2.88-3.91-8.27-3.41-12.17-1.73-5.79,2.48-10.23,5.97-15.32,9.57-4.48,3.17-5.96,7.17-2.01,11.45,3.65,3.97,10.73,3.85,15.63,4.05,5.39.2,11.53-.13,15.67-4.13,2.96-2.87,2.54-6.31,1.1-9.68Z"/>
        <path class="cls-4" d="M966.72,828.92c1.43-4.71-3.7-7.75-7.56-8.62-1.18-.73-2.53-1.28-3.85-1.49-2.66-.44-5.92.46-8.28,1.65-1.82.93-5.28,3.79-4.95,6.12.34,2.46,2.16,3.61,3.89,5.18,1.94,1.79,4.25,3.18,6.84,3.71,5.07,1.04,12.25-1.2,13.9-6.55Z"/>
        <path class="cls-4" d="M990.32,797.98c-1.5-2.53-3.7-3.75-6.1-4.09-.91-2.01-3.76-2.46-5.68-1.98-3.38.85-5.85,2.84-8.82,4.47-2.23,1.24-4.98,3.47-3.16,6.2,1.35,1.98,4.65,3.45,6.76,4.4,2.53,1.14,5.11,1.05,7.77.85,5.2-.37,12.97-3.58,9.23-9.85Z"/>
        <path class="cls-4" d="M861,826.03c.64-1.46-.21-2.61-1.27-3.6-.04-.04-.09-.07-.12-.1.34-.34.56-.74.54-1.24-.12-1.53-1.56-2.61-2.93-3.03-3-.93-7.18.5-9.25,2.78-1.67,1.86-1.71,4.75.78,5.92,1.78.81,3.45,1.87,5.39,2.21,2.22.39,5.85-.71,6.87-2.94Z"/>
        <path class="cls-4" d="M857.66,801.64c-1.18-1.7-3.42-1.67-5.32-1.2-.14-.2-.25-.41-.42-.58-1.01-1.24-3.5-.46-4.44.57-1.56,1.77-.51,5.17,1.14,6.61,2.71,2.39,11.71-1.61,9.04-5.4Z"/>
        <path class="cls-4" d="M1263.35,1156.39c-1.27-4.76-7.23-4.63-10.95-3.34-1.43,0-2.85.26-4.1.76-2.5,1.03-4.77,3.53-6.15,5.78-1.08,1.74-2.51,6.01-.99,7.8,1.61,1.88,3.76,1.95,6.05,2.37,2.62.49,5.3.45,7.82-.49,4.82-1.78,9.74-7.47,8.33-12.88Z"/>
        <path class="cls-4" d="M1171.99,1209.69c-.21-1.58-1.56-2.11-2.98-2.39-.06-.01-.11-.01-.15-.03.13-.47.09-.94-.21-1.33-.89-1.25-2.71-1.4-4.05-1.03-3.04.78-5.83,4.2-6.42,7.24-.44,2.46,1.06,4.95,3.8,4.61,1.94-.23,3.88-.23,5.75-.97,2.07-.83,4.6-3.68,4.26-6.1Z"/>
        <path class="cls-4" d="M1156.31,1190.72c-1.94-.82-3.8.38-5.2,1.78-.21-.11-.42-.21-.64-.29-1.52-.51-3.23,1.48-3.46,2.83-.4,2.33,2.28,4.65,4.43,5.02,3.55.59,9.11-7.57,4.86-9.36Z"/>
        <path class="cls-4" d="M892.65,1280.45c-1.43-3.11-4.23-5.27-7.48-6.57-4.52-1.78-8.83,1.49-11.28,4.95-3.59,5.15-5.54,10.48-7.97,16.21-2.13,5.06-1.28,9.23,4.34,10.8,5.2,1.44,11.15-2.39,15.4-4.8,4.71-2.68,9.74-6.2,11.14-11.78,1.01-4.01-1.14-6.7-4.14-8.82Z"/>
        <path class="cls-4" d="M936.21,1309.79c-1.27-4.75-7.22-4.63-10.96-3.35-1.41,0-2.83.26-4.08.77-2.5,1.03-4.77,3.5-6.17,5.77-1.06,1.76-2.49,6-.97,7.79,1.61,1.9,3.76,1.94,6.05,2.37,2.6.49,5.28.46,7.79-.47,4.84-1.78,9.74-7.48,8.34-12.88Z"/>
        <path class="cls-4" d="M844.87,1363.07c-.26-1.57-1.56-2.09-3.01-2.38-.04,0-.09-.01-.14-.03.12-.46.1-.93-.19-1.33-.89-1.24-2.71-1.38-4.08-1.03-3.02.81-5.83,4.2-6.4,7.24-.44,2.47,1.06,4.94,3.81,4.61,1.92-.24,3.88-.21,5.72-.96,2.09-.84,4.63-3.7,4.29-6.12Z"/>
        <path class="cls-4" d="M829.19,1344.1c-1.94-.8-3.8.4-5.2,1.8-.21-.11-.42-.21-.64-.28-1.54-.53-3.25,1.46-3.46,2.81-.42,2.34,2.28,4.67,4.43,5.03,3.56.61,9.09-7.56,4.86-9.36Z"/>
        <path class="cls-4" d="M1216.06,1411.18c-1.43-3.11-4.23-5.27-7.5-6.57-4.52-1.78-8.81,1.48-11.26,4.95-3.59,5.15-5.54,10.48-7.97,16.2-2.13,5.07-1.28,9.24,4.34,10.8,5.2,1.45,11.15-2.39,15.4-4.79,4.71-2.68,9.74-6.21,11.13-11.78,1.01-4.02-1.16-6.71-4.14-8.82Z"/>
        <path class="cls-4" d="M1259.6,1440.52c-1.24-4.75-7.2-4.64-10.96-3.35-1.39,0-2.83.26-4.05.76-2.5,1.06-4.77,3.54-6.17,5.8-1.06,1.74-2.5,6-.98,7.79,1.61,1.9,3.76,1.94,6.05,2.37,2.6.49,5.28.45,7.77-.47,4.86-1.78,9.76-7.48,8.34-12.89Z"/>
        <path class="cls-4" d="M1168.28,1493.81c-.26-1.58-1.56-2.1-3-2.39-.04,0-.08-.02-.16-.02.12-.46.12-.93-.17-1.34-.91-1.23-2.71-1.38-4.08-1.03-3.04.78-5.85,4.23-6.4,7.25-.46,2.46,1.06,4.94,3.8,4.61,1.9-.24,3.88-.23,5.72-.96,2.09-.84,4.63-3.7,4.29-6.12Z"/>
        <path class="cls-4" d="M1152.57,1474.84c-1.92-.83-3.8.39-5.17,1.8-.21-.11-.42-.21-.64-.29-1.54-.52-3.25,1.46-3.46,2.81-.42,2.33,2.28,4.67,4.44,5.03,3.55.61,9.09-7.56,4.83-9.36Z"/>
        <path class="cls-4" d="M907.19,1506.71c-1.26-4.76-7.22-4.65-10.94-3.35-1.41,0-2.86.27-4.1.78-2.49,1.02-4.77,3.5-6.15,5.77-1.07,1.75-2.51,6-.98,7.79,1.6,1.91,3.75,1.95,6.04,2.37,2.62.49,5.3.46,7.82-.46,4.82-1.78,9.76-7.48,8.32-12.89Z"/>
        <path class="cls-4" d="M910.93,1467.98c-2.6-1.36-5.11-1.24-7.33-.26-1.86-1.24-4.5-.11-5.87,1.31-2.43,2.51-3.46,5.5-5.13,8.44-1.25,2.24-2.38,5.57.57,6.92,2.2,1,5.79.51,8.07.19,2.76-.37,4.91-1.8,7.06-3.37,4.23-3.07,9.13-9.89,2.64-13.23Z"/>
        <path class="cls-4" d="M815.84,1560c-.21-1.58-1.56-2.09-2.98-2.38-.07,0-.11-.02-.16-.02.13-.48.09-.93-.21-1.33-.89-1.26-2.68-1.4-4.05-1.04-3.04.78-5.85,4.21-6.4,7.25-.44,2.47,1.03,4.95,3.78,4.6,1.94-.23,3.88-.21,5.75-.94,2.07-.85,4.6-3.7,4.27-6.13Z"/>
        <path class="cls-4" d="M800.16,1541.02c-1.95-.81-3.8.41-5.2,1.79-.21-.1-.42-.21-.63-.29-1.53-.51-3.24,1.47-3.47,2.83-.38,2.33,2.28,4.67,4.44,5.04,3.55.6,9.1-7.57,4.86-9.37Z"/>
        <path class="cls-4" d="M945.17,1051.11c.43-3.4-.8-6.68-2.91-9.51-2.88-3.91-8.27-3.4-12.17-1.73-5.79,2.47-10.23,5.97-15.32,9.56-4.48,3.17-5.96,7.17-2.01,11.45,3.65,3.98,10.73,3.85,15.63,4.04,5.39.21,11.53-.13,15.67-4.13,2.96-2.87,2.54-6.31,1.1-9.69Z"/>
        <path class="cls-4" d="M966.72,1099.01c1.43-4.69-3.7-7.75-7.56-8.61-1.18-.74-2.53-1.27-3.85-1.48-2.66-.45-5.92.46-8.28,1.66-1.82.91-5.28,3.77-4.95,6.09.34,2.46,2.16,3.63,3.89,5.2,1.94,1.78,4.25,3.18,6.84,3.71,5.07,1.03,12.25-1.2,13.9-6.57Z"/>
        <path class="cls-4" d="M990.32,1068.07c-1.5-2.51-3.7-3.73-6.1-4.07-.91-2.03-3.76-2.46-5.68-1.98-3.38.85-5.85,2.84-8.82,4.47-2.23,1.23-4.98,3.46-3.16,6.2,1.35,1.98,4.65,3.45,6.76,4.4,2.53,1.14,5.11,1.05,7.77.86,5.2-.38,12.97-3.6,9.23-9.87Z"/>
        <path class="cls-4" d="M861,1096.14c.64-1.46-.21-2.6-1.27-3.6-.04-.04-.09-.08-.12-.09.34-.34.56-.74.54-1.25-.12-1.53-1.56-2.6-2.93-3.02-3-.93-7.18.51-9.25,2.78-1.67,1.86-1.71,4.75.78,5.92,1.78.81,3.45,1.86,5.39,2.2,2.22.38,5.85-.69,6.87-2.93Z"/>
        <path class="cls-4" d="M857.66,1071.73c-1.18-1.71-3.42-1.67-5.32-1.21-.14-.2-.25-.4-.42-.57-1.01-1.24-3.5-.46-4.44.57-1.56,1.77-.51,5.17,1.14,6.61,2.71,2.38,11.71-1.63,9.04-5.4Z"/>
        <path class="cls-4" d="M1263.35,187.79c-1.27-4.75-7.23-4.64-10.95-3.34-1.43,0-2.85.25-4.1.76-2.5,1.03-4.77,3.53-6.15,5.78-1.08,1.74-2.51,6-.99,7.8,1.61,1.89,3.76,1.93,6.05,2.36,2.62.49,5.3.46,7.82-.46,4.82-1.78,9.74-7.48,8.33-12.9Z"/>
        <path class="cls-4" d="M1171.99,241.08c-.21-1.58-1.56-2.11-2.98-2.38-.06-.02-.11-.02-.15-.03.13-.47.09-.94-.21-1.34-.89-1.25-2.71-1.39-4.05-1.04-3.04.81-5.83,4.23-6.42,7.25-.44,2.47,1.06,4.97,3.8,4.63,1.94-.24,3.88-.23,5.75-.97,2.07-.84,4.6-3.68,4.26-6.11Z"/>
        <path class="cls-4" d="M1156.31,222.11c-1.94-.82-3.8.39-5.2,1.78-.21-.1-.42-.2-.64-.28-1.52-.51-3.23,1.48-3.46,2.83-.4,2.31,2.28,4.64,4.43,5.02,3.55.59,9.11-7.57,4.86-9.37Z"/>
        <path class="cls-4" d="M892.65,311.84c-1.43-3.1-4.23-5.26-7.48-6.56-4.52-1.78-8.83,1.47-11.28,4.95-3.59,5.15-5.54,10.48-7.97,16.2-2.13,5.05-1.28,9.24,4.34,10.8,5.2,1.46,11.15-2.39,15.4-4.8,4.71-2.68,9.74-6.2,11.14-11.77,1.01-4.02-1.14-6.7-4.14-8.82Z"/>
        <path class="cls-4" d="M936.21,341.18c-1.27-4.75-7.22-4.64-10.96-3.35-1.41,0-2.83.27-4.08.77-2.5,1.03-4.77,3.52-6.17,5.78-1.06,1.74-2.49,6-.97,7.79,1.61,1.9,3.76,1.94,6.05,2.36,2.6.49,5.28.46,7.79-.46,4.84-1.78,9.74-7.48,8.34-12.89Z"/>
        <path class="cls-4" d="M844.87,394.48c-.26-1.58-1.56-2.1-3.01-2.4-.04,0-.09,0-.14-.02.12-.46.1-.93-.19-1.34-.89-1.23-2.71-1.39-4.08-1.03-3.02.8-5.83,4.21-6.4,7.25-.44,2.47,1.06,4.94,3.81,4.6,1.92-.24,3.88-.24,5.72-.96,2.09-.84,4.63-3.68,4.29-6.1Z"/>
        <path class="cls-4" d="M829.19,375.5c-1.94-.81-3.8.39-5.2,1.79-.21-.11-.42-.21-.64-.29-1.54-.52-3.25,1.47-3.46,2.82-.42,2.33,2.28,4.67,4.43,5.02,3.56.61,9.09-7.56,4.86-9.35Z"/>
        <path class="cls-4" d="M1216.06,442.57c-1.43-3.1-4.23-5.26-7.5-6.56-4.52-1.78-8.81,1.47-11.26,4.95-3.59,5.14-5.54,10.48-7.97,16.2-2.13,5.05-1.28,9.24,4.34,10.8,5.2,1.43,11.15-2.39,15.4-4.82,4.71-2.66,9.74-6.2,11.13-11.76,1.01-4.02-1.16-6.7-4.14-8.82Z"/>
        <path class="cls-4" d="M1259.6,471.91c-1.24-4.75-7.2-4.63-10.96-3.35-1.39,0-2.83.27-4.05.77-2.5,1.03-4.77,3.51-6.17,5.78-1.06,1.73-2.5,6-.98,7.79,1.61,1.9,3.76,1.94,6.05,2.36,2.6.49,5.28.46,7.77-.46,4.86-1.78,9.76-7.48,8.34-12.9Z"/>
        <path class="cls-4" d="M1168.28,525.2c-.26-1.56-1.56-2.1-3-2.38-.04-.02-.08-.02-.16-.02.12-.46.12-.93-.17-1.34-.91-1.23-2.71-1.38-4.08-1.03-3.04.8-5.85,4.21-6.4,7.24-.46,2.46,1.06,4.95,3.8,4.62,1.9-.24,3.88-.22,5.72-.96,2.09-.83,4.63-3.68,4.29-6.12Z"/>
        <path class="cls-4" d="M1152.57,506.24c-1.92-.81-3.8.39-5.17,1.79-.21-.11-.42-.21-.64-.29-1.54-.52-3.25,1.46-3.46,2.82-.42,2.33,2.28,4.67,4.44,5.02,3.55.61,9.09-7.56,4.83-9.35Z"/>
        <path class="cls-4" d="M907.19,538.1c-1.26-4.74-7.22-4.64-10.94-3.35-1.41,0-2.86.28-4.1.78-2.49,1.01-4.77,3.51-6.15,5.77-1.07,1.75-2.51,6.01-.98,7.8,1.6,1.91,3.75,1.95,6.04,2.36,2.62.49,5.3.47,7.82-.46,4.82-1.78,9.76-7.48,8.32-12.9Z"/>
        <path class="cls-4" d="M910.93,499.37c-2.6-1.33-5.11-1.23-7.33-.26-1.86-1.23-4.5-.11-5.87,1.33-2.43,2.5-3.46,5.48-5.13,8.43-1.25,2.24-2.38,5.58.57,6.93,2.2.99,5.79.49,8.07.19,2.76-.37,4.91-1.81,7.06-3.38,4.23-3.06,9.13-9.88,2.64-13.23Z"/>
        <path class="cls-4" d="M815.84,591.39c-.21-1.56-1.56-2.08-2.98-2.38-.07-.01-.11-.02-.16-.02.13-.46.09-.93-.21-1.33-.89-1.24-2.68-1.39-4.05-1.03-3.04.79-5.85,4.2-6.4,7.24-.44,2.47,1.03,4.95,3.78,4.6,1.94-.23,3.88-.22,5.75-.96,2.07-.84,4.6-3.69,4.27-6.12Z"/>
        <path class="cls-4" d="M800.16,572.42c-1.95-.81-3.8.4-5.2,1.8-.21-.1-.42-.21-.63-.29-1.53-.51-3.24,1.47-3.47,2.83-.38,2.32,2.28,4.67,4.44,5.02,3.55.61,9.1-7.57,4.86-9.36Z"/>
        <path class="cls-4" d="M945.17,82.51c.43-3.4-.8-6.68-2.91-9.54-2.88-3.9-8.27-3.38-12.17-1.71-5.79,2.48-10.23,5.97-15.32,9.57-4.48,3.15-5.96,7.17-2.01,11.43,3.65,3.98,10.73,3.85,15.63,4.05,5.39.21,11.53-.13,15.67-4.13,2.96-2.87,2.54-6.32,1.1-9.69Z"/>
        <path class="cls-4" d="M966.72,130.41c1.43-4.7-3.7-7.75-7.56-8.62-1.18-.74-2.53-1.27-3.85-1.48-2.66-.44-5.92.47-8.28,1.66-1.82.93-5.28,3.78-4.95,6.11.34,2.44,2.16,3.63,3.89,5.2,1.94,1.78,4.25,3.18,6.84,3.71,5.07,1.04,12.25-1.21,13.9-6.57Z"/>
        <path class="cls-4" d="M990.32,99.47c-1.5-2.51-3.7-3.74-6.1-4.08-.91-2.03-3.76-2.47-5.68-1.98-3.38.85-5.85,2.83-8.82,4.47-2.23,1.23-4.98,3.46-3.16,6.19,1.35,1.98,4.65,3.47,6.76,4.41,2.53,1.13,5.11,1.06,7.77.86,5.2-.39,12.97-3.6,9.23-9.86Z"/>
        <path class="cls-4" d="M861,127.52c.64-1.45-.21-2.6-1.27-3.58-.04-.06-.09-.09-.12-.13.34-.31.56-.71.54-1.23-.12-1.54-1.56-2.6-2.93-3.01-3-.93-7.18.49-9.25,2.77-1.67,1.86-1.71,4.75.78,5.92,1.78.81,3.45,1.86,5.39,2.2,2.22.39,5.85-.69,6.87-2.94Z"/>
        <path class="cls-4" d="M857.66,103.13c-1.18-1.71-3.42-1.67-5.32-1.2-.14-.2-.25-.4-.42-.59-1.01-1.24-3.5-.45-4.44.57-1.56,1.77-.51,5.17,1.14,6.62,2.71,2.38,11.71-1.62,9.04-5.4Z"/>
        <path class="cls-4" d="M744.17,685.89c-1.43-3.1-4.2-5.26-7.48-6.56-4.52-1.78-8.83,1.48-11.28,4.96-3.59,5.14-5.54,10.48-7.95,16.2-2.16,5.05-1.31,9.23,4.32,10.79,5.2,1.46,11.15-2.38,15.42-4.8,4.69-2.68,9.72-6.2,11.13-11.78,1.01-4.01-1.16-6.7-4.16-8.82Z"/>
        <path class="cls-4" d="M787.74,715.23c-1.27-4.74-7.22-4.64-10.94-3.34-1.42,0-2.85.27-4.08.77-2.51,1.04-4.79,3.51-6.17,5.77-1.08,1.74-2.49,6-.99,7.79,1.61,1.91,3.76,1.95,6.05,2.37,2.62.5,5.3.47,7.82-.46,4.82-1.78,9.76-7.47,8.32-12.9Z"/>
        <path class="cls-4" d="M791.5,676.5c-2.62-1.34-5.13-1.23-7.35-.26-1.86-1.23-4.5-.11-5.87,1.33-2.41,2.51-3.47,5.5-5.13,8.44-1.25,2.24-2.39,5.57.57,6.92,2.19.99,5.79.5,8.07.18,2.75-.37,4.9-1.79,7.06-3.38,4.23-3.06,9.13-9.89,2.66-13.24Z"/>
        <path class="cls-4" d="M696.39,768.52c-.21-1.56-1.56-2.08-2.98-2.38-.04,0-.11-.01-.14-.02.12-.46.08-.93-.21-1.34-.89-1.24-2.68-1.38-4.05-1.03-3.04.8-5.84,4.21-6.41,7.24-.44,2.48,1.03,4.95,3.78,4.63,1.94-.24,3.91-.23,5.75-.97,2.07-.84,4.6-3.7,4.27-6.12Z"/>
        <path class="cls-4" d="M680.71,749.55c-1.94-.81-3.8.4-5.2,1.8-.21-.11-.42-.21-.64-.27-1.52-.53-3.23,1.46-3.46,2.81-.4,2.32,2.28,4.67,4.43,5.02,3.55.61,9.11-7.55,4.86-9.36Z"/>
        <path class="cls-4" d="M469.06,781.02c.42-3.41-.81-6.7-2.92-9.52-2.87-3.91-8.28-3.41-12.16-1.73-5.79,2.48-10.23,5.97-15.32,9.57-4.48,3.17-5.96,7.17-2.01,11.45,3.65,3.97,10.73,3.85,15.61,4.05,5.41.2,11.56-.13,15.7-4.13,2.96-2.87,2.53-6.31,1.1-9.68Z"/>
        <path class="cls-4" d="M490.61,828.92c1.43-4.71-3.72-7.75-7.57-8.62-1.18-.73-2.53-1.28-3.84-1.49-2.66-.44-5.92.46-8.28,1.65-1.82.93-5.29,3.79-4.95,6.12.34,2.46,2.15,3.61,3.88,5.18,1.95,1.79,4.25,3.18,6.85,3.71,5.07,1.04,12.25-1.2,13.9-6.55Z"/>
        <path class="cls-4" d="M514.21,797.98c-1.5-2.53-3.7-3.75-6.1-4.09-.91-2.01-3.76-2.46-5.69-1.98-3.38.85-5.85,2.84-8.81,4.47-2.23,1.24-4.98,3.47-3.16,6.2,1.35,1.98,4.65,3.45,6.76,4.4,2.53,1.14,5.11,1.05,7.77.85,5.2-.37,12.97-3.58,9.23-9.85Z"/>
        <path class="cls-4" d="M384.89,826.03c.64-1.46-.21-2.61-1.27-3.6-.04-.04-.09-.07-.12-.1.34-.34.56-.74.54-1.24-.12-1.53-1.56-2.61-2.93-3.03-3-.93-7.16.5-9.23,2.78-1.71,1.86-1.76,4.75.76,5.92,1.78.81,3.44,1.87,5.39,2.21,2.22.39,5.85-.71,6.87-2.94Z"/>
        <path class="cls-4" d="M381.55,801.64c-1.18-1.7-3.43-1.67-5.32-1.2-.15-.2-.27-.41-.42-.58-1.01-1.24-3.5-.46-4.44.57-1.56,1.77-.51,5.17,1.14,6.61,2.71,2.39,11.71-1.61,9.04-5.4Z"/>
        <path class="cls-4" d="M787.23,1156.39c-1.27-4.76-7.22-4.63-10.94-3.34-1.44,0-2.86.26-4.1.76-2.5,1.03-4.77,3.53-6.15,5.78-1.08,1.74-2.51,6.01-.99,7.8,1.61,1.88,3.76,1.95,6.05,2.37,2.62.49,5.3.45,7.79-.49,4.84-1.78,9.76-7.47,8.34-12.88Z"/>
        <path class="cls-4" d="M790.97,1117.67c-2.6-1.36-5.11-1.23-7.33-.26-1.86-1.23-4.5-.1-5.87,1.32-2.43,2.51-3.47,5.5-5.15,8.44-1.23,2.24-2.39,5.55.59,6.92,2.19.97,5.79.49,8.07.17,2.75-.36,4.9-1.8,7.06-3.38,4.23-3.04,9.13-9.88,2.64-13.22Z"/>
        <path class="cls-4" d="M695.87,1209.69c-.21-1.58-1.56-2.11-2.98-2.39-.06-.01-.11-.01-.15-.03.13-.47.09-.94-.21-1.33-.88-1.25-2.71-1.4-4.06-1.03-3.04.78-5.85,4.2-6.42,7.24-.44,2.46,1.06,4.95,3.81,4.61,1.91-.23,3.88-.23,5.75-.97,2.07-.83,4.6-3.68,4.26-6.1Z"/>
        <path class="cls-4" d="M680.2,1190.72c-1.94-.82-3.8.38-5.2,1.78-.21-.11-.42-.21-.64-.29-1.52-.51-3.25,1.48-3.46,2.83-.4,2.33,2.28,4.65,4.43,5.02,3.56.59,9.11-7.57,4.86-9.36Z"/>
        <path class="cls-4" d="M416.53,1280.45c-1.43-3.11-4.22-5.27-7.47-6.57-4.52-1.78-8.83,1.49-11.29,4.95-3.59,5.15-5.53,10.48-7.97,16.21-2.13,5.06-1.28,9.23,4.33,10.8,5.2,1.44,11.16-2.39,15.4-4.8,4.71-2.68,9.74-6.2,11.13-11.78,1.01-4.01-1.16-6.7-4.15-8.82Z"/>
        <path class="cls-4" d="M460.1,1309.79c-1.27-4.75-7.22-4.63-10.96-3.35-1.42,0-2.85.26-4.08.77-2.5,1.03-4.77,3.5-6.17,5.77-1.06,1.76-2.49,6-.97,7.79,1.61,1.9,3.76,1.94,6.05,2.37,2.6.49,5.27.46,7.79-.47,4.84-1.78,9.74-7.48,8.34-12.88Z"/>
        <path class="cls-4" d="M368.75,1363.07c-.24-1.57-1.56-2.09-3-2.38-.04,0-.09-.01-.14-.03.12-.46.1-.93-.19-1.33-.91-1.24-2.71-1.38-4.08-1.03-3.04.81-5.85,4.2-6.4,7.24-.45,2.47,1.05,4.94,3.8,4.61,1.92-.24,3.89-.21,5.73-.96,2.09-.84,4.63-3.7,4.29-6.12Z"/>
        <path class="cls-4" d="M353.07,1344.1c-1.94-.8-3.8.4-5.2,1.8-.21-.11-.42-.21-.64-.28-1.54-.53-3.25,1.46-3.46,2.81-.43,2.34,2.28,4.67,4.43,5.03,3.55.61,9.09-7.56,4.86-9.36Z"/>
        <path class="cls-4" d="M739.93,1411.18c-1.42-3.11-4.2-5.27-7.48-6.57-4.52-1.78-8.81,1.48-11.26,4.95-3.59,5.15-5.53,10.48-7.99,16.2-2.11,5.07-1.26,9.24,4.35,10.8,5.2,1.45,11.16-2.39,15.38-4.79,4.73-2.68,9.76-6.21,11.16-11.78,1.01-4.02-1.16-6.71-4.16-8.82Z"/>
        <path class="cls-4" d="M783.51,1440.52c-1.26-4.75-7.22-4.64-10.98-3.35-1.39,0-2.83.26-4.05.76-2.5,1.06-4.77,3.54-6.17,5.8-1.06,1.74-2.5,6-.98,7.79,1.61,1.9,3.76,1.94,6.05,2.37,2.6.49,5.28.45,7.77-.47,4.86-1.78,9.76-7.48,8.37-12.89Z"/>
        <path class="cls-4" d="M787.23,1401.79c-2.6-1.36-5.11-1.24-7.31-.26-1.86-1.24-4.53-.11-5.9,1.33-2.43,2.48-3.46,5.48-5.13,8.44-1.27,2.23-2.41,5.57.59,6.92,2.16.99,5.75.49,8.07.18,2.74-.37,4.85-1.81,7.05-3.37,4.23-3.06,9.12-9.89,2.62-13.23Z"/>
        <path class="cls-4" d="M692.16,1493.81c-.26-1.58-1.56-2.1-3-2.39-.04,0-.08-.02-.16-.02.12-.46.12-.93-.17-1.34-.91-1.23-2.71-1.38-4.08-1.03-3.04.78-5.85,4.23-6.4,7.25-.46,2.46,1.06,4.94,3.8,4.61,1.91-.24,3.89-.23,5.71-.96,2.09-.84,4.65-3.7,4.31-6.12Z"/>
        <path class="cls-4" d="M676.46,1474.84c-1.92-.83-3.8.39-5.18,1.8-.21-.11-.42-.21-.64-.29-1.54-.52-3.25,1.46-3.46,2.81-.42,2.33,2.28,4.67,4.44,5.03,3.55.61,9.08-7.56,4.83-9.36Z"/>
        <path class="cls-4" d="M431.07,1506.71c-1.27-4.76-7.22-4.65-10.94-3.35-1.41,0-2.85.27-4.08.78-2.51,1.02-4.79,3.5-6.17,5.77-1.08,1.75-2.51,6-.99,7.79,1.61,1.91,3.76,1.95,6.05,2.37,2.62.49,5.3.46,7.82-.46,4.82-1.78,9.74-7.48,8.32-12.89Z"/>
        <path class="cls-4" d="M434.81,1467.98c-2.6-1.36-5.11-1.24-7.33-.26-1.86-1.24-4.5-.11-5.87,1.31-2.41,2.51-3.46,5.5-5.15,8.44-1.23,2.24-2.39,5.57.59,6.92,2.2,1,5.79.51,8.07.19,2.75-.37,4.9-1.8,7.06-3.37,4.23-3.07,9.13-9.89,2.64-13.23Z"/>
        <path class="cls-4" d="M339.72,1560c-.21-1.58-1.56-2.09-2.98-2.38-.06,0-.11-.02-.15-.02.13-.48.09-.93-.21-1.33-.89-1.26-2.68-1.4-4.05-1.04-3.04.78-5.86,4.21-6.41,7.25-.44,2.47,1.03,4.95,3.79,4.6,1.94-.23,3.88-.21,5.75-.94,2.07-.85,4.6-3.7,4.26-6.13Z"/>
        <path class="cls-4" d="M324.04,1541.02c-1.94-.81-3.81.41-5.2,1.79-.21-.1-.42-.21-.64-.29-1.52-.51-3.25,1.47-3.46,2.83-.38,2.33,2.28,4.67,4.43,5.04,3.55.6,9.11-7.57,4.86-9.37Z"/>
        <path class="cls-4" d="M469.06,1051.11c.42-3.4-.81-6.68-2.92-9.51-2.87-3.91-8.28-3.4-12.16-1.73-5.79,2.47-10.23,5.97-15.32,9.56-4.48,3.17-5.96,7.17-2.01,11.45,3.65,3.98,10.73,3.85,15.61,4.04,5.41.21,11.56-.13,15.7-4.13,2.96-2.87,2.53-6.31,1.1-9.69Z"/>
        <path class="cls-4" d="M490.61,1099.01c1.43-4.69-3.72-7.75-7.57-8.61-1.18-.74-2.53-1.27-3.84-1.48-2.66-.45-5.92.46-8.28,1.66-1.82.91-5.29,3.77-4.95,6.09.34,2.46,2.15,3.63,3.88,5.2,1.95,1.78,4.25,3.18,6.85,3.71,5.07,1.03,12.25-1.2,13.9-6.57Z"/>
        <path class="cls-4" d="M514.21,1068.07c-1.5-2.51-3.7-3.73-6.1-4.07-.91-2.03-3.76-2.46-5.69-1.98-3.38.85-5.85,2.84-8.81,4.47-2.23,1.23-4.98,3.46-3.16,6.2,1.35,1.98,4.65,3.45,6.76,4.4,2.53,1.14,5.11,1.05,7.77.86,5.2-.38,12.97-3.6,9.23-9.87Z"/>
        <path class="cls-4" d="M384.89,1096.14c.64-1.46-.21-2.6-1.27-3.6-.04-.04-.09-.08-.12-.09.34-.34.56-.74.54-1.25-.12-1.53-1.56-2.6-2.93-3.02-3-.93-7.16.51-9.23,2.78-1.71,1.86-1.76,4.75.76,5.92,1.78.81,3.44,1.86,5.39,2.2,2.22.38,5.85-.69,6.87-2.93Z"/>
        <path class="cls-4" d="M381.55,1071.73c-1.18-1.71-3.43-1.67-5.32-1.21-.15-.2-.27-.4-.42-.57-1.01-1.24-3.5-.46-4.44.57-1.56,1.77-.51,5.17,1.14,6.61,2.71,2.38,11.71-1.63,9.04-5.4Z"/>
        <path class="cls-4" d="M787.23,187.79c-1.27-4.75-7.22-4.64-10.94-3.34-1.44,0-2.86.25-4.1.76-2.5,1.03-4.77,3.53-6.15,5.78-1.08,1.74-2.51,6-.99,7.8,1.61,1.89,3.76,1.93,6.05,2.36,2.62.49,5.3.46,7.79-.46,4.84-1.78,9.76-7.48,8.34-12.9Z"/>
        <path class="cls-4" d="M790.97,149.06c-2.6-1.35-5.11-1.23-7.33-.25-1.86-1.23-4.5-.11-5.87,1.31-2.43,2.51-3.47,5.49-5.15,8.44-1.23,2.23-2.39,5.56.59,6.92,2.19,1,5.79.5,8.07.19,2.75-.37,4.9-1.8,7.06-3.38,4.23-3.06,9.13-9.89,2.64-13.23Z"/>
        <path class="cls-4" d="M695.87,241.08c-.21-1.58-1.56-2.11-2.98-2.38-.06-.02-.11-.02-.15-.03.13-.47.09-.94-.21-1.34-.88-1.25-2.71-1.39-4.06-1.04-3.04.81-5.85,4.23-6.42,7.25-.44,2.47,1.06,4.97,3.81,4.63,1.91-.24,3.88-.23,5.75-.97,2.07-.84,4.6-3.68,4.26-6.11Z"/>
        <path class="cls-4" d="M680.2,222.11c-1.94-.82-3.8.39-5.2,1.78-.21-.1-.42-.2-.64-.28-1.52-.51-3.25,1.48-3.46,2.83-.4,2.31,2.28,4.64,4.43,5.02,3.56.59,9.11-7.57,4.86-9.37Z"/>
        <path class="cls-4" d="M416.53,311.84c-1.43-3.1-4.22-5.26-7.47-6.56-4.52-1.78-8.83,1.47-11.29,4.95-3.59,5.15-5.53,10.48-7.97,16.2-2.13,5.05-1.28,9.24,4.33,10.8,5.2,1.46,11.16-2.39,15.4-4.8,4.71-2.68,9.74-6.2,11.13-11.77,1.01-4.02-1.16-6.7-4.15-8.82Z"/>
        <path class="cls-4" d="M460.1,341.18c-1.27-4.75-7.22-4.64-10.96-3.35-1.42,0-2.85.27-4.08.77-2.5,1.03-4.77,3.52-6.17,5.78-1.06,1.74-2.49,6-.97,7.79,1.61,1.9,3.76,1.94,6.05,2.36,2.6.49,5.27.46,7.79-.46,4.84-1.78,9.74-7.48,8.34-12.89Z"/>
        <path class="cls-4" d="M368.75,394.48c-.24-1.58-1.56-2.1-3-2.4-.04,0-.09,0-.14-.02.12-.46.1-.93-.19-1.34-.91-1.23-2.71-1.39-4.08-1.03-3.04.8-5.85,4.21-6.4,7.25-.45,2.47,1.05,4.94,3.8,4.6,1.92-.24,3.89-.24,5.73-.96,2.09-.84,4.63-3.68,4.29-6.1Z"/>
        <path class="cls-4" d="M353.07,375.5c-1.94-.81-3.8.39-5.2,1.79-.21-.11-.42-.21-.64-.29-1.54-.52-3.25,1.47-3.46,2.82-.43,2.33,2.28,4.67,4.43,5.02,3.55.61,9.09-7.56,4.86-9.35Z"/>
        <path class="cls-4" d="M739.93,442.57c-1.42-3.1-4.2-5.26-7.48-6.56-4.52-1.78-8.81,1.47-11.26,4.95-3.59,5.14-5.53,10.48-7.99,16.2-2.11,5.05-1.26,9.24,4.35,10.8,5.2,1.43,11.16-2.39,15.38-4.82,4.73-2.66,9.76-6.2,11.16-11.76,1.01-4.02-1.16-6.7-4.16-8.82Z"/>
        <path class="cls-4" d="M783.51,471.91c-1.26-4.75-7.22-4.63-10.98-3.35-1.39,0-2.83.27-4.05.77-2.5,1.03-4.77,3.51-6.17,5.78-1.06,1.73-2.5,6-.98,7.79,1.61,1.9,3.76,1.94,6.05,2.36,2.6.49,5.28.46,7.77-.46,4.86-1.78,9.76-7.48,8.37-12.9Z"/>
        <path class="cls-4" d="M787.23,433.17c-2.6-1.34-5.11-1.23-7.31-.26-1.86-1.22-4.53-.1-5.9,1.34-2.43,2.49-3.46,5.48-5.13,8.43-1.27,2.24-2.41,5.58.59,6.93,2.16.99,5.75.49,8.07.18,2.74-.37,4.85-1.81,7.05-3.38,4.23-3.05,9.12-9.88,2.62-13.23Z"/>
        <path class="cls-4" d="M692.16,525.2c-.26-1.56-1.56-2.1-3-2.38-.04-.02-.08-.02-.16-.02.12-.46.12-.93-.17-1.34-.91-1.23-2.71-1.38-4.08-1.03-3.04.8-5.85,4.21-6.4,7.24-.46,2.46,1.06,4.95,3.8,4.62,1.91-.24,3.89-.22,5.71-.96,2.09-.83,4.65-3.68,4.31-6.12Z"/>
        <path class="cls-4" d="M676.46,506.24c-1.92-.81-3.8.39-5.18,1.79-.21-.11-.42-.21-.64-.29-1.54-.52-3.25,1.46-3.46,2.82-.42,2.33,2.28,4.67,4.44,5.02,3.55.61,9.08-7.56,4.83-9.35Z"/>
        <path class="cls-4" d="M431.07,538.1c-1.27-4.74-7.22-4.64-10.94-3.35-1.41,0-2.85.28-4.08.78-2.51,1.01-4.79,3.51-6.17,5.77-1.08,1.75-2.51,6.01-.99,7.8,1.61,1.91,3.76,1.95,6.05,2.36,2.62.49,5.3.47,7.82-.46,4.82-1.78,9.74-7.48,8.32-12.9Z"/>
        <path class="cls-4" d="M434.81,499.37c-2.6-1.33-5.11-1.23-7.33-.26-1.86-1.23-4.5-.11-5.87,1.33-2.41,2.5-3.46,5.48-5.15,8.43-1.23,2.24-2.39,5.58.59,6.93,2.2.99,5.79.49,8.07.19,2.75-.37,4.9-1.81,7.06-3.38,4.23-3.06,9.13-9.88,2.64-13.23Z"/>
        <path class="cls-4" d="M339.72,591.39c-.21-1.56-1.56-2.08-2.98-2.38-.06-.01-.11-.02-.15-.02.13-.46.09-.93-.21-1.33-.89-1.24-2.68-1.39-4.05-1.03-3.04.79-5.86,4.2-6.41,7.24-.44,2.47,1.03,4.95,3.79,4.6,1.94-.23,3.88-.22,5.75-.96,2.07-.84,4.6-3.69,4.26-6.12Z"/>
        <path class="cls-4" d="M324.04,572.42c-1.94-.81-3.81.4-5.2,1.8-.21-.1-.42-.21-.64-.29-1.52-.51-3.25,1.47-3.46,2.83-.38,2.32,2.28,4.67,4.43,5.02,3.55.61,9.11-7.57,4.86-9.36Z"/>
        <path class="cls-4" d="M469.06,82.51c.42-3.4-.81-6.68-2.92-9.54-2.87-3.9-8.28-3.38-12.16-1.71-5.79,2.48-10.23,5.97-15.32,9.57-4.48,3.15-5.96,7.17-2.01,11.43,3.65,3.98,10.73,3.85,15.61,4.05,5.41.21,11.56-.13,15.7-4.13,2.96-2.87,2.53-6.32,1.1-9.69Z"/>
        <path class="cls-4" d="M490.61,130.41c1.43-4.7-3.72-7.75-7.57-8.62-1.18-.74-2.53-1.27-3.84-1.48-2.66-.44-5.92.47-8.28,1.66-1.82.93-5.29,3.78-4.95,6.11.34,2.44,2.15,3.63,3.88,5.2,1.95,1.78,4.25,3.18,6.85,3.71,5.07,1.04,12.25-1.21,13.9-6.57Z"/>
        <path class="cls-4" d="M514.21,99.47c-1.5-2.51-3.7-3.74-6.1-4.08-.91-2.03-3.76-2.47-5.69-1.98-3.38.85-5.85,2.83-8.81,4.47-2.23,1.23-4.98,3.46-3.16,6.19,1.35,1.98,4.65,3.47,6.76,4.41,2.53,1.13,5.11,1.06,7.77.86,5.2-.39,12.97-3.6,9.23-9.86Z"/>
        <path class="cls-4" d="M384.89,127.52c.64-1.45-.21-2.6-1.27-3.58-.04-.06-.09-.09-.12-.13.34-.31.56-.71.54-1.23-.12-1.54-1.56-2.6-2.93-3.01-3-.93-7.16.49-9.23,2.77-1.71,1.86-1.76,4.75.76,5.92,1.78.81,3.44,1.86,5.39,2.2,2.22.39,5.85-.69,6.87-2.94Z"/>
        <path class="cls-4" d="M381.55,103.13c-1.18-1.71-3.43-1.67-5.32-1.2-.15-.2-.27-.4-.42-.59-1.01-1.24-3.5-.45-4.44.57-1.56,1.77-.51,5.17,1.14,6.62,2.71,2.38,11.71-1.62,9.04-5.4Z"/>
        <path class="cls-4" d="M207.08,685.89c-1.43-3.1-4.18-5.26-7.48-6.56-4.52-1.78-8.81,1.48-11.23,4.96-3.61,5.14-5.55,10.48-7.99,16.2-2.13,5.05-1.27,9.23,4.33,10.79,5.22,1.46,11.15-2.38,15.4-4.8,4.72-2.68,9.76-6.2,11.16-11.78,1.01-4.01-1.18-6.7-4.18-8.82Z"/>
        <path class="cls-4" d="M250.65,715.23c-1.22-4.74-7.22-4.64-10.94-3.34-1.39,0-2.83.27-4.05.77-2.51,1.04-4.8,3.51-6.17,5.77-1.06,1.74-2.49,6-.97,7.79,1.58,1.91,3.71,1.95,6.02,2.37,2.6.5,5.3.47,7.79-.46,4.82-1.78,9.76-7.47,8.32-12.9Z"/>
        <path class="cls-4" d="M254.41,676.5c-2.62-1.34-5.11-1.23-7.33-.26-1.83-1.23-4.5-.11-5.89,1.33-2.41,2.51-3.47,5.5-5.12,8.44-1.26,2.24-2.41,5.57.59,6.92,2.16.99,5.75.5,8.05.18,2.76-.37,4.88-1.79,7.07-3.38,4.19-3.06,9.09-9.89,2.62-13.24Z"/>
        <path class="cls-4" d="M159.3,768.52c-.21-1.56-1.52-2.08-2.96-2.38-.04,0-.13-.01-.17-.02.13-.46.11-.93-.17-1.34-.93-1.24-2.71-1.38-4.1-1.03-3.04.8-5.83,4.21-6.38,7.24-.46,2.48,1.02,4.95,3.76,4.63,1.94-.24,3.93-.23,5.75-.97,2.07-.84,4.63-3.7,4.27-6.12Z"/>
        <path class="cls-4" d="M143.62,749.55c-1.9-.81-3.8.4-5.15,1.8-.23-.11-.46-.21-.67-.27-1.52-.53-3.21,1.46-3.47,2.81-.38,2.32,2.31,4.67,4.46,5.02,3.55.61,9.11-7.55,4.83-9.36Z"/>
        <path class="cls-4" d="M250.14,1156.39c-1.22-4.76-7.22-4.63-10.94-3.34-1.39,0-2.83.26-4.05.76-2.51,1.03-4.8,3.53-6.17,5.78-1.06,1.74-2.49,6.01-.97,7.8,1.58,1.88,3.71,1.95,6.02,2.37,2.6.49,5.3.45,7.79-.49,4.82-1.78,9.76-7.47,8.32-12.88Z"/>
        <path class="cls-4" d="M253.9,1117.67c-2.62-1.36-5.11-1.23-7.33-.26-1.83-1.23-4.5-.1-5.89,1.32-2.41,2.51-3.47,5.5-5.12,8.44-1.27,2.24-2.41,5.55.59,6.92,2.16.97,5.75.49,8.05.17,2.76-.36,4.88-1.8,7.07-3.38,4.18-3.04,9.09-9.88,2.62-13.22Z"/>
        <path class="cls-4" d="M158.79,1209.69c-.21-1.58-1.54-2.11-2.96-2.39-.04-.01-.13-.01-.17-.03.13-.47.11-.94-.17-1.33-.93-1.25-2.71-1.4-4.1-1.03-3.04.78-5.83,4.2-6.38,7.24-.46,2.46,1.01,4.95,3.76,4.61,1.94-.23,3.93-.23,5.75-.97,2.07-.83,4.63-3.68,4.27-6.1Z"/>
        <path class="cls-4" d="M143.11,1190.72c-1.9-.82-3.8.38-5.17,1.78-.21-.11-.44-.21-.65-.29-1.52-.51-3.21,1.48-3.47,2.83-.38,2.33,2.28,4.65,4.46,5.02,3.53.59,9.11-7.57,4.83-9.36Z"/>
        <path class="cls-4" d="M202.86,1411.18c-1.43-3.11-4.2-5.27-7.48-6.57-4.52-1.78-8.83,1.48-11.26,4.95-3.62,5.15-5.56,10.48-7.97,16.2-2.16,5.07-1.29,9.24,4.31,10.8,5.2,1.45,11.16-2.39,15.42-4.79,4.69-2.68,9.72-6.21,11.16-11.78,1.01-4.02-1.18-6.71-4.18-8.82Z"/>
        <path class="cls-4" d="M246.43,1440.52c-1.27-4.75-7.23-4.64-10.95-3.35-1.41,0-2.83.26-4.08.76-2.51,1.06-4.8,3.54-6.17,5.8-1.08,1.74-2.49,6-.99,7.79,1.61,1.9,3.76,1.94,6.04,2.37,2.62.49,5.3.45,7.82-.47,4.81-1.78,9.76-7.48,8.32-12.89Z"/>
        <path class="cls-4" d="M250.18,1401.79c-2.62-1.36-5.11-1.24-7.35-.26-1.86-1.24-4.5-.11-5.87,1.33-2.41,2.48-3.47,5.48-5.14,8.44-1.24,2.23-2.38,5.57.57,6.92,2.2.99,5.79.49,8.07.18,2.75-.37,4.9-1.81,7.05-3.37,4.23-3.06,9.13-9.89,2.66-13.23Z"/>
        <path class="cls-4" d="M155.07,1493.81c-.21-1.58-1.56-2.1-2.96-2.39-.06,0-.13-.02-.17-.02.13-.46.09-.93-.21-1.34-.89-1.23-2.68-1.38-4.05-1.03-3.04.78-5.83,4.23-6.4,7.25-.44,2.46,1.03,4.94,3.78,4.61,1.94-.24,3.91-.23,5.75-.96,2.07-.84,4.6-3.7,4.27-6.12Z"/>
        <path class="cls-4" d="M139.4,1474.84c-1.95-.83-3.8.39-5.2,1.8-.21-.11-.43-.21-.64-.29-1.52-.52-3.23,1.46-3.46,2.81-.39,2.33,2.28,4.67,4.43,5.03,3.55.61,9.1-7.56,4.86-9.36Z"/>
        <path class="cls-4" d="M250.14,187.79c-1.22-4.75-7.22-4.64-10.94-3.34-1.39,0-2.83.25-4.05.76-2.51,1.03-4.8,3.53-6.17,5.78-1.06,1.74-2.49,6-.97,7.8,1.58,1.89,3.71,1.93,6.02,2.36,2.6.49,5.3.46,7.79-.46,4.82-1.78,9.76-7.48,8.32-12.9Z"/>
        <path class="cls-4" d="M253.9,149.06c-2.62-1.35-5.11-1.23-7.33-.25-1.83-1.23-4.5-.11-5.89,1.31-2.41,2.51-3.47,5.49-5.12,8.44-1.27,2.23-2.41,5.56.59,6.92,2.16,1,5.75.5,8.05.19,2.76-.37,4.88-1.8,7.07-3.38,4.18-3.06,9.09-9.89,2.62-13.23Z"/>
        <path class="cls-4" d="M158.79,241.08c-.21-1.58-1.54-2.11-2.96-2.38-.04-.02-.13-.02-.17-.03.13-.47.11-.94-.17-1.34-.93-1.25-2.71-1.39-4.1-1.04-3.04.81-5.83,4.23-6.38,7.25-.46,2.47,1.01,4.97,3.76,4.63,1.94-.24,3.93-.23,5.75-.97,2.07-.84,4.63-3.68,4.27-6.11Z"/>
        <path class="cls-4" d="M143.11,222.11c-1.9-.82-3.8.39-5.17,1.78-.21-.1-.44-.2-.65-.28-1.52-.51-3.21,1.48-3.47,2.83-.38,2.31,2.28,4.64,4.46,5.02,3.53.59,9.11-7.57,4.83-9.37Z"/>
        <path class="cls-4" d="M202.86,442.57c-1.43-3.1-4.2-5.26-7.48-6.56-4.52-1.78-8.83,1.47-11.26,4.95-3.62,5.14-5.56,10.48-7.97,16.2-2.16,5.05-1.29,9.24,4.31,10.8,5.2,1.43,11.16-2.39,15.42-4.82,4.69-2.66,9.72-6.2,11.16-11.76,1.01-4.02-1.18-6.7-4.18-8.82Z"/>
        <path class="cls-4" d="M246.43,471.91c-1.27-4.75-7.23-4.63-10.95-3.35-1.41,0-2.83.27-4.08.77-2.51,1.03-4.8,3.51-6.17,5.78-1.08,1.73-2.49,6-.99,7.79,1.61,1.9,3.76,1.94,6.04,2.36,2.62.49,5.3.46,7.82-.46,4.81-1.78,9.76-7.48,8.32-12.9Z"/>
        <path class="cls-4" d="M250.18,433.17c-2.62-1.34-5.11-1.23-7.35-.26-1.86-1.22-4.5-.1-5.87,1.34-2.41,2.49-3.47,5.48-5.14,8.43-1.24,2.24-2.38,5.58.57,6.93,2.2.99,5.79.49,8.07.18,2.75-.37,4.9-1.81,7.05-3.38,4.23-3.05,9.13-9.88,2.66-13.23Z"/>
        <path class="cls-4" d="M155.07,525.2c-.21-1.56-1.56-2.1-2.96-2.38-.06-.02-.13-.02-.17-.02.13-.46.09-.93-.21-1.34-.89-1.23-2.68-1.38-4.05-1.03-3.04.8-5.83,4.21-6.4,7.24-.44,2.46,1.03,4.95,3.78,4.62,1.94-.24,3.91-.22,5.75-.96,2.07-.83,4.6-3.68,4.27-6.12Z"/>
        <path class="cls-4" d="M139.4,506.24c-1.95-.81-3.8.39-5.2,1.79-.21-.11-.43-.21-.64-.29-1.52-.52-3.23,1.46-3.46,2.82-.39,2.33,2.28,4.67,4.43,5.02,3.55.61,9.1-7.56,4.86-9.35Z"/>
        <path class="cls-11" d="M3158.23,1381.03c-263.75,75.36-539.47,117.36-812.85,136.12-286.99,19.71-576.47,14.69-862.91-11.42-263.79-24.03-528.72-64.57-781.19-146.78-205.16-66.81-409.39-158.15-575.37-298.54-45.65-38.61-87.55-80.56-125.79-125.31v765.39h3522.95v-456.96c-117.3,56.3-239.9,101.78-364.84,137.5Z"/>
        <path class="cls-9" d="M202.5,2086.69c137.56-47.85,279.5-83.43,421.73-114.43,287.77-62.74,580.67-101.68,874.67-118.92,575.11-33.73,1156.91,3.46,1715.1,152.14,129.73,34.56,257.51,74.66,382.07,122.73v-504.49H-66.65v563.36c89.73-33.43,178.71-68.94,269.16-100.38Z"/>
        <path class="cls-9" d="M-20.24,1918.37c107.54-29.94,213.08-64.97,321.8-90.98,227.29-54.35,458.89-96.27,690.81-125,263.83-32.68,527.24-40.64,792.76-31.48,249.55,8.58,498.97,25.33,746.83,55.95,361.06,44.61,720.36,118.1,1064.12,237.34v-340.48H-66.65v308.02c15.63-4.77,31.22-9.14,46.42-13.36Z"/>
        <path class="cls-8" d="M139.61,2176.54c0,4.27-8.79,7.74-19.6,7.74s-19.56-3.47-19.56-7.74,8.76-7.74,19.56-7.74,19.6,3.47,19.6,7.74Z"/>
        <path class="cls-8" d="M177,2152.03c0,2.6-5.28,4.67-11.81,4.67s-11.81-2.07-11.81-4.67,5.28-4.67,11.81-4.67,11.81,2.1,11.81,4.67Z"/>
        <path class="cls-8" d="M388.9,2139.7c0,4.28-8.74,7.72-19.56,7.72s-19.6-3.44-19.6-7.72,8.79-7.74,19.6-7.74,19.56,3.47,19.56,7.74Z"/>
        <path class="cls-8" d="M426.32,2115.2c0,2.58-5.3,4.67-11.81,4.67s-11.83-2.08-11.83-4.67,5.28-4.68,11.83-4.68,11.81,2.11,11.81,4.68Z"/>
        <path class="cls-8" d="M64.86,2063.17c0,2.33-4.82,4.23-10.74,4.23s-10.69-1.9-10.69-4.23,4.78-4.23,10.69-4.23,10.74,1.9,10.74,4.23Z"/>
        <path class="cls-8" d="M85.27,2049.78c0,1.41-2.88,2.56-6.45,2.56s-6.47-1.14-6.47-2.56,2.89-2.56,6.47-2.56,6.45,1.14,6.45,2.56Z"/>
        <path class="cls-8" d="M818.9,2131.18c0,4.27-8.77,7.72-19.59,7.72s-19.56-3.45-19.56-7.72,8.74-7.72,19.56-7.72,19.59,3.45,19.59,7.72Z"/>
        <path class="cls-8" d="M856.32,2106.68c0,2.57-5.28,4.65-11.81,4.65s-11.81-2.08-11.81-4.65,5.28-4.68,11.81-4.68,11.81,2.1,11.81,4.68Z"/>
        <path class="cls-8" d="M566.12,2168.32c0,2.33-4.77,4.23-10.69,4.23s-10.69-1.9-10.69-4.23,4.77-4.23,10.69-4.23,10.69,1.9,10.69,4.23Z"/>
        <path class="cls-8" d="M586.57,2154.93c0,1.41-2.89,2.56-6.47,2.56s-6.45-1.14-6.45-2.56,2.9-2.56,6.45-2.56,6.47,1.16,6.47,2.56Z"/>
        <path class="cls-8" d="M139.61,1823.15c0,4.27-8.79,7.73-19.6,7.73s-19.56-3.46-19.56-7.73,8.76-7.74,19.56-7.74,19.6,3.47,19.6,7.74Z"/>
        <path class="cls-8" d="M177,1798.64c0,2.58-5.28,4.67-11.81,4.67s-11.81-2.08-11.81-4.67,5.28-4.67,11.81-4.67,11.81,2.09,11.81,4.67Z"/>
        <path class="cls-8" d="M388.9,1786.3c0,4.28-8.74,7.74-19.56,7.74s-19.6-3.46-19.6-7.74,8.79-7.73,19.6-7.73,19.56,3.47,19.56,7.73Z"/>
        <path class="cls-8" d="M426.32,1761.8c0,2.58-5.3,4.67-11.81,4.67s-11.83-2.09-11.83-4.67,5.28-4.67,11.83-4.67,11.81,2.1,11.81,4.67Z"/>
        <path class="cls-8" d="M64.86,1709.77c0,2.32-4.82,4.22-10.74,4.22s-10.69-1.9-10.69-4.22,4.78-4.23,10.69-4.23,10.74,1.9,10.74,4.23Z"/>
        <path class="cls-8" d="M85.27,1696.38c0,1.41-2.88,2.56-6.45,2.56s-6.47-1.14-6.47-2.56,2.89-2.54,6.47-2.54,6.45,1.14,6.45,2.54Z"/>
        <path class="cls-8" d="M1109.71,2042.87c0,4.27-8.79,7.74-19.61,7.74s-19.56-3.47-19.56-7.74,8.74-7.72,19.56-7.72,19.61,3.45,19.61,7.72Z"/>
        <path class="cls-8" d="M1147.1,2018.37c0,2.58-5.28,4.67-11.81,4.67s-11.81-2.08-11.81-4.67,5.28-4.68,11.81-4.68,11.81,2.1,11.81,4.68Z"/>
        <path class="cls-8" d="M1034.92,1929.51c0,2.33-4.77,4.2-10.69,4.2s-10.69-1.87-10.69-4.2,4.77-4.24,10.69-4.24,10.69,1.89,10.69,4.24Z"/>
        <path class="cls-8" d="M1055.37,1916.1c0,1.4-2.87,2.56-6.45,2.56s-6.47-1.16-6.47-2.56,2.9-2.56,6.47-2.56,6.45,1.14,6.45,2.56Z"/>
        <path class="cls-8" d="M818.9,1777.78c0,4.27-8.77,7.72-19.59,7.72s-19.56-3.45-19.56-7.72,8.74-7.73,19.56-7.73,19.59,3.45,19.59,7.73Z"/>
        <path class="cls-8" d="M856.32,1753.28c0,2.58-5.28,4.65-11.81,4.65s-11.81-2.07-11.81-4.65,5.28-4.68,11.81-4.68,11.81,2.1,11.81,4.68Z"/>
        <path class="cls-8" d="M890.2,1891.46c0,4.27-8.77,7.74-19.61,7.74s-19.56-3.47-19.56-7.74,8.79-7.72,19.56-7.72,19.61,3.45,19.61,7.72Z"/>
        <path class="cls-8" d="M927.6,1866.96c0,2.59-5.29,4.67-11.79,4.67s-11.83-2.08-11.83-4.67,5.28-4.66,11.83-4.66,11.79,2.1,11.79,4.66Z"/>
        <path class="cls-8" d="M566.12,1814.93c0,2.33-4.77,4.23-10.69,4.23s-10.69-1.9-10.69-4.23,4.77-4.23,10.69-4.23,10.69,1.89,10.69,4.23Z"/>
        <path class="cls-8" d="M586.57,1801.54c0,1.41-2.89,2.56-6.47,2.56s-6.45-1.14-6.45-2.56,2.9-2.56,6.45-2.56,6.47,1.14,6.47,2.56Z"/>
        <path class="cls-8" d="M1132.32,2070.01c0,4.25-8.79,7.72-19.61,7.72s-19.56-3.47-19.56-7.72,8.75-7.74,19.56-7.74,19.61,3.45,19.61,7.74Z"/>
        <path class="cls-8" d="M1147.1,2018.37c0,2.58-5.28,4.67-11.81,4.67s-11.81-2.08-11.81-4.67,5.28-4.68,11.81-4.68,11.81,2.1,11.81,4.68Z"/>
        <path class="cls-8" d="M1034.92,1929.51c0,2.33-4.77,4.2-10.69,4.2s-10.69-1.87-10.69-4.2,4.77-4.24,10.69-4.24,10.69,1.89,10.69,4.24Z"/>
        <path class="cls-8" d="M1055.37,1916.1c0,1.4-2.87,2.56-6.45,2.56s-6.47-1.16-6.47-2.56,2.9-2.56,6.47-2.56,6.45,1.14,6.45,2.56Z"/>
        <path class="cls-8" d="M1050.98,2077.73c0,4.27,8.74,7.74,19.56,7.74s19.59-3.47,19.59-7.74-8.77-7.72-19.59-7.72-19.56,3.45-19.56,7.72Z"/>
        <path class="cls-8" d="M1013.54,2053.22c0,2.6,5.3,4.67,11.83,4.67s11.81-2.07,11.81-4.67-5.27-4.67-11.81-4.67-11.83,2.11-11.83,4.67Z"/>
        <path class="cls-8" d="M330.17,2024.02c0,4.27,8.76,7.72,19.58,7.72s19.59-3.45,19.59-7.72-8.76-7.74-19.59-7.74-19.58,3.45-19.58,7.74Z"/>
        <path class="cls-8" d="M292.76,1999.5c0,2.6,5.3,4.68,11.81,4.68s11.83-2.08,11.83-4.68-5.28-4.67-11.83-4.67-11.81,2.1-11.81,4.67Z"/>
        <path class="cls-8" d="M80.88,1987.18c0,4.25,8.74,7.72,19.56,7.72s19.59-3.47,19.59-7.72-8.77-7.74-19.59-7.74-19.56,3.45-19.56,7.74Z"/>
        <path class="cls-8" d="M43.44,1962.67c0,2.58,5.3,4.67,11.83,4.67s11.81-2.08,11.81-4.67-5.28-4.68-11.81-4.68-11.83,2.11-11.83,4.68Z"/>
        <path class="cls-8" d="M404.94,1910.63c0,2.33,4.8,4.23,10.71,4.23s10.67-1.9,10.67-4.23-4.8-4.23-10.67-4.23-10.71,1.9-10.71,4.23Z"/>
        <path class="cls-8" d="M384.47,1897.24c0,1.41,2.91,2.56,6.46,2.56s6.47-1.14,6.47-2.56-2.88-2.56-6.47-2.56-6.46,1.14-6.46,2.56Z"/>
        <path class="cls-8" d="M503.28,1951.33c0,2.11,4.35,3.84,9.72,3.84s9.71-1.73,9.71-3.84-4.35-3.85-9.71-3.85-9.72,1.73-9.72,3.85Z"/>
        <path class="cls-8" d="M523.14,2088.12c0,4.25,8.79,7.72,19.61,7.72s19.56-3.47,19.56-7.72-8.77-7.72-19.56-7.72-19.61,3.44-19.61,7.72Z"/>
        <path class="cls-8" d="M485.75,2063.61c0,2.58,5.28,4.67,11.81,4.67s11.81-2.08,11.81-4.67-5.29-4.67-11.81-4.67-11.81,2.1-11.81,4.67Z"/>
        <path class="cls-8" d="M792.53,1952.76c0,1.9,3.95,3.47,8.81,3.47s8.79-1.57,8.79-3.47-3.93-3.48-8.79-3.48-8.81,1.57-8.81,3.48Z"/>
        <path class="cls-8" d="M775.69,1941.74c0,1.16,2.41,2.1,5.32,2.1s5.32-.94,5.32-2.1-2.39-2.1-5.32-2.1-5.32.94-5.32,2.1Z"/>
        <path class="cls-8" d="M450.22,1849.29c0,24.89-114.6,45.04-256.02,45.04s-256.01-20.15-256.01-45.04,114.63-45.05,256.01-45.05,256.02,20.16,256.02,45.05Z"/>
        <rect class="cls-8" x="346.36" y="1793.11" width="869.96" height="90.8"/>
        <rect class="cls-39" x="916.78" y="816.84" width="137.07" height="407.73"/>
        <path class="cls-24" d="M1053.85,1227.77h-137.07c-1.78,0-3.21-1.43-3.21-3.18v-407.75c0-1.77,1.43-3.2,3.21-3.2h137.07c1.78,0,3.21,1.43,3.21,3.2v407.75c0,1.76-1.43,3.18-3.21,3.18ZM919.99,1221.38h130.65v-401.34h-130.65v401.34Z"/>
        <rect class="cls-39" x="434.16" y="283.81" width="672.09" height="194.64"/>
        <path class="cls-24" d="M1106.24,481.64H434.16c-1.76,0-3.17-1.43-3.17-3.19v-194.64c0-1.77,1.41-3.2,3.17-3.2h672.09c1.78,0,3.21,1.43,3.21,3.2v194.64c0,1.76-1.43,3.19-3.21,3.19ZM437.37,475.25h665.69v-188.26H437.37v188.26Z"/>
        <rect class="cls-36" x="434.16" y="448.02" width="672.09" height="30.43"/>
        <rect class="cls-36" x="434.16" y="295.11" width="672.09" height="15.38"/>
        <polygon class="cls-38" points="481.89 433 473.24 441.63 1067.16 441.63 1067.16 317.94 1058.54 326.57 481.89 433"/>
        <polygon class="cls-21" points="473.24 441.63 481.89 433 1058.54 326.57 1067.16 317.94 473.24 317.94 473.24 441.63"/>
        <polygon class="cls-40" points="1058.54 326.57 1058.54 433 481.89 433 481.89 326.57 1058.54 326.57 1058.54 326.57"/>
        <path class="cls-21" d="M540.46,356.44h-9.74c-2.31,0-4.33.1-6.02.34-1.11.19-1.7,1.22-1.7,3.09,0,1.39-.02,2.61-.08,3.64l-.04.81h-4.35v-11.2h52.52v11.2h-4.35l-.02-.81c-.11-1.03-.13-2.25-.13-3.64,0-1.87-.53-2.9-1.67-3.09-1.73-.24-3.72-.34-5.96-.34h-9.76v47.14c0,3.66.29,5.89.97,6.67.68.79,2.62,1.26,5.92,1.43l1.75.04v2.58h-25.98v-2.58l1.75-.04c3.32-.17,5.28-.64,5.92-1.43.64-.78.97-3.01.97-6.67v-47.14Z"/>
        <path class="cls-21" d="M620.84,414.31h-44.05v-2.58l.74-.04c3.38-.23,5.37-.7,5.96-1.43.64-.73.93-2.96.93-6.67v-39.78c0-3.71-.29-5.93-.93-6.64-.59-.7-2.58-1.19-5.96-1.4l-.74-.09v-2.56h41.81v10.69h-4.58l-.11-.76c-.21-3.8-.51-5.87-.85-6.17-.33-.3-2.56-.44-6.63-.44h-13.31v24.45l11.16-.04c2.49,0,4.02-.14,4.6-.41.55-.26.89-1.54,1.01-3.89v-.74h3.34v13.42h-3.34v-.74c-.12-2.09-.46-3.3-1.01-3.72-.59-.39-2.11-.61-4.6-.61h-11.16v19.41c0,3.2.36,5.19,1.14,5.97.72.8,2.66,1.18,5.85,1.18h6.53c4.85,0,7.61-.24,8.32-.74.63-.46,1.06-2.53,1.27-6.17l.04-.74h4.56v11.22Z"/>
        <path class="cls-21" d="M670.99,414.31h-44.18v-2.58l.78-.04c3.34-.23,5.32-.7,5.96-1.43.59-.73.93-2.96.93-6.67v-39.78c0-3.71-.34-5.93-.93-6.64-.64-.7-2.62-1.19-5.96-1.4l-.78-.09v-2.56h23.98v2.56l-.8.09c-3.34.21-5.33.7-5.94,1.4-.59.71-.89,2.93-.89,6.64v39.78c0,3.66.28,5.77.83,6.32.55.53,2.66.82,6.36.82h6.32c4.98,0,7.82-.29,8.57-.84.7-.57,1.18-2.9,1.36-6.99l.09-.83h4.31v12.24Z"/>
        <path class="cls-21" d="M720.17,414.31h-44.07v-2.58l.78-.04c3.32-.23,5.3-.7,5.94-1.43.64-.73.93-2.96.93-6.67v-39.78c0-3.71-.29-5.93-.93-6.64-.64-.7-2.62-1.19-5.94-1.4l-.78-.09v-2.56h41.81v10.69h-4.58l-.06-.76c-.23-3.8-.53-5.87-.84-6.17-.36-.3-2.56-.44-6.61-.44h-13.4v24.45l11.2-.04c2.49,0,3.97-.14,4.6-.41.55-.26.89-1.54.97-3.89l.04-.74h3.3v13.42h-3.3l-.04-.74c-.09-2.09-.42-3.3-.97-3.72-.64-.39-2.11-.61-4.6-.61h-11.2v19.41c0,3.2.4,5.19,1.14,5.97.76.8,2.73,1.18,5.92,1.18h6.48c4.88,0,7.63-.24,8.32-.74.66-.46,1.08-2.53,1.29-6.17l.04-.74h4.56v11.22Z"/>
        <path class="cls-21" d="M742.4,388.76v14.82c0,3.66.34,5.89.97,6.67.68.79,2.62,1.26,5.92,1.43l1.78.04v2.58h-24.89v-2.58l.76-.04c3.31-.23,5.32-.7,5.95-1.43.59-.73.91-2.96.91-6.67v-39.78c0-3.71-.31-5.93-.91-6.64-.64-.7-2.64-1.19-5.95-1.4l-.76-.09v-2.56h18.02l6-.21,2.81-.08c11.83,0,17.74,5.37,17.74,16.13,0,6.58-2.16,11.53-6.46,14.82-4.28,3.33-10.71,4.97-19.31,4.97h-2.58ZM742.4,385.98h3.04c5.37,0,9.42-1.4,12.13-4.21,2.66-2.81,4-7.01,4-12.61,0-4.75-1.03-8.18-3.05-10.21-2.05-2.06-5.49-3.08-10.26-3.08h-5.85v30.1Z"/>
        <path class="cls-21" d="M793.06,384.28v19.31c0,3.72.29,5.95.93,6.67.59.73,2.58,1.2,5.96,1.43l.8.04v2.58h-24.02v-2.58l.83-.04c3.29-.23,5.27-.7,5.91-1.43.64-.73.93-2.96.93-6.67v-39.78c0-3.71-.29-5.93-.93-6.64-.64-.7-2.62-1.19-5.91-1.4l-.83-.09v-2.56h24.02v2.56l-.8.09c-3.38.21-5.37.7-5.96,1.4-.64.71-.93,2.93-.93,6.64v16.92h29.07v-16.92c0-3.71-.3-5.93-.89-6.64-.63-.7-2.62-1.19-6-1.4l-.74-.09v-2.56h23.98v2.56l-.78.09c-3.35.21-5.34.7-5.94,1.4-.63.71-.93,2.93-.93,6.64v39.78c0,3.72.3,5.95.93,6.67.6.73,2.58,1.2,5.94,1.43l.78.04v2.58h-23.98v-2.58l.74-.04c3.42-.23,5.41-.7,6.02-1.4.57-.74.87-2.96.87-6.7v-19.31h-29.07Z"/>
        <path class="cls-21" d="M875.35,415.83c-8.87,0-15.87-2.87-20.98-8.59-5.15-5.75-7.67-13.59-7.67-23.53s2.52-17.76,7.67-23.52c5.11-5.72,12.11-8.6,20.98-8.6s15.87,2.88,20.98,8.6c5.11,5.76,7.69,13.57,7.69,23.52s-2.58,17.77-7.69,23.53c-5.11,5.72-12.13,8.59-20.98,8.59ZM875.35,413.05c6.06,0,10.88-2.61,14.3-7.77,3.46-5.18,5.17-12.38,5.17-21.54s-1.71-16.37-5.17-21.58c-3.43-5.18-8.24-7.78-14.3-7.78s-10.86,2.6-14.3,7.78c-3.47,5.21-5.2,12.41-5.2,21.58s1.73,16.36,5.2,21.54c3.44,5.16,8.2,7.77,14.3,7.77Z"/>
        <path class="cls-21" d="M960.51,415.12l-36.93-51.25v39.72c0,3.75.3,5.97.91,6.67.56.71,2.6,1.2,5.97,1.43l.74.04v2.58h-19.12v-2.58l.72-.04c3.42-.23,5.36-.72,6-1.43.61-.71.91-2.93.91-6.67v-39.78c0-3.73-.29-5.97-.91-6.65-.64-.71-2.58-1.17-5.95-1.38l-.76-.09v-2.56h13.86l33.9,47.47v-36.79c0-3.71-.31-5.93-.95-6.64-.59-.7-2.58-1.19-5.96-1.4l-.76-.09v-2.56h19.07v2.56l-.82.09c-3.34.21-5.32.7-5.92,1.4-.61.71-.93,2.93-.93,6.64v51.31h-3.08Z"/>
        <path class="cls-21" d="M1021.82,414.31h-44.07v-2.58l.78-.04c3.36-.23,5.32-.7,5.94-1.43.59-.73.93-2.96.93-6.67v-39.78c0-3.71-.34-5.93-.93-6.64-.61-.7-2.58-1.19-5.94-1.4l-.78-.09v-2.56h41.83v10.69h-4.6l-.09-.76c-.21-3.8-.51-5.87-.82-6.17-.36-.3-2.56-.44-6.62-.44h-13.36v24.45l11.16-.04c2.47,0,4.03-.14,4.6-.41.56-.26.89-1.54.97-3.89l.04-.74h3.32v13.42h-3.32l-.04-.74c-.09-2.09-.41-3.3-.97-3.72-.57-.39-2.13-.61-4.6-.61h-11.16v19.41c0,3.2.34,5.19,1.1,5.97.76.8,2.75,1.18,5.92,1.18h6.52c4.85,0,7.59-.24,8.26-.74.68-.46,1.14-2.53,1.31-6.17l.04-.74h4.57v11.22Z"/>
        <path class="cls-38" d="M1130.37,303.58c-60.81-100.27-199.14-170.31-360.18-170.31s-299.36,70.04-360.12,170.31h720.3Z"/>
        <path class="cls-15" d="M1130.37,303.58c-60.81-100.27-192.51-163.67-353.5-163.67s-306.04,63.4-366.8,163.67h720.3Z"/>
        <path class="cls-42" d="M775.9,303.58h354.47c-60.81-100.27-192.51-163.67-353.5-163.67h-.97v163.67Z"/>
        <path class="cls-24" d="M1130.37,306.78h-354.47c-1.77,0-3.2-1.43-3.2-3.2v-163.67c0-1.76,1.43-3.19,3.2-3.19l.97-.02c160.36,0,293.52,61.77,356.24,165.22.59.98.59,2.21.04,3.23-.57,1.01-1.65,1.63-2.78,1.63ZM779.12,300.39h345.51c-62.45-98.14-190.97-156.72-345.51-157.29v157.29Z"/>
        <path class="cls-39" d="M770.2,174.33c-152.07,0-282.74,53.15-340.14,129.25h680.29c-57.38-76.1-188.08-129.25-340.15-129.25h0Z"/>
        <path class="cls-24" d="M1110.35,306.78H430.06c-1.18,0-2.31-.68-2.83-1.77-.55-1.08-.42-2.38.3-3.35,59.78-79.29,194.32-130.53,342.67-130.53s282.91,51.24,342.72,130.53c.71.97.84,2.27.29,3.35-.55,1.09-1.65,1.77-2.87,1.77ZM436.63,300.39h667.16c-60.51-74.82-190.39-122.88-333.6-122.88s-273.06,48.05-333.57,122.88Z"/>
        <path class="cls-39" d="M770.2,192.57c71.33,0,140.11,12.03,198.97,34.85,39.99,15.49,73.65,35.19,99.3,57.9H471.94c25.65-22.71,59.32-42.41,99.29-57.9,58.86-22.83,127.65-34.85,198.97-34.85h0Z"/>
        <polygon class="cls-38" points="507.85 273.16 471.94 285.32 1068.47 285.32 1032.55 273.16 507.85 273.16"/>
        <path class="cls-24" d="M1068.47,288.52H471.94c-1.57,0-2.88-1.14-3.13-2.68-.25-1.54.64-3.04,2.12-3.55l35.92-12.15c.31-.11.67-.16,1.01-.16h524.7c.36,0,.72.05,1.03.16l35.9,12.15c1.48.51,2.39,2.01,2.13,3.55-.25,1.54-1.58,2.68-3.15,2.68ZM491.37,282.11h557.66l-16.99-5.74H508.38l-17.01,5.74Z"/>
        <path class="cls-42" d="M770.2,192.57c-71.32,0-140.11,12.03-198.97,34.85-39.97,15.49-73.65,35.19-99.29,57.9l35.92-12.16c19.6-13.02,42.27-24.53,67.77-34.4,57.47-22.26,124.78-34.01,194.58-34.01s137.14,11.76,194.6,34.01c25.5,9.87,48.19,21.38,67.75,34.4l35.92,12.16c-25.65-22.71-59.31-42.41-99.3-57.9-58.86-22.83-127.64-34.85-198.97-34.85Z"/>
        <path class="cls-24" d="M471.94,288.52c-1.1,0-2.16-.59-2.75-1.6-.76-1.32-.51-2.99.64-4,26.2-23.18,59.92-42.85,100.27-58.48,59.16-22.94,128.37-35.07,200.11-35.07s140.96,12.13,200.11,35.07c40.39,15.63,74.12,35.33,100.27,58.49,1.14,1.01,1.39,2.68.64,4-.76,1.32-2.33,1.93-3.76,1.43l-35.92-12.16c-.25-.09-.51-.2-.76-.37-19.34-12.84-41.92-24.31-67.14-34.08-57.08-22.11-123.97-33.8-193.44-33.8s-136.31,11.7-193.42,33.8c-25.2,9.76-47.81,21.23-67.16,34.08-.23.17-.49.29-.76.37l-35.9,12.16c-.34.1-.7.17-1.03.17ZM1033.99,270.28l18.99,6.43c-23.39-17.96-51.89-33.5-84.97-46.31-58.41-22.66-126.82-34.62-197.81-34.62s-139.37,11.96-197.81,34.62c-33.07,12.8-61.54,28.33-84.95,46.31l18.97-6.43c19.69-13.03,42.59-24.63,68.07-34.49,57.8-22.4,125.49-34.24,195.72-34.24s137.92,11.84,195.77,34.24c25.47,9.86,48.38,21.46,68.03,34.49Z"/>
        <rect class="cls-1" x="524.88" y="547.88" width="490.65" height="1073.47"/>
        <path class="cls-39" d="M1083.98,507.32H456.43v1325.88h627.55V507.32ZM1015.53,1621.34h-490.65V547.88h490.65v1073.47Z"/>
        <path class="cls-24" d="M1083.98,1836.4H456.43c-1.78,0-3.21-1.42-3.21-3.2V507.32c0-1.77,1.43-3.19,3.21-3.19h627.55c1.78,0,3.21,1.42,3.21,3.19v1325.88c0,1.78-1.43,3.2-3.21,3.2ZM459.64,1830.02h621.13V510.52H459.64v1319.5ZM1015.53,1624.54h-490.65c-1.78,0-3.21-1.43-3.21-3.2V547.88c0-1.76,1.43-3.2,3.21-3.2h490.65c1.77,0,3.19,1.44,3.19,3.2v1073.47c0,1.77-1.42,3.2-3.19,3.2ZM528.07,1618.13h484.25V551.08h-484.25v1067.06Z"/>
        <polygon class="cls-39" points="420.49 455.62 420.49 1833.2 438.17 1833.2 438.17 507.32 438.17 489.08 456.43 489.08 1083.98 489.08 1102.25 489.08 1102.25 507.32 1102.25 1833.2 1119.94 1833.2 1119.94 455.62 420.49 455.62"/>
        <path class="cls-24" d="M1119.94,1836.4h-17.69c-1.76,0-3.19-1.42-3.19-3.2V492.26H441.39v1340.94c0,1.78-1.44,3.2-3.21,3.2h-17.69c-1.75,0-3.19-1.42-3.19-3.2V455.62c0-1.76,1.44-3.19,3.19-3.19h699.45c1.77,0,3.21,1.43,3.21,3.19v1377.58c0,1.78-1.44,3.2-3.21,3.2ZM1105.44,1830.02h11.28V458.83H423.68v1371.19h11.28V489.08c0-1.78,1.43-3.2,3.21-3.2h664.08c1.76,0,3.19,1.42,3.19,3.2v1340.94Z"/>
        <polygon class="cls-27" points="1102.25 489.08 1083.98 489.08 456.43 489.08 438.17 489.08 438.17 507.32 438.17 1833.2 456.43 1833.2 456.43 507.32 1083.98 507.32 1083.98 1833.2 1102.25 1833.2 1102.25 507.32 1102.25 489.08"/>
        <polygon class="cls-14" points="1092.04 500.74 1091.56 500.74 1084.95 507.32 1084.95 1833.2 1092.04 1833.2 1092.04 500.74"/>
        <polygon class="cls-38" points="450.82 500.74 457.4 507.32 1084.95 507.32 1091.56 500.74 450.82 500.74"/>
        <polygon class="cls-38" points="450.82 500.74 448.35 500.74 448.35 1833.2 457.4 1833.2 457.4 507.32 450.82 500.74"/>
        <polygon class="cls-15" points="524.03 1803.98 1017.6 1680.32 524.03 1680.32 524.03 1803.98"/>
        <polygon class="cls-15" points="1017.6 1803.98 1017.6 1680.32 524.03 1803.98 1017.6 1803.98"/>
        <polygon class="cls-15" points="524.03 1811.78 1017.6 1811.78 1026.63 1811.78 1026.63 1803.98 1026.63 1680.32 1026.63 1673.63 1017.6 1680.32 1017.6 1803.98 524.03 1803.98 515.08 1810.71 515.08 1811.78 524.03 1811.78"/>
        <polygon class="cls-38" points="524.03 1680.32 1017.6 1680.32 1026.63 1673.63 1026.63 1672.51 1017.6 1672.51 524.03 1672.51 515.08 1672.51 515.08 1680.32 515.08 1803.98 515.08 1810.71 524.03 1803.98 524.03 1680.32"/>
        <rect class="cls-39" x="524.03" y="1680.32" width="493.57" height="123.67"/>
        <path class="cls-24" d="M1017.6,1807.19h-493.57c-1.77,0-3.2-1.44-3.2-3.21v-123.67c0-1.78,1.43-3.21,3.2-3.21h493.57c1.77,0,3.21,1.43,3.21,3.21v123.67c0,1.77-1.44,3.21-3.21,3.21ZM527.22,1800.8h487.2v-117.3h-487.2v117.3Z"/>
        <rect class="cls-35" x="495.23" y="677.11" width="17.77" height="97.83"/>
        <rect class="cls-17" x="504.85" y="677.11" width="8.16" height="97.83"/>
        <rect class="cls-35" x="495.23" y="1437.35" width="17.77" height="97.84"/>
        <rect class="cls-17" x="504.85" y="1437.35" width="8.16" height="97.84"/>
        <path class="cls-37" d="M1076.79,1115c0,41.15-8.62,74.55-19.26,74.55s-19.23-33.4-19.23-74.55,8.58-74.47,19.23-74.47,19.26,33.33,19.26,74.47Z"/>
        <path class="cls-30" d="M1067.67,1110.98c0,33.3-6.17,60.29-13.82,60.29s-13.8-26.98-13.8-60.29,6.17-60.33,13.8-60.33,13.82,26.98,13.82,60.33Z"/>
        <polygon class="cls-14" points="1015.53 553.19 1015.53 1621.34 524.88 1621.34 524.88 1616 520.36 1625.9 509.71 1636.56 524.88 1636.56 1015.53 1636.56 1030.74 1636.56 1030.74 1621.34 1030.74 547.88 1030.74 532.68 1020.09 543.32 1015.53 553.19"/>
        <polygon class="cls-38" points="524.88 532.68 509.71 532.68 509.71 547.88 509.71 1621.34 509.71 1636.56 520.36 1625.9 524.88 1616 524.88 547.88 1015.53 547.88 1015.53 553.19 1020.09 543.32 1030.74 532.68 1015.53 532.68 524.88 532.68"/>
        <path class="cls-12" d="M1015.53,547.88v1073.47h-490.65V547.88h490.65Z"/>
        <path class="cls-6" d="M524.88,547.88v1073.47h490.65V547.88h-490.65ZM971.52,1595.9h-408.7v-1012.77h408.7v1012.77Z"/>
        <path class="cls-5" d="M1020.11,1620.86V546.34h-495.85v1074.52h495.85ZM860.63,555.46h154.27v206.24h-154.27v-206.24ZM860.63,769.2h154.27v206.5h-154.27v-206.5ZM860.63,983.23h154.27v206.52h-154.27v-206.52ZM860.63,1197.26h154.27v206.54h-154.27v-206.54ZM860.63,1411.34h154.27v208.49h-154.27v-208.49ZM698.92,555.46h150.42v206.24h-150.42v-206.24ZM698.92,769.2h150.42v206.5h-150.42v-206.5ZM698.92,983.23h150.42v206.52h-150.42v-206.52ZM698.92,1197.26h150.42v206.54h-150.42v-206.54ZM698.92,1411.34h150.42v208.49h-150.42v-208.49ZM533.39,555.46h154.25v206.24h-154.25v-206.24ZM533.39,769.2h154.25v206.5h-154.25v-206.5ZM533.39,983.23h154.25v206.52h-154.25v-206.52ZM533.39,1197.26h154.25v206.54h-154.25v-206.54ZM533.39,1411.34h154.25v208.49h-154.25v-208.49Z"/>
        <path class="cls-39" d="M520.36,543.32v1082.57h499.73V543.32h-499.73ZM1010.95,758.64h-154.21v-206.22h154.21v206.22ZM695.01,1400.78v-206.51h150.4v206.51h-150.4ZM845.41,1408.3v208.48h-150.4v-208.48h150.4ZM845.41,766.18v206.54h-150.4v-206.54h150.4ZM695.01,758.64v-206.22h150.4v206.22h-150.4ZM845.41,980.22v206.51h-150.4v-206.51h150.4ZM683.7,972.71h-154.25v-206.54h154.25v206.54ZM683.7,980.22v206.51h-154.25v-206.51h154.25ZM683.7,1194.27v206.51h-154.25v-206.51h154.25ZM856.74,1194.27h154.21v206.51h-154.21v-206.51ZM856.74,1186.73v-206.51h154.21v206.51h-154.21ZM856.74,972.71v-206.54h154.21v206.54h-154.21ZM683.7,552.42v206.22h-154.25v-206.22h154.25ZM529.46,1408.3h154.25v208.48h-154.25v-208.48ZM856.74,1616.79v-208.48h154.21v208.48h-154.21Z"/>
        <rect class="cls-2" x="404.29" y="1821.05" width="731.87" height="20.27"/>
        <path class="cls-34" d="M1139.33,1844.53H401.09v-26.67h738.24v26.67ZM407.5,1838.13h725.45v-13.88H407.5v13.88Z"/>
        <rect class="cls-25" x="143.74" y="383.64" width="34.37" height="1291.71"/>
        <path class="cls-32" d="M178.12,1678.85h-34.37c-1.94,0-3.5-1.56-3.5-3.5V383.64c0-1.93,1.56-3.51,3.5-3.51h34.37c1.92,0,3.5,1.58,3.5,3.51v1291.71c0,1.94-1.58,3.5-3.5,3.5ZM147.26,1671.83h27.34V387.17h-27.34v1284.66Z"/>
        <rect class="cls-25" x="160.95" y="383.64" width="17.17" height="1291.71"/>
        <rect class="cls-28" x="150.09" y="383.64" width="4.1" height="1291.71"/>
        <path class="cls-10" d="M259.95,167.52H63.21s-13.77,193.2,98.39,193.2,98.35-193.2,98.35-193.2Z"/>
        <path class="cls-3" d="M259.95,167.52h-101.39c7.94,1.46,15.72,4.25,21.32,10.1,9.44,9.84,12.08,24.97,13.36,38.08,1.66,16.74.84,33.75-1.95,50.33-2.41,14.28-5.49,29.69-13.29,42.17-14.05,22.44-42.23,33.45-67.37,23.63-7.4-2.88-13.88-7.31-19.65-12.69,14.74,24.27,37.05,41.58,70.62,41.58,112.13,0,98.35-193.2,98.35-193.2Z"/>
        <path class="cls-13" d="M98.66,185h-21.95c-4.5,51.41,6.34,89.56,19.59,115.93,4.03-2.53,5.66-3.7,9.96-7.44-8.3-25.71-13.77-61.66-7.6-108.49Z"/>
        <path class="cls-13" d="M115.08,313.02c-2.93,1.55-7.17,4.21-8.81,5.11,13.15,19.94,25.57,29.31,25.57,29.31l6.12-3.88s-13.26-9.07-22.88-30.54Z"/>
        <path class="cls-19" d="M89.03,1826.9h143.81s10.08-144.22-71.89-144.22-71.92,144.22-71.92,144.22Z"/>
        <path class="cls-25" d="M89.03,1826.9h143.81s10.08-144.22-71.89-144.22-71.92,144.22-71.92,144.22Z"/>
        <path class="cls-32" d="M232.84,1830.42H89.03c-1.81,0-3.35-1.44-3.48-3.28-.27-3.63-5.81-89.51,30.87-128.86,11.83-12.69,26.82-19.11,44.53-19.11s32.7,6.42,44.53,19.11c36.68,39.34,31.12,125.22,30.87,128.86-.13,1.83-1.67,3.28-3.51,3.28ZM92.39,1823.38h137.09c.64-16.1,1.58-87.36-29.16-120.31-10.44-11.21-23.7-16.89-39.38-16.89s-28.94,5.68-39.38,16.89c-30.76,32.99-29.84,104.23-29.18,120.31Z"/>
        <path class="cls-7" d="M88.69,1807.29c-.19,11.87.34,19.61.34,19.61h143.81s.53-7.74.36-19.61H88.69Z"/>
        <path class="cls-7" d="M160.95,1682.69c-21.09,0-36.09,9.54-46.73,23.73,2.41-1.88,4.94-3.58,7.71-4.99,15.02-7.63,38.05-8.07,45.78,10.19,4.27,10.14,4.99,21.74,6.51,32.55,1.94,14.38,3.57,28.79,5.07,43.21,1.39,13.16,2.2,26.34,3.05,39.54h50.51s10.08-144.22-71.89-144.22Z"/>
        <path class="cls-20" d="M187.36,1690.03h-51.55s-5.16-1.08-5.16-7.34,5.16-7.34,5.16-7.34h51.55s5.15.53,5.15,7.34-5.15,7.34-5.15,7.34Z"/>
        <path class="cls-25" d="M187.36,1690.03h-51.55s-5.16-1.08-5.16-7.34,5.16-7.34,5.16-7.34h51.55s5.15.53,5.15,7.34-5.15,7.34-5.15,7.34Z"/>
        <path class="cls-32" d="M187.36,1693.53h-51.55c-.24,0-.47-.01-.72-.06-2.75-.58-7.97-3.57-7.97-10.79s5.22-10.21,7.97-10.78c.25-.04.49-.08.72-.08h51.55c3.25.31,8.66,2.96,8.66,10.86s-5.42,10.56-8.32,10.83c-.11.01-.21.01-.34.01ZM136.31,1686.51h50.73c.69-.17,1.96-.9,1.96-3.83,0-3.16-1.48-3.75-2.11-3.86l-50.62.03c-.74.28-2.11,1.16-2.11,3.83s1.35,3.53,2.16,3.83Z"/>
        <path class="cls-29" d="M132.57,1697.75c-13.12,11.08-32.39,39.18-34.2,105.73h18.51s-4.25-72.2,22.56-105.73h-6.87Z"/>
        <path class="cls-25" d="M79.4,1826.9h163.1s5.68,1.66,9.09,7.51c3.43,5.87,1.9,11.43,1.9,11.43H68.41s-.71-5.15,2.37-11.18c3.08-6.01,8.62-7.75,8.62-7.75Z"/>
        <path class="cls-32" d="M253.48,1849.35H68.41c-1.75,0-3.25-1.28-3.46-3.03-.04-.24-.84-6.3,2.68-13.25,3.74-7.25,10.41-9.42,10.71-9.51.34-.11.7-.17,1.06-.17h163.1c.31,0,.64.05.97.14.28.09,7.1,2.13,11.16,9.14,4.1,7.03,2.33,13.8,2.26,14.09-.4,1.53-1.8,2.6-3.4,2.6ZM72,1842.31h178.31c-.04-1.63-.42-3.84-1.78-6.12-2.15-3.7-5.51-5.31-6.67-5.77H80.03c-1.14.49-4.23,2.11-6.13,5.82-1.18,2.31-1.69,4.44-1.91,6.07Z"/>
        <path class="cls-31" d="M161.6,363.31c-23.93,0-44.11-8.64-59.98-25.67-25.56-27.47-35.35-72.39-39.04-105.22-3.98-35.4-1.95-64.8-1.95-65.09.11-1.36,1.23-2.4,2.58-2.4h196.74c1.35,0,2.49,1.04,2.58,2.4.02.29,2.03,29.71-1.94,65.09-3.68,32.85-13.46,77.76-39.04,105.22-15.85,17.04-36,25.66-59.94,25.66ZM65.67,170.11c-.81,16.82-3.7,117.37,39.76,164.02,14.83,15.93,33.72,24.01,56.17,24.01s41.33-8.08,56.18-24.01c43.44-46.67,40.52-147.21,39.72-164.02H65.67Z"/>
        <path class="cls-32" d="M161.6,366.82c-24.95,0-45.99-9-62.55-26.79-26.22-28.17-36.21-73.84-39.97-107.19-3.97-35.62-1.94-65.44-1.94-65.75.25-3.17,2.91-5.66,6.08-5.66h196.74c3.17,0,5.85,2.49,6.08,5.66.02.31,2.05,30.14-1.94,65.75-3.76,33.35-13.73,79.05-39.97,107.21-16.55,17.77-37.57,26.77-62.52,26.77ZM69.04,173.62c-.93,25.07-1.18,115.05,38.94,158.1,14.16,15.2,32.2,22.9,53.62,22.9s39.45-7.7,53.6-22.89c40.09-43.07,39.85-133.05,38.94-158.11H69.04Z"/>
        <path class="cls-25" d="M273.17,167.52H50.01s-6.9-1.36-6.9-8.89,6.9-8.87,6.9-8.87h223.17s6.89.64,6.89,8.87-6.89,8.89-6.89,8.89Z"/>
        <path class="cls-32" d="M273.15,171.04H50.01c-4.03-.72-10.41-4.15-10.41-12.41s6.38-11.68,9.76-12.33l223.8-.06c3.83.34,10.41,3.35,10.41,12.39s-6.59,12.05-10.08,12.38c-.11.03-.24.03-.34.03ZM50.46,164.01h222.44c1.04-.19,3.65-1.07,3.65-5.38,0-4.9-3.33-5.34-3.71-5.38H50.46c-1.06.33-3.83,1.5-3.83,5.38s2.77,5.07,3.83,5.38Z"/>
        <path class="cls-25" d="M161.6,76.66c-90.06,0-97.09,73.1-97.09,73.1h194.18s-7.05-73.1-97.09-73.1Z"/>
        <path class="cls-32" d="M258.68,153.26H64.5c-.99,0-1.92-.42-2.6-1.15-.68-.73-.99-1.71-.89-2.69.06-.76,8.4-76.29,100.58-76.29s100.51,75.52,100.59,76.29c.09.99-.26,1.96-.91,2.69-.66.73-1.61,1.15-2.6,1.15ZM68.58,146.24h186c-2.83-14.8-18.09-66.07-92.98-66.07s-90.16,51.27-93.02,66.07Z"/>
        <path class="cls-7" d="M161.6,76.66c-1.07,0-2.08.05-3.12.06,7.71,1.58,13.88,5.76,16.18,14.38,2.3,8.51,1.67,17.5.4,26.13-1.01,7.11-1.61,17.44-9.8,20.1-6.22,2.03-13.1,2.13-19.56,2.36-7.9.29-15.76.71-23.66.65-7.31-.04-14.63-.17-21.93-.04-5.57.11-11.03-.02-16.37-1.78-6.57-2.19-9.97-8.27-10.84-14.74-7.22,14.15-8.39,25.99-8.39,25.99h194.18s-7.05-73.1-97.09-73.1Z"/>
        <path class="cls-7" d="M177.36,77.46c7.16,3.65,13.71,8.49,19.14,14.18,11.31,11.82,20.56,30.24,17.74,46.97-.1.6-.71.9-1.24.96-12.91,1.41-103.14,3.67-116.49,4.06-10.31.31-20.74,1.48-31.06.81-.74,3.33-.93,5.33-.93,5.33h194.16s-6.2-64.35-81.32-72.3Z"/>
        <path class="cls-33" d="M161.6,76.66c11.98,0,22.48,1.33,31.76,3.57-.08-12.55-14.28-22.71-31.76-22.71s-31.71,10.16-31.73,22.71c9.23-2.24,19.71-3.57,31.73-3.57Z"/>
        <path class="cls-32" d="M193.35,83.74c-.29,0-.55-.04-.84-.11-19.06-4.61-42.91-4.58-61.82,0-1.06.26-2.15.03-3-.65-.85-.66-1.36-1.69-1.36-2.77.04-14.45,15.85-26.2,35.26-26.2s35.18,11.74,35.27,26.19c0,1.09-.49,2.1-1.36,2.78-.61.49-1.39.76-2.16.76ZM161.6,73.13c9.61,0,18.79.86,27.41,2.56-3.04-8.41-14.2-14.66-27.41-14.66s-24.38,6.26-27.39,14.66c8.57-1.69,17.77-2.56,27.39-2.56Z"/>
        <path class="cls-7" d="M163.4,57.58c5.41,6.74,8.32,16.29-.84,16.62-6.21.24-11.66.88-17.73,2.28-.53.11-3.86,1.09-7.45,2.18,7.3-1.28,15.34-2.01,24.23-2.01,11.98,0,22.48,1.33,31.76,3.57-.08-12.13-13.31-21.97-29.96-22.65Z"/>
        <path class="cls-26" d="M78.38,127.91c5.91-.61,11.91-.03,17.83,1.08,5.4-13,21.13-41.01,57.84-47.07,0,0-47.87-5.61-75.67,45.99Z"/>
        <path class="cls-26" d="M140.5,73.87c2.58-4.68,7.39-10.48,15.89-12.06,0,0-12.87-1.67-21.51,12.65,1.78-.43,3.74-.59,5.63-.59Z"/>
        <rect class="cls-25" x="155.2" y="167.52" width="12.76" height="196.04"/>
        <path class="cls-32" d="M167.96,367.09h-12.76c-1.94,0-3.5-1.58-3.5-3.51v-196.06c0-1.94,1.56-3.51,3.5-3.51h12.76c1.94,0,3.5,1.57,3.5,3.51v196.06c0,1.93-1.56,3.51-3.5,3.51ZM158.71,360.07h5.75v-189.03h-5.75v189.03Z"/>
        <rect class="cls-25" x="155.2" y="167.52" width="12.76" height="196.04"/>
        <path class="cls-32" d="M167.96,367.09h-12.76c-1.94,0-3.5-1.58-3.5-3.51v-196.06c0-1.94,1.56-3.51,3.5-3.51h12.76c1.94,0,3.5,1.57,3.5,3.51v196.06c0,1.93-1.56,3.51-3.5,3.51ZM158.71,360.07h5.75v-189.03h-5.75v189.03Z"/>
        <path class="cls-25" d="M182.87,383.64h-42.59s-4.27-.86-4.27-5.71,4.27-5.75,4.27-5.75h42.59s4.29.44,4.29,5.75-4.29,5.71-4.29,5.71Z"/>
        <path class="cls-32" d="M182.87,387.17h-42.59c-3.17-.57-7.82-3.13-7.82-9.24s4.65-8.68,7.09-9.19l43.31-.06c3.36.31,7.82,3.01,7.82,9.25s-4.48,8.94-7.47,9.21c-.11.01-.21.03-.34.03ZM140.79,380.13h41.78c.73-.19,1.08-.91,1.08-2.2,0-.51,0-2.03-1.25-2.26l-41.62.04c-.64.25-1.27.86-1.27,2.23s.64,1.96,1.27,2.2Z"/>
        <path class="cls-25" d="M182.87,372.18h-42.59s-4.27-.82-4.27-5.7,4.27-5.75,4.27-5.75h42.59s4.29.41,4.29,5.75-4.29,5.7-4.29,5.7Z"/>
        <path class="cls-32" d="M182.87,375.7h-42.59c-3.13-.54-7.82-3.08-7.82-9.22s4.65-8.71,7.09-9.19l43.31-.06c3.34.29,7.82,3,7.82,9.25s-4.48,8.91-7.46,9.21c-.1,0-.23.01-.36.01ZM140.77,368.68h41.81c.73-.2,1.08-.92,1.08-2.2,0-2.1-1-2.24-1.12-2.26h-41.75c-.64.27-1.27.86-1.27,2.26,0,1.14.43,1.88,1.25,2.2Z"/>
        <rect class="cls-43" x="960.55" y="66.45" width="165.17" height="60.98"/>
      </g>
    </g>
  </g>
</svg>