<?xml version="1.0" encoding="UTF-8"?>
<svg id="Camada_1" data-name="Camada 1" xmlns="http://www.w3.org/2000/svg" xmlns:xlink="http://www.w3.org/1999/xlink" viewBox="0 0 1242 2208">
  <defs>
    <style>
      .cls-1, .cls-2 {
        fill: none;
      }

      .cls-3 {
        fill: #ffcf00;
      }

      .cls-2 {
        stroke: #001b36;
        stroke-linecap: round;
        stroke-linejoin: round;
        stroke-width: .75px;
      }

      .cls-4 {
        fill: #6314b7;
      }

      .cls-5 {
        clip-path: url(#clippath-1);
      }

      .cls-6 {
        fill: #903ce0;
      }

      .cls-7 {
        fill: #fff;
      }

      .cls-8 {
        fill: #c14ff4;
      }

      .cls-9 {
        fill: #ff5074;
      }

      .cls-10 {
        clip-path: url(#clippath);
      }
    </style>
    <clipPath id="clippath">
      <rect class="cls-1" x="-792.3" y="3.93" width="3345.86" height="2230.57"/>
    </clipPath>
    <clipPath id="clippath-1">
      <rect class="cls-1" x="-792.3" y="1926.92" width="3345.86" height="307.59"/>
    </clipPath>
  </defs>
  <rect class="cls-4" x="-792.3" y="3.93" width="3345.86" height="2230.57"/>
  <g>
    <circle class="cls-6" cx="880.63" cy="1255.48" r="777.35" transform="translate(-629.83 990.42) rotate(-45)"/>
    <g>
      <line class="cls-2" x1="114.73" y1="60.78" x2="114.73" y2="1899.97"/>
      <line class="cls-2" x1="458.78" y1="60.78" x2="359.29" y2="1899.97"/>
      <line class="cls-2" x1="916.89" y1="60.78" x2="916.89" y2="1899.97"/>
      <line class="cls-2" x1="672.68" y1="60.78" x2="672.68" y2="1899.97"/>
      <line class="cls-2" x1="1161.1" y1="60.78" x2="1061.61" y2="1899.97"/>
      <line class="cls-2" x1="1287.72" y1="60.78" x2="1231.13" y2="1899.97"/>
    </g>
  </g>
  <g class="cls-10">
    <g>
      <rect class="cls-4" x="-792.3" y="3.93" width="3345.86" height="113.7"/>
      <path class="cls-9" d="M-792.3,117.63s301.83,333.27,659.08,0c0,0,308.68,327.82,680.32,0,0,0,309.1,284.06,687.48,0,0,0,328.1,282.54,629.96,0,0,0,308.42,233.76,689.02,0V3.93H-792.3v113.7Z"/>
      <path class="cls-2" d="M-792.3,19.7s301.83,333.27,659.08,0c0,0,308.68,327.82,680.32,0,0,0,309.1,284.06,687.48,0,0,0,328.1,282.54,629.96,0,0,0,308.42,233.76,689.02,0"/>
      <path class="cls-2" d="M547.1,117.63s170.34,161.75,417.76,120.25"/>
      <path class="cls-2" d="M1234.58,117.63s179.21,150.4,370.94,123.71"/>
    </g>
    <g>
      <path class="cls-9" d="M-1160.83,1842.42s-345.63-1690.54,8.47-2006.14C-798.27-479.32,117.08-415.85,33.07,19.65c0,0-38.49,740.35-461.86,955.88v107.77s143.49,359.65,220.47,765.91c0,0-13.47,49.14-166.02,0-152.55-49.14-147.76,43.15-308.69,21.84-160.93-21.31-135.1-51.11-278.16-11.38-143.05,39.74-199.64-17.26-199.64-17.26Z"/>
      <path class="cls-2" d="M-345.55,924.63C-84.25,734.34-.96,262.93-.96,262.93c0,0,36.32-201.33,39.4-292.78"/>
    </g>
    <g>
      <polygon points="1514.76 35.22 1232.79 261.88 1104.13 85.96 1405.58 -114.07 1514.76 35.22"/>
      <path d="M1261.49,275.94l-48.37,35.38-162.46-222.14,48.37-35.38s140.88,60.28,162.46,222.14Z"/>
      <path class="cls-7" d="M1192.88,283.64h0l-121.98-166.79s110.22,33.42,121.98,166.79Z"/>
    </g>
  </g>
  <g>
    <path class="cls-4" d="M-34.71,1975.03H230.71s-53.7-58.3-132.71-58.3-132.71,58.3-132.71,58.3Z"/>
    <rect class="cls-4" x="87.95" y="963.95" width="20.1" height="997.66"/>
    <path class="cls-4" d="M173.43,951.72l-26.59-43.79-113.8,76.85c-8.41,5.68-10.88,16.96-5.61,25.63h0c5.26,8.67,16.41,11.68,25.33,6.84l120.67-65.53Z"/>
    <path class="cls-4" d="M197.71,963.1c-22.08,13.41-50.85,6.38-64.26-15.7-13.41-22.08-6.38-50.85,15.7-64.26,22.08-13.41,50.85-6.38,64.26,15.7,13.41,22.08,6.38,50.85-15.7,64.26Z"/>
  </g>
  <g>
    <polygon class="cls-4" points="338.67 1399.46 292.5 1399.46 292.5 1975.03 322.94 1975.03 338.67 1399.46"/>
    <polygon class="cls-4" points="609.89 1399.46 656.06 1399.46 656.06 1975.03 625.62 1975.03 609.89 1399.46"/>
    <rect class="cls-4" x="315.99" y="1827.59" width="316.99" height="17.29"/>
    <rect class="cls-4" x="315.99" y="1510.27" width="316.99" height="17.29"/>
    <rect class="cls-4" x="272.86" y="1356.32" width="403.25" height="80.65"/>
    <path class="cls-4" d="M272.86,1393.03s-20.86-8.16-15.68-34.05c5.18-25.89,110.47-43.5,217.3-43.5s212.13,17.61,217.3,43.5c5.18,25.89-15.68,34.05-15.68,34.05h-403.25Z"/>
  </g>
  <g>
    <path class="cls-3" d="M101.77,1870.17h265.43s-53.7-58.3-132.71-58.3-132.71,58.3-132.71,58.3Z"/>
    <rect class="cls-3" x="224.44" y="859.09" width="20.1" height="997.66"/>
    <path class="cls-3" d="M309.92,846.86l-26.59-43.79-113.8,76.85c-8.41,5.68-10.88,16.96-5.61,25.63h0c5.27,8.67,16.41,11.68,25.33,6.84l120.67-65.53Z"/>
    <circle cx="309.92" cy="818.26" r="46.77" transform="translate(-487.83 458.81) rotate(-45)"/>
    <path class="cls-2" d="M235.54,835.35s-4.9,32.43,22.84,39.5"/>
    <line class="cls-2" x1="209.22" y1="901.54" x2="246.79" y2="881.14"/>
    <line class="cls-2" x1="224.44" y1="999.55" x2="224.44" y2="1501.6"/>
    <path class="cls-2" d="M185.49,1819.35s52.55-17.71,105.89,2.63"/>
  </g>
  <g>
    <polygon class="cls-3" points="475.16 1294.6 428.99 1294.6 428.99 1870.17 459.43 1870.17 475.16 1294.6"/>
    <polygon class="cls-3" points="746.38 1294.6 792.55 1294.6 792.55 1870.17 762.11 1870.17 746.38 1294.6"/>
    <rect class="cls-3" x="452.47" y="1722.73" width="316.99" height="17.29"/>
    <rect class="cls-3" x="452.47" y="1405.41" width="316.99" height="17.29"/>
    <rect class="cls-3" x="409.35" y="1251.47" width="403.25" height="80.65"/>
    <path class="cls-9" d="M409.35,1288.17s-20.86-8.16-15.68-34.05c5.18-25.89,110.47-43.49,217.3-43.49s212.13,17.61,217.3,43.49c5.18,25.89-15.68,34.05-15.68,34.05h-403.25Z"/>
    <line class="cls-2" x1="409.35" y1="1332.12" x2="709.2" y2="1332.12"/>
    <line class="cls-2" x1="472.68" y1="1385.3" x2="465.25" y2="1657.38"/>
    <line class="cls-2" x1="759.25" y1="1765.58" x2="750.33" y2="1439.05"/>
    <line class="cls-2" x1="577.88" y1="1288.17" x2="812.59" y2="1288.17"/>
  </g>
  <g>
    <polygon class="cls-6" points="34.91 1869.84 34.91 1737.33 -46.11 1701.76 -399.84 1701.76 -399.84 1869.84 34.91 1869.84"/>
    <polyline class="cls-2" points="-9.01 1718.05 34.91 1737.33 34.91 1845.91"/>
  </g>
  <g>
    <rect class="cls-8" x="-792.3" y="1869.84" width="3345.86" height="364.66"/>
    <line class="cls-2" x1="-792.3" y1="1869.84" x2="1733.1" y2="1869.84"/>
    <line class="cls-2" x1="-792.3" y1="1926.92" x2="2553.56" y2="1926.92"/>
  </g>
  <g class="cls-5">
    <path d="M945.38,2400.11s-38.42-195.06-26.6-307.37c8.61-81.84,197.73-108.75,299.69-117.33,42.5-3.58,85.17-3.58,127.67,0,101.97,8.58,291.08,35.49,299.69,117.33,11.82,112.31-26.6,307.37-26.6,307.37h-673.86Z"/>
    <path d="M142.18,2400.11s-38.42-195.06-26.6-307.37c8.61-81.84,197.73-108.75,299.69-117.33,42.5-3.58,85.17-3.58,127.67,0,101.97,8.58,291.08,35.49,299.69,117.33,11.82,112.31-26.6,307.37-26.6,307.37H142.18Z"/>
    <path d="M-661.03,2400.11s-38.42-195.06-26.6-307.37c8.62-81.84,197.73-108.75,299.69-117.33,42.5-3.58,85.17-3.58,127.67,0,101.97,8.58,291.08,35.49,299.69,117.33,11.82,112.31-26.6,307.37-26.6,307.37h-673.86Z"/>
  </g>
</svg>