<?xml version="1.0" encoding="UTF-8"?>
<svg xmlns="http://www.w3.org/2000/svg" xmlns:xlink="http://www.w3.org/1999/xlink" viewBox="0 0 1242 2208">
  <defs>
    <style>
      .cls-1 {
        fill: none;
      }

      .cls-2 {
        fill: #5e2c00;
      }

      .cls-3 {
        fill: #0e913d;
      }

      .cls-4 {
        fill: #65a54e;
      }

      .cls-5, .cls-6, .cls-7, .cls-8, .cls-9, .cls-10, .cls-11, .cls-12, .cls-13, .cls-14, .cls-15, .cls-16, .cls-17, .cls-18 {
        mix-blend-mode: multiply;
      }

      .cls-5, .cls-19 {
        fill: #ffda8d;
      }

      .cls-20, .cls-6, .cls-13, .cls-14, .cls-17 {
        opacity: .5;
      }

      .cls-20, .cls-21 {
        fill: #8c5620;
      }

      .cls-20, .cls-22 {
        mix-blend-mode: screen;
      }

      .cls-7 {
        opacity: .57;
      }

      .cls-8 {
        opacity: .62;
      }

      .cls-9 {
        opacity: .59;
      }

      .cls-10 {
        opacity: .34;
      }

      .cls-11 {
        opacity: .35;
      }

      .cls-23 {
        fill: #d2f5ff;
      }

      .cls-24 {
        fill: #e3f8ff;
      }

      .cls-25, .cls-16 {
        fill: #2ed7ff;
      }

      .cls-26 {
        isolation: isolate;
      }

      .cls-27 {
        fill: #9d5c36;
      }

      .cls-13 {
        fill: url(#linear-gradient-2);
      }

      .cls-14 {
        fill: url(#linear-gradient-3);
      }

      .cls-28 {
        fill: #fff;
      }

      .cls-29 {
        fill: #c5763d;
      }

      .cls-15 {
        fill: #a5d3db;
      }

      .cls-30 {
        fill: #684017;
      }

      .cls-31 {
        fill: #96d6f7;
      }

      .cls-32 {
        fill: #9dcb3b;
      }

      .cls-17 {
        fill: url(#linear-gradient);
      }

      .cls-33 {
        fill: #17793d;
      }

      .cls-18 {
        fill: #35a8e0;
        opacity: .6;
      }

      .cls-34 {
        fill: #965a2a;
      }

      .cls-35 {
        fill: #7ab444;
      }

      .cls-36 {
        clip-path: url(#clippath);
      }
    </style>
    <clipPath id="clippath">
      <rect class="cls-1" x="-1813.42" y="6.69" width="4763.83" height="2198.69"/>
    </clipPath>
    <linearGradient id="linear-gradient" x1="-257.53" y1="421.18" x2="-257.53" y2="1659.24" gradientTransform="translate(56.57 -249.22) rotate(-1.55)" gradientUnits="userSpaceOnUse">
      <stop offset="0" stop-color="#fff"/>
      <stop offset=".09" stop-color="#fbf9f8"/>
      <stop offset=".22" stop-color="#efebe7"/>
      <stop offset=".36" stop-color="#ddd3cb"/>
      <stop offset=".52" stop-color="#c4b2a4"/>
      <stop offset=".69" stop-color="#a38772"/>
      <stop offset=".86" stop-color="#7c5335"/>
      <stop offset="1" stop-color="#592600"/>
    </linearGradient>
    <linearGradient id="linear-gradient-2" x1="2245.12" y1="-492.64" x2="2245.12" y2="969.97" gradientTransform="translate(-104.56 392.32) rotate(2.48)" xlink:href="#linear-gradient"/>
    <linearGradient id="linear-gradient-3" x1="-343.5" y1="316.5" x2="-348.28" y2="1378.07" gradientTransform="translate(56.57 -249.22) rotate(-1.55)" gradientUnits="userSpaceOnUse">
      <stop offset="0" stop-color="#fff"/>
      <stop offset=".09" stop-color="#f8f8f8"/>
      <stop offset=".22" stop-color="#e7e7e7"/>
      <stop offset=".36" stop-color="#cbcbcb"/>
      <stop offset=".52" stop-color="#a4a4a4"/>
      <stop offset=".69" stop-color="#727272"/>
      <stop offset=".86" stop-color="#353535"/>
      <stop offset="1" stop-color="#000"/>
    </linearGradient>
  </defs>
  <g class="cls-26">
    <g id="Camada_1" data-name="Camada 1">
      <g class="cls-36">
        <g>
          <rect class="cls-31" x="-1820.11" y="-63.92" width="4837.94" height="1628.44"/>
          <g>
            <path class="cls-15" d="M3017.83,1476.76V-67.91c-42.51-7.39-87.14-11.35-133.16-11.35-283.93,0-515.01,149.51-522.47,335.8-80.52,16.78-148.82,51.67-194.1,97.39-3.63-.14-7.28-.21-11.04-.21-59.62,0-112.62,18.68-146.35,47.65-46.59-32.14-112.24-52.18-185-52.18-122.55,0-224.95,56.83-250.21,132.73-14.21-1.25-28.77-1.93-43.57-1.93-162.7,0-298.54,75.85-330.81,176.85-141.68,36.63-245.88,122.59-264.19,225.85-65.11-53.09-164.6-86.99-276.11-86.99-11.65,0-23.23.36-34.57,1.11.23-3.36.38-6.76.38-10.15,0-129.53-159.05-234.52-355.25-234.52-138.81,0-258.89,52.55-317.42,129.12-49.67-20.95-106.61-35.2-167.69-40.78-25.89-71.36-123.05-124.41-239.16-124.41-11.59,0-22.99.59-34.19,1.59-.52-93.1-114.98-168.46-256.16-168.46-75.42,0-143.16,21.53-190.04,55.76-24.55-6.85-51.51-10.66-79.82-10.66-13.35,0-26.3.89-38.95,2.49-39.79-66.6-123.55-118.56-227.71-140.23-7.44-186.28-238.46-335.8-522.46-335.8-5.97,0-11.97.09-17.89.21v1555.8H3017.83Z"/>
            <path class="cls-24" d="M3017.83,1490.3V-54.4c-42.51-7.37-87.14-11.31-133.16-11.31-283.93,0-515.01,149.51-522.47,335.8-80.52,16.79-148.82,51.64-194.1,97.39-3.63-.14-7.28-.23-11.04-.23-59.62,0-112.62,18.68-146.35,47.67-46.59-32.15-112.24-52.19-185-52.19-122.55,0-224.95,56.83-250.21,132.69-14.21-1.2-28.77-1.9-43.57-1.9-162.7,0-298.54,75.85-330.81,176.87-141.68,36.61-245.88,122.55-264.19,225.86-65.11-53.11-164.6-87.03-276.11-87.03-11.65,0-23.23.38-34.57,1.13.23-3.4.38-6.76.38-10.16,0-129.53-159.05-234.52-355.25-234.52-138.81,0-258.89,52.55-317.42,129.11-49.67-20.99-106.61-35.18-167.69-40.78-25.89-71.34-123.05-124.41-239.16-124.41-11.59,0-22.99.56-34.19,1.59-.52-93.1-114.98-168.46-256.16-168.46-75.42,0-143.16,21.51-190.04,55.79-24.55-6.91-51.51-10.68-79.82-10.68-13.35,0-26.3.86-38.95,2.47-39.79-66.56-123.55-118.54-227.71-140.21-7.44-186.28-238.46-335.8-522.46-335.8-5.97,0-11.97.09-17.89.2v1555.81H3017.83Z"/>
            <g class="cls-6">
              <path class="cls-15" d="M3017.83,1458.74V254.29c-31.53-6.69-65.22-10.31-100.06-10.31-181.18,0-327.98,96.89-327.98,216.45,0,14.71,2.25,29.13,6.5,43.02-24.96-4.47-51.16-6.94-78.25-6.94-78.41,0-149.6,20.06-202.73,52.78-23.37-31.26-72.18-52.78-128.61-52.78-79.3,0-143.52,42.42-143.52,94.73,0,10.23,2.52,20.08,7.07,29.31-14.6-1.47-29.45-2.26-44.62-2.26-115.59,0-215.32,44.57-262.08,109.06-7.05-.54-14.22-.82-21.45-.82-102.29,0-185.76,53-191.01,119.63-29.5,10.93-54.07,26.98-70.93,46.32-42.73-11.02-89.16-17.12-137.76-17.12-161.98,0-300.17,67.08-354.5,161.38-23.89-5.17-49.37-8.02-75.94-8.02-14.14,0-28.04.86-41.49,2.36-74.58-77.33-205.59-128.69-354.75-128.69s-283.64,52.71-357.66,131.75c-55.38-92.93-192.44-158.78-352.94-158.78-48.58,0-94.99,6.1-137.72,17.12-16.91-19.34-41.42-35.39-70.93-46.32-5.22-66.63-88.75-119.63-191.04-119.63-7.25,0-14.42.29-21.45.82-46.74-64.49-146.49-109.06-262.06-109.06-15.19,0-30.08.79-44.62,2.26,4.54-9.23,7.01-19.07,7.01-29.31,0-52.3-64.24-94.73-143.45-94.73-56.45,0-105.21,21.53-128.65,52.78-53.11-32.73-124.34-52.78-202.74-52.78-27.09,0-53.29,2.47-78.23,6.94,4.28-13.88,6.53-28.31,6.53-43.02,0-119.56-146.87-216.45-327.98-216.45-3.31,0-6.6.07-9.89.14v1214.61H3017.83Z"/>
            </g>
            <path class="cls-23" d="M3017.83,1490.3V285.83c-31.53-6.69-65.22-10.32-100.06-10.32-181.18,0-327.98,96.96-327.98,216.5,0,14.73,2.25,29.11,6.5,42.98-24.96-4.45-51.16-6.91-78.25-6.91-78.41,0-149.6,20.08-202.73,52.8-23.37-31.29-72.18-52.8-128.61-52.8-79.3,0-143.52,42.41-143.52,94.71,0,10.2,2.52,20.08,7.07,29.31-14.6-1.48-29.45-2.22-44.62-2.22-115.59,0-215.32,44.52-262.08,109.02-7.05-.52-14.22-.82-21.45-.82-102.29,0-185.76,53-191.01,119.63-29.5,10.93-54.07,26.97-70.93,46.32-42.73-11-89.16-17.12-137.76-17.12-161.98,0-300.17,67.05-354.5,161.41-23.89-5.22-49.37-8.07-75.94-8.07-14.14,0-28.04.86-41.49,2.4-74.58-77.37-205.59-128.67-354.75-128.67s-283.64,52.64-357.66,131.69c-55.38-92.94-192.44-158.76-352.94-158.76-48.58,0-94.99,6.12-137.72,17.12-16.91-19.36-41.42-35.39-70.93-46.32-5.22-66.63-88.75-119.63-191.04-119.63-7.25,0-14.42.3-21.45.82-46.74-64.5-146.49-109.02-262.06-109.02-15.19,0-30.08.73-44.62,2.22,4.54-9.23,7.01-19.11,7.01-29.31,0-52.3-64.24-94.71-143.45-94.71-56.45,0-105.21,21.51-128.65,52.8-53.11-32.73-124.34-52.8-202.74-52.8-27.09,0-53.29,2.45-78.23,6.91,4.28-13.87,6.53-28.25,6.53-42.98,0-119.54-146.87-216.5-327.98-216.5-3.31,0-6.6.14-9.89.2v1214.59H3017.83Z"/>
          </g>
        </g>
        <g>
          <g>
            <g>
              <path class="cls-30" d="M1368.95,1081.34c-12.58-19.04-26.21-36.29-38.26-55.99-10.59-17.3-20.72-35.44-30.63-53.98-19.25-35.96-37.34-73.82-55.23-111.81-35.71-75.83-70.55-153.29-111.03-221.69-39.67-66.99-85.47-122.35-137.24-154.36-63.38-39.19-130.87-35.61-191.38,5.38-121.15,82.13-213.64,334.31-360.56,283.94-69.78-23.92-122.6-127.42-170.15-214.05-48.31-88.11-95.12-178.68-152.22-249.89C16.94,177.47-122.25,77.35-249.81,117.86c-126.68,40.15-218.28,212-300.73,367.77-73.77,139.17-142.7,285.91-219.73,419.7-46.06,80.07-93.02,158.92-145.08,225.9l2284.29-49.89Z"/>
              <path class="cls-2" d="M1379.44,1078.94c-86.85-126.79-139.21-264.49-209.22-397.42-46.22-87.64-115.7-212.77-246.89-228.67-91.52-11.09-158.93,55.56-204.8,109.29-56.63,66.33-111.89,183.53-213.95,211.28-75.9,20.61-132.05-69.1-158.71-110.22-38.52-59.42-69.16-122.44-102.87-183.69C179.73,364.46,106.05,251.75-12.15,167.2c-71.39-51.01-164.2-79.68-255.28-47.7-106.54,37.4-168.41,146.01-215.77,224.65-155.92,259.04-254.96,541.23-442.99,787.54-2.44,3.19,7.19,3.44,8.62,3.38,550.62-12.01,1101.24-24.05,1651.86-36.09,210.8-4.58,421.63-9.2,632.41-13.81,9.68-.21,19.77-8.03,4.51-7.68-550.64,12.02-1101.22,24.03-1651.9,36.09-209.92,4.56-419.84,9.16-629.8,13.76,23.82-.55,63.07-76.94,75.99-97,42.25-65.67,80.36-133.25,117.18-200.99,69.46-128.04,131.8-258.55,200.37-386.95,56.85-106.5,118.79-240.61,241.79-308.94C-118.49,46.37,51.22,233.66,121.76,324c63.93,81.84,107.82,174.33,156.08,262.62,33.85,61.98,68.4,135.66,135.86,179.07,91.22,58.65,184.85-30.88,231.75-85.6,44.77-52.27,81.61-108.81,131.07-158.48,43.98-44.21,106.52-75.26,178.88-51.12,48.6,16.23,85.12,57.19,113.57,90.93,67.78,80.22,107.32,176.82,149.58,267,41.06,87.8,83.69,173.11,139.94,255.26,2.9,4.26,24.49.41,20.95-4.74Z"/>
            </g>
            <path class="cls-20" d="M-542.34,492.46c-4.9,28.23-9.32,55.97-7.7,86.23,2.33,42.48,14.24,77.39,41.05,66.96,28.63-11.08,54.18-44.43,76.89-74.17,27.02-35.48,52.62-74.04,78.51-112.05,15.8-23.26,33.14-55.41,53.05-68.74,10.41-6.93,27.54-12.35,36.57,4.56,12.1,22.6,12.38,55.27,30.79,69.01,22.51,16.89,40.51,11.49,55.41-21.11,10.95-23.85,18.79-52.23,30.97-74.33,25.14-45.48,58.85-22.88,84.79,13.99C-26.86,432.58-.42,497.12,30.72,553.68c14.89,27.07,30.88,47.06,50.64,62.03,13.13,9.98,27.66,19.2,41.91,18.32,14.4-.86,32.6-13.24,35.23-41.12,1.59-16.87-5.05-53.68,10.2-55.5,18.64-2.15,30.36,22.99,42.19,45.73,16.37,31.31,31.83,61.87,49.96,90.29,23.92,37.07,48.47,73.5,76.06,101.58,62.5,63.55,136.25,96.64,206.95,98.21,68.21,1.36,134.72-23.64,198.16-61.16,33.67-19.88,66.72-42.69,99.31-67.06,20.86-15.64,46.72-44.29,70.98-41.03,20.04,2.65,38.59,28.9,55.16,47.27,31.92,35.3,70.46,52.57,104.17,21.15,23.64-22.13,37.83-60.85,58.87-88.18,6.07-7.77,12.54-13.83,19.25-18.36-5.24-9.47-10.52-18.82-15.96-28-39.67-66.99-85.47-122.35-137.24-154.36-63.38-39.19-130.87-35.61-191.38,5.38-121.15,82.13-213.64,334.31-360.56,283.94-69.78-23.92-122.6-127.42-170.15-214.05-48.31-88.11-95.12-178.68-152.22-249.89C16.94,177.47-122.25,77.35-249.81,117.86c-119.29,37.84-207.47,192.42-286.25,340.41-1.88,11.9-4.42,23.49-6.28,34.2Z"/>
          </g>
          <path class="cls-17" d="M-691.75,794.5c-25.27,46.88-48.04,94.28-69.77,143.63-30.06,68.49-62.43,136.06-89.21,206.65l1373.86-30.01c-13.46-14.33-28.16-27.29-41.01-42.05-11.31-13.04-22.1-26.71-32.69-40.64-20.47-27.04-39.76-55.56-58.74-84.2-37.97-57.06-74.97-115.41-118.22-166.87-42.37-50.37-91.49-91.88-147.44-115.73-68.42-29.13-141.77-25.98-208.01,5.4-132.55,63.05-235.81,254.44-394.9,217.4-74.77-17.43-130.62-93.8-180.92-158.59-10.23,22.13-21.51,43.68-32.96,65Z"/>
          <g>
            <g>
              <path class="cls-21" d="M474.54,1115.82c-13.19-14.05-27.54-26.7-40.17-41.21-11.09-12.83-21.7-26.2-32.05-39.81-20.11-26.54-38.99-54.5-57.65-82.56-37.24-55.99-73.49-113.19-115.91-163.63-41.51-49.38-89.64-90.11-144.5-113.49-67.08-28.58-138.99-25.46-203.94,5.33-129.96,61.77-231.21,249.45-387.15,213.14-74.1-17.27-129.24-93.63-179-157.53-50.42-65.02-99.38-131.85-159.43-184.24-110.77-96.73-258.03-169.97-394.29-139.06-135.41,30.69-234.79,158.84-324.38,274.89-80.09,103.74-155.06,213.07-238.57,312.77-49.97,59.78-100.79,118.58-157.03,168.61l2434.07-53.2Z"/>
              <path class="cls-2" d="M484.45,1116.28c-98.5-101.2-157.96-220.44-245.76-327.21-62.93-76.51-154.24-141-273.3-137.35-117,3.58-196.86,98.81-269.32,160.66-37.24,31.81-78.44,62.16-130.4,76.67-100.25,28.02-169.13-60.75-214.66-117.97-84.44-106.07-159.55-212.28-284.23-291.37-80.13-50.82-194.91-94.62-299.21-74-129.63,25.55-212.78,118.99-283.07,204.16-93.19,112.89-173.51,232.43-264.03,346.68-57.63,72.72-118.92,144.47-190.02,209.01-5.24,4.81,13.81,7.77,16.73,7.73,541.42-11.85,1082.85-23.66,1624.29-35.5,269.93-5.89,539.85-11.79,809.75-17.7,11.47-.25-7.89-8.7-13.4-8.53-541.42,11.79-1082.88,23.65-1624.31,35.46-269.9,5.9-539.83,11.79-809.76,17.68,5.6,2.58,11.17,5.12,16.75,7.69,216.56-196.63,333.51-449.45,540.62-650.8,44.54-43.32,98.02-80.88,163.61-101.19,97.34-30.17,200.51,7.01,280.29,51.78,138.15,77.57,216.67,198.2,305.43,309.66,48.97,61.5,109.33,121.76,206.95,120.46,99.04-1.34,175.53-89.02,235.29-141.66,41.78-36.77,84.81-70.25,142.3-90.25,125.11-43.5,229.6,43.5,293.84,117.75,91.04,105.23,147.03,225.77,245.76,327.25,3.69,3.74,24.94,6.15,19.86.89Z"/>
            </g>
            <path class="cls-20" d="M-520.89,942.47c18.18,9.39,35.86,15.32,53.03,18.36.54.11,1.06.21,1.57.32,122.73,20.6,220.96-105.26,324.56-171.7,62.68-40.19,135.49-70.1,208.56-58.17,60.34,9.86,115.82,35.84,170.07,67.37-2.72-3.31-5.37-6.69-8.16-10.04-41.51-49.38-89.64-90.11-144.5-113.49-67.08-28.58-138.99-25.46-203.94,5.33-129.96,61.77-231.21,249.45-387.15,213.14-74.1-17.27-129.24-93.63-179-157.53-50.42-65.02-99.38-131.85-159.43-184.24-110.77-96.73-258.03-169.97-394.29-139.06-127.51,28.93-223.11,144.2-308.62,254.46-2.15,8.89-4.99,17.48-7.1,25.44-5.49,20.97-10.52,41.58-9.11,63.99,1.99,31.49,14.33,57.33,43.02,49.37,30.56-8.36,58.15-33.34,82.72-55.56,29.13-26.44,56.85-55.23,84.79-83.61,17.16-17.38,35.98-41.39,57.31-51.34,11.15-5.24,29.47-9.36,38.99,3.08,12.6,16.73,12.49,40.92,31.99,51.01,23.78,12.35,43.01,8.18,59.26-16.09,11.9-17.79,20.54-38.85,33.75-55.29,27.3-33.94,62.96-17.35,90.22,9.73,36.88,36.68,64.32,84.37,96.91,126.06,15.57,19.93,32.35,34.68,53.25,45.64,13.87,7.32,29.27,14.03,44.48,13.28,15.32-.7,34.91-10.09,37.95-30.76,1.88-12.49-4.76-39.74,11.51-41.21,19.88-1.7,32.06,16.84,44.48,33.58,17.09,23.15,33.19,45.7,52.23,66.61,25.07,27.38,50.87,54.2,79.89,74.81,29.94,21.22,62.45,37.7,96.03,49.46.88-2.16,2.83-3.94,4.73-2.95Z"/>
          </g>
          <g>
            <path class="cls-13" d="M3038.74,860.41c-34.82,8.77-70.86,9.48-108.83-1.75-85.19-25.16-142.16-118.51-193.98-196.86-52.62-79.7-103.28-161.39-168.37-226.94-120.15-120.94-285.52-216.76-448.72-189.61-162.02,27.02-291.8,170.7-408.76,300.98-104.69,116.45-203.93,239.73-312.09,351.24-64.76,66.81-130.44,132.41-201.53,187.38l1826.87,64.08,15.41-288.51Z"/>
            <path class="cls-2" d="M3041.36,864.44c-128.35-6.51-188.32-123.77-240.43-202.83-58.56-88.86-115.16-177.57-196.86-254.33-107.41-101.01-282.91-202.89-457.02-160.03-192.64,47.43-314.93,207.47-425.73,332.49-153.15,172.79-294.84,356.41-484.01,505.64-5.33,4.19,5.17,5.58,8.52,5.71,591.31,20.74,1182.62,41.46,1773.87,62.18.23.04.38.04.54.04,3.92.11,15.94-.57,16.21-5.3,5.01-93.42,10-186.73,14.94-280.13.38-5.49-25.87-4.72-26.25,1.82-5.01,93.38-9.97,186.77-15,280.13,5.44-1.75,10.83-3.53,16.21-5.26-591.27-20.74-1182.58-41.46-1773.89-62.2,31.96,1.15,69.89-45.23,89.12-63.05,36.77-33.91,72.04-68.93,106.7-104.32,75.37-76.96,144.95-157.35,214.34-237.83,122.96-142.61,251.52-329.36,450.78-409.36,250.23-100.49,488.98,144.81,594.58,295.68,75.62,108.09,145.13,300.41,327.26,309.6,11.4.63,23.99-7.77,6.1-8.64Z"/>
          </g>
          <path class="cls-14" d="M1371.1,1022.04c-10.59-18.09-20.77-37.02-30.78-56.42-19.23-37.47-37.41-76.98-55.36-116.63-35.84-79.16-70.78-159.93-111.37-231.37-39.74-69.91-85.56-127.67-137.44-161.14-63.45-40.83-130.92-37.2-191.4,5.42-121.03,85.6-213.18,348.55-360.11,295.88-69.85-25.03-122.8-133.02-170.48-223.43-48.42-91.95-95.37-186.48-152.63-260.83C56.07,136.38-83.31,31.79-210.77,73.95c-126.65,41.74-218.03,220.92-300.23,383.34-42.87,84.46-84.1,171.65-126.16,257.3-2.93-4.01-5.89-7.91-8.78-11.83-50.6-67.87-99.63-137.58-159.7-192.33-110.92-100.95-258.32-177.52-394.56-145.36-135.33,31.85-234.54,165.37-323.99,286.4-79.91,108.11-154.74,222.07-238.12,326.06-49.81,62.21-100.63,123.44-156.8,175.64l1044.22-22.79,1389.84-30.36,894.47-19.56c-12.58-19.88-26.25-37.86-38.33-58.4Z"/>
        </g>
        <g>
          <path class="cls-5" d="M2421.33,1033.21c-773.03-69.84-1574.73-91.49-2361.87-65.76-396.9,12.97-792.32,38.26-1178.72,80.2-189.06,20.54-376.07,44.77-559.69,73.15-83.63,12.94-166.62,26.98-247.32,43.09v573.92H3241.81v-615.41c-269.59-34.98-545.16-64.32-820.48-89.18Z"/>
          <g>
            <path class="cls-25" d="M2441.4,1070.19c-773.01-66.2-1574.73-86.71-2361.87-62.3-396.9,12.31-792.32,36.25-1178.72,75.99-189.06,19.41-376.04,42.37-559.67,69.28-83.65,12.27-166.64,25.59-247.34,40.85v543.79H3261.89v-583.13c-269.58-33.1-545.14-60.91-820.48-84.47Z"/>
            <path class="cls-2" d="M2438.79,1065.59c-724.95-61.59-1454.63-82.83-2183.25-67.15-724.07,15.6-1462.88,59.55-2170.42,191.26-1.27.23-4.53.95-4.53,2.49v543.8c0,5.8,14.49,6.41,19.13,6.41H3267.79c1.66,0,7.32-.57,7.32-2.77v-583.13c0-4.04-8.7-5.65-12.35-6.1-273.8-33.43-548.6-61.09-823.97-84.8-18.2-1.56-5.96,8.23,5.3,9.22,272.99,23.49,545.45,50.98,816.89,84.13-4.06-2.02-8.2-4.06-12.27-6.08v574.01c0,10.59,13.28,6.35-10.79,6.35H-1912.03c6.33,2.13,12.69,4.24,19.07,6.41v-543.53c0-8.14,267.29-42.17,292.94-45.86,109.61-15.69,219.56-29.56,329.73-42.43,877.27-102.35,1771.12-122.37,2655.98-94.73,353.51,11.06,706.52,31.83,1058.39,61.73,18.2,1.54,5.94-8.27-5.3-9.22Z"/>
          </g>
          <g>
            <g class="cls-22">
              <path class="cls-18" d="M507.99,1677.46c0,7-19.29,12.61-43.14,12.61s-43.09-5.62-43.09-12.61,19.29-12.61,43.09-12.61,43.14,5.69,43.14,12.61Z"/>
            </g>
            <g class="cls-22">
              <path class="cls-18" d="M1015.14,1627.59c0,10.56-29.4,19.15-65.65,19.15s-65.69-8.59-65.69-19.15,29.4-19.23,65.69-19.23,65.65,8.55,65.65,19.23Z"/>
              <path class="cls-18" d="M1283.69,1681.33c0,5.96-16.52,10.82-36.88,10.82s-36.97-4.87-36.97-10.82,16.52-10.79,36.97-10.79,36.88,4.81,36.88,10.79Z"/>
              <path class="cls-18" d="M963.71,1313.89c0,5.67-15.64,10.27-35.03,10.27s-35.05-4.6-35.05-10.27,15.75-10.23,35.05-10.23,35.03,4.56,35.03,10.23Z"/>
            </g>
            <g class="cls-22">
              <path class="cls-18" d="M183.72,1320.41c0,4.17-11.49,7.51-25.68,7.51s-25.68-3.35-25.68-7.51,11.5-7.5,25.68-7.5,25.68,3.36,25.68,7.5Z"/>
            </g>
          </g>
          <g>
            <path class="cls-16" d="M2764.68,1446.32c-207.09.32-409,32.49-615.02,40.22-205.43,7.7-417.01-8.84-608.22-73.95-188.92-64.31-378.72-135.04-583.69-158.32-228.39-25.91-448.34,7.03-667.69,58.4-201.46,47.15-401.04,102.7-611.94,113.26-225.5,11.26-449.29-10.16-674.4-16.93-225.15-6.73-438.74,5.85-646.28,82.65-58.89,21.81-114.73,45.61-168.62,72.11v388.31H3009v-492.77c-80.36-8.62-161.82-13.1-244.33-12.99Z"/>
            <path class="cls-28" d="M2604.8,1543.32c-208.44-6.44-416.48,21.11-624.7,9.98-194.71-10.38-375.52-63.81-562.31-104.85-429.5-94.37-876.27-43.84-1308.28,15.67-214.72,29.61-422.79,55.72-641.46,55.81-217.68.04-435.1-12.26-652.79-10.86-223.25,1.41-418.05,53.77-618.31,130.05-2.72,1.02-5.42,2.04-8.14,3.08v268.68H3009v-321.86c-133.64-18.29-269.31-41.49-404.2-45.7Z"/>
            <g>
              <g>
                <path class="cls-28" d="M1197.88,1438.09c5.69-7.18,9.47-11.76,22.38-10,9.56,1.32,21.51,8.44,20.5,16.73-2.04,18.77-51.32,3.7-42.89-6.73.66-.95-1.99,2.56,0,0Z"/>
                <path class="cls-28" d="M1232.23,1411.02c-1.77-13.99,35.41-15,39.76-1.27,8.73,26.97-48.74,14.03-39.76,1.27-.36-3.33-1.77,2.4,0,0Z"/>
                <path class="cls-28" d="M1155.4,1396.63c14.24-1.15,42.16,19.07,19.77,24.78-6.26,1.68-25.07-2.24-29.02-6.21-6.85-6.91-2.45-17.61,9.25-18.57Z"/>
                <path class="cls-28" d="M1081.43,1422.47c7.59-.75,4.67-7.78,13.67-6.89,7.75.84,18.88,1.65,16.48,10.25-1.57,6.01-12.29,6.41-18.39,6.05-3.74-.27-24.41-8.09-11.76-9.41,1.65-.13-4.53.47,0,0Z"/>
                <path class="cls-28" d="M1074.86,1421.34c.36-.18.57.39,0,.41-.38.11-.41-.36,0-.41Z"/>
                <path class="cls-28" d="M1224.73,1364.46c7.07-10.99,34.5-8,30.06,5.94-4.1,12.9-36.5,4.12-30.06-5.94,2.38-3.76-2.17,3.47,0,0Z"/>
                <path class="cls-28" d="M1111.26,1384.36c-2.36-13.46,44.59-9.66,45.63,5.3,1.45,17.89-43.35,8.86-45.63-5.3-.7-3.76.25,2.15,0,0Z"/>
                <path class="cls-28" d="M1071.16,1386.58c12.6-1.15,21.42,11.88,6.82,14.71-15.06,2.81-21.9-13.4-6.82-14.71Z"/>
                <g>
                  <path class="cls-28" d="M1145.74,1343.65c.16.23,1.34,1.04,0,0,.11.04.25.2,0,0Z"/>
                  <path class="cls-28" d="M1152.79,1329.1c22.33,8.09,2.75,25.34-6.73,14.89,3.74,2.79-1.7-1.54-2.17-2.36-4.79-5.3-3.08-16.82,8.89-12.53,2.18.82-8.32-3.06,0,0Z"/>
                  <path class="cls-28" d="M1146.06,1343.99c-.16-.11-.07-.14,0,0q.02-.11,0,0Z"/>
                </g>
                <path class="cls-28" d="M1108.79,1482.3c16.86-12.99,103.22-35.71,101.47,1.15,9.47,23.64-28.77,32.3-51.57,31.62-13.92-.47-74.13-14.23-49.9-32.76,19.06-14.71-5.53,4.28,0,0Z"/>
                <path class="cls-28" d="M1241.12,1491.57c4.4-4.31,29.49-6.89,36.56-6.71,12.27.5,26.62,7.32,22.8,18.07-7.82,23.51-77.3,5.99-59.35-11.36,1.93-1.93-7.87,7.66,0,0Z"/>
                <path class="cls-28" d="M1025.85,1461.15c15.84-15.26,101.67-19.61,84.01,11.22-7.55,13.04-29.24,13.62-44.98,11.08-9.02-1.56-51.42-10.27-39.02-22.29,12.08-11.67-2.99,2.88,0,0Z"/>
                <path class="cls-28" d="M1020.61,1429.02c10.75-3.95,28.72-5.4,38.59,1.29,6.08,4.12,6.67,12.4.23,16.35-9.05,5.53-26.48,5.01-36.25,1-7.5-2.95-11.4-15.28-2.58-18.64,11.45-4.22-5.71,2.13,0,0Z"/>
                <path class="cls-28" d="M1138.26,1441.31c15.5-17.12,65.36,10.59,28.7,20.27-8.89,2.38-19.61.82-27.2-3.56-5.17-2.81-16.73-19.99-1.5-16.71.98-1.09-4.24-.93,0,0Z"/>
                <path class="cls-28" d="M1015.14,1403.93c-.27-11.41,22.06-10.47,20.04.48-1.68,8.62-19.74,9.18-20.04-.48,0-2.72.03.56,0,0Z"/>
                <path class="cls-28" d="M1008.59,1363.89c-2.16-13.17,25.52-13.17,27.66-.93,2.36,14.44-25.3,14.64-27.66.93Z"/>
                <path class="cls-28" d="M953.67,1394.56c7.78-7.75,26.25,2.15,17.62,10.7-8.59,8.27-25.52-3.08-17.62-10.7,1.82-1.81-1.84,1.74,0,0Z"/>
                <path class="cls-28" d="M1090.02,1348.05c9.27-.82,11.15,10.27,1.79,11.02-9.27.82-11.15-10.27-1.79-11.02Z"/>
                <path class="cls-28" d="M914.27,1457.04c8.66-13.51,31.29-17.8,49.28-18.82,13.92-.68,46.45,4.12,43.14,19.68-6.35,28.88-102.55,15.57-92.42-.86,6.51-10.16-2.38,4.2,0,0Z"/>
                <path class="cls-28" d="M903.73,1434.12c-9.59-9.45,30.42-23.15,31.04-3.77.38,13.44-22.8,10.04-31.04,3.77Z"/>
              </g>
              <g>
                <path class="cls-28" d="M726,1446.73c16.98-35,134.31-22.08,108.9,14.17-16.01,23.01-120.7,10.27-108.9-14.17,10.99-22.24-2.85,5.8,0,0Z"/>
                <path class="cls-28" d="M894.04,1421.23c25.19.52,48.9,17.7,23.15,33.64-19.74,12.29-48.83,2.72-62-5.35-31.44-19.02,22.9-28.5,38.85-28.29,2.25.05-17.39-.27,0,0Z"/>
                <path class="cls-28" d="M795.52,1405.65c9.64-7.37,24.37-12.6,38.24-12.76,12.2.04,35.72,12.45,33.3,22.99-7.69,33.6-90.05,4.13-71.54-10.23,14.33-11.06-3.61,2.95,0,0Z"/>
                <path class="cls-28" d="M650.01,1432.94c5.71-7.21,9.41-11.76,22.33-10.07,9.61,1.39,21.44,8.5,20.47,16.82-2.02,18.68-51.14,3.65-42.8-6.74.68-.95-2.11,2.52,0,0Z"/>
                <path class="cls-28" d="M684.31,1405.81c-1.77-13.92,35.41-14.98,39.85-1.25,8.62,26.97-48.92,14.14-39.85,1.25-.34-3.26-1.74,2.49,0,0Z"/>
                <path class="cls-28" d="M607.43,1391.48c14.33-1.25,42.16,19.07,19.79,24.78-6.3,1.68-24.96-2.24-29.06-6.21-6.85-6.91-2.45-17.62,9.27-18.57Z"/>
                <path class="cls-28" d="M533.58,1417.32c7.53-.79,4.6-7.78,13.55-6.91,7.68.8,18.93,1.59,16.6,10.29-1.59,5.98-12.38,6.35-18.38,6.05-3.81-.29-24.48-8.12-11.77-9.43,1.58-.12-4.67.47,0,0Z"/>
                <path class="cls-28" d="M526.94,1416.17c.36-.23.56.45.05.43-.41.07-.54-.41-.05-.43Z"/>
                <path class="cls-28" d="M676.73,1359.31c7.12-10.97,34.57-7.98,30.11,5.98-4.06,12.86-36.48,4.04-30.11-5.98,2.45-3.78-2.04,3.44,0,0Z"/>
                <path class="cls-28" d="M563.3,1379.17c-2.38-13.44,44.55-9.61,45.7,5.33,1.31,17.88-43.26,8.84-45.7-5.33-.7-3.76.3,2.16,0,0Z"/>
                <path class="cls-28" d="M523.22,1381.39c12.67-1.11,21.49,11.95,6.85,14.74-15.06,2.76-21.97-13.42-6.85-14.74Z"/>
                <g>
                  <path class="cls-28" d="M597.85,1338.46c.27.25,1.38,1.04,0,0,.05.11.27.25,0,0Z"/>
                  <path class="cls-28" d="M604.83,1323.95c22.31,8.09,2.81,25.28-6.71,14.89,3.76,2.77-1.72-1.57-2.18-2.36-4.73-5.33-3.06-16.84,8.89-12.53,2.29.81-8.28-3.11,0,0Z"/>
                </g>
                <path class="cls-28" d="M811.46,1333.67c12.92-1.22,15.53,14.17,2.67,15.32-12.9,1.06-15.59-14.22-2.67-15.32Z"/>
                <path class="cls-28" d="M732.12,1377.63c10.72-.89,12.81,11.72,2.04,12.7-10.47.88-12.56-11.74-2.04-12.7Z"/>
                <path class="cls-28" d="M560.92,1477.15c16.85-12.99,103.15-35.71,101.44,1.11,9.47,23.64-28.76,32.32-51.59,31.62-13.79-.43-74.15-14.17-49.85-32.73,18.95-14.69-5.64,4.22,0,0Z"/>
                <path class="cls-28" d="M693.15,1486.42c4.46-4.33,29.54-6.91,36.68-6.73,12.11.47,26.55,7.35,22.79,18.14-7.82,23.41-77.48,5.92-59.48-11.41,2.04-2.04-7.8,7.6,0,0Z"/>
                <path class="cls-28" d="M478.01,1455.98c15.76-15.21,101.54-19.65,83.87,11.25-7.43,13.04-29.18,13.55-44.91,11.02-8.96-1.57-51.42-10.27-38.95-22.28,12.01-11.67-3.08,2.84,0,0Z"/>
                <path class="cls-28" d="M472.75,1423.83c10.72-3.95,28.74-5.33,38.51,1.31,5.98,4.12,6.66,12.45.27,16.34-8.98,5.55-26.43,5.05-36.27,1.02-7.53-2.92-11.4-15.26-2.5-18.66,11.42-4.19-5.74,2.16,0,0Z"/>
                <path class="cls-28" d="M590.36,1436.08c15.5-17.09,65.36,10.67,28.74,20.36-8.95,2.34-19.56.79-27.29-3.62-5.19-2.9-16.64-19.95-1.45-16.75,1.02-1.04-4.22-.88,0,0Z"/>
                <path class="cls-28" d="M467.25,1398.73c-.3-11.36,22.12-10.4,20.04.52-1.63,8.61-19.77,9.16-20.04-.52-.03-2.7.05.61,0,0Z"/>
                <path class="cls-28" d="M460.67,1358.75c-2.15-13.24,25.59-13.24,27.52-.93,2.47,14.39-25.1,14.6-27.52.93Z"/>
                <path class="cls-28" d="M405.65,1389.37c7.89-7.69,26.36,2.24,17.73,10.74-8.46,8.25-25.52-3.06-17.73-10.74,1.88-1.79-1.84,1.74,0,0Z"/>
                <path class="cls-28" d="M542.1,1342.86c9.2-.82,11.08,10.25,1.79,11.04-9.27.77-11.09-10.27-1.79-11.04Z"/>
                <path class="cls-28" d="M366.32,1451.87c8.73-13.53,31.31-17.82,49.28-18.77,13.9-.75,46.45,4.06,43.14,19.65-6.39,28.84-102.56,15.59-92.42-.88,6.53-10.15-2.36,4.2,0,0Z"/>
                <path class="cls-28" d="M355.82,1429c-9.57-9.47,30.47-23.15,30.95-3.81.52,13.46-22.76,10.06-30.95,3.81Z"/>
              </g>
              <g>
                <path class="cls-28" d="M909.59,1406.47c16.94-34.94,134.27-22.04,108.84,14.33-16,22.96-120.67,10.16-108.84-14.33,10.97-22.35-2.77,5.94,0,0Z"/>
                <path class="cls-28" d="M1077.65,1381.05c25.12.43,48.88,17.73,23.14,33.66-19.83,12.26-48.79,2.7-62.09-5.33-31.33-19.04,23.06-28.56,38.95-28.32,2.22.05-17.39-.25,0,0Z"/>
                <path class="cls-28" d="M979.03,1365.53c9.73-7.55,24.5-12.88,38.29-12.72,12.2-.05,35.79,12.26,33.33,22.76-7.69,33.84-90.09,4.28-71.62-10.04,14.49-11.29-3.65,2.86,0,0Z"/>
                <path class="cls-28" d="M833.58,1392.82c5.71-7.18,9.43-11.9,22.33-10.11,9.59,1.5,21.51,8.52,20.47,16.84-1.95,18.61-51.21,3.63-42.8-6.73.75-1.02-1.95,2.43,0,0Z"/>
                <path class="cls-28" d="M867.95,1365.64c-1.77-13.92,35.41-15.1,39.74-1.31,8.73,27-48.74,14.12-39.74,1.31-.43-3.44-1.74,2.5,0,0Z"/>
                <path class="cls-28" d="M791.01,1351.25c14.33-1.25,42.26,19.11,19.83,24.8-6.23,1.65-25.07-2.33-28.97-6.17-6.92-6.94-2.52-17.62,9.14-18.63Z"/>
                <path class="cls-28" d="M717.11,1377.18c7.61-.73,4.65-7.82,13.62-6.96,7.66.84,18.91,1.65,16.62,10.31-1.68,5.91-12.35,6.39-18.47,5.91-3.72-.2-24.48-8.05-11.77-9.25,1.68-.11-4.6.41,0,0Z"/>
                <path class="cls-28" d="M710.53,1375.93c.46-.02.52.54.03.52-.36.13-.5-.54-.03-.52Z"/>
                <path class="cls-28" d="M860.47,1319.17c7.01-11.02,34.41-8,29.97,5.87-4.04,12.97-36.45,4.13-29.97-5.87,2.33-3.76-2.18,3.38,0,0Z"/>
                <path class="cls-28" d="M746.9,1338.96c-2.38-13.47,44.59-9.57,45.66,5.33,1.34,17.84-43.39,8.87-45.66-5.33-.77-3.74.34,2.09,0,0Z"/>
                <path class="cls-28" d="M706.77,1341.24c12.63-1.15,21.49,11.97,6.85,14.65-15.08,2.79-21.88-13.37-6.85-14.65Z"/>
                <g>
                  <path class="cls-28" d="M781.45,1298.31c.14.27,1.18,1.04,0,0,.09.11.12.2,0,0Z"/>
                  <path class="cls-28" d="M788.5,1283.73c22.22,8.07,2.72,25.35-6.82,14.85,3.72,2.77-1.61-1.52-2.18-2.34-4.65-5.21-3.02-16.78,9-12.51,2.26.88-8.32-3.01,0,0Z"/>
                  <path class="cls-28" d="M781.69,1298.58c-.09,0-.03-.05,0,0h0Z"/>
                </g>
                <path class="cls-28" d="M995.04,1293.42c12.86-1.11,15.42,14.23,2.67,15.35-12.97,1.11-15.53-14.24-2.67-15.35Z"/>
                <path class="cls-28" d="M915.76,1337.41c10.67-.86,12.76,11.7,2.08,12.76-10.61.86-12.74-11.72-2.08-12.76Z"/>
                <path class="cls-28" d="M744.47,1436.85c16.89-12.9,103.28-35.57,101.47,1.23,9.56,23.56-28.83,32.33-51.46,31.65-13.96-.46-74.38-14.22-50.01-32.89,19.04-14.55-5.51,4.17,0,0Z"/>
                <path class="cls-28" d="M876.84,1446.27c4.4-4.33,29.38-6.92,36.56-6.78,12.19.52,26.59,7.34,22.87,18.16-7.89,23.39-77.51,6.05-59.42-11.38,1.9-2-7.85,7.62,0,0Z"/>
                <path class="cls-28" d="M661.61,1415.63c15.71-15.14,101.58-19.4,83.87,11.45-7.44,12.99-29.2,13.53-44.95,10.95-8.89-1.47-51.41-10.25-38.92-22.4,12.02-11.56-3.08,3.06,0,0Z"/>
                <path class="cls-28" d="M656.29,1383.71c10.77-4.01,28.75-5.47,38.52,1.25,6.01,4.08,6.71,12.38.27,16.37-9.06,5.57-26.45,4.97-36.31,1.04-7.46-2.99-11.31-15.37-2.49-18.66,11.5-4.35-5.71,2.11,0,0Z"/>
                <path class="cls-28" d="M773.96,1395.97c15.55-17.07,65.4,10.66,28.7,20.4-9,2.33-19.56.71-27.29-3.7-5.19-2.86-16.57-19.97-1.41-16.69.98-1.15-4.28-.9,0,0Z"/>
                <path class="cls-28" d="M650.78,1358.59c-.21-11.56,22.08-10.41,20.04.32-1.61,8.68-19.7,9.43-20.04-.32,0-2.76.11.59,0,0Z"/>
                <path class="cls-28" d="M644.3,1318.51c-2.15-13.19,25.48-13.1,27.56-.82,2.49,14.28-25.25,14.49-27.56.82Z"/>
                <path class="cls-28" d="M589.34,1349.18c7.78-7.71,26.27,2.22,17.62,10.59-8.48,8.41-25.52-2.9-17.62-10.59,1.82-1.82-1.93,1.75,0,0Z"/>
                <path class="cls-28" d="M725.61,1302.59c9.3-.75,11.2,10.34,1.88,11.09-9.27.91-11.13-10.11-1.88-11.09Z"/>
                <path class="cls-28" d="M549.95,1411.72c8.66-13.65,31.37-17.93,49.31-18.82,13.92-.66,46.49,4.15,43.07,19.67-6.44,28.88-102.53,15.55-92.38-.84,6.46-10.13-2.36,4.08,0,0Z"/>
                <path class="cls-28" d="M539.38,1388.83c-9.61-9.39,30.51-23.22,31.05-3.74.45,13.42-22.72,9.97-31.05,3.74Z"/>
              </g>
            </g>
          </g>
        </g>
        <g>
          <g>
            <path class="cls-19" d="M3087.97,2238.39v-530.81c-726.17-88.89-1572.26-139.92-2475.49-139.92s-1749.4,51.03-2475.56,139.92v530.81H3087.97Z"/>
            <path class="cls-2" d="M3101.31,2237.71v-530.83c0-2.29-4.97-3.13-6.92-3.4-793.55-96.6-1596.98-136.92-2399.14-140.05-805.47-3.09-1612.91,33.03-2411.03,122.39-50.44,5.65-100.84,11.61-151.21,17.75-2.72.34-9.47,1.52-9.47,4.65v530.83c0,3.06,7.77,3.69,10.11,3.69H3084.73c11.31,0,24.8-8.71,6.48-8.71H-1858.67c9.2,0,8.95,6.76,8.95-5.17v-518.47c0-10.54,428.88-46.49,472.93-50.62,195.64-18.27,391.75-33.03,588.11-45.36,429.79-26.95,860.87-40.03,1291.95-42.17,825.31-4.12,1653.11,32.83,2470.59,126.59,22.03,2.54,100.74-1.2,100.74,18.29v232.81c0,173.11,0-212.23,0-39.13v328.26c0,5.92,26.73,5.08,26.73-1.34Z"/>
          </g>
          <path class="cls-5" d="M-1399.79,1750.23c357-45.07,716.74-80.8,1078.62-95.33,181.08-7.25,362.62-8.91,543.86-6.91,68.73.64,137.35,3.24,206.06,3.59,55.34.2,111.2-.2,166.19,5.06,39.36,3.78,90.75,8.66,119.99,30.81,26.45,20.02,27.23,47.26,4.33,68.87-53.25,50.4-150.84,71.66-175.19,138.49-35.98,98.72,179.95,133.43,270.06,147.48,160.3,25.07,325.01,33.21,488.3,39.01,237.03,8.39,473.54,29.33,707.9,55.99,176.78,20.15,352.74,44.81,526.43,76.21,136.67,24.78,271.92,53.61,407.39,81.54,21.6,4.49,43.25,9.05,64.86,13.65v-596.57c-707.67-88.02-1532.27-138.55-2412.56-138.55s-1704.97,50.53-2412.67,138.55v94.65c138.55-19.84,277.34-38.97,416.44-56.54Z"/>
          <g>
            <g>
              <path class="cls-5" d="M270.66,1894.74c.09-.04.2-.13.3-.16.32-.14-.21.62.05.47,1.84-1.09,2.36-1.99.21-3.04h0c-.75-.34-.32-1.97-.9-2.54-3.35-3.01-11.52-2.76-15.8-1.52-.45.21-.61.16-1.07.34-3.65.59-7.71,1.52-9.27,3.95-2.18,3.22,6.39,5.51,9.3,5.85,3.69.48,2.31-2.45,13.31.52l-.07.03c.09-.07-1.43-.89-1.36-.95,2.18-.36,3.38-1.29,5.28-2.09.3-.09-.32-.71,0-.86Z"/>
              <g class="cls-12">
                <path class="cls-19" d="M293.67,1832.75c.52-.29,1.31-.55,2.18-.75-.48.05-1.2.25-2.18.75Z"/>
                <path class="cls-19" d="M315.16,1835.97c.3-.59.38-1.18.22-1.79-.99-4.69-13.6-3.85-19.52-2.18.27-.05.39.05.54.05-5.49,1.72-11.2,5.42-4.19,8.66,5.06,2.36,13.22,1.86,18.66.43,2.47-.7,3.29-1.54,5.1-2.7-2.38-4.79-2.63-5.6-.81-2.47Z"/>
              </g>
              <g class="cls-12">
                <path class="cls-19" d="M850,1711.99c.54-.29,1.27-.55,2.2-.8-.52.11-1.25.29-2.2.8Z"/>
                <path class="cls-19" d="M871.51,1715.2c.3-.59.41-1.18.16-1.75-.93-4.67-13.62-3.86-19.47-2.25.27-.02.38.11.54.14-5.49,1.72-11.2,5.35-4.26,8.61,5.08,2.38,13.29,1.86,18.73.41,2.45-.66,3.29-1.54,5.03-2.68-2.34-4.76-2.58-5.62-.73-2.47Z"/>
              </g>
              <g class="cls-12">
                <path class="cls-19" d="M1066.06,1754.38c.54-.25,1.3-.48,2.15-.77-.46.05-1.18.3-2.15.77Z"/>
                <path class="cls-19" d="M1087.51,1757.6c.36-.59.46-1.16.2-1.77-.98-4.71-13.6-3.85-19.5-2.22.27,0,.43.02.57.09-5.55,1.74-11.18,5.42-4.17,8.64,5.01,2.36,13.22,1.86,18.66.41,2.45-.66,3.26-1.56,5.01-2.68-2.29-4.79-2.56-5.58-.77-2.47Z"/>
              </g>
              <path class="cls-5" d="M589.53,1910.34c.72-.73.56-1.59.9-1.97l.07-.04c2.38-2.59-7.12-5.28-15.75-5.26-3.99-.05-8.21.3-12.1,1.2-.25.03-.59.07-.82.12-.95.25-1.88.43-2.79.79-1.23.41-2.34.82-3.35,1.41-.52.25-1.15.41-1.63.73-.47.23-.89.48-1.29.86-3.13,2.29-2.4,4.26-.27,5.67.88.73,2.24,1.27,3.99,1.74,1.45.5,3.02.79,4.42.93,4.99.64,10.22.45,15.17-.38,4.06-.59,11.42-2.08,13.19-5.37.05-.16.21-.3.25-.45Z"/>
              <path class="cls-5" d="M754.83,2067.35c.68-.81.52-1.61.88-1.99q0-.05.07-.05c2.34-2.58-7.12-5.28-15.71-5.28-4.06-.05-8.27.29-12.15,1.22-.23.04-.57.04-.81.13-.91.21-1.91.43-2.79.77-1.23.43-2.31.89-3.35,1.47-.52.21-1.15.36-1.68.68-.47.3-.84.52-1.25.88-3.11,2.31-2.45,4.26-.25,5.69.9.71,2.2,1.27,3.97,1.74,1.47.48,3.04.72,4.44.93,4.97.59,10.22.43,15.14-.36,4.13-.66,11.45-2.09,13.17-5.4.11-.21.2-.32.32-.41Z"/>
              <path class="cls-5" d="M838.09,2018.27c.63-.75.52-1.61.84-1.97l.05-.09c2.4-2.61-7.12-5.28-15.69-5.28-4.04-.04-8.23.3-12.13,1.23-.23.09-.57.09-.8.13-.93.25-1.88.43-2.76.77-1.31.45-2.34.88-3.35,1.43-.57.25-1.15.45-1.68.68-.47.34-.84.59-1.31.91-3.09,2.31-2.41,4.24-.27,5.69.89.71,2.25,1.3,3.99,1.77,1.5.38,3.08.79,4.44.93,5.03.64,10.25.43,15.17-.39,4.08-.66,11.4-2.09,13.19-5.42.04-.11.2-.27.3-.39Z"/>
              <path class="cls-5" d="M329.76,2024.19c2.61-2.97-.3-6.69-2.83-9.02,1.79,1.52,1.32,1.04-1.31-1.52-1.16-1.18-2.59-2.26-4.22-3.13-4.73-2.88-10.95-5.64-16.96-6.71-6.37-1.15-13.03-1.49-19.09-.61-4.71-.39-9.52-.34-14.53.47-7.98,1.31-18.32,5.19-20.02,11.72-2.47,9.52,17.14,16.28,26.77,18.27,15.64,3.13,42.26,1.7,52.19-9.47Z"/>
              <path class="cls-5" d="M72.78,1676.44c.16-.04.23-.11.36-.14.31-.2-.25.61.02.39,1.84-1.06,2.33-1.88.18-2.97h0c-.7-.36-.27-2.02-.84-2.52-3.36-3.1-11.54-2.79-15.82-1.54-.41.18-.61.12-1.07.3-3.63.61-7.68,1.54-9.27,3.94-2.15,3.22,6.39,5.55,9.34,5.89,3.65.48,2.27-2.43,13.28.52l-.05.04c.09-.07-1.45-.89-1.36-.93,2.16-.36,3.35-1.32,5.22-2.11.36-.14-.27-.73.02-.86Z"/>
              <g class="cls-12">
                <path class="cls-19" d="M95.81,1614.46c.54-.29,1.3-.52,2.18-.79-.48.07-1.18.27-2.18.79Z"/>
                <path class="cls-19" d="M117.28,1617.68c.36-.61.43-1.2.25-1.79-1.04-4.69-13.63-3.85-19.54-2.22.27,0,.41.07.54.11-5.49,1.72-11.17,5.37-4.17,8.62,5.03,2.38,13.24,1.86,18.68.43,2.43-.66,3.27-1.57,5.05-2.7-2.36-4.8-2.61-5.62-.81-2.45Z"/>
              </g>
              <path class="cls-5" d="M391.71,1692.01c.71-.68.55-1.56.91-1.95h.05c2.36-2.61-7.12-5.28-15.75-5.24-4.01-.12-8.19.21-12.06,1.15-.27.07-.59.09-.86.14-.95.25-1.86.47-2.75.75-1.25.43-2.36.93-3.36,1.43-.56.29-1.15.43-1.68.73-.47.27-.82.54-1.23.86-3.13,2.34-2.45,4.26-.27,5.74.84.66,2.18,1.25,3.94,1.72,1.5.43,3,.73,4.49.93,4.94.61,10.2.43,15.1-.38,4.08-.64,11.47-2.09,13.22-5.39.07-.2.18-.3.25-.5Z"/>
              <path class="cls-5" d="M131.9,1805.88c2.61-2.95-.32-6.67-2.85-9,1.79,1.5,1.34,1-1.23-1.52-1.2-1.2-2.65-2.25-4.3-3.15-4.67-2.86-10.91-5.58-16.94-6.73-6.37-1.13-13.03-1.43-19.09-.52-4.71-.41-9.5-.41-14.51.39-8.02,1.32-18.32,5.21-20,11.68-2.49,9.52,17.14,16.34,26.79,18.3,15.6,3.17,42.19,1.72,52.14-9.47Z"/>
            </g>
            <path class="cls-5" d="M1233.64,1669.12c4.97-6.92-3.61-13.4-10.77-16.8-8.02-3.76-20.04-6.08-31.28-5.62-1.11-.14-2.09-.36-3.18-.52-12.29-1.29-23.91,2.04-32.74,8.25-9.36,6.66-9.16,14.53.11,21.04,14.94,10.45,43.03,9.18,60.93,4.15,7.32-2.08,13.29-5.42,16.94-10.5Z"/>
          </g>
        </g>
        <g>
          <g>
            <g>
              <g>
                <path class="cls-4" d="M1165.42,2190.07s-53.66-120.78,9.89-198.63c0,0,20.52,115.72-9.89,198.63Z"/>
                <path class="cls-33" d="M1170.32,2182.45c-13.33-43.71-16-94.15-.21-137.35.72-1.91-4.94-1.02-5.67.93-15.82,43.28-13.15,94.35.22,138.17.59,2.02,6.26.23,5.67-1.75h0Z"/>
                <g class="cls-8">
                  <path class="cls-4" d="M1158.1,2079.89c-13.33,47.17-6.23-43.77-6.23-43.77l-.21-.2c-22.6,72.32,13.76,154.15,13.76,154.15,12.65-34.44,16.46-74.52,16.68-109.65-3.62,30.31-21.67,36.39-24-.54Z"/>
                </g>
                <path class="cls-35" d="M1169.77,2051.83s-10.54,21.22-8.34,37.95c2.25,16.75,17.44,11.22,16.12-14.51-1.34-25.73-2.36-32.94-7.78-23.44Z"/>
              </g>
              <g>
                <path class="cls-4" d="M1183.62,2197.3s-36.23-96.89,48.7-154.99c0,0,28.43,45.73-48.7,154.99Z"/>
                <path class="cls-3" d="M1188.27,2194.63c-2.63-35.16,6.05-73.2,27.63-101.26,2.2-2.86-3.26-3.45-4.83-1.43-22.08,28.7-31.26,67.4-28.56,103.33.25,3.01,5.97,1.86,5.76-.64h0Z"/>
                <g class="cls-8">
                  <path class="cls-4" d="M1196.52,2146.11c-5.12-12.49.72-28.31,21.08-61.37-14.35,9.02-28.06,37.4-28.27,14.01,0-4.35,1.31-9.5,3.47-14.98-31.49,53.82-9.18,113.53-9.18,113.53,36.25-51.35,49.17-88.64,52.68-113.78-.21-.09-.47-.18-.71-.25-7.75,39.6-33.91,75.44-39.06,62.84Z"/>
                </g>
                <path class="cls-35" d="M1220.55,2057.63s-30.38,27.54-28.27,39.38c2.13,11.9,51.67-53.27,28.27-39.38Z"/>
              </g>
              <g>
                <path class="cls-32" d="M1108.2,2213.51s-27.32-101.77-112.89-63.18c0,0,14.64-33.14,60.14-31.78,45.48,1.32,82.38,38.6,70.57,95.26l-17.82-.3Z"/>
                <path class="cls-3" d="M1122.92,2213.21c-.29-20.47-9.77-40.62-22.97-55.84-1.18-1.36-6.6.82-5.24,2.34,12.99,14.96,22.26,35.05,22.51,55.2.03,1.56,5.71.38,5.71-1.7h0Z"/>
                <g class="cls-9">
                  <path class="cls-32" d="M1064.45,2119.34c10.58,3.24,20.24,8.12,24.8,15.46,12.31,19.68-43.68-20.27-93.94,15.53,85.56-38.59,112.89,63.18,112.89,63.18l17.82.3c11-52.89-20.4-88.8-61.57-94.47Z"/>
                </g>
              </g>
              <g>
                <path class="cls-32" d="M1132.62,2214.91s-5.46-97.55-72.73-128.76c0,0,128.76-17.48,90.38,125.16l-17.64,3.6Z"/>
                <path class="cls-3" d="M1144.22,2210.24c5.46-20.85,3.63-43.89-1.36-64.65-.47-2.15-6.17-.47-5.62,1.81,4.9,20.4,6.64,43.05,1.27,63.66-.59,2.33,5.15,1.32,5.71-.82h0Z"/>
                <g class="cls-6">
                  <path class="cls-32" d="M1122.76,2132.26c-8.55-23.49-22.69-37.59-36.21-46.08-15.16-1.61-26.66-.03-26.66-.03,67.28,31.2,72.73,128.76,72.73,128.76l17.64-3.6c5.51-20.49,7.57-37.66,7.07-52.05-5.46,17.66-18.36,17.77-34.57-27Z"/>
                </g>
              </g>
            </g>
            <g>
              <g>
                <path class="cls-4" d="M1282.74,1261.25s-198.95-186.53-491.99-19.38c-197.47,113.73-156.51,375.68-156.51,375.68l55.5-30.96s5.39-33.1,19.81-71.82c-4.65,52.86.38,47.4.38,47.4,0,0,33.14-31.44,65.56-45.77-3.99-38.08,4.72-52.87,17.77-92.87l9.22,36.56,33.57-19.61s18.57-69.17,29.79-88l-2.63,38.27s45.14-27.95,67.37-32.69c5.28-35.75,31.19-48.53,31.19-48.53l3.6,27.56s152.04-133.18,317.39-75.85Z"/>
                <path class="cls-33" d="M859.06,1273.54c27.04-26.09,65.72-42.37,101.06-53,103.65-31.1,214.73-5.82,310.62,38.22,1.61.72,6.3-1.81,5.28-2.25-96.68-44.38-204.41-67.6-309.14-40.15-39.56,10.36-83.06,28.77-113.03,57.65-1.4,1.29,4.12.57,5.21-.47h0Z"/>
                <g class="cls-6">
                  <path class="cls-4" d="M1050.58,1250.42c-79.82,34.44-127.38-25.12-162.92,31.47-35.55,56.58-81.25-6.98-142.3,109.78-55.86,106.87-101.85,119.11-111.67,222.01.3,2.52.56,3.87.56,3.87l55.5-30.96s5.39-33.1,19.81-71.82c-4.65,52.86.38,47.4.38,47.4,0,0,33.14-31.44,65.56-45.77-3.99-38.08,4.72-52.87,17.77-92.87l9.22,36.56,33.57-19.61s18.57-69.17,29.79-88l-2.63,38.27s45.14-27.95,67.37-32.69c5.28-35.75,31.19-48.53,31.19-48.53l3.6,27.56s84.88-74.36,196.75-88.02c-39.9-8.73-81.41-11.7-111.53,1.34Z"/>
                </g>
              </g>
              <g>
                <path class="cls-29" d="M1140.19,2215.32s303.57-352.63,127.08-927.18c0,0,3.29-17.89,32.96-17,0,0,266.07,278.99,103.8,992.04,0,0-143.05-59.4-263.83-47.86Z"/>
                <path class="cls-27" d="M1212.39,2102.59c-4.03,7.71-8.05,15.01-11.9,21.99,40.08-3.2,147.01-6.46,224.06,38.58,2.24-12.36,4.37-24.44,6.3-36.48-69.17-35.71-177.21-28.52-218.46-24.08Z"/>
                <g class="cls-11">
                  <path class="cls-29" d="M1356.5,1853.97c84.33-74.17-16.66-173.26,12.45-242.79,29.11-69.53-34.2-72.55-39.06-209.36-1.74-48.4-17.52-92.99-37.15-130.4-22.69,2.02-25.48,16.73-25.48,16.73,176.5,574.54-127.08,927.18-127.08,927.18,50.69-4.87,105.25,2.83,151.57,13.33,167.91-96.64,18.07-333.63,64.74-374.68Z"/>
                </g>
                <g class="cls-10">
                  <path class="cls-34" d="M1274.08,1278.12c-5.76,4.67-6.82,10.02-6.82,10.02,176.5,574.54-127.08,927.18-127.08,927.18,23.15-2.24,47.15-1.77,70.75.29,220.89-345.76,117.18-772.06,63.14-937.48Z"/>
                </g>
              </g>
              <g>
                <path class="cls-32" d="M1282.74,1261.25s-73.02-89.59-167.73-123.12l1.36-36.93-17.57,25.66s-64.83-45.13-133.1-40.04c-21.08-36.11-22.6-42.66-22.6-42.66l-9.57,27.98s-65.08-16.1-160.54,3.09l-26.7-46.45-5.3,35.73s-40.9-1.16-98.04,21.94c-18.54-40.19-50.53-50.89-50.53-50.89l-.5,23.73s-80.61-7.69-125.41,29.47c33.17-105.21,160.95-252.02,339.9-257.07l-13.67-14.03s93.31-7.26,196.27,36.5c13.4,6.12,19.5,29.59,19.5,29.59,0,0,4.96-9.39,1.68-26.39,61.19,17.59,128.78,65.22,156.1,93.2.68,18.43-.03,35.59-.03,35.59l10.11-12.2s72.07,26.38,106.37,287.29Z"/>
                <path class="cls-3" d="M1279.7,1243.44c-20.9-52.02-54.63-100.74-91.02-142.91-74.22-85.96-176.87-145.97-291.46-154.15-93.13-6.62-184.44,17.38-268.95,55.08-3.63,1.63-.21,3.47,2.38,2.33,142.13-63.36,302.07-80.05,439.85,2.54,79.61,47.76,142.64,122.03,186.32,203.19,6.21,11.61,12.31,23.46,17.21,35.7.8,2,6.44.12,5.67-1.77h0Z"/>
                <g class="cls-7">
                  <path class="cls-32" d="M1120.87,1062.19c-76.76,6.67-104.1-95.08-169.98-57.17-63.59,36.64-341.4-81.57-483.99,82.75-.12.32-.21.66-.38.98,44.8-37.16,125.41-29.47,125.41-29.47l.5-23.73s31.99,10.7,50.53,50.89c57.13-23.1,98.04-21.94,98.04-21.94l5.3-35.73,26.7,46.45c95.46-19.2,160.54-3.09,160.54-3.09l9.57-27.98s1.52,6.55,22.6,42.66c68.28-5.08,133.1,40.04,133.1,40.04l17.57-25.66-1.36,36.93c77.14,27.3,139.89,91.77,160.5,114.76-31.1-67.46-97.91-195.66-154.65-190.7Z"/>
                </g>
              </g>
              <g>
                <path class="cls-32" d="M1293.12,1274.7s-97.62,14.69-121.57,192.03c-21.24-4.53-39.53-35.5-39.53-35.5,0,0-10.66,33.34,8.41,87.94-18.36,38.86-25.34,64.15-27.07,90.56-32.37-21.24-46.13-39.17-46.13-39.17,0,0-3.01,27.73,27.38,67.47-20.99,38.97-40.44,84.42-40.44,84.42,0,0-23.15-21.53-33.26-46.22-11.9,36,17.14,74.43,17.14,74.43,0,0-51.58,67.73-61.78,114.19,0,0-165.71-103.44-89.72-373.52,76.01-270.09,357.73-274.84,406.57-216.65Z"/>
                <path class="cls-3" d="M960.03,1588.44c4.4-56,21.33-112.99,45.11-163.58,21.27-45.32,51.71-86.69,92.2-116.54,53.91-39.69,121.48-48.81,186.48-40.44,1.59.21,6.6-2.56,3.45-2.95-58.55-7.53-117.5-1.16-169.96,27.25-45.7,24.8-80.57,65.54-105.84,110.34-31.47,55.88-52.03,122.73-57.08,186.93-.16,2.04,5.55.68,5.64-1.02h0Z"/>
                <g class="cls-7">
                  <path class="cls-32" d="M1128.01,1374.08c-7.87,55.63-113.48,29.72-89.91,137.56,22.94,104.82-128.69,131.85-65.79,350.51,2.52,1.81,3.97,2.72,3.97,2.72,10.2-46.47,61.78-114.19,61.78-114.19,0,0-29.04-38.43-17.14-74.43,10.11,24.69,33.26,46.22,33.26,46.22,0,0,19.45-45.45,40.44-84.42-30.38-39.74-27.38-67.47-27.38-67.47,0,0,13.76,17.93,46.13,39.17,1.74-26.41,8.71-51.69,27.07-90.56-19.07-54.61-8.41-87.94-8.41-87.94,0,0,18.29,30.97,39.53,35.5,23.94-177.34,121.57-192.03,121.57-192.03-.47-.5-.93-1.02-1.4-1.52-55.02-1.68-144.09,10.22-163.72,100.9Z"/>
                </g>
              </g>
            </g>
          </g>
          <path class="cls-2" d="M1405.38,2265.85l-2.11-.89c-.48-.2-49.51-20.42-113.28-34.73-5.08-1.18-10.2-2.29-15.37-3.31l-2.58-.5c-5.21-1.04-10.54-2.04-15.91-2.97-.43-.03-.8-.12-1.18-.2-5.3-.89-10.84-1.74-16.46-2.54-1.02-.12-2.11-.3-3.26-.45-6.05-.82-11.47-1.47-16.55-1.97l-3.26-.34c-2.16-.21-4.36-.38-6.57-.55l-13.58-1c-3.04-.18-6.08-.27-9.18-.34-3.08-.11-6.14-.21-9.18-.27l-2.04-.04c-2.79,0-5.58.09-8.38.12l-8.93.22c-5.71.23-11.47.61-17.21,1.15l-4.65.41,1.47-1.7-6.33,1.29-.12-2.2c0-.09-.27-4.24-1.23-10.97-.43,3.65-.93,6.94-1.61,10.16l-.29,1.52-4.15-.03c-1.36,1.22-3.56,1.82-4.9,1.82-1.88,0-2.85-.97-3.15-2l-8.66-.16-.39-1.4c-.16-.71-19.57-70.46-74.42-70.46-11.18,0-23.24,2.9-35.84,8.57l-4.53,2.06,2.02-4.56c.13-.34,15.07-32.96,59.19-32.96.89,0,1.79,0,2.72.03,1.9.05,3.88.16,6.01.39l-.09-.23,6.23,1.16c3.85.66,7.26,1.5,10.52,2.52.3.11.55.2.8.21.39.12.73.2,1.11.34,1.49.5,3.01,1.18,4.53,1.81l.75.3c.73.25,1.41.56,2.08.84,1.36.61,2.63,1.31,3.9,2.02l.84.43c.77.43,1.52.8,2.26,1.23.93.56,1.86,1.15,2.74,1.77l1.91,1.29c.62.41,1.27.88,1.9,1.29,1.15.91,2.24,1.82,3.35,2.75.89.79,1.77,1.52,2.7,2.31,1.02,1,1.99,2,2.92,3.04.09.07.13.11.18.16-12.58-24.92-29.7-42.53-51.03-52.43l-4.24-1.95,5.38-1.72c.34-.09.5-.09.75-.14l.52-.05c.21,0,.5,0,.75-.04.18-.03.39-.03.64-.09l5.03-.25c.64,0,1.48-.09,2.38-.09h5.28c.55,0,1.11.09,1.65.12l3.22.12c.55.04.98.05,1.48.05l1.61.16c.8.05,1.61.16,2.41.25.13,0,.5-.03.88.05l.86.12c17.8,2.08,40.9,8.62,55.97,27.63-.25-2.7-.5-5.4-.72-8.16-.3-4.53-.47-8.59-.5-12.65-.05-.34-.05-.73-.05-1.15-.03-3.94.05-8.12.25-12.47l.09-1.56c.47-8.95,1.61-17.7,3.35-26.09l.25-1.38c.93-4.12,2.04-8.39,3.35-12.67l.47-1.43c5.24-16.57,13.2-31.46,23.69-44.27l2.63-3.22.72,4.06c.09.47,8.3,47.56,6.57,102.51l-.05.66c-.03,1.4-.07,2.74-.16,4.1.63-1.54,1.31-3.1,2.02-4.65.27-.59.39-.88.52-1.15,1.81-3.81,3.42-6.93,5.08-9.73l.59-.93c9.52-15.96,22.8-29.79,39.51-41.17l1.7-1.18,1.02,1.77c.09.11,1.31,2.29,2.58,6.51,17.98-40.65,33.26-83.17,45.57-126.54,3.29-11.7,6.26-22.78,8.93-33.89l.38-1.47c15.71-64.15,25.1-130.99,28.02-198.7.34-7.69.59-15.42.75-23.28,1.27-60.62-2.61-122.75-11.59-184.57-.8-5.44-1.61-10.91-2.49-16.39-9.18-57.6-22.85-116.25-40.71-174.31l-.09-.36v-.09c-29.54,17.8-76.33,63.72-91.9,178.73l-.27,2.06-2.02-.43c-17.39-3.72-32.49-23.89-38.26-32.51-2.08,10.56-5.42,40.15,9.39,82.43l.25.77-.34.71c-17.55,37.17-25.12,62.37-26.91,89.84l-.2,3.26-2.76-1.82c-23.53-15.39-37.2-29-43.12-35.52.68,9.59,4.83,32.23,26.95,61.12l.77,1-.59,1.07c-20.74,38.42-40.21,83.79-40.4,84.24l-1.07,2.5-1.99-1.86c-.88-.8-20.65-19.38-31.53-41.98-7.39,33.12,17.98,67.28,18.25,67.65l.88,1.15-.88,1.15c-.52.68-51.46,67.92-61.44,113.41l-.59,2.65-3.59-2.24c-.64-.47-1.36-.97-2.26-1.59l.61-1.9-1.15,1.5c-26.53-19.23-155.42-127.61-86.4-372.85,18.91-67.19,51.44-122.26,96.98-164.17-2.08,1.56-4.15,3.08-6.1,4.58l-.84.68c-3.47,2.7-5.8,4.63-7.02,5.67l-3.81,3.36-3.72-28.27c-6.35,4.13-23.65,17.73-27.81,45.68l-.18,1.31-1.31.27c-21.61,4.65-66.26,32.19-66.72,32.47l-3.13,1.97,2.2-32.37c-10.91,25.23-25.26,78.39-25.44,79l-.16.75-36.43,21.29-8.25-32.67c-1.52,4.49-2.97,8.68-4.31,12.6-9.41,27.23-14.56,42.21-11.31,73.22l.18,1.39-1.27.57c-31.78,14.03-64.7,45.09-65.04,45.43l-.55.5-1.15.2c-.68,0-1.34-.34-1.86-.91-.93-1.02-3.29-3.56-1.18-34.12-10.63,31.92-14.85,57.4-14.9,57.69l-.13.89-.8.45-57.92,32.3-.43-2.7s-.12-.84-.29-2.04c-.05-.36-.12-.8-.18-1.43-.03-.11-.03-.25-.07-.55-3.4-26.91-27.93-266.57,158.03-373.61,81.25-46.36,162.92-69.85,242.81-69.85,115.77,0,198.92,49.96,233.52,75.22-1.18-1.27-2.45-2.59-3.79-3.97l-1.61-1.63c-1.99-2.06-4.12-4.19-6.35-6.42l-1.56-1.54c-6.06-5.96-12.58-11.99-19.31-17.97l-1.74-1.5c-2.92-2.58-5.96-5.21-9.05-7.78l-3.22-2.65c-2.83-2.34-5.8-4.71-8.8-7.03l-3.54-2.79c-3.35-2.58-6.82-5.14-10.29-7.66l-2.61-1.91c-4.28-3.02-8.89-6.17-13.76-9.38l-2.24-1.41c-3.9-2.52-7.84-4.96-11.9-7.32-1.27-.73-2.54-1.5-3.85-2.2l-.84-.48c-3.4-1.93-6.78-3.79-10.25-5.62-1.77-.89-3.51-1.84-5.33-2.74-3.51-1.75-7.1-3.45-10.74-5.08l-1.95-.9c-1.02-.47-1.99-.93-3.01-1.34-6.14-2.63-11.26-4.63-16.03-6.33l-1.32-.47,1.15-31.76-14.89,21.79-1.61-1.07c-.55-.41-58.4-40.12-121.15-40.12-3.63,0-7.23.12-10.74.39l-1.2.09-.59-1.04c-12.56-21.56-18.23-32.69-20.77-38.18l-8.46,24.83-1.68-.43c-.27-.04-25.91-6.26-67.71-6.26-30.17,0-61.1,3.17-92.04,9.38l-1.34.25-24.64-42.87-4.78,32.01-2.67-.07c-7.07,0-44.98,1.06-96.26,21.78l-1.68.71-.77-1.66c-15.03-32.56-39.22-45.45-46.97-48.88l-.43,23.03-2.06-.2c-.05,0-6.94-.66-17.61-.66-26.41,0-75.28,3.88-106.43,29.72l-4.99,4.12,1.95-6.19c32.62-103.39,158.55-250.9,337.37-258.23l-13.51-13.85,4.06-.32c.21,0,6.01-.45,16.3-.45,28.13,0,102.1,3.62,180.84,37.09,9.91,4.53,15.96,17.48,18.75,25.09.88-4.24,1.52-10.95-.21-19.77l-.56-3.06,2.97.86c62.07,17.82,130.37,66.47,156.98,93.72l.52.52v.75c.41,11.99.29,23.56.12,30.13l7.41-8.96,1.27.47c1.68.62,40.31,16.07,74.42,127,2.25-100.67,44.14-161.61,44.61-162.25l1.65-2.38,11.52,18.84c9.81-49.65,43.87-91.04,71.21-117.34,30.54-29.4,59.48-46.83,59.75-47.01l2.41-1.45,3.04,17.88c40.19-51.94,201.55-88.52,208.53-90.11l1.77-.38,4.44,15.39c20.52-7.16,46.63-10.81,77.75-10.81,56.99,0,111.87,12.42,112.42,12.56l1.73.38-.34,2.22h0l-.34,2.2-20.22,125.32-55.68,38.18-5.01-22.67-5.06,25.12-.68.41-114.09,71.07-10.07-24.91-7.85,37.17-107.14,67.33-7.16-21.97-5.28,35.07-.52.45-57.24,51.57-8.89-38.45-3.72,42.91-74.27,66.97-6.12-20.45-9.86,47.61-6.32,6.32c95.67-72.79,176.46-88.89,229.14-88.89s83.61,15.59,84.92,16.25l3.26,1.72-15.69,8.02c93.1,2.68,159.45,88.73,160.11,89.63l2.25,2.93-17.02.61c128.81,79.16,128.54,170.2,128.29,177.64.34.84.52,1.88-.04,2.74l-.59.88-1.27.12c-1.18,0-2.88,0-16.09-14.83,8.89,56.99,1.49,145.61-30.42,211.53l-1.95,3.99-1.56-4.13c-.64-1.61-1.32-3.26-2.08-4.92-.56-1.2-1.11-2.38-1.66-3.61-.47-.93-.97-1.91-1.47-2.92-.68-1.18-1.32-2.45-1.99-3.67l-1.66-2.85c-.72-1.31-1.47-2.54-2.27-3.81l-2.67-4.19c-.52-.81-1.02-1.63-1.58-2.42l-2.61-3.76c-.64-.91-1.27-1.81-1.91-2.68-.62-.89-1.22-1.72-1.86-2.56l-1.15-1.54c-.56-.75-1.09-1.47-1.65-2.22l-15.32-18.68-3.94-4.45c-.9-.98-1.77-2.02-2.58-2.86l-8.18-8.68c-.38-.38-.62-.63-.88-.93l-1.45-1.4-2.02-28.22c-1.74,3.06-4.36,5.65-8.25,5.65-2.63,0-5.51-1.25-8.52-3.79l-.38-.41c-28.61-44.05-134.34-90.13-135.4-90.59l-.68-.29-.3-.7c-6.42-14.89-15.07-29.29-20.34-37.59,2.86,21.94.25,33.64.12,34.16l-.77,3.22-2.41-2.24c-22.67-21.17-119.58-68.69-120.54-69.17l-.56-.25-.29-.56c-8.98-16.46-22.81-27.91-31.31-33.89,10.61,17.14,16.37,34.14,16.41,34.35l1.18,3.45-3.51-1.02c-11.76-3.44-63-13.42-63.52-13.49l-.72-.14-.41-.57c-2.76-3.51-5.67-7.05-9.23-11.09l-2.49-2.72c-3.01-3.26-5.85-6.19-8.68-8.88l-1.06-1.04c-2.79-2.67-5.98-5.4-9.86-8.64-.9-.73-1.79-1.45-2.67-2.16-2.84-2.24-5.67-4.42-8.52-6.46l-1.77-1.31c-3.13-2.2-6.39-4.36-9.98-6.6l-2.67-1.59c-2.72-1.61-5.42-3.19-8.09-4.65l-.68-.38c-.5-.27-1-.57-1.52-.82-3.26-1.74-6.42-3.36-9.56-4.83l-2.42-1.11c-2.5-1.15-4.96-2.24-7.37-3.24l-2.4-1.04c-2.88-1.15-5.73-2.25-8.43-3.22l-2.33-.82c-1.99-.7-3.97-1.38-5.89-1.99-.84-.3-1.74-.57-2.58-.82-5.89-1.84-11.72-3.38-17.3-4.62,13.49,15.75,57.7,72.75,95.55,181.26l.13.3c1.86,5.37,3.68,10.81,5.49,16.35l.12.38c21.11,65.08,35.97,136.54,44.18,212.66l.18,1.48c7.1,66.78,9.18,137.99,6.14,211.55-.27,6-.52,11.95-.86,18.05l-.07,1.81c-3.62,67.03-11.4,137.4-23.28,209.26-1.82,10.91-3.65,21.67-5.64,32.49l-.72,4.03c-6.05,33.24-12.95,66.95-20.52,100.13l-.5,2.22ZM1174.89,2211.96h2.07c3.1.07,6.19.2,9.27.29,3.09.11,6.17.16,9.27.34l13.67,1.02c2.24.16,4.44.32,6.69.57l3.26.32c5.12.5,10.54,1.15,16.53,1.97,1.23.18,2.29.36,3.35.45,5.67.79,11.25,1.68,16.77,2.63.38.07.59.11.84.11,5.58.97,10.91,1.99,16.21,3.04l2.54.54c5.24,1,10.36,2.11,15.48,3.26,56.67,12.76,101.78,30.09,111.83,34.12,7.37-32.46,14.1-65.33,20.02-97.79l.71-4.04c1.95-10.81,3.81-21.51,5.55-32.14,11.97-72.48,19.81-143.23,23.35-210.56l.09-1.81c.3-5.55.55-11.06.77-16.55,3.04-73.41.97-144.38-6.14-211.05l-.12-1.45c-8.21-76.01-23.06-147.29-44.11-212.01l-.07-.2c-1.79-5.51-3.6-10.88-5.42-16.14l-.25-.25v-.52c-40.46-115.88-88.05-172.4-97.2-182.56l-.59-.66-.05.09-1.27.2c-.29,0-.54.02-.84.03l-5.46.25,5.08-5.06,6.39,1-.59.5.89-.3.5.11c6.35,1.32,12.99,3.06,19.68,5.14.88.29,1.77.57,2.65.86,1.91.61,3.94,1.31,6.01,2.02l2.33.82c2.76,1,5.64,2.11,8.55,3.28l2.29.98c2.61,1.09,5.12,2.2,7.6,3.36l2.5,1.15c3.17,1.5,6.39,3.15,9.7,4.88.5.27,1.06.57,1.59.88l.64.38c2.76,1.45,5.49,3.06,8.25,4.72l.97.61c.56.32,1.15.64,1.7,1.04,3.69,2.25,6.98,4.45,10.2,6.69l1.77,1.32c2.92,2.09,5.8,4.29,8.68,6.57.93.75,1.83,1.47,2.7,2.18,3.99,3.33,7.19,6.14,10.13,8.86l1.06,1.04c2.86,2.74,5.74,5.73,8.8,9.03l2.33,2.54c3.63,4.13,6.51,7.55,9.18,10.97,5.92,1.16,44.39,8.66,59.58,12.51-2.67-6.91-9.39-23.12-19.77-37.5l-4.78-6.66,7.23,3.85c1.06.59,25.85,13.99,40.08,39.67,8.37,4.1,92.2,45.48,118.31,67.19.68-5.65,1.43-18.63-2.04-38.06l-1.52-8.53,4.99,7.12c.12.2,15.15,21.83,25.17,44.86,10.07,4.4,107.73,47.92,136.25,91.45,2.26,1.81,4.19,2.74,5.85,2.74,5.71,0,7.57-11.43,7.61-11.58l2.54-16.93,3.81,53.18.5.47c.39.41.56.59.81.84l8.34,8.82c.81.86,1.7,1.84,2.58,2.88l10.54,12.17,8.93,11.22c.55.71,1.11,1.48,1.66,2.25l1.13,1.5c.68.9,1.32,1.77,1.91,2.61.63.89,1.31,1.79,1.95,2.74l2.61,3.79c.59.86,1.11,1.65,1.65,2.49l2.72,4.24c.8,1.31,1.61,2.61,2.33,3.92l1.65,2.9c.72,1.25,1.4,2.52,2.04,3.76.54,1.02,1.06,2.04,1.56,3.04.59,1.23,1.15,2.45,1.7,3.69.16.38.34.71.5,1.11,31.22-67.42,37.41-157.1,27.16-211.96l-1.31-6.87,4.62,5.24c8.88,10.23,13.46,14.87,15.78,16.96-.05-13.92-5.55-100.77-131.94-175.96l-5.58-3.33,22.38-.77c-12.74-15.3-75.49-85.29-159.19-85.29-1.13,0-2.24.02-3.38.05l-8.34.18,23.32-11.92c-9.47-4.01-37.74-14.21-79.62-14.21-57.01,0-147.39,19.11-254.19,110.18l-2.58-2.79,30.42-30.53,12.65-61.27,8.77,29.13,68.67-61.96,5.67-65.43,12.87,55.65,51.96-46.76,7.48-49.69,10.63,32.69,101.63-63.9,10.16-47.79,13.03,32.26,109.47-68.21,8.34-41.23,7.66,34.82,49.67-34.07,20.11-124.59c-9.79-2.08-58.99-12.04-109.84-12.04-31.62,0-57.97,3.79-78.37,11.26l-1.91.73-4.56-15.89c-18.36,4.29-174.85,42.05-207.17,91.86l-2.67,4.1-3.69-21.65c-16.46,10.54-113.07,75.74-127.67,165.19l-.84,5.06-13.71-22.44c-8.05,12.9-43.46,75.1-42.35,170.47l.16,14.19-3.9-13.67c-31.01-108.38-67.53-132.52-74.54-136.27l-12.74,15.42.21-5.65c0-.16.66-16.82.07-34.69-26.27-26.61-91.65-73.17-151.86-91.33,2.24,15.55-2.17,24.23-2.38,24.6l-2.27,4.37-1.27-4.8c-.05-.21-6.01-22.67-18.41-28.32-78.07-33.17-151.45-36.77-179.32-36.77-5.12,0-9.14.11-11.85.23l13.8,14.12-4.37.12c-175.85,4.94-300.85,147.06-336.23,249.84,32.08-23.15,78.32-26.71,103.89-26.71,7.48,0,13.12.29,15.91.5l.5-24.32,2.45.82c1.32.45,32.12,11.13,50.91,50.26,49.76-19.83,86.93-21.33,95.42-21.4l5.89-39.54,28.72,50.05c30.72-6.1,61.5-9.18,91.45-9.18,36.18,0,60.43,4.6,66.9,5.97l11.13-32.62,1.52,6.42c.04.23,2.02,7.16,21.79,41.12,3.2-.23,6.51-.32,9.8-.32,58.1,0,111.89,33.28,121.75,39.7l20.18-29.52-1.52,42.12c4.49,1.63,9.27,3.54,14.94,5.94,1.06.45,2.07.91,3.13,1.38l1.9.91c3.68,1.65,7.32,3.36,10.91,5.14,1.83.91,3.6,1.84,5.38,2.79,3.47,1.82,6.92,3.74,10.36,5.65l.81.48c1.31.75,2.63,1.48,3.94,2.22,4.06,2.41,8.09,4.9,11.97,7.41l2.33,1.47c4.92,3.18,9.57,6.39,13.85,9.43.5.36.97.73,1.47,1.09l1.15.84c3.56,2.56,7.03,5.14,10.41,7.71l3.56,2.83c3.04,2.34,6.05,4.76,8.88,7.1l3.26,2.65c3.13,2.65,6.17,5.26,9.11,7.85l1.77,1.52c6.76,6,13.33,12.1,19.41,18.13l1.57,1.52c2.29,2.24,4.44,4.4,6.42,6.46l1.61,1.63c1.99,2.06,3.81,3.99,5.51,5.78l1.02,1.09c7.39,7.96,11.85,13.31,12.53,14.12l6.39,6.01-4.4-1.54.25.61.12-.09.72,1.74,4.06,7.73-6.85-5.14-3.9-2.26,2.16-.62c-.16,0-.34-.02-.47-.04l-2.45-.45c-5.42-3.45-12.15-6.62-20.06-9.39l1.09-3.63,2.85.7,2.88,1.2c1.65.75,3.35,1.48,4.99,2.22,0-.04.38-.05,1.31-.41l.59-.21.89.27c-24.71-19.9-112.69-82.45-241.7-82.45-79.21,0-160.29,23.35-240.89,69.34-183.81,105.84-159.53,343.19-156.15,369.88l.09.64c0,.18.05.34.05.47l52.3-29.15c1-5.62,6.76-36.36,19.75-71.27l4.96-13.24-1.27,14.1c-2.76,31.24-2.04,41.3-1.4,44.5,6.85-6.26,35.38-31.47,63.38-44.29-3.04-30.92,2.54-47.02,11.63-73.45,1.95-5.67,4.12-11.83,6.35-18.77l2.08-6.28,10.2,40.49,30.69-17.91c2.15-7.98,19.08-69.76,29.77-87.75l4.12-6.87-2.92,42.58c10.48-6.32,44.12-26.03,63.5-30.72,5.8-35.36,30.97-48.1,32.03-48.65l2.42-1.2,3.53,26.75c1.25-1.09,3.08-2.56,5.31-4.31l1.15-.88c4.06-3.15,8.52-6.41,13.17-9.7l1.77-1.25c6.1-4.28,12.49-8.44,18.91-12.47.68-.43,1.45-.9,2.2-1.36,1.11-.68,2.2-1.34,3.35-2l1.56-.95,2.07,3.22c-62.02,43.5-105.07,106.82-127.95,188.18-68.3,242.75,58.87,349.74,85.01,368.7l.56.38c.41.29.75.55,1.09.79,10.75-43.35,53.79-101.94,60.64-111.06-4.87-6.89-27.63-41.62-16.59-75.02l1.61-4.88,1.95,4.76c8.16,19.81,25.12,37.88,30.88,43.62,4.37-10.02,21.08-47.85,38.85-80.88-29.74-39.4-27.16-66.79-27.04-67.94l.5-4.72,2.88,3.76c.12.16,13.24,16.96,43,36.95,2.15-26.55,9.8-51.44,26.7-87.21-18.75-54.18-8.64-87.05-8.16-88.43l1.27-4.06,2.15,3.68c.18.27,16.93,28.31,36.27,34.05,16.93-121.26,68.71-166.15,98.16-182.11l5.67-3.06-3.63,6.64-.47-.09c-.21.13-.47.25-.73.41l.86.36-.59,1.61c17.8,58.06,31.47,116.72,40.65,174.31.9,5.49,1.7,10.97,2.51,16.46,9.02,62,12.9,124.36,11.63,185.18-.16,7.87-.41,15.66-.75,23.37-2.93,68.46-12.52,136.06-28.45,200.86l-.38,1.47c-2.61,10.67-5.46,21.38-8.68,32.62-12.81,45.32-28.99,89.75-47.94,132.07l-2.45,5.46-1.18-5.85c-.81-4.15-1.86-7.14-2.63-8.89-15.53,10.95-27.93,24.1-36.86,39.17v1.36h-.8l-.34.63c-1.31,2.33-2.61,4.9-4.06,7.96-.12.25-.2.45-.29.63-2.76,6.1-4.92,11.94-6.51,17.77l-3.77-.66c.43-5.55.77-11.4.97-17.86,0-.3,0-.54.05-.86,1.4-44.88-3.9-84.49-5.8-97.23-9.05,11.88-15.96,25.43-20.61,40.44l-.21.61c-1.27,4.15-2.36,8.29-3.2,12.35l-.12.52c-.05.3-.09.61-.18.88-1.7,8.12-2.79,16.69-3.26,25.37l-.09,1.59c-.21,4.28-.29,8.41-.25,12.26,0,.45,0,.77.04,1.11.05,4.03.21,8,.52,12.27.29,4.22.68,8.12,1.15,11.97.04.3.07.68.12,1.06l.07.57c.09.48.14,1.06.22,1.63l1.02,9.02-4.49-7.32c-14.05-22.94-39.56-30.2-58.47-32.24l-.63-.05h0c-1.06-.12-1.79-.2-2.54-.27l-1.48-.14c-.43.03-.97,0-1.52-.09l-3.17-.11c-.55-.03-1.02-.05-1.45-.05l-2.42-.03-2.86.03c-.8,0-1.57.02-2.25.05l-1.31.02c23.53,12.97,41.6,35.46,53.86,67.06l-3.47,1.61c-.16-.38-.38-.64-.54-.99l-.39-.54c-.63-1.09-1.34-2.17-2.02-3.17-.72-1.06-1.4-2.08-2.17-3.04-.8-1.04-1.61-2.08-2.41-3.06-.79-.91-1.59-1.77-2.4-2.61-.93-1.02-1.86-1.95-2.79-2.85-.81-.75-1.7-1.47-2.59-2.2-1.06-.93-2.06-1.77-3.13-2.59-.54-.38-1.15-.79-1.74-1.22l-1.9-1.31c-.84-.55-1.7-1.07-2.54-1.61-.68-.38-1.4-.73-2.11-1.13l-.68-.39c-1.43-.75-2.63-1.39-3.9-1.99-.59-.3-1.18-.5-1.81-.73l-.89-.34c-1.43-.66-2.88-1.25-4.31-1.75-.3-.09-.59-.18-.84-.27-.34-.07-.64-.14-.98-.25-3.04-.97-6.35-1.77-10.02-2.41l-2.72-.5h-.04c-3.22-.47-6.14-.71-8.84-.77-.89-.03-1.74-.03-2.59-.03-31.9,0-47.35,17.36-53.02,26,11.22-4.44,22.01-6.71,32.17-6.71,53.3,0,74.6,61.8,77.73,71.9l9.43.18v1.86c.86-.18,1.65-.54,1.82-.81l.55-.98,3.01.05c.5-2.63.93-5.42,1.27-8.38.04-.57.07-1.2.13-1.79l.12-2.2c.16-1.86.29-3.67.29-5.46,0-.64,0-1.43-.03-2.15l-.09-2.5c-.04-1.41-.09-2.88-.25-4.31h.09c-.05-.03-.05-.12-.05-.18l3.69-1v.07h0l.03.21c3.13,13.55,4.33,24.05,4.71,28.4l12.56-2.54-2.36,2.97c4.28-.34,8.59-.59,12.86-.77l9.06-.22c2.79-.03,5.58-.11,8.41-.11ZM1149.67,2206.69l1.95-9.27c.25-1.36.41-2.18.56-3.04l.2-1.06c.59-3.18,1.15-6.26,1.52-9.23l.52-3.97c.29-2.67.55-5.35.71-7.91.09-1.27.13-2.41.16-3.6.05-.54.05-.86.05-1.11v-12.47l4.15,13.13c.88,2.77,1.59,4.92,2.27,6.85l.39,1.18c.59,1.72,1.18,3.35,1.74,4.81l-1.61,1.13,1.77-.66c.34.93.64,1.66.93,2.36l.38.97-.59.88c-3.63,5.26-6.94,9.84-9.86,13.81l-5.24,7.19ZM1158.51,2177.42c-.07,1.06-.21,2.11-.34,3.18l-.46,4.01c-.25,1.9-.59,3.85-.93,5.83,1.36-1.9,2.79-3.97,4.28-6.1-.16-.46-.34-.97-.56-1.47l-.2-.54c-.52-1.5-1.15-3.15-1.74-4.92h-.05ZM1165.71,2184.74l3.22-11.72c.8-3.1,1.61-6.23,2.33-9.36.21-.68.34-1.36.47-2.02.89-3.76,1.65-7.55,2.36-11.27l3.44-18.5.34,18.81c.04,3.35.16,6.58.38,9.61.05.05.09.29.09.54l.34,3.99-.38.57c-1.66,2.54-3.26,5.01-4.79,7.43l-7.78,11.93Z"/>
        </g>
      </g>
    </g>
  </g>
</svg>