<?xml version="1.0" encoding="UTF-8"?>
<svg id="Camada_1" data-name="Camada 1" xmlns="http://www.w3.org/2000/svg" xmlns:xlink="http://www.w3.org/1999/xlink" viewBox="0 0 55.7 56">
  <defs>
    <style>
      .cls-1 {
        fill: #010101;
      }

      .cls-2 {
        fill: url(#Gradiente_sem_nome_17);
      }

      .cls-3 {
        fill: #926cac;
      }

      .cls-4 {
        fill: #353039;
      }

      .cls-5 {
        opacity: .31;
      }

      .cls-6 {
        fill: #dc9bc3;
      }

      .cls-7 {
        fill: #ececed;
        stroke: #0e0915;
        stroke-miterlimit: 10;
        stroke-width: .25px;
      }

      .cls-8 {
        fill: #252128;
      }
    </style>
    <linearGradient id="Gradiente_sem_nome_17" data-name="Gradiente sem nome 17" x1="26.14" y1="48" x2="26.14" y2="9.86" gradientTransform="translate(3.49 .23) rotate(-.05) scale(.97 .98) skewX(-.1)" gradientUnits="userSpaceOnUse">
      <stop offset="0" stop-color="#4d4c4b"/>
      <stop offset=".49" stop-color="#4b4a49"/>
      <stop offset=".66" stop-color="#474342"/>
      <stop offset=".79" stop-color="#403836"/>
      <stop offset=".89" stop-color="#362825"/>
      <stop offset=".98" stop-color="#29130f"/>
      <stop offset="1" stop-color="#250d09"/>
    </linearGradient>
  </defs>
  <g>
    <path class="cls-1" d="M19.23,44.14h9.42c-.25,1.2-.49,2.4-.74,3.61-.14,1.79-1.55,3.23-3.32,3.4-1.75.17-3.4-.94-3.9-2.64-.49-1.46-.97-2.91-1.46-4.37Z"/>
    <path class="cls-1" d="M28.65,44.14h9.42c-.25,1.2-.49,2.4-.74,3.61-.14,1.79-1.55,3.23-3.32,3.4-1.75.17-3.4-.94-3.9-2.64-.49-1.46-.97-2.91-1.46-4.37Z"/>
    <path class="cls-1" d="M13.87,25.65l.17,9.42c-1.21-.22-2.41-.45-3.62-.67-1.79-.1-3.26-1.49-3.46-3.26-.2-1.75.88-3.41,2.57-3.95,1.45-.51,2.9-1.03,4.34-1.54Z"/>
    <path class="cls-1" d="M44.18,35.07l-.15-9.42c1.21.23,2.41.46,3.62.68,1.79.11,3.25,1.5,3.45,3.27.2,1.75-.89,3.41-2.58,3.94-1.45.51-2.9,1.02-4.35,1.53Z"/>
  </g>
  <path class="cls-2" d="M21.09,12.93c-.35.21-1.25-.45-1.56-.23-.34.23-.79.34-1.09.58-.32.25-.52.69-.81.94-.31.27.02,1.21-.25,1.47-.3.3-1.44-.24-1.69.04-.29.32.55,1.55.33,1.82-.25.32-.71.42-.93.73-.23.33-.13.82-.33,1.15-.21.34-.43.62-.61.95s-1.29.22-1.45.57-.33.72-.49,1.08.02.86-.14,1.22c-.14.34-.89.41-1.02.73s.73,1.05.61,1.38-.4.58-.5.92-.49.58-.57.94c-.07.33.61.8.55,1.16-.06.4-1.11.66-1.15,1.04-.03.41.64.84.64,1.21,0,.42-.4.81-.38,1.17.02.43.7.73.74,1.08.05.32-.56.77-.49,1.13.07.33.49.58.58.94.09.33.43.57.54.92.11.33-.94,1.07-.81,1.42.13.34,1.08.33,1.22.64.15.33.76.4.92.7.17.33.03.77.2,1.05.19.32-.32,1.05-.15,1.32.17.27.9.25,1.18.61.22.28.08.91.37,1.23.25.27.61.5.92.78.28.25.47.68.8.92.3.23,1.26-.5,1.6-.28.32.2.03,1.44.35,1.6.34.17.9-.11,1.23.02.36.15.78.04,1.11.14.37.12.61.67.95.74.39.09.79.03,1.12.07.43.06.83-.25,1.12-.23.39.03.74.7,1.15.72s.82-.92,1.23-.91.77.14,1.18.14.79.48,1.19.47c.4,0,.77-.3,1.16-.32s.78-.07,1.16-.1.77-.16,1.15-.2.91.93,1.29.88.76-.38,1.14-.44.82.07,1.2,0c.39-.07.73-.46,1.1-.54.3-.06.68-.06,1.02-.18.29-.1.76.06,1.08-.09.28-.13.05-1.36.36-1.52.28-.15.72,0,1.02-.19.33-.2.47-.64.77-.86.32-.23.72-.29,1-.53.3-.26.51-.56.77-.82.28-.28.4-.65.64-.92.26-.31.32-.7.53-.98.25-.34.44-.6.61-.88.19-.35,1.55-.07,1.71-.41.18-.36-.25-1-.11-1.35.15-.37.72-.59.84-.94.13-.38.39-.74.49-1.1.11-.39-.54-.96-.47-1.32.08-.4-.29-.83-.24-1.2.05-.41.44-.73.46-1.09.02-.42-.28-.79-.29-1.13-.01-.46-.07-.8-.1-1.1-.04-.35.79-.81.73-1.14-.06-.35-.09-.72-.16-1.04-.08-.36-.33-.67-.42-.97-.11-.39-.8-.53-.89-.78-.13-.36-.07-.79-.21-1.13s0-.82-.15-1.16c-.15-.36-.73-.52-.88-.86-.16-.36.16-.92,0-1.25-.17-.35-1.05-.32-1.22-.64-.19-.35.63-1.25.45-1.55-.16-.25-1.11-.07-1.33-.41-.18-.27.36-1.07.14-1.37-.19-.27-.98-.13-1.21-.42-.21-.27-.74-.26-.98-.53-.23-.26.28-1.21.02-1.47-.18-.18-1.01.11-1.39-.23-.25-.23.14-1.3-.19-1.57-.28-.23-.67-.43-1-.67-.3-.21-.86-.12-1.21-.33-.32-.2-.57-.59-.93-.78-.33-.18-.83-.08-1.2-.24s-.87.12-1.24,0-.47-1.14-.86-1.24-.93.58-1.32.51-.76-.01-1.16-.05-.75.28-1.15.27c-.37,0-.74-.77-1.1-.74-.37.03-.65.77-1,.82-.37.05-.81-.43-1.15-.35-.37.08-.88-.36-1.22-.26-.36.11-.49.92-.82,1.04-.36.14-.53.6-.85.74-.36.16-1.09-.51-1.38-.35-.37.2-.18,1.24-.44,1.4Z"/>
  <g class="cls-5">
    <path class="cls-3" d="M20.93,13.16c-.35.21-.3.98-.61,1.2-.34.23-1.04-.07-1.34.16-.32.25-.16,1.05-.44,1.3-.31.27-1.47-.39-1.74-.12-.3.3-.54.66-.79.94-.29.32.1,1.18-.12,1.45-.25.32-1.02.23-1.24.54-.23.33-.28.79-.48,1.11-.21.34.25,1.04.07,1.38s-.61.55-.77.9-.44.65-.6,1.01-.19.76-.35,1.12c-.14.34-.65.5-.78.82s-.58.55-.7.87-.49.61-.59.95.55.89.47,1.24c-.07.33-.53.61-.59.98-.06.4.65.88.61,1.26-.03.41-.27.77-.28,1.14,0,.42-.65.83-.63,1.2.02.43.17.84.21,1.19.05.32,0,.72.07,1.09.07.33,1.15.43,1.25.79.09.33.04.68.15,1.03.11.33.33.6.46.94.13.34-.26.86-.13,1.17.15.33-.13.87.02,1.17.17.33.92.32,1.08.61.19.32.6.46.78.73.17.27.5.48.77.83.22.28-.47,1.37-.18,1.68.25.27,1.05.06,1.36.33.28.25.27.89.6,1.14.3.23.82.2,1.17.42.32.2.36.94.68,1.1.34.17.96-.21,1.29-.08.36.15.82-.07,1.16.03.37.12.6.68.94.76.39.09.75.33,1.08.37.43.06.88-.77,1.18-.75.39.03.77.24,1.17.26s.76.6,1.16.61.8-.75,1.2-.75.79.79,1.2.78c.4,0,.78-.35,1.16-.37s.78-.14,1.16-.17.83.4,1.21.36.82.12,1.2.07.82.05,1.2,0,.8-.13,1.17-.2c.39-.07.61-1.01.98-1.09.3-.06.64-.02.97-.14.29-.1.45-.54.77-.69.28-.13.42-.51.73-.68.28-.15.6-.19.89-.37.33-.2.52-.52.82-.73.32-.23.86-.1,1.14-.34.3-.26,1.14.06,1.4-.2.28-.28.57-.6.8-.87.26-.31-.44-1.35-.24-1.63.25-.34,1.27-.11,1.44-.39.19-.35.02-.9.18-1.23.18-.36.34-.71.48-1.06.15-.37-.3-.94-.18-1.29.13-.38.61-.6.71-.96.11-.39.67-.65.74-1.01.08-.4-.52-.88-.47-1.25.05-.41.11-.75.13-1.11.02-.42.31-.78.3-1.12-.01-.46-.37-.79-.41-1.09-.04-.35.43-.75.38-1.08-.06-.35-.11-.69-.19-1.01-.08-.36.09-.77,0-1.07-.11-.39-.23-.74-.32-1-.13-.36-.39-.68-.52-1.02s-.98-.43-1.12-.77c-.15-.36-.19-.74-.34-1.07-.16-.36.39-1.02.24-1.35-.17-.35-1.03-.33-1.2-.65-.19-.35.56-1.21.37-1.52-.16-.25-1.31.05-1.53-.28-.18-.27-.44-.49-.66-.8-.19-.27-.25-.63-.48-.92-.21-.27-.09-.81-.34-1.08-.23-.26-.79-.19-1.05-.45-.18-.18.18-1.14-.2-1.48-.25-.23-.97,0-1.31-.27-.28-.23-.4-.71-.74-.95-.3-.21-.97.12-1.32-.09-.32-.2-.55-.52-.9-.71-.33-.18-.44-.85-.8-1s-1.01.52-1.38.38-.56-.7-.94-.8-.74-.15-1.13-.21-.74-.18-1.14-.21-.76.4-1.16.4c-.37,0-.76-1.1-1.12-1.08-.37.03-.67.77-1.02.82-.37.05-.63.49-.97.57-.37.08-.74-.04-1.08.06-.36.11-.6.43-.93.56-.36.14-.89-.25-1.2-.1-.36.16-.91-.11-1.2.05-.37.2-.54.66-.8.82Z"/>
  </g>
  <g>
    <path class="cls-8" d="M26.38,36.64c-.1-.19-.13-.36-.08-.4.06-.05.23.04.41.22.23.19.77.58,1.56.7,1.06.16,1.86-.27,2.11-.42.03-.02.07-.05.1-.07.02-.02.12-.14.29-.14.08,0,.14.03.17.05-.06.12-.16.29-.32.46-.05.05-.23.29-.55.42-.26.1-.63.21-1.09.24-.7.05-1.25-.12-1.57-.24-.21-.1-.47-.26-.72-.5-.12-.11-.22-.23-.31-.34Z"/>
    <path class="cls-4" d="M19.32,21.2c-.1.05-.14.16-.1.23.04.08.17.12.28.05.22-.14.61-.33,1.11-.36.03,0,.13,0,.27,0,.26.02.74.09,1.33.46.11.08.24.1.29.05.07-.06.06-.24-.09-.39-.13-.13-.65-.58-1.45-.62-.91-.05-1.52.48-1.64.59Z"/>
    <path class="cls-4" d="M35.48,21.36c-.08.02-.16,0-.21-.07-.05-.08-.03-.19.05-.26.07-.06.18-.14.32-.22.48-.24.98-.14,1.42-.06.21.04.49.11.81.25.05.01.43.14.46.38,0,.06,0,.16-.06.19-.05.02-.11-.01-.16-.04-.09-.06-.23-.13-.42-.21-.13-.06-.32-.12-.55-.17-.12-.02-.26-.05-.45-.04-.23,0-.34.06-.66.14-.13.03-.32.07-.55.11Z"/>
    <ellipse class="cls-6" cx="24.35" cy="36.98" rx=".47" ry=".53"/>
    <path class="cls-6" d="M33.84,35.93c-.19.04-.35.23-.35.23h0c-.14.3-.06.61.14.75.2.13.46.03.48.02.04-.02.23-.1.31-.31.06-.14.04-.27.03-.33,0-.06-.02-.13-.07-.2-.1-.15-.32-.21-.54-.16Z"/>
    <ellipse class="cls-7" cx="36.8" cy="28.82" rx="6.06" ry="4.62" transform="translate(3.45 61.57) rotate(-82.55)"/>
    <ellipse class="cls-7" cx="20.85" cy="28.82" rx="6.06" ry="4.62" transform="translate(-9.19 47.87) rotate(-86.49)"/>
    <ellipse class="cls-1" cx="21.88" cy="28.97" rx="3.41" ry="4.65" transform="translate(-1.8 1.45) rotate(-3.64)"/>
    <ellipse class="cls-1" cx="35.46" cy="29.19" rx="4.65" ry="3.41" transform="translate(4.08 62.73) rotate(-86.36)"/>
  </g>
</svg>