<?xml version="1.0" encoding="UTF-8"?>
<svg id="Camada_1" data-name="Camada 1" xmlns="http://www.w3.org/2000/svg" xmlns:xlink="http://www.w3.org/1999/xlink" viewBox="0 0 55.7 56">
  <defs>
    <style>
      .cls-1 {
        fill: #010101;
      }

      .cls-2 {
        fill: url(#Gradiente_sem_nome_21);
      }

      .cls-3 {
        fill: #b673ae;
      }

      .cls-4 {
        fill: #926cac;
      }

      .cls-5 {
        fill: #353039;
      }

      .cls-6 {
        opacity: .31;
      }

      .cls-7 {
        fill: #dc9bc3;
      }

      .cls-8 {
        fill: #ececed;
        stroke: #0e0915;
        stroke-miterlimit: 10;
        stroke-width: .25px;
      }

      .cls-9 {
        fill: #252128;
      }
    </style>
    <linearGradient id="Gradiente_sem_nome_21" data-name="Gradiente sem nome 21" x1="28.59" y1="48.25" x2="28.59" y2="9.48" gradientTransform="translate(1.07 .17) rotate(-.05) scale(.97 .98) skewX(-.1)" gradientUnits="userSpaceOnUse">
      <stop offset="0" stop-color="#d6a0c9"/>
      <stop offset=".47" stop-color="#d49ec7"/>
      <stop offset=".63" stop-color="#d097c3"/>
      <stop offset=".75" stop-color="#c88bbc"/>
      <stop offset=".85" stop-color="#bd7ab2"/>
      <stop offset=".93" stop-color="#ae64a5"/>
      <stop offset="1" stop-color="#9e4c97"/>
    </linearGradient>
  </defs>
  <g>
    <path class="cls-3" d="M19.23,44.14h9.42c-.25,1.2-.49,2.4-.74,3.61-.14,1.79-1.55,3.23-3.32,3.4-1.75.17-3.4-.94-3.9-2.64-.49-1.46-.97-2.91-1.46-4.37Z"/>
    <path class="cls-3" d="M28.65,44.14h9.42c-.25,1.2-.49,2.4-.74,3.61-.14,1.79-1.55,3.23-3.32,3.4-1.75.17-3.4-.94-3.9-2.64-.49-1.46-.97-2.91-1.46-4.37Z"/>
    <path class="cls-3" d="M13.87,25.65l.17,9.42c-1.21-.22-2.41-.45-3.62-.67-1.79-.1-3.26-1.49-3.46-3.26-.2-1.75.88-3.41,2.57-3.95,1.45-.51,2.9-1.03,4.34-1.54Z"/>
    <path class="cls-3" d="M44.18,35.07l-.15-9.42c1.21.23,2.41.46,3.62.68,1.79.11,3.25,1.5,3.45,3.27.2,1.75-.89,3.41-2.58,3.94-1.45.51-2.9,1.02-4.35,1.53Z"/>
  </g>
  <path class="cls-2" d="M20.57,12.08c-.35.21-.18,1.19-.49,1.41-.34.23-1.06-.1-1.36.14-.32.25-.94.17-1.23.42-.31.27.1,1.31-.17,1.57-.3.3-1.01.16-1.26.43-.29.32-.56.63-.78.9-.25.32-.32.77-.53,1.08-.23.33-.61.56-.81.89-.21.34-.67.55-.85.89s.26,1.02.09,1.37-.5.63-.66.98-.06.82-.22,1.18c-.14.34-.12.72-.26,1.04s-.01.73-.13,1.06-.46.55-.56.89-.24.62-.33.98c-.07.33-1.11.5-1.17.86-.06.4.08.85.04,1.23-.03.41-.14.83-.15,1.2,0,.42.05.84.07,1.21.02.43.29.82.34,1.17.05.32.44.62.52.99.07.33-.1.73,0,1.08.09.33-.25.82-.14,1.17.11.33.93.42,1.06.77.13.34.78.42.92.73.15.33-.79,1.17-.64,1.47.17.33.38.64.55.93.19.32.45.59.63.86.17.27.43.61.71.97.22.28,1.03.11,1.31.42.25.27.68.33.99.6.28.25.5.51.82.75.3.23.06,1.26.4,1.47.32.2.76.22,1.08.38.34.17.58.61.91.74.36.15.97-.43,1.3-.33.37.12.64.51.98.58.39.09.68.73,1.01.77.43.06.84.07,1.13.09.39.03.84-.84,1.24-.82s.77.06,1.18.07.78.28,1.18.28.77-.65,1.18-.66c.4,0,.83,1.21,1.22,1.19s.74-.91,1.12-.94.88.87,1.26.83.7-.82,1.08-.87.8.02,1.18-.04.67-.7,1.05-.76c.39-.07.92.58,1.29.51.3-.06.42-.8.75-.92.29-.1.68.07,1-.08.28-.13.47-.46.77-.62.28-.15.64-.15.93-.33.33-.2,1.05.17,1.35-.05.32-.23-.11-1.37.17-1.61.3-.26,1.24.21,1.5-.05.28-.28.71-.45.95-.73.26-.31.02-1.01.23-1.29.25-.34.69-.51.87-.79.19-.35-.1-.94.07-1.28.18-.36.13-.78.28-1.12.15-.37.55-.61.67-.96.13-.38.32-.71.42-1.07.11-.39.89-.61.96-.97.08-.4-1.04-.98-.99-1.34.05-.41.2-.74.22-1.09.02-.42.85-.79.84-1.13-.01-.46-.28-.84-.31-1.14-.04-.35-.83-.56-.89-.89-.06-.35.25-.74.18-1.06-.08-.36.15-.77.06-1.07-.11-.39-.56-.6-.65-.85-.13-.36.2-.89.06-1.24s-.54-.61-.68-.95c-.15-.36-.74-.51-.89-.84-.16-.36-.26-.71-.41-1.04-.17-.35.08-.88-.09-1.2-.19-.35.11-.96-.08-1.26-.16-.25-1.23,0-1.44-.33-.18-.27.22-.96,0-1.27-.19-.27-.3-.64-.53-.93-.21-.27-.53-.47-.77-.75-.23-.26-.06-.94-.32-1.19-.18-.18-1.08.16-1.45-.18-.25-.23-.77-.19-1.11-.46-.28-.23-.15-1.02-.49-1.26-.3-.21-.63-.44-.98-.65-.32-.2-.54-.65-.89-.83-.33-.18-.96.21-1.33.06s-.53-.76-.91-.89-.97.55-1.35.45-.62-.65-1.02-.72-.7-.76-1.1-.8-.83.72-1.23.72c-.37,0-.71.3-1.06.32-.37.03-.67.3-1.02.35-.37.05-.94-1.06-1.28-.98-.37.08-.65.55-.99.65-.36.11-.89-.23-1.22-.1-.36.14-.37,1.1-.68,1.24-.36.16-.44.74-.74.89-.37.2-1.25-.62-1.5-.46Z"/>
  <g class="cls-6">
    <path class="cls-4" d="M20.93,13.16c-.35.21-.3.98-.61,1.2-.34.23-1.04-.07-1.34.16-.32.25-.16,1.05-.44,1.3-.31.27-1.47-.39-1.74-.12-.3.3-.54.66-.79.94-.29.32.1,1.18-.12,1.45-.25.32-1.02.23-1.24.54-.23.33-.28.79-.48,1.11-.21.34.25,1.04.07,1.38s-.61.55-.77.9-.44.65-.6,1.01-.19.76-.35,1.12c-.14.34-.65.5-.78.82s-.58.55-.7.87-.49.61-.59.95.55.89.47,1.24c-.07.33-.53.61-.59.98-.06.4.65.88.61,1.26-.03.41-.27.77-.28,1.14,0,.42-.65.83-.63,1.2.02.43.17.84.21,1.19.05.32,0,.72.07,1.09.07.33,1.15.43,1.25.79.09.33.04.68.15,1.03.11.33.33.6.46.94.13.34-.26.86-.13,1.17.15.33-.13.87.02,1.17.17.33.92.32,1.08.61.19.32.6.46.78.73.17.27.5.48.77.83.22.28-.47,1.37-.18,1.68.25.27,1.05.06,1.36.33.28.25.27.89.6,1.14.3.23.82.2,1.17.42.32.2.36.94.68,1.1.34.17.96-.21,1.29-.08.36.15.82-.07,1.16.03.37.12.6.68.94.76.39.09.75.33,1.08.37.43.06.88-.77,1.18-.75.39.03.77.24,1.17.26s.76.6,1.16.61.8-.75,1.2-.75.79.79,1.2.78c.4,0,.78-.35,1.16-.37s.78-.14,1.16-.17.83.4,1.21.36.82.12,1.2.07.82.05,1.2,0,.8-.13,1.17-.2c.39-.07.61-1.01.98-1.09.3-.06.64-.02.97-.14.29-.1.45-.54.77-.69.28-.13.42-.51.73-.68.28-.15.6-.19.89-.37.33-.2.52-.52.82-.73.32-.23.86-.1,1.14-.34.3-.26,1.14.06,1.4-.2.28-.28.57-.6.8-.87.26-.31-.44-1.35-.24-1.63.25-.34,1.27-.11,1.44-.39.19-.35.02-.9.18-1.23.18-.36.34-.71.48-1.06.15-.37-.3-.94-.18-1.29.13-.38.61-.6.71-.96.11-.39.67-.65.74-1.01.08-.4-.52-.88-.47-1.25.05-.41.11-.75.13-1.11.02-.42.31-.78.3-1.12-.01-.46-.37-.79-.41-1.09-.04-.35.43-.75.38-1.08-.06-.35-.11-.69-.19-1.01-.08-.36.09-.77,0-1.07-.11-.39-.23-.74-.32-1-.13-.36-.39-.68-.52-1.02s-.98-.43-1.12-.77c-.15-.36-.19-.74-.34-1.07-.16-.36.39-1.02.24-1.35-.17-.35-1.03-.33-1.2-.65-.19-.35.56-1.21.37-1.52-.16-.25-1.31.05-1.53-.28-.18-.27-.44-.49-.66-.8-.19-.27-.25-.63-.48-.92-.21-.27-.09-.81-.34-1.08-.23-.26-.79-.19-1.05-.45-.18-.18.18-1.14-.2-1.48-.25-.23-.97,0-1.31-.27-.28-.23-.4-.71-.74-.95-.3-.21-.97.12-1.32-.09-.32-.2-.55-.52-.9-.71-.33-.18-.44-.85-.8-1s-1.01.52-1.38.38-.56-.7-.94-.8-.74-.15-1.13-.21-.74-.18-1.14-.21-.76.4-1.16.4c-.37,0-.76-1.1-1.12-1.08-.37.03-.67.77-1.02.82-.37.05-.63.49-.97.57-.37.08-.74-.04-1.08.06-.36.11-.6.43-.93.56-.36.14-.89-.25-1.2-.1-.36.16-.91-.11-1.2.05-.37.2-.54.66-.8.82Z"/>
  </g>
  <g>
    <path class="cls-9" d="M26.38,36.64c-.1-.19-.13-.36-.08-.4.06-.05.23.04.41.22.23.19.77.58,1.56.7,1.06.16,1.86-.27,2.11-.42.03-.02.07-.05.1-.07.02-.02.12-.14.29-.14.08,0,.14.03.17.05-.06.12-.16.29-.32.46-.05.05-.23.29-.55.42-.26.1-.63.21-1.09.24-.7.05-1.25-.12-1.57-.24-.21-.1-.47-.26-.72-.5-.12-.11-.22-.23-.31-.34Z"/>
    <path class="cls-5" d="M19.32,21.2c-.1.05-.14.16-.1.23.04.08.17.12.28.05.22-.14.61-.33,1.11-.36.03,0,.13,0,.27,0,.26.02.74.09,1.33.46.11.08.24.1.29.05.07-.06.06-.24-.09-.39-.13-.13-.65-.58-1.45-.62-.91-.05-1.52.48-1.64.59Z"/>
    <path class="cls-5" d="M35.48,21.36c-.08.02-.16,0-.21-.07-.05-.08-.03-.19.05-.26.07-.06.18-.14.32-.22.48-.24.98-.14,1.42-.06.21.04.49.11.81.25.05.01.43.14.46.38,0,.06,0,.16-.06.19-.05.02-.11-.01-.16-.04-.09-.06-.23-.13-.42-.21-.13-.06-.32-.12-.55-.17-.12-.02-.26-.05-.45-.04-.23,0-.34.06-.66.14-.13.03-.32.07-.55.11Z"/>
    <ellipse class="cls-7" cx="24.35" cy="36.98" rx=".47" ry=".53"/>
    <path class="cls-7" d="M33.84,35.93c-.19.04-.35.23-.35.23h0c-.14.3-.06.61.14.75.2.13.46.03.48.02.04-.02.23-.1.31-.31.06-.14.04-.27.03-.33,0-.06-.02-.13-.07-.2-.1-.15-.32-.21-.54-.16Z"/>
    <ellipse class="cls-8" cx="36.8" cy="28.82" rx="6.06" ry="4.62" transform="translate(3.45 61.57) rotate(-82.55)"/>
    <ellipse class="cls-8" cx="20.85" cy="28.82" rx="6.06" ry="4.62" transform="translate(-9.19 47.87) rotate(-86.49)"/>
    <ellipse class="cls-1" cx="21.88" cy="28.97" rx="3.41" ry="4.65" transform="translate(-1.8 1.45) rotate(-3.64)"/>
    <ellipse class="cls-1" cx="35.46" cy="29.19" rx="4.65" ry="3.41" transform="translate(4.08 62.73) rotate(-86.36)"/>
  </g>
</svg>