<?xml version="1.0" encoding="UTF-8"?>
<svg id="Camada_1" data-name="Camada 1" xmlns="http://www.w3.org/2000/svg" viewBox="0 0 55.7 59.67">
  <defs>
    <style>
      .cls-1 {
        fill: #fdc20d;
      }

      .cls-2 {
        fill: #d11617;
      }

      .cls-3 {
        fill: #fff;
      }

      .cls-4 {
        fill: #64822d;
      }

      .cls-5 {
        fill: #99b187;
      }

      .cls-6 {
        fill: #b7888b;
      }
    </style>
  </defs>
  <path class="cls-3" d="M41.84,2.88c.13.09.13.25,0,.34-.12.1-.32.1-.45,0-.13-.09-.13-.25,0-.34.12-.1.32-.1.45,0Z"/>
  <path class="cls-3" d="M41.95,5.52c-.1-.12-.2-.24-.29-.36.08,0,.17.02.24.07.11.08.13.2.06.29Z"/>
  <path class="cls-3" d="M43.08,4.43s-.08-.03-.12-.05c-.07-.05-.1-.11-.1-.18.06.07.13.15.21.23Z"/>
  <path class="cls-3" d="M43.45,6.38c.13.09.13.25,0,.34-.12.1-.32.1-.45,0-.13-.09-.13-.25,0-.34.12-.1.32-.1.45,0Z"/>
  <g>
    <path class="cls-2" d="M34.09,25.48c-2.13.71-4.26,1.42-6.39,2.13-2.51-.82-5.03-1.64-7.54-2.46-4.32-.04-8.63-.08-12.95-.11.34,1.32,1.11,3.59,2.95,5.85,1.51,1.86,3.16,2.98,4.26,3.61,3.2.93,7.9,1.89,13.6,1.66,4.31-.18,7.94-.99,10.65-1.82,1.46-.46,4.2-1.55,6.72-4.1,1.89-1.91,2.9-3.9,3.44-5.2-4.92.15-9.83.3-14.75.44Z"/>
    <path class="cls-4" d="M20.2,25.99c.21.43.16.82.12,1.43-.13,1.92-.15,4.72.41,8.44-.77.05-1.7.05-2.75-.08-1.37-.17-2.52-.51-3.4-.84-1.24-.75-3.26-2.19-4.96-4.65-1.26-1.82-1.91-3.57-2.25-4.8,4.99-1,11.67-1.9,12.83.5Z"/>
    <path class="cls-6" d="M28.11,27.69c-2.68-.74-5.36-1.48-8.04-2.22l.61-1.23,6.65,2.24c.26.4.52.8.78,1.21Z"/>
    <path class="cls-6" d="M28.11,27.69c2.18-.71,4.36-1.42,6.54-2.13l-.64-1.21-6.76,2.12c.29.41.57.82.86,1.23Z"/>
    <path class="cls-5" d="M20.03,25.53c-4.25-.04-8.5-.08-12.75-.12-.06-.22-.11-.46-.15-.74-.04-.24-.05-.47-.06-.68,4.57.09,9.14.18,13.71.28l-.74,1.26Z"/>
    <path class="cls-6" d="M34.66,25.55c4.73-.17,9.45-.35,14.18-.52l-.04-1.37c-4.97.23-9.94.47-14.91.7.26.4.51.79.77,1.19Z"/>
    <path class="cls-1" d="M22.7,30.08c0,1.27-1.03,2.3-2.3,2.3s-2.3-1.03-2.3-2.3,1.03-2.3,2.3-2.3,2.3,1.03,2.3,2.3Z"/>
  </g>
</svg>