<?xml version="1.0" encoding="UTF-8"?>
<svg id="Camada_1" data-name="Camada 1" xmlns="http://www.w3.org/2000/svg" viewBox="0 0 55.7 59.67">
  <defs>
    <style>
      .cls-1 {
        fill: #d11617;
      }

      .cls-2 {
        fill: #fff;
      }

      .cls-3 {
        fill: #51565b;
      }

      .cls-4 {
        fill: #ffd23e;
      }

      .cls-5 {
        fill: #373c41;
      }
    </style>
  </defs>
  <path class="cls-2" d="M41.84,2.88c.13.09.13.25,0,.34-.12.1-.32.1-.45,0-.13-.09-.13-.25,0-.34.12-.1.32-.1.45,0Z"/>
  <path class="cls-2" d="M41.95,5.52c-.1-.12-.2-.24-.29-.36.08,0,.17.02.24.07.11.08.13.2.06.29Z"/>
  <path class="cls-2" d="M43.08,4.43s-.08-.03-.12-.05c-.07-.05-.1-.11-.1-.18.06.07.13.15.21.23Z"/>
  <path class="cls-2" d="M43.45,6.38c.13.09.13.25,0,.34-.12.1-.32.1-.45,0-.13-.09-.13-.25,0-.34.12-.1.32-.1.45,0Z"/>
  <g>
    <path class="cls-1" d="M35.6,26.15c-2.28.74-4.56,1.48-6.84,2.21-2.69-.85-5.38-1.7-8.07-2.56-4.62-.04-9.24-.08-13.86-.12.43,1.6,1.3,3.9,3.16,6.08.58.68,1.18,1.26,1.74,1.74,4.28,1.88,10.27,3.75,17.38,3.73,2.79,0,6.91-.51,11.4-1.89,1.56-.48,4.5-1.61,7.19-4.26,2.02-1.99,3.11-4.05,3.68-5.4l-15.79.46Z"/>
    <path class="cls-4" d="M8.38,29.99c.44.64,1.01,1.37,1.74,2.11.56.56,1.11,1.03,1.61,1.41,11.2-.16,22.41-.33,33.61-.49.61-.44,1.28-.97,1.97-1.61.67-.63,1.24-1.24,1.71-1.81-13.55.13-27.1.26-40.65.39Z"/>
    <path class="cls-3" d="M33,25.57c-.99.4-1.98.81-2.97,1.21-.92-.4-1.83-.81-2.75-1.21-6.78.06-13.57.12-20.35.18-.01.49.02,1.18.25,1.97.32,1.08.86,1.84,1.22,2.27,13.55-.13,27.09-.26,40.64-.39.49-.53,1.07-1.28,1.58-2.27.38-.73.62-1.41.78-1.98-6.13.07-12.27.15-18.4.22Z"/>
    <polygon class="cls-5" points="6.87 24.65 25.08 24.62 30 26.73 35.36 24.51 51.34 24.49 51.34 25.97 35.92 25.97 30.12 28.28 25.1 26.13 6.87 26.32 6.87 24.65"/>
  </g>
</svg>