<?xml version="1.0" encoding="UTF-8"?>
<svg xmlns="http://www.w3.org/2000/svg" viewBox="0 0 55.7 59.67">
  <defs>
    <style>
      .cls-1, .cls-2, .cls-3, .cls-4 {
        opacity: .5;
      }

      .cls-1, .cls-2, .cls-4 {
        mix-blend-mode: multiply;
      }

      .cls-1, .cls-5 {
        fill: #5e2d87;
      }

      .cls-2, .cls-6 {
        fill: #309737;
      }

      .cls-7 {
        opacity: .4;
      }

      .cls-7, .cls-3, .cls-8 {
        mix-blend-mode: overlay;
      }

      .cls-7, .cls-3, .cls-8, .cls-9 {
        fill: #fff;
      }

      .cls-8 {
        opacity: .6;
      }

      .cls-4, .cls-10 {
        fill: #ffd704;
      }

      .cls-11 {
        isolation: isolate;
      }
    </style>
  </defs>
  <g class="cls-11">
    <g id="Camada_1" data-name="Camada 1">
      <path class="cls-9" d="M41.84,2.88c.13.09.13.25,0,.34-.12.1-.32.1-.45,0-.13-.09-.13-.25,0-.34.12-.1.32-.1.45,0Z"/>
      <path class="cls-9" d="M41.95,5.52c-.1-.12-.2-.24-.29-.36.08,0,.17.02.24.07.11.08.13.2.06.29Z"/>
      <path class="cls-9" d="M43.08,4.43s-.08-.03-.12-.05c-.07-.05-.1-.11-.1-.18.06.07.13.15.21.23Z"/>
      <path class="cls-9" d="M43.45,6.38c.13.09.13.25,0,.34-.12.1-.32.1-.45,0-.13-.09-.13-.25,0-.34.12-.1.32-.1.45,0Z"/>
      <g>
        <path class="cls-5" d="M25.08,36.26h10.63v-1.33c0-8.07,2.06-13.06,2.06-13.06-4.71,0-8.81,5.34-8.81,5.34-1.36-5.38-3.88-7.98-3.88-7.98,0,0-2.52,2.59-3.88,7.98,0,0-4.11-5.34-8.81-5.34,0,0,2.06,4.99,2.06,13.06v1.33h10.63"/>
        <path class="cls-1" d="M32.38,30.69c-2.86,1.23-5.9,2.37-9.06,2.26-2.47-.09-4.5-1.14-6.15-2.96-.83-.91-1.53-1.93-2.22-2.94-.49-.72-1.02-1.32-1.58-1.89.53,2.26,1.08,5.6,1.08,9.77v1.33h21.27v-1.33c0-2.2.15-4.17.38-5.88-1.25.52-2.47,1.12-3.71,1.65Z"/>
        <g>
          <path class="cls-6" d="M36.89,21.39c0,.75.61,1.36,1.36,1.36s1.36-.61,1.36-1.36-.61-1.36-1.36-1.36-1.36.61-1.36,1.36Z"/>
          <path class="cls-2" d="M37.39,20.34c-.01.08-.02.15-.02.24,0,.75.61,1.36,1.36,1.36.33,0,.62-.12.85-.31-.11.64-.66,1.12-1.33,1.12-.75,0-1.36-.61-1.36-1.36,0-.42.2-.8.5-1.05Z"/>
          <path class="cls-7" d="M37.93,20.49c0,.17.14.32.32.32s.32-.14.32-.32-.14-.32-.32-.32-.32.14-.32.32Z"/>
          <path class="cls-7" d="M38.7,20.64c0,.12.1.23.23.23s.23-.1.23-.23-.1-.23-.23-.23-.23.1-.23.23Z"/>
        </g>
        <path class="cls-10" d="M35.48,37.62H14.68c-.75,0-1.36-.61-1.36-1.36h0c0-.75.61-1.36,1.36-1.36h20.8c.75,0,1.36.61,1.36,1.36h0c0,.75-.61,1.36-1.36,1.36Z"/>
        <path class="cls-4" d="M35.48,36.26H14.68c-.5,0-.93-.27-1.17-.68-.12.2-.19.43-.19.68h0c0,.75.61,1.36,1.36,1.36h20.8c.75,0,1.36-.61,1.36-1.36h0c0-.25-.07-.48-.19-.68-.23.4-.67.68-1.17.68Z"/>
        <g>
          <path class="cls-10" d="M26.44,18.15c0,.75-.61,1.36-1.36,1.36s-1.36-.61-1.36-1.36.61-1.36,1.36-1.36,1.36.61,1.36,1.36Z"/>
          <path class="cls-4" d="M25.93,17.11c.01.08.02.15.02.24,0,.75-.61,1.36-1.36,1.36-.33,0-.62-.12-.85-.31.11.64.66,1.12,1.33,1.12.75,0,1.36-.61,1.36-1.36,0-.42-.2-.8-.5-1.05Z"/>
          <path class="cls-8" d="M25.4,17.25c0,.17-.14.32-.32.32s-.32-.14-.32-.32.14-.32.32-.32.32.14.32.32Z"/>
          <path class="cls-8" d="M24.63,17.41c0,.12-.1.23-.23.23s-.23-.1-.23-.23.1-.23.23-.23.23.1.23.23Z"/>
        </g>
        <g>
          <path class="cls-6" d="M13.27,21.39c0,.75-.61,1.36-1.36,1.36s-1.36-.61-1.36-1.36.61-1.36,1.36-1.36,1.36.61,1.36,1.36Z"/>
          <path class="cls-2" d="M12.77,20.34c.01.08.02.15.02.24,0,.75-.61,1.36-1.36,1.36-.33,0-.62-.12-.85-.31.11.64.66,1.12,1.33,1.12.75,0,1.36-.61,1.36-1.36,0-.42-.2-.8-.5-1.05Z"/>
          <path class="cls-7" d="M12.23,20.49c0,.17-.14.32-.32.32s-.32-.14-.32-.32.14-.32.32-.32.32.14.32.32Z"/>
          <path class="cls-7" d="M11.46,20.64c0,.12-.1.23-.23.23s-.23-.1-.23-.23.1-.23.23-.23.23.1.23.23Z"/>
        </g>
        <g>
          <path class="cls-1" d="M32.36,27.56c0,.15-.12.27-.27.27s-.27-.12-.27-.27.12-.27.27-.27.27.12.27.27Z"/>
          <path class="cls-1" d="M30.16,29.8c0,.12-.1.23-.23.23s-.23-.1-.23-.23.1-.23.23-.23.23.1.23.23Z"/>
          <circle class="cls-1" cx="30.47" cy="28.21" r=".18"/>
          <path class="cls-1" d="M29.33,30.87c0,.07-.06.14-.14.14s-.14-.06-.14-.14.06-.14.14-.14.14.06.14.14Z"/>
          <circle class="cls-1" cx="31.91" cy="28.93" r=".18"/>
          <path class="cls-3" d="M31.2,27.56s-.04.09-.09.09-.09-.04-.09-.09.04-.09.09-.09.09.04.09.09Z"/>
          <path class="cls-3" d="M29.14,29.43c0,.07-.06.14-.14.14s-.14-.06-.14-.14.06-.14.14-.14.14.06.14.14Z"/>
          <path class="cls-3" d="M26.16,26.9c0,.07-.06.14-.14.14s-.14-.06-.14-.14.06-.14.14-.14.14.06.14.14Z"/>
          <circle class="cls-3" cx="31.56" cy="30.23" r=".14"/>
          <polygon class="cls-3" points="32.81 26.56 32.86 26.15 32.9 26.56 33.31 26.6 32.9 26.65 32.86 27.06 32.81 26.65 32.4 26.6 32.81 26.56"/>
          <path class="cls-1" d="M24.92,24.72c0,.15-.12.27-.27.27s-.27-.12-.27-.27.12-.27.27-.27.27.12.27.27Z"/>
          <circle class="cls-1" cx="24.47" cy="26.09" r=".18"/>
          <polygon class="cls-3" points="25.37 23.71 25.42 23.3 25.46 23.71 25.87 23.76 25.46 23.8 25.42 24.21 25.37 23.8 24.96 23.76 25.37 23.71"/>
          <polygon class="cls-3" points="27.8 30.95 27.86 30.44 27.91 30.95 28.42 31 27.91 31.06 27.86 31.57 27.8 31.06 27.29 31 27.8 30.95"/>
          <path class="cls-1" d="M16.91,26.9c0,.15.12.27.27.27s.27-.12.27-.27-.12-.27-.27-.27-.27.12-.27.27Z"/>
          <circle class="cls-1" cx="20.3" cy="30.08" r=".23"/>
          <circle class="cls-1" cx="18.16" cy="27.16" r=".18"/>
          <path class="cls-1" d="M20.66,31.44c0,.07.06.14.14.14s.14-.06.14-.14-.06-.14-.14-.14-.14.06-.14.14Z"/>
          <circle class="cls-1" cx="17.36" cy="28.27" r=".18"/>
          <path class="cls-3" d="M17.98,26.26s.04.09.09.09.09-.04.09-.09-.04-.09-.09-.09-.09.04-.09.09Z"/>
          <path class="cls-3" d="M21.55,30.02c0,.07.06.14.14.14s.14-.06.14-.14-.06-.14-.14-.14-.14.06-.14.14Z"/>
          <path class="cls-3" d="M19.19,30.94c0,.07.06.14.14.14s.14-.06.14-.14-.06-.14-.14-.14-.14.06-.14.14Z"/>
          <polygon class="cls-3" points="16.46 25.9 16.41 25.49 16.37 25.9 15.96 25.94 16.37 25.99 16.41 26.39 16.46 25.99 16.86 25.94 16.46 25.9"/>
          <polygon class="cls-3" points="22.31 31.51 22.25 31 22.19 31.51 21.68 31.57 22.19 31.63 22.25 32.13 22.31 31.63 22.81 31.57 22.31 31.51"/>
        </g>
      </g>
    </g>
  </g>
</svg>