<?xml version="1.0" encoding="UTF-8"?>
<svg xmlns="http://www.w3.org/2000/svg" viewBox="0 0 55.7 59.67">
  <defs>
    <style>
      .cls-1 {
        fill: #5e2d87;
      }

      .cls-1, .cls-2 {
        mix-blend-mode: multiply;
        opacity: .5;
      }

      .cls-2 {
        fill: #43266c;
      }

      .cls-3 {
        fill: #2e8454;
      }

      .cls-4 {
        isolation: isolate;
      }

      .cls-5 {
        fill: #fff;
      }
    </style>
  </defs>
  <g class="cls-4">
    <g id="Camada_1" data-name="Camada 1">
      <path class="cls-5" d="M41.84,2.88c.13.09.13.25,0,.34-.12.1-.32.1-.45,0-.13-.09-.13-.25,0-.34.12-.1.32-.1.45,0Z"/>
      <path class="cls-5" d="M41.95,5.52c-.1-.12-.2-.24-.29-.36.08,0,.17.02.24.07.11.08.13.2.06.29Z"/>
      <path class="cls-5" d="M43.08,4.43s-.08-.03-.12-.05c-.07-.05-.1-.11-.1-.18.06.07.13.15.21.23Z"/>
      <path class="cls-5" d="M43.45,6.38c.13.09.13.25,0,.34-.12.1-.32.1-.45,0-.13-.09-.13-.25,0-.34.12-.1.32-.1.45,0Z"/>
      <g>
        <path class="cls-2" d="M18.23,37.38s1.14-2.35,2.53-3.74c0,0,.42,1.43.09,3.21,0,0-.11.69-2.62.53Z"/>
        <path class="cls-2" d="M11.31,34.2c-2.82-1-2.05-1.64.77-3l1.02.56s-.4,1.32-1.79,2.43Z"/>
        <path class="cls-2" d="M36,37.38s-1.14-2.35-2.53-3.74c0,0-.42,1.43-.09,3.21,0,0,.11.69,2.62.53Z"/>
        <path class="cls-2" d="M42.92,34.2c2.82-1,2.05-1.64-.77-3l-1.02.56s.4,1.32,1.79,2.43Z"/>
        <path class="cls-3" d="M43.74,24.85l2.11,2.39s.44,2.7-2.12,4.73c0,0,.41.26.88.66,0,0-1.87-.86-4.48,1.55-2.16,1.95-11.09,2.46-4.13,3.2-1.75,1.11-6.95-.11-8.89-.21-1.92.1-7.16,1.32-8.89.21,6.95-.74-1.97-1.24-4.13-3.2-2.61-2.41-4.48-1.55-4.48-1.55.47-.4.88-.66.88-.66-2.57-2.02-2.12-4.73-2.12-4.73l1.87-2.73c2.8,1.55,8.98,4.47,17.31,4.41,7.65-.05,13.38-2.59,16.18-4.07Z"/>
        <path class="cls-1" d="M8.59,29.26c.27.85.81,1.84,1.91,2.71,0,0,3.05-2.51,6.26-4.32-1.62.76-4.64,1.86-8.17,1.61Z"/>
        <path class="cls-1" d="M45.88,27.97c-3.66,1.26-8.61-.17-8.61-.17,3.78,1.77,6.66,4.17,6.66,4.17,1.85-1.46,1.98-3.3,1.95-4Z"/>
        <path class="cls-1" d="M22.46,34.65c-.6-2.28-2.12-4.41-2.12-4.41,0,0,.55,3.66.39,6.58h0c-.12.57-2.49.56-2.49.56,1.2.8,5.61.39,7.66-.14h0s-2.83-.32-3.43-2.59Z"/>
        <path class="cls-1" d="M31.29,30.68c.17.57.36,6.25-.99,6.88,1.53.76,5.64.02,5.71-.18,0,0-2.25,0-2.48-.51h0c-1.5-2.88-2.23-6.19-2.23-6.19Z"/>
        <path class="cls-1" d="M19.56,28.58s-1.54,1.63-2.8,4.46"/>
        <path class="cls-1" d="M34.47,28.92s1.6,1.89,2.4,3.55"/>
        <path class="cls-1" d="M26.64,29.41s-.73,2.59,0,3.63"/>
      </g>
    </g>
  </g>
</svg>