<?xml version="1.0" encoding="UTF-8"?>
<svg id="Camada_1" data-name="Camada 1" xmlns="http://www.w3.org/2000/svg" viewBox="0 0 55.7 59.67">
  <defs>
    <style>
      .cls-1 {
        fill: #9dc9ed;
      }

      .cls-2 {
        fill: #4889c8;
      }
    </style>
  </defs>
  <path class="cls-2" d="M28.89,9.89c-9.95,0-18.02,6.86-18.02,15.32,0,1.38.22,2.72.62,3.99h3.03c-.49-1.26-.75-2.59-.75-3.99,0-7.09,6.78-12.86,15.12-12.86s15.12,5.77,15.12,12.86c0,1.39-.26,2.73-.75,3.99h3.03c.4-1.27.62-2.61.62-3.99,0-8.46-8.06-15.32-18.02-15.32Z"/>
  <path class="cls-1" d="M16.58,34.05h0c.72.65.73,1.65.03,2.32h0c.56.75.33,1.73-.52,2.23v.03c.27.8-.33,1.62-1.29,1.77-.37.68-1.43.84-2.05.31h0c-.96.14-1.86-.46-1.93-1.29v-.02c-1-.23-1.61-1.09-1.38-1.94h0c-.92-.42-1.31-1.37-.9-2.19h0s0,0,0,0c-.83-.54-1.04-1.54-.47-2.29h0c-.72-.65-.73-1.65-.03-2.32h0c-.56-.75-.33-1.73.52-2.23v-.03c-.27-.8.33-1.62,1.29-1.77.37-.68,1.43-.84,2.05-.31h0c.96-.14,1.86.46,1.93,1.29v.02c1,.23,1.61,1.09,1.38,1.94h0c.92.42,1.31,1.37.9,2.19h0s0,0,0,0c.83.54,1.04,1.54.47,2.29Z"/>
  <path class="cls-1" d="M49.24,35.25h0c.41.82.02,1.77-.9,2.19h0c.22.86-.38,1.72-1.38,1.95v.03c-.08.83-.97,1.42-1.94,1.28-.62.53-1.68.37-2.05-.31h0c-.96-.15-1.56-.97-1.3-1.77v-.02c-.84-.51-1.06-1.49-.51-2.23h0c-.7-.67-.68-1.67.03-2.32h0s0,0,0,0c-.56-.75-.35-1.75.48-2.29h0c-.41-.82-.02-1.77.9-2.19h0c-.22-.86.38-1.72,1.38-1.95v-.03c.08-.83.97-1.42,1.94-1.28.62-.53,1.68-.37,2.05.31h0c.96.15,1.56.97,1.3,1.77v.02c.84.51,1.06,1.49.51,2.23h0c.7.67.68,1.67-.03,2.32h0s0,0,0,0c.56.75.35,1.75-.48,2.29Z"/>
</svg>