<?xml version="1.0" encoding="UTF-8"?>
<svg id="Camada_1" data-name="Camada 1" xmlns="http://www.w3.org/2000/svg" viewBox="0 0 55.7 59.67">
  <defs>
    <style>
      .cls-1 {
        fill: #3d3661;
      }

      .cls-2 {
        fill: #262242;
      }

      .cls-3 {
        fill: #3a345c;
      }

      .cls-4 {
        fill: #ebc0be;
      }

      .cls-5 {
        fill: #dbacaa;
      }

      .cls-6 {
        fill: #4b4470;
      }

      .cls-7 {
        fill: #1f1a38;
      }

      .cls-8 {
        fill: #d19f9d;
      }

      .cls-9 {
        fill: #302850;
      }
    </style>
  </defs>
  <path class="cls-3" d="M49.51,40.11c0,3.06-7.75,6.4-22.9,6.4-14.2,0-22.9-3.34-22.9-6.4,0-.9.9-1.76,2.49-2.51,1.95-.92,4.94-1.7,8.59-2.23.93-.13,1.9-.26,2.91-.36,2.74-.28,5.75-.44,8.91-.44,2.74,0,5.38.12,7.82.33,1.82.16,3.53.37,5.1.64,2.44.4,4.54.92,6.17,1.51,2.41.88,3.8,1.93,3.8,3.06Z"/>
  <path class="cls-6" d="M45.71,37.05c-3.63-.24-8.98.18-8.99.25,0,0-1.14-.33-1.77-.55-.41-.15-.41-.9-.52-1.84,1.82.16,3.53.37,5.1.64,2.44.4,4.54.92,6.17,1.51Z"/>
  <path class="cls-6" d="M17.42,36.59c-.99.68-3.37.71-3.37.71,0,0-1.83-.43-4.53,0-2.61.41-3.46.82-3.51.85,0-.02.07-.24.17-.55,1.95-.92,4.94-1.7,8.59-2.23.93-.13,1.9-.26,2.91-.36.44.69.31,1.17-.27,1.58Z"/>
  <path class="cls-7" d="M49.51,40.11c0,3.06-7.75,6.4-22.9,6.4-14.2,0-22.9-3.34-22.9-6.4,0-2.01,4.44-3.77,11.08-4.74l-.02.29s-2.77.49-4.17.84c-1.4.35-4.2,1.09-5.37,2.25-1.51,1.5-.18,2.56,1.17,3.41,1.35.85,4.23,1.95,8.65,2.68,4.41.73,8.83.97,13.61.92,4.78-.05,8.26-.61,10.59-.97,2.34-.36,9.71-2.36,9.29-5.03-.41-2.67-9.17-4.11-9.17-4.11,0,0,.06-.04.17-.12,6.03,1,9.98,2.67,9.98,4.57Z"/>
  <path class="cls-3" d="M40.02,38.82s-13.63,1.82-13.8,1.82c-.04-.02-12.34-2.19-12.34-2.19,0,0,2.48-12.73,4.85-15.15,1.67-1.71,3.51-.57,5.4.47.79.43,1.58.85,2.37,1.03,1.37.31,2.58-.28,3.65-.97,1.04-.67,1.96-1.43,2.8-1.56,1.71-.25,3.14.88,4.35,4.65,1.22,3.76,2.71,11.92,2.71,11.92Z"/>
  <path class="cls-9" d="M19.98,36.02s1.83-3.14,2.26-5.11c.43-1.97-.16-4.37.86-4.41,1.01-.04,3,.77,4.44.73,1.44-.04,2.88-1.06,3.89-.91,1.01.15.74,1.82.82,3.72.08,1.89,2.06,5.53,2.06,5.53,0,0-4.52,2.03-5.57,2.04-1.05,0-8.76-1.58-8.76-1.58Z"/>
  <path class="cls-9" d="M14.73,36.02s-6.36.7-6.79,3.92c-.43,3.21,11.94,4.56,19.47,4.56,4.52,0,18.69-1.49,18.42-4.5-.27-3.01-6.48-3.5-6.48-3.5l-24.63-.49Z"/>
  <path class="cls-2" d="M22.98,36.25s1.19-1.28,1.48-3.01c.29-1.73-.1-3.77.75-4.31.86-.53,4.11-.48,4.39-.19.88.92.13,3.34.44,4.5.31,1.16,1.97,2.62,1.97,2.62,0,0-7.45,1.09-7.53,1.09s-1.51-.7-1.51-.7Z"/>
  <path class="cls-2" d="M14.05,37.6s0,5.21,12.56,5.22c13.09.01,13.09-5.64,13.09-5.64l-25.65.42Z"/>
  <g>
    <path class="cls-8" d="M15.05,33.24s2.78,2.37,10.82,2.57c8.72.21,13.04-2.57,13.04-2.57l.81,3.94s-4.81,3.15-13.84,2.71c-9.04-.44-11.81-2.29-11.81-2.29l.99-4.36Z"/>
    <g>
      <path class="cls-5" d="M17.14,36.81c-.19,1.11.57,1.73.57,1.73,0,0-.88-.22-1.64-.48-.38-.13-.81-.31-1.14-.47-.32-.15-.55-.26-.55-.26l.84-3.57s.21.1.54.26c.26.12.58.28.92.44.76.37,2.01.73,2.01.73,0,0-1.27.06-1.54,1.6Z"/>
      <path class="cls-4" d="M15.75,34.03l-.83,3.57c-.32-.15-.55-.26-.55-.26l.84-3.57s.21.1.54.26Z"/>
    </g>
    <g>
      <path class="cls-5" d="M36.72,36.74c.19,1.11-.82,1.67-.82,1.67,0,0,.84-.22,1.82-.6.38-.15.83-.36,1.16-.51.32-.15.55-.26.55-.26l-.78-3.34s-.21.1-.54.26c-.26.12-.58.28-.92.44-.76.37-2.01.73-2.01.73,0,0,1.26.06,1.54,1.6Z"/>
      <path class="cls-4" d="M38.11,33.96l.77,3.34c.32-.15.55-.26.55-.26l-.78-3.34s-.21.1-.54.26Z"/>
    </g>
  </g>
  <path class="cls-9" d="M17.6,27.35c-.23-.67.27-3.01,1.91-2.99,1.64.02,2.47,3.39,1.97,4.39-.51,1-3.64-.73-3.88-1.4Z"/>
  <path class="cls-9" d="M36.69,27.35c.23-.67-.27-3.01-1.91-2.99-1.64.02-2.47,3.39-1.97,4.39.51,1,3.64-.73,3.88-1.4Z"/>
  <path class="cls-1" d="M18.47,24.95c-.39.47-.86,1.47.87,2.28,1.71.8,2.17-.78,1.41-1.73-.76-.96-1.71-1.24-2.28-.55Z"/>
  <path class="cls-1" d="M35.84,24.95c.39.47.86,1.47-.87,2.28-1.71.8-2.17-.78-1.41-1.73.76-.96,1.71-1.24,2.28-.55Z"/>
  <path class="cls-6" d="M22.36,23.89c-.54-.51-.8-1.28-1.5-.92-.55.28,1.05,2.39,2.9,3.21,1.85.82,3.64.9,5.29.51,1.66-.39,3.74-1.88,4.23-2.31.49-.44,1.17-1.13.64-1.4-.53-.27-1.27.84-2.4,1.59s-2.96,1.88-4.92,1.63c-1.96-.26-3.5-1.57-4.26-2.3Z"/>
  <path class="cls-2" d="M30.15,23.82c-.46.91-1.36,1.9-3.08,1.82-1.72-.08-2.54-1-2.94-1.87.79.43,1.58.85,2.37,1.03,1.37.31,2.58-.28,3.65-.97Z"/>
</svg>