<?xml version="1.0" encoding="UTF-8"?>
<svg id="Camada_1" data-name="Camada 1" xmlns="http://www.w3.org/2000/svg" viewBox="0 0 55.7 58.23">
  <defs>
    <style>
      .cls-1, .cls-2 {
        fill: #231f20;
      }

      .cls-2 {
        opacity: .47;
      }
    </style>
  </defs>
  <path class="cls-1" d="M45.41,18.72h-2.69c-2.76-3.09-7.51-3.35-10.6-.59-.31.28-.6.58-.86.91-2.19-1.32-4.92-1.36-7.15-.1-2.64-3.2-7.38-3.65-10.58-1-.29.24-.56.5-.81.78h-2.69c-.36,0-.65.3-.64.67,0,.35.29.64.64.64h1.75c-2.82,4.81.92,11.24,6.53,11.13,4.13,0,7.48-3.34,7.49-7.47,0-1.28-.33-2.54-.95-3.66,1.78-.98,3.94-.94,5.68.1-2.72,4.81,1.03,11.14,6.59,11.03,5.61.11,9.36-6.33,6.53-11.13h1.75c.36,0,.65-.3.64-.67,0-.35-.29-.64-.64-.64ZM18.32,29.85c-3.41,0-6.17-2.77-6.18-6.18.34-8.19,12.01-8.19,12.35,0,0,3.41-2.77,6.17-6.18,6.18ZM37.12,29.85c-3.41,0-6.17-2.77-6.18-6.18.34-8.19,12.01-8.19,12.35,0,0,3.41-2.77,6.17-6.18,6.18h0Z"/>
  <ellipse class="cls-2" cx="18.47" cy="23.46" rx="6.33" ry="6.8"/>
  <ellipse class="cls-2" cx="37.3" cy="23.46" rx="6.33" ry="6.8"/>
</svg>