<?xml version="1.0" encoding="UTF-8"?>
<svg id="Camada_1" data-name="Camada 1" xmlns="http://www.w3.org/2000/svg" xmlns:xlink="http://www.w3.org/1999/xlink" viewBox="0 0 55.7 56">
  <defs>
    <style>
      .cls-1 {
        fill: #010101;
      }

      .cls-2 {
        fill: url(#Gradiente_sem_nome_8);
      }

      .cls-3 {
        fill: #926cac;
      }

      .cls-4 {
        fill: #324395;
      }

      .cls-5 {
        fill: #353039;
      }

      .cls-6 {
        opacity: .31;
      }

      .cls-7 {
        fill: #dc9bc3;
      }

      .cls-8 {
        fill: #ececed;
        stroke: #0e0915;
        stroke-miterlimit: 10;
        stroke-width: .25px;
      }

      .cls-9 {
        fill: #252128;
      }
    </style>
    <linearGradient id="Gradiente_sem_nome_8" data-name="Gradiente sem nome 8" x1="31.1" y1="48.31" x2="31.1" y2="9.54" gradientTransform="translate(-1.36 .11) rotate(-.05) scale(.97 .98) skewX(-.1)" gradientUnits="userSpaceOnUse">
      <stop offset="0" stop-color="#b5dfe7"/>
      <stop offset=".4" stop-color="#b3dde5"/>
      <stop offset=".55" stop-color="#add6e1"/>
      <stop offset=".65" stop-color="#a4cad9"/>
      <stop offset=".74" stop-color="#96b9ce"/>
      <stop offset=".81" stop-color="#84a3bf"/>
      <stop offset=".87" stop-color="#6e88ad"/>
      <stop offset=".93" stop-color="#546898"/>
      <stop offset=".98" stop-color="#374380"/>
      <stop offset="1" stop-color="#293275"/>
    </linearGradient>
  </defs>
  <g>
    <path class="cls-4" d="M19.23,44.14h9.42c-.25,1.2-.49,2.4-.74,3.61-.14,1.79-1.55,3.23-3.32,3.4-1.75.17-3.4-.94-3.9-2.64-.49-1.46-.97-2.91-1.46-4.37Z"/>
    <path class="cls-4" d="M28.65,44.14h9.42c-.25,1.2-.49,2.4-.74,3.61-.14,1.79-1.55,3.23-3.32,3.4-1.75.17-3.4-.94-3.9-2.64-.49-1.46-.97-2.91-1.46-4.37Z"/>
    <path class="cls-4" d="M13.87,25.65l.17,9.42c-1.21-.22-2.41-.45-3.62-.67-1.79-.1-3.26-1.49-3.46-3.26-.2-1.75.88-3.41,2.57-3.95,1.45-.51,2.9-1.03,4.34-1.54Z"/>
    <path class="cls-4" d="M44.18,35.07l-.15-9.42c1.21.23,2.41.46,3.62.68,1.79.11,3.25,1.5,3.45,3.27.2,1.75-.89,3.41-2.58,3.94-1.45.51-2.9,1.02-4.35,1.53Z"/>
  </g>
  <path class="cls-2" d="M20.57,12.08c-.35.21-.18,1.19-.49,1.41-.34.23-1.06-.1-1.36.14-.32.25-.94.17-1.23.42-.31.27.1,1.31-.17,1.57-.3.3-1.01.16-1.26.43-.29.32-.56.63-.78.9-.25.32-.32.77-.53,1.08-.23.33-.61.56-.81.89-.21.34-.67.55-.85.89s.26,1.02.09,1.37-.5.63-.66.98-.06.82-.22,1.18c-.14.34-.12.72-.26,1.04s-.01.73-.13,1.06-.46.55-.56.89-.24.62-.33.98c-.07.33-1.11.5-1.17.86-.06.4.08.85.04,1.23-.03.41-.14.83-.15,1.2,0,.42.05.84.07,1.21.02.43.29.82.34,1.17.05.32.44.62.52.99.07.33-.1.73,0,1.08.09.33-.25.82-.14,1.17.11.33.93.42,1.06.77.13.34.78.42.92.73.15.33-.79,1.17-.64,1.47.17.33.38.64.55.93.19.32.45.59.63.86.17.27.43.61.71.97.22.28,1.03.11,1.31.42.25.27.68.33.99.6.28.25.5.51.82.75.3.23.06,1.26.4,1.47.32.2.76.22,1.08.38.34.17.58.61.91.74.36.15.97-.43,1.3-.33.37.12.64.51.98.58.39.09.68.73,1.01.77.43.06.84.07,1.13.09.39.03.84-.84,1.24-.82s.77.06,1.18.07.78.28,1.18.28.77-.65,1.18-.66c.4,0,.83,1.21,1.22,1.19s.74-.91,1.12-.94.88.87,1.26.83.7-.82,1.08-.87.8.02,1.18-.04.67-.7,1.05-.76c.39-.07.92.58,1.29.51.3-.06.42-.8.75-.92.29-.1.68.07,1-.08.28-.13.47-.46.77-.62.28-.15.64-.15.93-.33.33-.2,1.05.17,1.35-.05.32-.23-.11-1.37.17-1.61.3-.26,1.24.21,1.5-.05.28-.28.71-.45.95-.73.26-.31.02-1.01.23-1.29.25-.34.69-.51.87-.79.19-.35-.1-.94.07-1.28.18-.36.13-.78.28-1.12.15-.37.55-.61.67-.96.13-.38.32-.71.42-1.07.11-.39.89-.61.96-.97.08-.4-1.04-.98-.99-1.34.05-.41.2-.74.22-1.09.02-.42.85-.79.84-1.13-.01-.46-.28-.84-.31-1.14-.04-.35-.83-.56-.89-.89-.06-.35.25-.74.18-1.06-.08-.36.15-.77.06-1.07-.11-.39-.56-.6-.65-.85-.13-.36.2-.89.06-1.24s-.54-.61-.68-.95c-.15-.36-.74-.51-.89-.84-.16-.36-.26-.71-.41-1.04-.17-.35.08-.88-.09-1.2-.19-.35.11-.96-.08-1.26-.16-.25-1.23,0-1.44-.33-.18-.27.22-.96,0-1.27-.19-.27-.3-.64-.53-.93-.21-.27-.53-.47-.77-.75-.23-.26-.06-.94-.32-1.19-.18-.18-1.08.16-1.45-.18-.25-.23-.77-.19-1.11-.46-.28-.23-.15-1.02-.49-1.26-.3-.21-.63-.44-.98-.65-.32-.2-.54-.65-.89-.83-.33-.18-.96.21-1.33.06s-.53-.76-.91-.89-.97.55-1.35.45-.62-.65-1.02-.72-.7-.76-1.1-.8-.83.72-1.23.72c-.37,0-.71.3-1.06.32-.37.03-.67.3-1.02.35-.37.05-.94-1.06-1.28-.98-.37.08-.65.55-.99.65-.36.11-.89-.23-1.22-.1-.36.14-.37,1.1-.68,1.24-.36.16-.44.74-.74.89-.37.2-1.25-.62-1.5-.46Z"/>
  <g class="cls-6">
    <path class="cls-3" d="M20.45,12.44c-.35.21-.09,1.32-.41,1.54-.34.23-.76.28-1.06.51-.32.25-.94.13-1.22.38-.31.27-.39.77-.66,1.03-.3.3-1.16.04-1.41.31-.29.32.23,1.29.01,1.56-.25.32-.98.25-1.2.56-.23.33-.76.48-.96.81-.21.34.45,1.18.27,1.51s-1.37.2-1.54.54-.18.8-.33,1.16-.3.72-.46,1.08c-.14.34.1.82-.03,1.14s-.52.57-.64.9-.43.62-.53.97.72.92.64,1.27c-.07.33-.45.6-.51.97-.06.4-.2.78-.24,1.16-.03.41-.43.8-.43,1.18,0,.42.69.8.71,1.17.02.43.04.8.08,1.15.05.32-.04.69.04,1.05.07.33.05.69.14,1.05.09.33-.4.86-.28,1.21.11.33.17.72.31,1.06.13.34,1.02.36,1.16.67.15.33.82.37.97.67.17.33-.42,1.03-.25,1.32.19.32.96.24,1.14.51.17.27.41.53.69.89.22.28-.27,1.19.02,1.5.25.27,1.03.04,1.34.32.28.25-.02,1.24.3,1.48.3.23,1.14-.28,1.48-.06.32.2.72.17,1.04.33.34.17.52.58.85.71.36.15.76.02,1.1.12.37.12.71.12,1.04.19.39.09.65.59.98.63.43.06.77.41,1.06.43.39.03.82-.52,1.22-.49s.77,0,1.18,0,.78-.22,1.18-.22.79.78,1.19.77c.4,0,.81.31,1.19.29s.71-1.14,1.1-1.17.77-.07,1.15-.11.94,1.25,1.32,1.2.79-.2,1.17-.25.75-.37,1.12-.44c.39-.07.81-.03,1.18-.1.3-.06.38-1.02.71-1.14.29-.1.94.63,1.26.49.28-.13.22-1.03.52-1.19.28-.15.62-.19.92-.37.33-.2.32-.84.62-1.06.32-.23.62-.37.9-.61.3-.26,1.41.38,1.67.12.28-.28.51-.65.74-.93.26-.31-.14-1.12.07-1.41.25-.34.25-.75.42-1.03.19-.35.45-.61.62-.95.18-.36.14-.77.28-1.12.15-.37,1.09-.42,1.21-.77.13-.38-.63-1.01-.53-1.37.11-.39,1.48-.45,1.55-.82.08-.4-.82-.96-.77-1.32.05-.41-.14-.78-.12-1.14.02-.42.75-.78.74-1.13-.01-.46.13-.88.09-1.18-.04-.35-.93-.56-.99-.89-.06-.35-.31-.62-.38-.94-.08-.36.53-.85.44-1.15-.11-.39-.73-.53-.82-.79-.13-.36-.35-.68-.48-1.02s.19-.89.05-1.23c-.15-.36-.03-.82-.18-1.15-.16-.36-.84-.45-1-.78-.17-.35-.08-.81-.25-1.13-.19-.35-.3-.71-.48-1.01-.16-.25-.89-.2-1.11-.54-.18-.27.08-.85-.13-1.16-.19-.27-.52-.45-.75-.74-.21-.27-.5-.46-.74-.74-.23-.26.09-1.04-.17-1.3-.18-.18-.51-.44-.89-.78-.25-.23-.71-.31-1.05-.58-.28-.23-.67-.36-1-.6-.3-.21-.92.07-1.27-.15-.32-.2-.23-1.11-.59-1.29-.33-.18-.69-.36-1.06-.52s-.7-.38-1.07-.51-.66-.61-1.04-.71-.87.18-1.26.12-.82.28-1.22.24-.76.1-1.16.1c-.37,0-.71.1-1.06.13-.37.03-.69.18-1.04.23-.37.05-.84-.56-1.18-.48-.37.08-.8-.05-1.14.06-.36.11-.34,1.27-.67,1.39-.36.14-1.21-.97-1.52-.82-.36.16-.65.47-.94.63-.37.2-.71.4-.96.55Z"/>
  </g>
  <g>
    <path class="cls-9" d="M26.38,36.64c-.1-.19-.13-.36-.08-.4.06-.05.23.04.41.22.23.19.77.58,1.56.7,1.06.16,1.86-.27,2.11-.42.03-.02.07-.05.1-.07.02-.02.12-.14.29-.14.08,0,.14.03.17.05-.06.12-.16.29-.32.46-.05.05-.23.29-.55.42-.26.1-.63.21-1.09.24-.7.05-1.25-.12-1.57-.24-.21-.1-.47-.26-.72-.5-.12-.11-.22-.23-.31-.34Z"/>
    <path class="cls-5" d="M19.32,21.2c-.1.05-.14.16-.1.23.04.08.17.12.28.05.22-.14.61-.33,1.11-.36.03,0,.13,0,.27,0,.26.02.74.09,1.33.46.11.08.24.1.29.05.07-.06.06-.24-.09-.39-.13-.13-.65-.58-1.45-.62-.91-.05-1.52.48-1.64.59Z"/>
    <path class="cls-5" d="M35.48,21.36c-.08.02-.16,0-.21-.07-.05-.08-.03-.19.05-.26.07-.06.18-.14.32-.22.48-.24.98-.14,1.42-.06.21.04.49.11.81.25.05.01.43.14.46.38,0,.06,0,.16-.06.19-.05.02-.11-.01-.16-.04-.09-.06-.23-.13-.42-.21-.13-.06-.32-.12-.55-.17-.12-.02-.26-.05-.45-.04-.23,0-.34.06-.66.14-.13.03-.32.07-.55.11Z"/>
    <ellipse class="cls-7" cx="24.35" cy="36.98" rx=".47" ry=".53"/>
    <path class="cls-7" d="M33.84,35.93c-.19.04-.35.23-.35.23h0c-.14.3-.06.61.14.75.2.13.46.03.48.02.04-.02.23-.1.31-.31.06-.14.04-.27.03-.33,0-.06-.02-.13-.07-.2-.1-.15-.32-.21-.54-.16Z"/>
    <ellipse class="cls-8" cx="36.8" cy="28.82" rx="6.06" ry="4.62" transform="translate(3.45 61.57) rotate(-82.55)"/>
    <ellipse class="cls-8" cx="20.85" cy="28.82" rx="6.06" ry="4.62" transform="translate(-9.19 47.87) rotate(-86.49)"/>
    <ellipse class="cls-1" cx="21.88" cy="28.97" rx="3.41" ry="4.65" transform="translate(-1.8 1.45) rotate(-3.64)"/>
    <ellipse class="cls-1" cx="35.46" cy="29.19" rx="4.65" ry="3.41" transform="translate(4.08 62.73) rotate(-86.36)"/>
  </g>
</svg>