<?xml version="1.0" encoding="UTF-8"?>
<svg id="Camada_1" data-name="Camada 1" xmlns="http://www.w3.org/2000/svg" xmlns:xlink="http://www.w3.org/1999/xlink" viewBox="0 0 178.17 122.83">
  <defs>
    <style>
      .cls-1 {
        fill: #010101;
      }

      .cls-2 {
        fill: url(#Gradiente_sem_nome_3);
      }

      .cls-3 {
        fill: #8a64a5;
        font-family: SourGummy-Black, 'Sour Gummy';
        font-size: 146.47px;
        font-variation-settings: 'wdth' 100, 'wght' 900;
        font-weight: 800;
      }

      .cls-4 {
        fill: #353039;
      }

      .cls-5 {
        fill: #dc9bc3;
      }

      .cls-6 {
        fill: #ececed;
        stroke: #0e0915;
        stroke-miterlimit: 10;
        stroke-width: .25px;
      }

      .cls-7 {
        fill: #252128;
      }

      .cls-8 {
        fill: #6e5085;
      }
    </style>
    <linearGradient id="Gradiente_sem_nome_3" data-name="Gradiente sem nome 3" x1="37.52" y1="115.99" x2="37.52" y2="77.01" gradientTransform="translate(-8.66 -5.31) rotate(-.05) scale(.97 .98) skewX(-.1)" gradientUnits="userSpaceOnUse">
      <stop offset="0" stop-color="#c5b1d4"/>
      <stop offset=".43" stop-color="#c3afd2"/>
      <stop offset=".59" stop-color="#bea8ce"/>
      <stop offset=".7" stop-color="#b49cc7"/>
      <stop offset=".79" stop-color="#a78bbe"/>
      <stop offset=".87" stop-color="#9675b1"/>
      <stop offset=".94" stop-color="#815ba1"/>
      <stop offset="1" stop-color="#683b8e"/>
      <stop offset="1" stop-color="#673a8e"/>
    </linearGradient>
  </defs>
  <g>
    <g>
      <g>
        <path class="cls-8" d="M17.6,105.08h9.42c-.25,1.2-.49,2.4-.74,3.61-.14,1.79-1.55,3.23-3.32,3.4-1.75.17-3.4-.94-3.9-2.64-.49-1.46-.97-2.91-1.46-4.37Z"/>
        <path class="cls-8" d="M27.02,105.08h9.42c-.25,1.2-.49,2.4-.74,3.61-.14,1.79-1.55,3.23-3.32,3.4-1.75.17-3.4-.94-3.9-2.64-.49-1.46-.97-2.91-1.46-4.37Z"/>
        <path class="cls-8" d="M12.24,86.59l.17,9.42c-1.21-.22-2.41-.45-3.62-.67-1.79-.1-3.26-1.49-3.46-3.26-.2-1.75.88-3.41,2.57-3.95,1.45-.51,2.9-1.03,4.34-1.54Z"/>
        <path class="cls-8" d="M42.55,96.01l-.15-9.42c1.21.23,2.41.46,3.62.68,1.79.11,3.25,1.5,3.45,3.27.2,1.75-.89,3.41-2.58,3.94-1.45.51-2.9,1.02-4.35,1.53Z"/>
      </g>
      <path class="cls-2" d="M18.91,72.98c-.35.21-.02,1.42-.34,1.63-.34.23-1.33-.46-1.63-.23-.32.25-.44.76-.72,1.01-.31.27-.01,1.15-.28,1.41-.3.3-1.41-.23-1.66.04-.29.32-.07,1.04-.28,1.31-.25.32-.51.6-.73.91-.23.33-.55.59-.75.91-.21.34-.05.87-.23,1.2s-.19.76-.36,1.11-1.46.19-1.62.54.19.94.04,1.3c-.14.34-.51.57-.64.89s0,.77-.13,1.1-.32.63-.43.98-.23.67-.31,1.03c-.07.33.61.81.55,1.17-.06.4-.37.73-.4,1.11-.03.41-.16.78-.17,1.15,0,.42.54.77.56,1.14.02.43.03.76.07,1.11.05.32-.61.77-.53,1.14.07.33.5.58.6.93.09.33-.77.96-.66,1.31.11.33,1.4.25,1.53.59.13.34-.63,1.03-.49,1.34.15.33.26.69.42.99.17.33,1.25.12,1.42.41.19.32-.57,1.19-.39,1.46.17.27.81.32,1.09.68.22.28.8.27,1.08.59.25.27.16.88.47,1.16.28.25.45.67.78.92.3.23.47.73.82.95.32.2.71.36,1.02.52.34.17.8.12,1.13.26.36.15.8.03,1.14.14.37.12.58.89.91.97.39.09.88-.34,1.21-.29.43.06.85-.45,1.14-.44.39.03.78-.01,1.19.01s.77.23,1.17.24.78.59,1.18.59.79-.18,1.2-.19c.4,0,.76-.65,1.14-.67s.86,1.12,1.25,1.09.72-.9,1.1-.94.75-.34,1.13-.39.82.22,1.2.16.75-.28,1.12-.35c.39-.07.81.06,1.18-.02.3-.06.59-.21.93-.33.29-.1.78.19,1.1.04.28-.13.13-1.16.44-1.33.28-.15.62-.16.91-.34.33-.2,1.05.19,1.34-.03.32-.23.75-.34,1.03-.58.3-.26.24-.91.5-1.17.28-.28.59-.52.82-.79.26-.31-.08-1.03.13-1.32.25-.34.45-.58.63-.86.19-.35.82-.42.99-.76.18-.36.23-.75.38-1.09.15-.37.04-.81.16-1.16.13-.38.71-.59.81-.94.11-.39.25-.75.32-1.11.08-.4-.02-.81.03-1.17.05-.41.79-.74.81-1.1.02-.42-.44-.84-.45-1.19-.01-.46-.42-.81-.45-1.11-.04-.35.86-.83.8-1.17-.06-.35-.97-.54-1.04-.86-.08-.36.51-.88.43-1.18-.11-.39-.8-.55-.89-.8-.13-.36-.2-.74-.34-1.09s-.05-.81-.19-1.15c-.15-.36-.5-.62-.65-.96-.16-.36-.73-.5-.89-.83-.17-.35.06-.88-.11-1.2-.19-.35-.94-.32-1.13-.63-.16-.25-.21-.62-.43-.96-.18-.27.45-1.12.23-1.43-.19-.27-.92-.18-1.15-.47-.21-.27-.5-.48-.74-.75-.23-.26-.57-.4-.83-.65-.18-.18-.66-.22-1.04-.56-.25-.23.02-1.12-.31-1.39-.28-.23-.72-.29-1.06-.53-.3-.21-.54-.56-.89-.77-.32-.2-.8-.13-1.15-.32-.33-.18-.82,0-1.19-.15s-.62-.43-.99-.56-.42-1.29-.81-1.39-.87.2-1.26.13-.83.42-1.23.38-.74-1.09-1.14-1.09c-.37,0-.76.45-1.12.47-.37.03-.67.64-1.03.69-.37.05-.76-.14-1.11-.06-.37.08-.93-.52-1.27-.42-.36.11-.76.24-1.08.36-.36.14-.37,1.1-.68,1.24-.36.16-.97-.23-1.26-.07-.37.2-.71.39-.97.54Z"/>
    </g>
    <g>
      <path class="cls-7" d="M24.75,97.58c-.1-.19-.13-.36-.08-.4.06-.05.23.04.41.22.23.19.77.58,1.56.7,1.06.16,1.86-.27,2.11-.42.03-.02.07-.05.1-.07.02-.02.12-.14.29-.14.08,0,.14.03.17.05-.06.12-.16.29-.32.46-.05.05-.23.29-.55.42-.26.1-.63.21-1.09.24-.7.05-1.25-.12-1.57-.24-.21-.1-.47-.26-.72-.5-.12-.11-.22-.23-.31-.34Z"/>
      <path class="cls-4" d="M17.69,82.14c-.1.05-.14.16-.1.23.04.08.17.12.28.05.22-.14.61-.33,1.11-.36.03,0,.13,0,.27,0,.26.02.74.09,1.33.46.11.08.24.1.29.05.07-.06.06-.24-.09-.39-.13-.13-.65-.58-1.45-.62-.91-.05-1.52.48-1.64.59Z"/>
      <path class="cls-4" d="M33.85,82.3c-.08.02-.16,0-.21-.07-.05-.08-.03-.19.05-.26.07-.06.18-.14.32-.22.48-.24.98-.14,1.42-.06.21.04.49.11.81.25.05.01.43.14.46.38,0,.06,0,.16-.06.19-.05.02-.11-.01-.16-.04-.09-.06-.23-.13-.42-.21-.13-.06-.32-.12-.55-.17-.12-.02-.26-.05-.45-.04-.23,0-.34.06-.66.14-.13.03-.32.07-.55.11Z"/>
      <ellipse class="cls-5" cx="22.72" cy="97.92" rx=".47" ry=".53"/>
      <path class="cls-5" d="M32.21,96.87c-.19.04-.35.23-.35.23h0c-.14.3-.06.61.14.75.2.13.46.03.48.02.04-.02.23-.1.31-.31.06-.14.04-.27.03-.33,0-.06-.02-.13-.07-.2-.1-.15-.32-.21-.54-.16Z"/>
      <ellipse class="cls-6" cx="35.17" cy="89.76" rx="6.06" ry="4.62" transform="translate(-58.4 112.99) rotate(-82.55)"/>
      <ellipse class="cls-6" cx="19.22" cy="89.76" rx="6.06" ry="4.62" transform="translate(-71.55 103.46) rotate(-86.49)"/>
      <ellipse class="cls-1" cx="20.25" cy="89.91" rx="3.41" ry="4.65" transform="translate(-5.67 1.47) rotate(-3.64)"/>
      <ellipse class="cls-1" cx="33.83" cy="90.13" rx="4.65" ry="3.41" transform="translate(-58.27 118.17) rotate(-86.36)"/>
    </g>
  </g>
  <text class="cls-3" transform="translate(5.5 -25.26)"><tspan x="0" y="0">Y</tspan></text>
  <text class="cls-3" transform="translate(80.78 -21.36)"><tspan x="0" y="0">U</tspan></text>
  <text class="cls-3" transform="translate(5.5 115.86)"><tspan x="0" y="0">Y</tspan></text>
  <text class="cls-3" transform="translate(83.14 115.86)"><tspan x="0" y="0">U</tspan></text>
</svg>