<?xml version="1.0" encoding="UTF-8"?>
<svg id="Camada_1" data-name="Camada 1" xmlns="http://www.w3.org/2000/svg" xmlns:xlink="http://www.w3.org/1999/xlink" viewBox="0 0 159.64 96.08">
  <defs>
    <linearGradient id="Gradiente_sem_nome" data-name="Gradiente sem nome" x1="156.63" y1="-17.8" x2="156.63" y2="21.17" gradientTransform="translate(-32.07 54.73) rotate(-.05) scale(.97 -.98) skewX(.1)" gradientUnits="userSpaceOnUse">
      <stop offset="0" stop-color="#c5b1d4"/>
      <stop offset=".43" stop-color="#c3afd2"/>
      <stop offset=".59" stop-color="#bea8ce"/>
      <stop offset=".7" stop-color="#b49cc7"/>
      <stop offset=".79" stop-color="#a78bbe"/>
      <stop offset=".87" stop-color="#9675b1"/>
      <stop offset=".94" stop-color="#815ba1"/>
      <stop offset="1" stop-color="#683b8e"/>
      <stop offset="1" stop-color="#673a8e"/>
    </linearGradient>
  </defs>
  <g style="isolation: isolate;">
    <g style="isolation: isolate;">
      <path d="M36.07,64.59c-9.28-1.17-16.84-4.2-22.7-9.08-5.86-4.88-9.81-11.25-11.86-19.11C-.55,28.54-.5,19.72,1.65,9.96c.78-1.95,1.71-3.56,2.78-4.83,1.07-1.27,2.54-2.29,4.39-3.08,1.85-.78,4.25-.93,7.18-.44,3.32.49,5.86,1.42,7.62,2.78,1.76,1.37,3,2.81,3.74,4.32.73,1.51,1.24,3.39,1.54,5.64-.39,8.3-.32,14.6.22,18.89.54,4.3,1.88,6.69,4.03,7.18,1.07.1,2.37-.51,3.88-1.83,1.51-1.32,2.95-3.17,4.32-5.57,1.37-2.39,2.42-5.13,3.15-8.2s.85-6.27.37-9.59c-.39-2.25-.46-4.17-.22-5.79.24-1.61,1-3.15,2.27-4.61,1.27-1.46,3.42-2.49,6.44-3.08,3.52-.68,6.47-.58,8.86.29,2.39.88,4.3,2.05,5.71,3.52,1.41,1.46,2.76,3.42,4.03,5.86,1.27,5.47,1.63,11.13,1.1,16.99-.54,5.86-2.17,11.4-4.91,16.62-2.73,5.22-6.74,9.59-12.01,13.11-5.27,3.51-11.96,5.66-20.07,6.44ZM37.24,95.06c-2.93,0-5.32-.54-7.18-1.61-1.86-1.07-3.32-2.29-4.39-3.66-1.08-1.37-2.05-3.12-2.93-5.27-1.08-5.76-1.56-11.47-1.46-17.14.1-5.66.44-11.13,1.03-16.41l27.1.73c-.59,6.35-.86,12.48-.81,18.38.05,5.91.32,11.16.81,15.75-.29,1.86-.81,3.39-1.54,4.61-.73,1.22-1.93,2.29-3.59,3.22-1.66.93-4,1.39-7.03,1.39Z" style="fill: #8a64a5;"/>
    </g>
  </g>
  <g style="isolation: isolate;">
    <g style="isolation: isolate;">
      <path d="M119.06,96.08c-8.4-.59-15.72-2.68-21.97-6.3-6.25-3.61-11.16-9.06-14.72-16.33-3.56-7.27-5.54-16.67-5.93-28.2V8.64c.49-1.76,1.1-3.2,1.83-4.32.73-1.12,1.88-2.12,3.44-3,1.56-.88,3.71-1.32,6.45-1.32,3.71,0,6.66.64,8.86,1.9,2.2,1.27,3.83,2.74,4.91,4.39,1.07,1.66,1.9,3.76,2.49,6.3l.59,34.27c.1,5.66.81,10.28,2.12,13.84,1.32,3.57,2.93,6.2,4.83,7.91,1.9,1.71,3.78,2.76,5.64,3.15,3.03-.49,5.47-1.88,7.32-4.17,1.85-2.29,3.22-5.88,4.1-10.77.88-4.88,1.32-11.47,1.32-19.77l-.29-25.34c.1-2.15.44-3.93,1.03-5.35.59-1.41,1.73-2.66,3.44-3.74,1.71-1.07,4.17-1.61,7.4-1.61s6.05.58,8.2,1.76c2.15,1.17,3.81,2.61,4.98,4.32,1.17,1.71,2.03,3.44,2.56,5.2.54,1.76.95,3.81,1.25,6.15l.73,26.07c0,7.03-.61,13.6-1.83,19.7-1.22,6.1-3.32,11.5-6.3,16.19-2.98,4.69-7.1,8.4-12.38,11.13-5.27,2.74-11.96,4.25-20.07,4.54Z" style="fill: #8a64a5;"/>
    </g>
  </g>
  <path d="M109.88,68.77h9.42c-.25,1.2-.49,2.4-.74,3.61-.14,1.79-1.55,3.23-3.32,3.4-1.75.17-3.4-.94-3.9-2.64-.49-1.46-.97-2.91-1.46-4.37Z" style="fill: #6e5085;"/>
  <path d="M119.31,68.77h9.42c-.25,1.2-.49,2.4-.74,3.61-.14,1.79-1.55,3.23-3.32,3.4-1.75.17-3.4-.94-3.9-2.64-.49-1.46-.97-2.91-1.46-4.37h0Z" style="fill: #6e5085;"/>
  <path d="M111.19,36.67c-.35.21-.02,1.42-.34,1.63-.34.23-1.33-.46-1.63-.23-.32.25-.44.76-.72,1.01-.31.27-.01,1.15-.28,1.41-.3.3-1.41-.23-1.66.04-.29.32-.07,1.04-.28,1.31-.25.32-.51.6-.73.91-.23.33-.55.59-.75.91-.21.34-.05.87-.23,1.2s-.19.76-.36,1.11-1.46.19-1.62.54.19.94.04,1.3c-.14.34-.51.57-.64.89s0,.77-.13,1.1-.32.63-.43.98-.23.67-.31,1.03c-.07.33.61.81.55,1.17-.06.4-.37.73-.4,1.11-.03.41-.16.78-.17,1.15,0,.42.54.77.56,1.14.02.43.03.76.07,1.11.05.32-.61.77-.53,1.14.07.33.5.58.6.93.09.33-.77.96-.66,1.31.11.33,1.4.25,1.53.59s-.63,1.03-.49,1.34c.15.33.26.69.42.99.17.33,1.25.12,1.42.41.19.32-.57,1.19-.39,1.46.17.27.81.32,1.09.68.22.28.8.27,1.08.59.25.27.16.88.47,1.16.28.25.45.67.78.92.3.23.47.73.82.95.32.2.71.36,1.02.52.34.17.8.12,1.13.26.36.15.8.03,1.14.14.37.12.58.89.91.97.39.09.88-.34,1.21-.29.43.06.85-.45,1.14-.44.39.03.78-.01,1.19.01s.77.23,1.17.24.78.59,1.18.59.79-.18,1.2-.19c.4,0,.76-.65,1.14-.67s.86,1.12,1.25,1.09.72-.9,1.1-.94.75-.34,1.13-.39.82.22,1.2.16.75-.28,1.12-.35c.39-.07.81.06,1.18-.02.3-.06.59-.21.93-.33.29-.1.78.19,1.1.04.28-.13.13-1.16.44-1.33.28-.15.62-.16.91-.34.33-.2,1.05.19,1.34-.03.32-.23.75-.34,1.03-.58.3-.26.24-.91.5-1.17.28-.28.59-.52.82-.79.26-.31-.08-1.03.13-1.32.25-.34.45-.58.63-.86.19-.35.82-.42.99-.76.18-.36.23-.75.38-1.09.15-.37.04-.81.16-1.16.13-.38.71-.59.81-.94.11-.39.25-.75.32-1.11.08-.4-.02-.81.03-1.17.05-.41.79-.74.81-1.1.02-.42-.44-.84-.45-1.19,0-.46-.42-.81-.45-1.11-.04-.35.86-.83.8-1.17-.06-.35-.97-.54-1.04-.86-.08-.36.51-.88.43-1.18-.11-.39-.8-.55-.89-.8-.13-.36-.2-.74-.34-1.09s-.05-.81-.19-1.15c-.15-.36-.5-.62-.65-.96-.16-.36-.73-.5-.89-.83-.17-.35.06-.88-.11-1.2-.19-.35-.94-.32-1.13-.63-.16-.25-.21-.62-.43-.96-.18-.27.45-1.12.23-1.43-.19-.27-.92-.18-1.15-.47-.21-.27-.5-.48-.74-.75-.23-.26-.57-.4-.83-.65-.18-.18-.66-.22-1.04-.56-.25-.23.02-1.12-.31-1.39-.28-.23-.72-.29-1.06-.53-.3-.21-.54-.56-.89-.77-.32-.2-.8-.13-1.15-.32-.33-.18-.82,0-1.19-.15s-.62-.43-.99-.56-.42-1.29-.81-1.39-.87.2-1.26.13-.83.42-1.23.38-.74-1.09-1.14-1.09c-.37,0-.76.45-1.12.47-.37.03-.67.64-1.03.69-.37.05-.76-.14-1.11-.06-.37.08-.93-.52-1.27-.42-.36.11-.76.24-1.08.36-.36.14-.37,1.1-.68,1.24-.36.16-.97-.23-1.26-.07-.37.2-.71.39-.97.54h0Z" style="fill: url(#Gradiente_sem_nome);"/>
  <g>
    <path d="M117.03,61.27c-.1-.19-.13-.36-.08-.4.06-.05.23.04.41.22.23.19.77.58,1.56.7,1.06.16,1.86-.27,2.11-.42.03-.02.07-.05.1-.07.02-.02.12-.14.29-.14.08,0,.14.03.17.05-.06.12-.16.29-.32.46-.05.05-.23.29-.55.42-.26.1-.63.21-1.09.24-.7.05-1.25-.12-1.57-.24-.21-.1-.47-.26-.72-.5-.12-.11-.22-.23-.31-.34v.02Z" style="fill: #252128;"/>
    <path d="M109.97,45.83c-.1.05-.14.16-.1.23.04.08.17.12.28.05.22-.14.61-.33,1.11-.36h.27c.26.02.74.09,1.33.46.11.08.24.1.29.05.07-.06.06-.24-.09-.39-.13-.13-.65-.58-1.45-.62-.91-.05-1.52.48-1.64.59h0Z" style="fill: #353039;"/>
    <path d="M126.13,45.99c-.08.02-.16,0-.21-.07-.05-.08-.03-.19.05-.26.07-.06.18-.14.32-.22.48-.24.98-.14,1.42-.06.21.04.49.11.81.25.05.01.43.14.46.38,0,.06,0,.16-.06.19-.05.02-.11-.01-.16-.04-.09-.06-.23-.13-.42-.21-.13-.06-.32-.12-.55-.17-.12-.02-.26-.05-.45-.04-.23,0-.34.06-.66.14-.13.03-.32.07-.55.11Z" style="fill: #353039;"/>
    <ellipse cx="115" cy="61.61" rx=".47" ry=".53" style="fill: #dc9bc3;"/>
    <path d="M124.49,60.56c-.19.04-.35.23-.35.23h0c-.14.3-.06.61.14.75.2.13.46.03.48.02.04-.02.23-.1.31-.31.06-.14.04-.27.03-.33,0-.06-.02-.13-.07-.2-.1-.15-.32-.21-.54-.16h0Z" style="fill: #dc9bc3;"/>
    <ellipse cx="127.44" cy="53.45" rx="6.06" ry="4.62" transform="translate(57.92 172.88) rotate(-82.55)" style="fill: #ececed; stroke: #0e0915; stroke-miterlimit: 10; stroke-width: .25px;"/>
    <ellipse cx="111.5" cy="53.46" rx="6.06" ry="4.62" transform="translate(51.31 161.49) rotate(-86.49)" style="fill: #ececed; stroke: #0e0915; stroke-miterlimit: 10; stroke-width: .25px;"/>
    <ellipse cx="112.53" cy="53.63" rx="3.41" ry="4.65" transform="translate(-3.18 7.25) rotate(-3.64)" style="fill: #010101;"/>
    <ellipse cx="126.1" cy="53.82" rx="4.65" ry="3.41" transform="translate(64.38 176.25) rotate(-86.36)" style="fill: #010101;"/>
  </g>
</svg>