<?xml version="1.0" encoding="UTF-8"?>
<svg id="Camada_1" data-name="Camada 1" xmlns="http://www.w3.org/2000/svg" xmlns:xlink="http://www.w3.org/1999/xlink" viewBox="0 0 55.7 55.97">
  <defs>
    <style>
      .cls-1 {
        fill: #010101;
      }

      .cls-2 {
        fill: url(#Gradiente_sem_nome_8);
      }

      .cls-3 {
        fill: #926cac;
      }

      .cls-4 {
        fill: #324395;
      }

      .cls-5 {
        fill: #353039;
      }

      .cls-6 {
        opacity: .31;
      }

      .cls-7 {
        fill: #dc9bc3;
      }

      .cls-8 {
        fill: #ececed;
        stroke: #0e0915;
        stroke-miterlimit: 10;
        stroke-width: .25px;
      }

      .cls-9 {
        fill: #252128;
      }
    </style>
    <linearGradient id="Gradiente_sem_nome_8" data-name="Gradiente sem nome 8" x1="26.45" y1="45.53" x2="26.45" y2="7.54" gradientUnits="userSpaceOnUse">
      <stop offset="0" stop-color="#b5dfe7"/>
      <stop offset=".4" stop-color="#b3dde5"/>
      <stop offset=".55" stop-color="#add6e1"/>
      <stop offset=".65" stop-color="#a4cad9"/>
      <stop offset=".74" stop-color="#96b9ce"/>
      <stop offset=".81" stop-color="#84a3bf"/>
      <stop offset=".87" stop-color="#6e88ad"/>
      <stop offset=".93" stop-color="#546898"/>
      <stop offset=".98" stop-color="#374380"/>
      <stop offset="1" stop-color="#293275"/>
    </linearGradient>
  </defs>
  <path class="cls-4" d="M16.68,42.04h9.42c-.25,1.2-.49,2.4-.74,3.61-.14,1.79-1.55,3.23-3.32,3.4-1.75.17-3.4-.94-3.9-2.64-.49-1.46-.97-2.91-1.46-4.37Z"/>
  <path class="cls-4" d="M26.1,42.04h9.42c-.25,1.2-.49,2.4-.74,3.61-.14,1.79-1.55,3.23-3.32,3.4-1.75.17-3.4-.94-3.9-2.64-.49-1.46-.97-2.91-1.46-4.37Z"/>
  <path class="cls-4" d="M11.31,23.56l.17,9.42c-1.21-.22-2.41-.45-3.62-.67-1.79-.1-3.26-1.49-3.46-3.26-.2-1.75.88-3.41,2.57-3.95,1.45-.51,2.9-1.03,4.34-1.54Z"/>
  <path class="cls-4" d="M41.63,32.98l-.15-9.42c1.21.23,2.41.46,3.62.68,1.79.11,3.25,1.5,3.45,3.27.2,1.75-.89,3.41-2.58,3.94-1.45.51-2.9,1.02-4.35,1.53Z"/>
  <path class="cls-2" d="M17.88,9.78c-.35.21.09,1.6-.23,1.81-.34.23-.66.4-.96.63-.32.25-1.47-.51-1.75-.26-.31.27-.43.77-.7,1.04-.3.3-.85.36-1.1.63-.29.32-.52.69-.74.97-.25.32-.31.81-.52,1.12-.23.33-.4.72-.6,1.04-.21.34.11.98-.07,1.31s-.23.75-.4,1.1-.17.77-.33,1.12-1.5.2-1.66.56c-.14.34-.15.72-.29,1.04s-.07.75-.19,1.08-.31.66-.41,1,.26.8.18,1.16c-.07.33-.42.63-.48,1-.06.4-.27.8-.3,1.18-.03.41.6.84.6,1.22,0,.42.43.77.45,1.14.02.43-.73.87-.68,1.22.05.32-.08.72,0,1.09.07.33,1.11.43,1.2.79.09.33.19.63.3.98.11.33-.32.83-.19,1.17.13.34-.25.88-.11,1.19.15.33.55.54.71.84.17.33-.07.88.09,1.17.19.32.73.42.91.69.17.27.72.37,1,.73.22.28.02.97.31,1.28.25.27,1.05.03,1.36.31.28.25.5.56.83.8.3.23.48.64.83.85.32.2.96-.24,1.28-.08.34.17.46.69.79.83.36.15.5.86.83.97.37.12.7.49,1.04.56.39.09.87-.3,1.2-.26.43.06.83-.16,1.12-.14.39.03.82-.6,1.22-.58s.72,1.43,1.12,1.44.81-1.1,1.21-1.1.78.26,1.19.25c.4,0,.8.39,1.19.37s.81.18,1.19.15.71-.9,1.09-.94.83.34,1.21.29.86.35,1.23.29.81-.03,1.18-.1c.39-.07.64-.88,1.01-.96.3-.06.87.63,1.2.51.29-.1.38-.85.7-1,.28-.13.25-.89.56-1.06.28-.15.65-.1.95-.28.33-.2.66-.34.96-.56.32-.23.6-.44.88-.68.3-.26.7-.36.96-.62.28-.28,1.13-.04,1.37-.32.26-.31-.19-1.17.02-1.45.25-.34,1.09-.26,1.27-.54.19-.35.39-.73.56-1.06.18-.36-.13-.94.01-1.29.15-.37.11-.79.23-1.15.13-.38.56-.65.66-1.01.11-.39-.21-.86-.14-1.22.08-.4,1.03-.65,1.08-1.01.05-.41.22-.83.24-1.19.02-.42-1.02-.84-1.03-1.19-.01-.46.18-.84.15-1.15-.04-.35-.73-.57-.79-.9-.06-.35.36-.76.29-1.08-.08-.36.6-.9.51-1.2-.11-.39-.56-.64-.65-.9-.13-.36-.65-.57-.79-.92s-.57-.59-.71-.93c-.15-.36.2-.91.05-1.25-.16-.36-.3-.71-.46-1.04-.17-.35.11-.93-.06-1.25-.19-.35-1.04-.3-1.23-.61-.16-.25-.09-.71-.31-1.05-.18-.27.14-.94-.08-1.24-.19-.27-.51-.52-.74-.81-.21-.27-1.03-.06-1.27-.34-.23-.26-.14-.83-.4-1.09-.18-.18-.32-.64-.7-.98-.25-.23-.75-.28-1.09-.55-.28-.23-.53-.57-.87-.81-.3-.21-.43-.79-.78-1-.32-.2-1.15.44-1.51.26-.33-.18-.64-.42-1-.58s-.51-.84-.89-.97-1.03.76-1.42.66-.63-.56-1.02-.63-.73-.3-1.13-.33-.77-.46-1.16-.47c-.37,0-.7,1.08-1.05,1.1-.37.03-.79-.71-1.15-.66-.37.05-.74.12-1.08.19-.37.08-.69.31-1.03.41-.36.11-.69.26-1.02.38-.36.14-.83-.04-1.14.1-.36.16-.24,1.18-.53,1.34-.37.2-1.36-.8-1.62-.64Z"/>
  <g class="cls-6">
    <path class="cls-3" d="M18.18,10.57c-.35.21-.3.98-.61,1.2-.34.23-1.04-.07-1.34.16-.32.25-.16,1.05-.44,1.3-.31.27-1.47-.39-1.74-.12-.3.3-.54.66-.79.94-.29.32.1,1.18-.12,1.45-.25.32-1.02.23-1.24.54-.23.33-.28.79-.48,1.11-.21.34.25,1.04.07,1.38s-.61.55-.77.9-.44.65-.6,1.01-.19.76-.35,1.12c-.14.34-.65.5-.78.82s-.58.55-.7.87-.49.61-.59.95.55.89.47,1.24c-.07.33-.53.61-.59.98-.06.4.65.88.61,1.26-.03.41-.27.77-.28,1.14,0,.42-.65.83-.63,1.2.02.43.17.84.21,1.19.05.32,0,.72.07,1.09.07.33,1.15.43,1.25.79.09.33.04.68.15,1.03.11.33.33.6.46.94.13.34-.26.86-.13,1.17.15.33-.13.87.02,1.17.17.33.92.32,1.08.61.19.32.6.46.78.73.17.27.5.48.77.83.22.28-.47,1.37-.18,1.68.25.27,1.05.06,1.36.33.28.25.27.89.6,1.14.3.23.82.2,1.17.42.32.2.36.94.68,1.1.34.17.96-.21,1.29-.08.36.15.82-.07,1.16.03.37.12.6.68.94.76.39.09.75.33,1.08.37.43.06.88-.77,1.18-.75.39.03.77.24,1.17.26s.76.6,1.16.61.8-.75,1.2-.75.79.79,1.2.78c.4,0,.78-.35,1.16-.37s.78-.14,1.16-.17.83.4,1.21.36.82.12,1.2.07.82.05,1.2,0,.8-.13,1.17-.2c.39-.07.61-1.01.98-1.09.3-.06.64-.02.97-.14.29-.1.45-.54.77-.69.28-.13.42-.51.73-.68.28-.15.6-.19.89-.37.33-.2.52-.52.82-.73.32-.23.86-.1,1.14-.34.3-.26,1.14.06,1.4-.2.28-.28.57-.6.8-.87.26-.31-.44-1.35-.24-1.63.25-.34,1.27-.11,1.44-.39.19-.35.02-.9.18-1.23.18-.36.34-.71.48-1.06.15-.37-.3-.94-.18-1.29.13-.38.61-.6.71-.96.11-.39.67-.65.74-1.01.08-.4-.52-.88-.47-1.25.05-.41.11-.75.13-1.11.02-.42.31-.78.3-1.12-.01-.46-.37-.79-.41-1.09-.04-.35.43-.75.38-1.08-.06-.35-.11-.69-.19-1.01-.08-.36.09-.77,0-1.07-.11-.39-.23-.74-.32-1-.13-.36-.39-.68-.52-1.02s-.98-.43-1.12-.77c-.15-.36-.19-.74-.34-1.07-.16-.36.39-1.02.24-1.35-.17-.35-1.03-.33-1.2-.65-.19-.35.56-1.21.37-1.52-.16-.25-1.31.05-1.53-.28-.18-.27-.44-.49-.66-.8-.19-.27-.25-.63-.48-.92-.21-.27-.09-.81-.34-1.08-.23-.26-.79-.19-1.05-.45-.18-.18.18-1.14-.2-1.48-.25-.23-.97,0-1.31-.27-.28-.23-.4-.71-.74-.95-.3-.21-.97.12-1.32-.09-.32-.2-.55-.52-.9-.71-.33-.18-.44-.85-.8-1s-1.01.52-1.38.38-.56-.7-.94-.8-.74-.15-1.13-.21-.74-.18-1.14-.21-.76.4-1.16.4c-.37,0-.76-1.1-1.12-1.08-.37.03-.67.77-1.02.82-.37.05-.63.49-.97.57-.37.08-.74-.04-1.08.06-.36.11-.6.43-.93.56-.36.14-.89-.25-1.2-.1-.36.16-.91-.11-1.2.05-.37.2-.54.66-.8.82Z"/>
  </g>
  <g>
    <path class="cls-9" d="M23.82,34.55c-.1-.19-.13-.36-.08-.4.06-.05.23.04.41.22.23.19.77.58,1.56.7,1.06.16,1.86-.27,2.11-.42.03-.02.07-.05.1-.07.02-.02.12-.14.29-.14.08,0,.14.03.17.05-.06.12-.16.29-.32.46-.05.05-.23.29-.55.42-.26.1-.63.21-1.09.24-.7.05-1.25-.12-1.57-.24-.21-.1-.47-.26-.72-.5-.12-.11-.22-.23-.31-.34Z"/>
    <path class="cls-5" d="M16.76,19.1c-.1.05-.14.16-.1.23.04.08.17.12.28.05.22-.14.61-.33,1.11-.36.03,0,.13,0,.27,0,.26.02.74.09,1.33.46.11.08.24.1.29.05.07-.06.06-.24-.09-.39-.13-.13-.65-.58-1.45-.62-.91-.05-1.52.48-1.64.59Z"/>
    <path class="cls-5" d="M32.92,19.27c-.08.02-.16,0-.21-.07-.05-.08-.03-.19.05-.26.07-.06.18-.14.32-.22.48-.24.98-.14,1.42-.06.21.04.49.11.81.25.05.01.43.14.46.38,0,.06,0,.16-.06.19-.05.02-.11-.01-.16-.04-.09-.06-.23-.13-.42-.21-.13-.06-.32-.12-.55-.17-.12-.02-.26-.05-.45-.04-.23,0-.34.06-.66.14-.13.03-.32.07-.55.11Z"/>
    <ellipse class="cls-7" cx="21.8" cy="34.88" rx=".47" ry=".53"/>
    <path class="cls-7" d="M31.28,33.84c-.19.04-.35.23-.35.23h0c-.14.3-.06.61.14.75.2.13.46.03.48.02.04-.02.23-.1.31-.31.06-.14.04-.27.03-.33,0-.06-.02-.13-.07-.2-.1-.15-.32-.21-.54-.16Z"/>
    <ellipse class="cls-8" cx="34.24" cy="26.73" rx="6.06" ry="4.62" transform="translate(3.3 57.21) rotate(-82.55)"/>
    <ellipse class="cls-8" cx="18.29" cy="26.73" rx="6.06" ry="4.62" transform="translate(-9.5 43.35) rotate(-86.49)"/>
    <ellipse class="cls-1" cx="19.32" cy="26.88" rx="3.41" ry="4.65" transform="translate(-1.67 1.28) rotate(-3.64)"/>
    <ellipse class="cls-1" cx="32.91" cy="27.1" rx="4.65" ry="3.41" transform="translate(3.77 58.21) rotate(-86.36)"/>
  </g>
</svg>