<?xml version="1.0" encoding="UTF-8"?>
<svg id="Camada_1" data-name="Camada 1" xmlns="http://www.w3.org/2000/svg" viewBox="0 0 55.7 59.67">
  <defs>
    <style>
      .cls-1 {
        fill: #717070;
      }

      .cls-2 {
        fill: #fffffe;
        stroke: #828282;
        stroke-miterlimit: 10;
        stroke-width: .25px;
      }
    </style>
  </defs>
  <path class="cls-2" d="M46.99,18.64c-.11,1.46-.48,3.65-1.68,5.99-2.3,4.48-6.12,6.53-7.57,7.22-2.16.78-5.6,1.74-9.89,1.72-3.96-.02-7.15-.86-9.24-1.59-2.79-1.19-4.25-2.83-4.94-3.77-1.16-1.57-1.66-3.17-2.53-5.93-.5-1.59-.82-2.92-1.01-3.83,1.55,1.42,8.08,7.06,18.15,7.2,10.38.15,17.2-5.65,18.72-7Z"/>
  <circle class="cls-1" cx="28.43" cy="26.57" r=".57"/>
  <circle class="cls-1" cx="28.43" cy="28.3" r=".57"/>
  <circle class="cls-1" cx="28.43" cy="30.34" r=".57"/>
  <circle class="cls-1" cx="28.43" cy="32.3" r=".57"/>
</svg>