<?xml version="1.0" encoding="UTF-8"?>
<svg id="Camada_1" data-name="Camada 1" xmlns="http://www.w3.org/2000/svg" xmlns:xlink="http://www.w3.org/1999/xlink" viewBox="0 0 55.7 70.81">
  <defs>
    <style>
      .cls-1 {
        fill: #010101;
      }

      .cls-2 {
        fill: #fffefe;
        opacity: .55;
      }

      .cls-3 {
        fill: url(#Gradiente_sem_nome_3);
      }

      .cls-4 {
        fill: #fff;
      }

      .cls-5 {
        fill: #926cac;
      }

      .cls-6 {
        fill: #353039;
      }

      .cls-7 {
        opacity: .31;
      }

      .cls-8 {
        fill: #dc9bc3;
      }

      .cls-9 {
        fill: #8a63a5;
      }

      .cls-10 {
        fill: #ececed;
        stroke: #0e0915;
        stroke-miterlimit: 10;
        stroke-width: .25px;
      }

      .cls-11 {
        fill: #252128;
      }
    </style>
    <linearGradient id="Gradiente_sem_nome_3" data-name="Gradiente sem nome 3" x1="30.38" y1="50.55" x2="30.38" y2="11.94" gradientTransform="translate(-2.38 6.47) rotate(-.05) scale(.97 .98) skewX(-.1)" gradientUnits="userSpaceOnUse">
      <stop offset="0" stop-color="#c5b1d4"/>
      <stop offset=".43" stop-color="#c3afd2"/>
      <stop offset=".59" stop-color="#bea8ce"/>
      <stop offset=".7" stop-color="#b49cc7"/>
      <stop offset=".79" stop-color="#a78bbe"/>
      <stop offset=".87" stop-color="#9675b1"/>
      <stop offset=".94" stop-color="#815ba1"/>
      <stop offset="1" stop-color="#683b8e"/>
      <stop offset="1" stop-color="#673a8e"/>
    </linearGradient>
  </defs>
  <g>
    <path class="cls-9" d="M17.56,52.58h9.42c-.25,1.2-.49,2.4-.74,3.61-.14,1.79-1.55,3.23-3.32,3.4-1.75.17-3.4-.94-3.9-2.64-.49-1.46-.97-2.91-1.46-4.37Z"/>
    <path class="cls-9" d="M26.99,52.58h9.42c-.25,1.2-.49,2.4-.74,3.61-.14,1.79-1.55,3.23-3.32,3.4-1.75.17-3.4-.94-3.9-2.64-.49-1.46-.97-2.91-1.46-4.37Z"/>
    <path class="cls-9" d="M12.2,34.1l.17,9.42c-1.21-.22-2.41-.45-3.62-.67-1.79-.1-3.26-1.49-3.46-3.26-.2-1.75.88-3.41,2.57-3.95,1.45-.51,2.9-1.03,4.34-1.54Z"/>
    <path class="cls-9" d="M42.51,43.52l-.15-9.42c1.21.23,2.41.46,3.62.68,1.79.11,3.25,1.5,3.45,3.27.2,1.75-.89,3.41-2.58,3.94-1.45.51-2.9,1.02-4.35,1.53Z"/>
  </g>
  <path class="cls-3" d="M19.02,20.72c-.35.21-.39.87-.7,1.08-.34.23-.6.51-.9.75-.32.25-.7.39-.99.64-.31.27-.64.48-.91.74-.3.3-.95.22-1.2.5-.29.32.18,1.22-.04,1.5-.25.32-.87.32-1.09.63-.23.33-.57.58-.77.9-.21.34-.93.4-1.11.74s-.32.75-.48,1.1-.33.73-.49,1.08.33,1,.18,1.36c-.14.34-.86.42-.99.74s.58.99.46,1.32-.23.63-.34.97-.66.53-.74.89c-.07.33-.65.6-.71.97-.06.4-.25.82-.28,1.2-.03.41,0,.85,0,1.23,0,.42.87.81.89,1.18.02.43-.23.84-.19,1.19.05.32.25.65.32,1.02.07.33.01.7.1,1.06.09.33-.41.87-.29,1.22.11.33.92.44,1.05.78.13.34.67.48.81.79.15.33-.63,1.1-.48,1.4.17.33.24.72.41,1.01.19.32.99.26,1.17.53.17.27.82.27,1.09.63.22.28.31.66.6.97.25.27.73.28,1.03.56.28.25.29.78.61,1.02.3.23.1,1.24.44,1.45.32.2,1.09-.37,1.41-.21.34.17.78.03,1.1.16.36.15.39,1.14.72,1.24.37.12.86-.25,1.2-.18.39.09.77,0,1.1.04.43.06.77.23,1.07.25.39.03.73.87,1.14.89s.82-.53,1.22-.51.79-.63,1.2-.63.78.16,1.18.15c.4,0,.82.75,1.2.73s.81.06,1.19.03.74-.64,1.12-.68.8.05,1.18,0,.88.52,1.26.46.54-1.52.91-1.59c.39-.07.8.08,1.18,0,.3-.06.52-.26.85-.37.29-.1.49-.34.81-.49.28-.13,1.17.94,1.48.78.28-.15.03-1.26.32-1.44.33-.2,1.19.39,1.49.17.32-.23-.03-1.28.25-1.52.3-.26.91-.13,1.17-.39.28-.28,1.06-.12,1.3-.39.26-.31.28-.83.49-1.11.25-.34-.16-1.06.02-1.34.19-.35.22-.74.38-1.08.18-.36,1.34-.26,1.49-.61.15-.37-.3-.98-.18-1.33.13-.38.96-.54,1.06-.9.11-.39-.13-.88-.06-1.24.08-.4-.82-.94-.77-1.3.05-.41.16-.74.18-1.1.02-.42.1-.77.09-1.11-.01-.46.59-.87.55-1.18-.04-.35.35-.77.29-1.1-.06-.35-.51-.63-.58-.95-.08-.36-.96-.48-1.05-.78-.11-.39.83-1.06.74-1.31-.13-.36-.32-.7-.46-1.05s-.13-.78-.27-1.13c-.15-.36-.88-.47-1.03-.8-.16-.36-.08-.81-.24-1.14-.17-.35-.89-.4-1.06-.72-.19-.35-.51-.56-.7-.86-.16-.25.02-.78-.2-1.11-.18-.27-.73-.3-.95-.61-.19-.27-.29-.6-.52-.89-.21-.27.15-1.02-.09-1.3-.23-.26-1.15.14-1.41-.11-.18-.18-.29-.61-.66-.95-.25-.23-.39-.64-.72-.91-.28-.23-.84-.09-1.18-.33-.3-.21-.56-.45-.91-.66-.32-.2-.34-.9-.7-1.09-.33-.18-.79-.09-1.16-.25s-.53-.74-.91-.88-.63-.7-1.01-.8-.98.81-1.37.74-.66-.86-1.06-.9-.81.49-1.21.49c-.37,0-.75-.3-1.1-.28-.37.03-.69.42-1.05.47-.37.05-.68.26-1.03.33-.37.08-.76-.03-1.09.07-.36.11-.63.4-.96.52-.36.14-1.05-.56-1.36-.42-.36.16-.41.91-.7,1.07-.37.2-.81.17-1.07.32Z"/>
  <g class="cls-7">
    <path class="cls-5" d="M19.83,21.29c-.35.21-.76.27-1.07.49-.34.23-.94.07-1.24.3-.32.25-.27.93-.55,1.18-.31.27-1.37-.26-1.63,0-.3.3-.04,1.12-.28,1.4-.29.32-.16.93-.38,1.2-.25.32-1.35-.02-1.57.29-.23.33.05,1.01-.15,1.33-.21.34-.22.77-.41,1.11s.09.9-.08,1.25-1.03.38-1.19.73-.64.57-.8.93c-.14.34-.19.7-.32,1.02s.56.97.44,1.3-.5.54-.6.88-.4.6-.48.96c-.07.33.51.77.46,1.14-.06.4-1.24.65-1.27,1.03-.03.41-.23.83-.24,1.2,0,.42.03.85.05,1.22.02.43.07.86.11,1.21.05.32.02.73.09,1.1.07.33,1.45.36,1.54.72.09.33-.99,1.01-.88,1.36.11.33.9.43,1.03.78.13.34-.33.92-.19,1.22.15.33.52.57.67.86.17.33.78.39.95.67.19.32-.25,1.01-.07,1.28.17.27.98.2,1.25.56.22.28.72.33,1,.64.25.27-.24,1.31.07,1.59.28.25.48.7.81.94.3.23,1.28-.48,1.62-.26.32.2.5.58.82.74.34.17.4.96.73,1.09.36.15.73.33,1.07.44.37.12.77.22,1.11.3.39.09.78.31,1.11.36.43.06.88-.5,1.18-.49.39.03.83-.7,1.23-.68s.75.53,1.15.54.78-.2,1.19-.2.78.04,1.18.03c.4,0,.77-.11,1.16-.13s.8.21,1.18.19.81.23,1.19.19.8.02,1.18-.03.67-.88,1.04-.94.98,1.04,1.35.97c.39-.07.72-.5,1.09-.58.3-.06.58-.35.92-.47.29-.1.38-.73.7-.88.28-.13,1.06.7,1.37.54.28-.15.01-1.28.31-1.46.33-.2.88-.03,1.18-.25.32-.23,1.09.1,1.37-.14.3-.26.05-1.12.31-1.38.28-.28.61-.49.85-.76.26-.31.91-.31,1.12-.59.25-.34-.17-1.08,0-1.37.19-.35.99-.37,1.15-.71.18-.36.51-.67.66-1.01.15-.37-.79-1.15-.67-1.5.13-.38,1.04-.49,1.14-.85.11-.39.54-.72.61-1.08.08-.4-1.18-1.01-1.13-1.37.05-.41.28-.73.3-1.09.02-.42.48-.78.48-1.13-.01-.46-.26-.82-.29-1.12-.04-.35.44-.76.38-1.1-.06-.35.18-.77.1-1.09-.08-.36-.29-.69-.37-1-.11-.39-.36-.71-.45-.96-.13-.36-.97-.45-1.1-.8s-.07-.79-.21-1.13c-.15-.36-.12-.78-.27-1.11-.16-.36-.15-.78-.31-1.11-.17-.35-.74-.48-.91-.8-.19-.35.07-.93-.12-1.23-.16-.25-.03-.77-.25-1.11-.18-.27-.94-.19-1.16-.5-.19-.27-.31-.62-.54-.91-.21-.27-.42-.56-.66-.83-.23-.26-.86-.13-1.12-.39-.18-.18-.62-.26-1-.6-.25-.23-.45-.54-.78-.81-.28-.23-.53-.49-.87-.73-.3-.21-.39-.74-.74-.95-.32-.2-.49-.69-.85-.87-.33-.18-.67-.41-1.04-.57s-.72-.32-1.1-.45-.72-.36-1.11-.46-.79-.11-1.18-.18-.77-.36-1.16-.4-.82.98-1.22.98c-.37,0-.78-1.21-1.14-1.19-.37.03-.67.86-1.03.91-.37.05-.65.44-1,.51-.37.08-.92-.6-1.26-.5-.36.11-.55.72-.88.85-.36.14-.96-.34-1.28-.2-.36.16-.26,1.18-.56,1.34-.37.2-.62.44-.88.59Z"/>
  </g>
  <path class="cls-11" d="M29.16,45.75c.1.19.13.36.08.4-.06.05-.23-.04-.41-.22-.23-.19-.77-.58-1.56-.7-1.06-.16-1.86.27-2.11.42-.03.02-.07.05-.1.07-.02.02-.12.14-.29.14-.08,0-.14-.03-.17-.05.06-.12.16-.29.32-.46.05-.05.23-.29.55-.42.26-.1.63-.21,1.09-.24.7-.05,1.25.12,1.57.24.21.1.47.26.72.5.12.11.22.23.31.34Z"/>
  <path class="cls-6" d="M17.65,29.64c-.1.05-.14.16-.1.23.04.08.17.12.28.05.22-.14.61-.33,1.11-.36.03,0,.13,0,.27,0,.26.02.74.09,1.33.46.11.08.24.1.29.05.07-.06.06-.24-.09-.39-.13-.13-.65-.58-1.45-.62-.91-.05-1.52.48-1.64.59Z"/>
  <path class="cls-6" d="M33.81,29.8c-.08.02-.16,0-.21-.07-.05-.08-.03-.19.05-.26.07-.06.18-.14.32-.22.48-.24.98-.14,1.42-.06.21.04.49.11.81.25.05.01.43.14.46.38,0,.06,0,.16-.06.19-.05.02-.11-.01-.16-.04-.09-.06-.23-.13-.42-.21-.13-.06-.32-.12-.55-.17-.12-.02-.26-.05-.45-.04-.23,0-.34.06-.66.14-.13.03-.32.07-.55.11Z"/>
  <ellipse class="cls-8" cx="22.68" cy="45.42" rx=".47" ry=".53"/>
  <path class="cls-8" d="M32.17,44.37c-.19.04-.35.23-.35.23h0c-.14.3-.06.61.14.75.2.13.46.03.48.02.04-.02.23-.1.31-.31.06-.14.04-.27.03-.33,0-.06-.02-.13-.07-.2-.1-.15-.32-.21-.54-.16Z"/>
  <ellipse class="cls-10" cx="35.13" cy="37.26" rx="6.06" ry="4.62" transform="translate(-6.37 67.26) rotate(-82.55)"/>
  <ellipse class="cls-10" cx="19.18" cy="37.26" rx="6.06" ry="4.62" transform="translate(-19.18 54.13) rotate(-86.49)"/>
  <ellipse class="cls-1" cx="20.21" cy="37.42" rx="3.41" ry="4.65" transform="translate(-2.34 1.36) rotate(-3.64)"/>
  <ellipse class="cls-1" cx="33.79" cy="37.63" rx="4.65" ry="3.41" transform="translate(-5.91 68.97) rotate(-86.36)"/>
  <path class="cls-4" d="M27.35,69.19l-.45-.27c.12-.05.26-.03.36.04.08.06.11.15.09.23Z"/>
  <path class="cls-2" d="M30.82,39.81c.26-.03.64-.03,1.04.13.39.15.56.36.79.54.87.67,2.32.69,3.25.17.36-.2.3-.29.68-.51.79-.46,1.66-.44,2.3-.34-.34.89-.81,1.49-1.12,1.82-.46.5-.94.82-1.3,1.02-.29.16-.99.51-1.93.45-.59-.04-1.05-.23-1.32-.38-.36-.19-.97-.56-1.52-1.24-.52-.65-.76-1.29-.87-1.68Z"/>
  <path class="cls-2" d="M15.15,39.81c.26-.03.64-.03,1.04.13.39.15.56.36.79.54.87.67,2.32.69,3.25.17.36-.2.3-.29.68-.51.79-.46,1.66-.44,2.3-.34-.34.89-.81,1.49-1.12,1.82-.46.5-.94.82-1.3,1.02-.29.16-.99.51-1.93.45-.59-.04-1.05-.23-1.32-.38-.36-.19-.97-.56-1.52-1.24-.52-.65-.76-1.29-.87-1.68Z"/>
</svg>