<?xml version="1.0" encoding="UTF-8"?>
<svg id="Camada_1" data-name="Camada 1" xmlns="http://www.w3.org/2000/svg" xmlns:xlink="http://www.w3.org/1999/xlink" viewBox="0 0 55.7 70.81">
  <defs>
    <style>
      .cls-1 {
        fill: #eb6e6f;
        opacity: .25;
      }

      .cls-2 {
        fill: #010101;
      }

      .cls-3 {
        fill: url(#Gradiente_sem_nome_3);
      }

      .cls-4 {
        fill: none;
        stroke: #252128;
        stroke-linecap: round;
        stroke-width: .5px;
      }

      .cls-4, .cls-5 {
        stroke-miterlimit: 10;
      }

      .cls-6 {
        fill: #fff;
      }

      .cls-7 {
        fill: #926cac;
      }

      .cls-8 {
        fill: #353039;
      }

      .cls-9 {
        opacity: .31;
      }

      .cls-10 {
        fill: #8a63a5;
      }

      .cls-5 {
        fill: #ececed;
        stroke: #0e0915;
        stroke-width: .25px;
      }
    </style>
    <linearGradient id="Gradiente_sem_nome_3" data-name="Gradiente sem nome 3" x1="34.47" y1="50.65" x2="34.47" y2="12.03" gradientTransform="translate(-6.34 6.38) rotate(-.05) scale(.97 .98) skewX(-.1)" gradientUnits="userSpaceOnUse">
      <stop offset="0" stop-color="#c5b1d4"/>
      <stop offset=".43" stop-color="#c3afd2"/>
      <stop offset=".59" stop-color="#bea8ce"/>
      <stop offset=".7" stop-color="#b49cc7"/>
      <stop offset=".79" stop-color="#a78bbe"/>
      <stop offset=".87" stop-color="#9675b1"/>
      <stop offset=".94" stop-color="#815ba1"/>
      <stop offset="1" stop-color="#683b8e"/>
      <stop offset="1" stop-color="#673a8e"/>
    </linearGradient>
  </defs>
  <g>
    <path class="cls-10" d="M17.56,52.58h9.42c-.25,1.2-.49,2.4-.74,3.61-.14,1.79-1.55,3.23-3.32,3.4-1.75.17-3.4-.94-3.9-2.64-.49-1.46-.97-2.91-1.46-4.37Z"/>
    <path class="cls-10" d="M26.99,52.58h9.42c-.25,1.2-.49,2.4-.74,3.61-.14,1.79-1.55,3.23-3.32,3.4-1.75.17-3.4-.94-3.9-2.64-.49-1.46-.97-2.91-1.46-4.37Z"/>
    <path class="cls-10" d="M12.2,34.1l.17,9.42c-1.21-.22-2.41-.45-3.62-.67-1.79-.1-3.26-1.49-3.46-3.26-.2-1.75.88-3.41,2.57-3.95,1.45-.51,2.9-1.03,4.34-1.54Z"/>
    <path class="cls-10" d="M42.51,43.52l-.15-9.42c1.21.23,2.41.46,3.62.68,1.79.11,3.25,1.5,3.45,3.27.2,1.75-.89,3.41-2.58,3.94-1.45.51-2.9,1.02-4.35,1.53Z"/>
  </g>
  <path class="cls-3" d="M19.02,20.72c-.35.21-.39.87-.7,1.08-.34.23-.6.51-.9.75-.32.25-.7.39-.99.64-.31.27-.64.48-.91.74-.3.3-.95.22-1.2.5-.29.32.18,1.22-.04,1.5-.25.32-.87.32-1.09.63-.23.33-.57.58-.77.9-.21.34-.93.4-1.11.74s-.32.75-.48,1.1-.33.73-.49,1.08.33,1,.18,1.36c-.14.34-.86.42-.99.74s.58.99.46,1.32-.23.63-.34.97-.66.53-.74.89c-.07.33-.65.6-.71.97-.06.4-.25.82-.28,1.2-.03.41,0,.85,0,1.23,0,.42.87.81.89,1.18.02.43-.23.84-.19,1.19.05.32.25.65.32,1.02.07.33.01.7.1,1.06.09.33-.41.87-.29,1.22.11.33.92.44,1.05.78.13.34.67.48.81.79.15.33-.63,1.1-.48,1.4.17.33.24.72.41,1.01.19.32.99.26,1.17.53.17.27.82.27,1.09.63.22.28.31.66.6.97.25.27.73.28,1.03.56.28.25.29.78.61,1.02.3.23.1,1.24.44,1.45.32.2,1.09-.37,1.41-.21.34.17.78.03,1.1.16.36.15.39,1.14.72,1.24.37.12.86-.25,1.2-.18.39.09.77,0,1.1.04.43.06.77.23,1.07.25.39.03.73.87,1.14.89s.82-.53,1.22-.51.79-.63,1.2-.63.78.16,1.18.15c.4,0,.82.75,1.2.73s.81.06,1.19.03.74-.64,1.12-.68.8.05,1.18,0,.88.52,1.26.46.54-1.52.91-1.59c.39-.07.8.08,1.18,0,.3-.06.52-.26.85-.37.29-.1.49-.34.81-.49.28-.13,1.17.94,1.48.78.28-.15.03-1.26.32-1.44.33-.2,1.19.39,1.49.17.32-.23-.03-1.28.25-1.52.3-.26.91-.13,1.17-.39.28-.28,1.06-.12,1.3-.39.26-.31.28-.83.49-1.11.25-.34-.16-1.06.02-1.34.19-.35.22-.74.38-1.08.18-.36,1.34-.26,1.49-.61.15-.37-.3-.98-.18-1.33.13-.38.96-.54,1.06-.9.11-.39-.13-.88-.06-1.24.08-.4-.82-.94-.77-1.3.05-.41.16-.74.18-1.1.02-.42.1-.77.09-1.11-.01-.46.59-.87.55-1.18-.04-.35.35-.77.29-1.1-.06-.35-.51-.63-.58-.95-.08-.36-.96-.48-1.05-.78-.11-.39.83-1.06.74-1.31-.13-.36-.32-.7-.46-1.05s-.13-.78-.27-1.13c-.15-.36-.88-.47-1.03-.8-.16-.36-.08-.81-.24-1.14-.17-.35-.89-.4-1.06-.72-.19-.35-.51-.56-.7-.86-.16-.25.02-.78-.2-1.11-.18-.27-.73-.3-.95-.61-.19-.27-.29-.6-.52-.89-.21-.27.15-1.02-.09-1.3-.23-.26-1.15.14-1.41-.11-.18-.18-.29-.61-.66-.95-.25-.23-.39-.64-.72-.91-.28-.23-.84-.09-1.18-.33-.3-.21-.56-.45-.91-.66-.32-.2-.34-.9-.7-1.09-.33-.18-.79-.09-1.16-.25s-.53-.74-.91-.88-.63-.7-1.01-.8-.98.81-1.37.74-.66-.86-1.06-.9-.81.49-1.21.49c-.37,0-.75-.3-1.1-.28-.37.03-.69.42-1.05.47-.37.05-.68.26-1.03.33-.37.08-.76-.03-1.09.07-.36.11-.63.4-.96.52-.36.14-1.05-.56-1.36-.42-.36.16-.41.91-.7,1.07-.37.2-.81.17-1.07.32Z"/>
  <g class="cls-9">
    <path class="cls-7" d="M19.59,20.94c-.35.21-.67.44-.98.66-.34.23-.8.28-1.1.52-.32.25-.12,1.1-.41,1.35-.31.27-1.09,0-1.36.26-.3.3-.97.24-1.22.51-.29.32-.1,1.03-.31,1.31-.25.32-.15.87-.37,1.18-.23.33-.24.76-.44,1.08-.21.34-1.49.06-1.67.4s.56,1.17.39,1.52-.75.51-.91.87-.08.82-.23,1.18c-.14.34-.13.72-.26,1.04s-.89.41-1.01.74.7.96.6,1.3-1.46.34-1.54.69c-.07.33.37.8.32,1.17-.06.4.57.86.54,1.24-.03.41-.95.75-.95,1.13,0,.42.07.83.09,1.2.02.43.36.8.4,1.15.05.32.66.56.73.93.07.33-.96.93-.87,1.29.09.33.97.45,1.08.8.11.33-.29.85-.16,1.19.13.34.71.48.85.79.15.33-.01.8.14,1.1.17.33.35.64.51.93.19.32,1.04.19,1.22.46.17.27-.67,1.36-.39,1.72.22.28.67.49.95.8.25.27.96.14,1.26.42.28.25.4.72.72.97.3.23.38.87.72,1.09.32.2,1.01-.2,1.32-.04.34.17.76.11,1.09.25.36.15.79-.07,1.12.04.37.12.4,1.46.74,1.54.39.09.82.13,1.15.17.43.06.86-.21,1.16-.2.39.03.77.25,1.18.28s.81-.39,1.21-.38.79-.64,1.2-.64.78.17,1.18.16c.4,0,.77-.14,1.15-.16s.8.31,1.19.28.87.75,1.25.71.64-1.33,1.02-1.38.82.2,1.19.14.77-.11,1.15-.18c.39-.07.71-.41,1.08-.49.3-.06.84.69,1.18.57.29-.1.57-.37.89-.51.28-.13.71-.06,1.02-.23.28-.15.61-.28.91-.46.33-.2.8-.28,1.1-.5.32-.23-.23-1.54.05-1.78.3-.26.75-.28,1-.54.28-.28,1.2.04,1.44-.24.26-.31-.46-1.36-.25-1.65.25-.34.84-.36,1.01-.64.19-.35.99-.38,1.16-.71.18-.36-.41-1.06-.26-1.4.15-.37-.11-.85.01-1.21.13-.38.48-.64.58-.99.11-.39.66-.64.74-1,.08-.4-.31-.85-.26-1.21.05-.41.66-.73.68-1.09.02-.42-.22-.82-.23-1.16-.01-.46.22-.86.18-1.17-.04-.35-.95-.55-1-.88-.06-.35.09-.7.01-1.02-.08-.36.29-.8.21-1.1-.11-.39.35-.93.26-1.18-.13-.36-.76-.54-.89-.88s.05-.85-.09-1.19c-.15-.36-.29-.72-.44-1.06-.16-.36-.86-.46-1.01-.79-.17-.35-.81-.43-.98-.75-.19-.35-.23-.71-.42-1.02-.16-.25-.43-.48-.65-.82-.18-.27.51-1.16.29-1.47-.19-.27-.91-.18-1.14-.47-.21-.27-.71-.28-.95-.56-.23-.26.31-1.24.05-1.5-.18-.18-.56-.4-.93-.74-.25-.23-.63-.42-.96-.69-.28-.23-1.11.24-1.45,0-.3-.21-.15-1.13-.49-1.34-.32-.2-.94.12-1.3-.07-.33-.18-.42-.88-.79-1.04s-.79-.12-1.17-.25-.71-.32-1.1-.43-.69-.58-1.08-.65-.84.23-1.24.19-.78-.46-1.18-.47c-.37,0-.7,1.2-1.06,1.23-.37.03-.87-1.22-1.22-1.17-.37.05-.65.69-1,.77-.37.08-.71.24-1.05.34-.36.11-.56.64-.88.76-.36.14-.84-.12-1.16.02-.36.16-.83.04-1.13.2-.37.2-.52.69-.77.85Z"/>
  </g>
  <path class="cls-8" d="M17.65,29.64c-.1.05-.14.16-.1.23.04.08.17.12.28.05.22-.14.61-.33,1.11-.36.03,0,.13,0,.27,0,.26.02.74.09,1.33.46.11.08.24.1.29.05.07-.06.06-.24-.09-.39-.13-.13-.65-.58-1.45-.62-.91-.05-1.52.48-1.64.59Z"/>
  <path class="cls-8" d="M33.81,29.8c-.08.02-.16,0-.21-.07-.05-.08-.03-.19.05-.26.07-.06.18-.14.32-.22.48-.24.98-.14,1.42-.06.21.04.49.11.81.25.05.01.43.14.46.38,0,.06,0,.16-.06.19-.05.02-.11-.01-.16-.04-.09-.06-.23-.13-.42-.21-.13-.06-.32-.12-.55-.17-.12-.02-.26-.05-.45-.04-.23,0-.34.06-.66.14-.13.03-.32.07-.55.11Z"/>
  <ellipse class="cls-1" cx="19.71" cy="46.6" rx="3.42" ry="2.3"/>
  <ellipse class="cls-5" cx="35.13" cy="37.26" rx="6.06" ry="4.62" transform="translate(-6.37 67.26) rotate(-82.55)"/>
  <ellipse class="cls-5" cx="19.18" cy="37.26" rx="6.06" ry="4.62" transform="translate(-19.18 54.13) rotate(-86.49)"/>
  <ellipse class="cls-2" cx="20.21" cy="37.42" rx="3.41" ry="4.65" transform="translate(-2.34 1.36) rotate(-3.64)"/>
  <ellipse class="cls-2" cx="33.79" cy="37.63" rx="4.65" ry="3.41" transform="translate(-5.91 68.97) rotate(-86.36)"/>
  <path class="cls-6" d="M27.35,69.19l-.45-.27c.12-.05.26-.03.36.04.08.06.11.15.09.23Z"/>
  <line class="cls-4" x1="24.86" y1="45.1" x2="29.48" y2="45.1"/>
  <ellipse class="cls-1" cx="35.13" cy="46.6" rx="3.42" ry="2.3"/>
</svg>