<?xml version="1.0" encoding="UTF-8"?>
<svg id="Camada_1" data-name="Camada 1" xmlns="http://www.w3.org/2000/svg" xmlns:xlink="http://www.w3.org/1999/xlink" viewBox="0 0 178.17 122.83">
  <defs>
    <style>
      .cls-1 {
        fill: #010101;
      }

      .cls-2 {
        fill: url(#Gradiente_sem_nome_3);
      }

      .cls-3 {
        fill: #8a64a5;
        font-family: SourGummy-Black, 'Sour Gummy';
        font-size: 146.47px;
        font-variation-settings: 'wdth' 100, 'wght' 900;
        font-weight: 800;
      }

      .cls-4 {
        fill: #353039;
      }

      .cls-5 {
        fill: #dc9bc3;
      }

      .cls-6 {
        fill: #ececed;
        stroke: #0e0915;
        stroke-miterlimit: 10;
        stroke-width: .25px;
      }

      .cls-7 {
        fill: #252128;
      }

      .cls-8 {
        fill: #6e5085;
      }
    </style>
    <linearGradient id="Gradiente_sem_nome_3" data-name="Gradiente sem nome 3" x1="150.77" y1="97.85" x2="150.77" y2="59.31" gradientTransform="translate(-20.78 -5.62) rotate(-.05) scale(.97 .98) skewX(-.1)" gradientUnits="userSpaceOnUse">
      <stop offset="0" stop-color="#c5b1d4"/>
      <stop offset=".43" stop-color="#c3afd2"/>
      <stop offset=".59" stop-color="#bea8ce"/>
      <stop offset=".7" stop-color="#b49cc7"/>
      <stop offset=".79" stop-color="#a78bbe"/>
      <stop offset=".87" stop-color="#9675b1"/>
      <stop offset=".94" stop-color="#815ba1"/>
      <stop offset="1" stop-color="#683b8e"/>
      <stop offset="1" stop-color="#673a8e"/>
    </linearGradient>
  </defs>
  <path class="cls-8" d="M161.32,70.45h-76.05c-1.53.13-2.67,1.57-2.59,3.14.08,1.44,1.18,2.65,2.59,2.77h76.05c1.28-.36,2.17-1.64,2.13-3.04-.04-1.34-.91-2.52-2.13-2.86Z"/>
  <text class="cls-3" transform="translate(6.58 115.86)"><tspan x="0" y="0">Y</tspan></text>
  <text class="cls-3" transform="translate(83.14 115.86) scale(.85 1)"><tspan x="0" y="0">U</tspan></text>
  <path class="cls-8" d="M123.59,88.71l.42.53,2.11,2.66c.42.55.89,1.29,1.27,2.21.84,2.03.79,3.88.68,4.9h0c-.05.25-.48,2.28-2.1,2.98-1.78.77-4.42-.31-5.6-2.93-.68-1.84-1.54-3.86-2.62-5.99-1.06-2.09-2.17-3.93-3.23-5.54,2.88.14,5.76.28,8.64.42"/>
  <path class="cls-8" d="M132.99,87.83l.42.53,2.11,2.66c.42.55.89,1.29,1.27,2.21.84,2.03.79,3.88.68,4.9h0c-.05.25-.48,2.28-2.1,2.98-1.78.77-4.42-.31-5.6-2.93-.68-1.84-1.54-3.86-2.62-5.99-1.06-2.09-2.17-3.93-3.23-5.54,2.88.14,5.76.28,8.64.42"/>
  <g>
    <path class="cls-2" d="M116.7,54.86c-.35.21-.6.57-.91.79-.34.23-.81.27-1.11.51-.32.25-.02,1.23-.31,1.48-.31.27-1.02.07-1.29.33-.3.3-.32.81-.57,1.08-.29.32-1.18.09-1.4.36-.25.32.09,1.07-.13,1.38-.23.33-.3.73-.5,1.06-.21.34-.87.41-1.05.74s-.26.76-.43,1.1-.04.84-.2,1.19-.73.53-.89.89c-.14.34.06.8-.07,1.12s-.17.69-.29,1.01-.84.46-.95.8.15.77.07,1.13c-.07.33-.15.68-.21,1.04-.06.4-.21.79-.24,1.17-.03.41.72.83.72,1.2,0,.42-.83.81-.81,1.18.02.43.09.83.14,1.18.05.32.27.65.34,1.02.07.33-.55.85-.45,1.21.09.33,1.31.35,1.42.7.11.33.45.55.58.89.13.34-.33.89-.2,1.2.15.33.18.71.33,1.01.17.33.12.76.29,1.05.19.32.33.66.51.93.17.27.9.25,1.18.61.22.28.37.65.65.96.25.27,0,1.11.31,1.38.28.25,1.15-.15,1.47.1.3.23.7.3,1.04.51.32.2.27,1.03.59,1.19.34.17.86-.03,1.19.1.36.15.81-.06,1.14.04.37.12.52,1.03.85,1.1.39.09.88-.48,1.21-.43.43.06.82-.38,1.11-.37.39.03.7,1.38,1.1,1.41s.84-1.12,1.24-1.11.77-.17,1.18-.17.8,1.35,1.21,1.34c.4,0,.76-.85,1.15-.87s.78-.1,1.16-.13.87.77,1.25.74.67-1.11,1.05-1.16.86.43,1.23.37.65-.82,1.03-.89c.39-.07.83.17,1.2.09.3-.06.83.56,1.16.44.29-.1.33-.94.65-1.08.28-.13.61-.17.92-.34.28-.15.39-.59.68-.77.33-.2,1.29.53,1.59.32.32-.23.54-.63.82-.87.3-.26.73-.42.99-.68.28-.28.02-1.07.25-1.35.26-.31.41-.67.61-.96.25-.34.04-.88.22-1.16.19-.35,1.08-.3,1.24-.64.18-.36.79-.54.93-.88.15-.37.35-.76.47-1.11.13-.38.11-.83.2-1.19.11-.39.05-.83.12-1.2.08-.4.51-.76.56-1.13.05-.41-1.02-.91-1-1.27.02-.42-.15-.78-.16-1.12-.01-.46-.03-.8-.07-1.1-.04-.35.77-.8.72-1.14-.06-.35-.3-.67-.37-.99-.08-.36.08-.77,0-1.08-.11-.39-1.3-.36-1.4-.61-.13-.36.44-.98.3-1.32s-.69-.55-.83-.89c-.15-.36-.06-.8-.21-1.13-.16-.36-.05-.82-.21-1.15-.17-.35-.99-.35-1.16-.67-.19-.35.59-1.22.4-1.53-.16-.25-1.19-.02-1.41-.36-.18-.27.11-.89-.1-1.19-.19-.27-.92-.15-1.14-.44-.21-.27.34-1.19.1-1.46-.23-.26-.89-.13-1.15-.39-.18-.18-.85-.04-1.22-.38-.25-.23-.1-.98-.43-1.25-.28-.23-.69-.32-1.03-.56-.3-.21-.86-.02-1.21-.23-.32-.2-.34-.9-.69-1.09-.33-.18-.71-.26-1.08-.42s-.56-.69-.94-.82-.96.55-1.34.44-.53-1.14-.92-1.21-.87.63-1.26.59-.74-.38-1.14-.38c-.37,0-.72.33-1.07.35-.37.03-.81-.61-1.16-.56-.37.05-.75.12-1.1.2-.37.08-.45,1.16-.79,1.26-.36.11-1.07-.86-1.4-.74-.36.14-.28,1.27-.59,1.41-.36.16-.86-.08-1.15.08-.37.2-.89.03-1.15.19Z"/>
    <g>
      <path class="cls-7" d="M122.43,79.28c-.1-.19-.13-.36-.08-.4.06-.05.23.04.41.22.23.19.77.58,1.56.7,1.06.16,1.86-.27,2.11-.42.03-.02.07-.05.1-.07.02-.02.12-.14.29-.14.08,0,.14.03.17.05-.06.12-.16.29-.32.46-.05.05-.23.29-.55.42-.26.1-.63.21-1.09.24-.7.05-1.25-.12-1.57-.24-.21-.1-.47-.26-.72-.5-.12-.11-.22-.23-.31-.34Z"/>
      <path class="cls-4" d="M115.37,63.83c-.1.05-.14.16-.1.23.04.08.17.12.28.05.22-.14.61-.33,1.11-.36.03,0,.13,0,.27,0,.26.02.74.09,1.33.46.11.08.24.1.29.05.07-.06.06-.24-.09-.39-.13-.13-.65-.58-1.45-.62-.91-.05-1.52.48-1.64.59Z"/>
      <path class="cls-4" d="M131.53,64c-.08.02-.16,0-.21-.07-.05-.08-.03-.19.05-.26.07-.06.18-.14.32-.22.48-.24.98-.14,1.42-.06.21.04.49.11.81.25.05.01.43.14.46.38,0,.06,0,.16-.06.19-.05.02-.11-.01-.16-.04-.09-.06-.23-.13-.42-.21-.13-.06-.32-.12-.55-.17-.12-.02-.26-.05-.45-.04-.23,0-.34.06-.66.14-.13.03-.32.07-.55.11Z"/>
      <ellipse class="cls-5" cx="120.4" cy="79.61" rx=".47" ry=".53"/>
      <path class="cls-5" d="M129.88,78.57c-.19.04-.35.23-.35.23h0c-.14.3-.06.61.14.75.2.13.46.03.48.02.04-.02.23-.1.31-.31.06-.14.04-.27.03-.33,0-.06-.02-.13-.07-.2-.1-.15-.32-.21-.54-.16Z"/>
      <ellipse class="cls-6" cx="132.85" cy="71.46" rx="6.06" ry="4.62" transform="translate(44.76 193.91) rotate(-82.55)"/>
      <ellipse class="cls-6" cx="116.9" cy="71.46" rx="6.06" ry="4.62" transform="translate(38.43 183.77) rotate(-86.49)"/>
      <ellipse class="cls-1" cx="117.93" cy="71.61" rx="3.41" ry="4.65" transform="translate(-4.31 7.64) rotate(-3.64)"/>
      <ellipse class="cls-1" cx="131.51" cy="71.83" rx="4.65" ry="3.41" transform="translate(51.47 198.51) rotate(-86.36)"/>
    </g>
  </g>
</svg>