<?xml version="1.0" encoding="UTF-8"?>
<svg id="Camada_1" data-name="Camada 1" xmlns="http://www.w3.org/2000/svg" xmlns:xlink="http://www.w3.org/1999/xlink" viewBox="0 0 178.17 122.83">
  <defs>
    <style>
      .cls-1 {
        fill: #010101;
      }

      .cls-2 {
        fill: url(#Gradiente_sem_nome_3);
      }

      .cls-3 {
        fill: #8a64a5;
        font-family: SourGummy-Black, 'Sour Gummy';
        font-size: 146.47px;
        font-variation-settings: 'wdth' 100, 'wght' 900;
        font-weight: 800;
      }

      .cls-4 {
        fill: #353039;
      }

      .cls-5 {
        fill: #dc9bc3;
      }

      .cls-6 {
        fill: #ececed;
        stroke: #0e0915;
        stroke-miterlimit: 10;
        stroke-width: .25px;
      }

      .cls-7 {
        fill: #252128;
      }

      .cls-8 {
        fill: #6e5085;
      }
    </style>
    <linearGradient id="Gradiente_sem_nome_3" data-name="Gradiente sem nome 3" x1="78.26" y1="110.43" x2="78.26" y2="71.93" gradientTransform="translate(-8.44 -.34) rotate(-.05) scale(.97 .98) skewX(-.1)" gradientUnits="userSpaceOnUse">
      <stop offset="0" stop-color="#c5b1d4"/>
      <stop offset=".43" stop-color="#c3afd2"/>
      <stop offset=".59" stop-color="#bea8ce"/>
      <stop offset=".7" stop-color="#b49cc7"/>
      <stop offset=".79" stop-color="#a78bbe"/>
      <stop offset=".87" stop-color="#9675b1"/>
      <stop offset=".94" stop-color="#815ba1"/>
      <stop offset="1" stop-color="#683b8e"/>
      <stop offset="1" stop-color="#673a8e"/>
    </linearGradient>
  </defs>
  <text class="cls-3" transform="translate(5.5 112.92)"><tspan x="0" y="0">Y</tspan></text>
  <g>
    <g>
      <g>
        <path class="cls-8" d="M57.69,104.91h9.42c-.25,1.2-.49,2.4-.74,3.61-.14,1.79-1.55,3.23-3.32,3.4-1.75.17-3.4-.94-3.9-2.64-.49-1.46-.97-2.91-1.46-4.37Z"/>
        <path class="cls-8" d="M67.12,104.91h9.42c-.25,1.2-.49,2.4-.74,3.61-.14,1.79-1.55,3.23-3.32,3.4-1.75.17-3.4-.94-3.9-2.64-.49-1.46-.97-2.91-1.46-4.37Z"/>
        <path class="cls-8" d="M52.33,86.43l.17,9.42c-1.21-.22-2.41-.45-3.62-.67-1.79-.1-3.26-1.49-3.46-3.26-.2-1.75.88-3.41,2.57-3.95,1.45-.51,2.9-1.03,4.34-1.54Z"/>
        <path class="cls-8" d="M82.64,95.85l-.15-9.42c1.21.23,2.41.46,3.62.68,1.79.11,3.25,1.5,3.45,3.27.2,1.75-.89,3.41-2.58,3.94-1.45.51-2.9,1.02-4.35,1.53Z"/>
      </g>
      <path class="cls-2" d="M59.11,72.99c-.35.21-.12,1.26-.43,1.48-.34.23-1.29-.42-1.6-.18-.32.25-.2,1.03-.48,1.28-.31.27-.32.8-.58,1.07-.3.3-1.4-.22-1.64.06-.29.32-.66.56-.88.84-.25.32.12,1.1-.1,1.41-.23.33-1.08.25-1.28.58-.21.34.64,1.28.46,1.61s-.57.56-.74.91-.66.55-.81.91-.14.79-.3,1.15c-.14.34-.88.41-1.01.73s.56.98.44,1.31-.63.51-.73.85.5.82.42,1.18c-.07.33-.6.55-.65.92-.06.4-.7.73-.74,1.1-.03.41.84.84.83,1.21,0,.42-.35.79-.33,1.16.02.43-.22.84-.18,1.19.05.32-.14.73-.07,1.1.07.33,0,.73.09,1.08.09.33.03.75.15,1.1.11.33.18.72.31,1.06.13.34,1.6.11,1.74.41.15.33-.54,1.04-.39,1.34.17.33,0,.84.17,1.13.19.32.66.46.84.73.17.27,1.09.09,1.37.45.22.28.32.64.61.95.25.27.21.84.52,1.12.28.25.3.87.62,1.12.3.23.84.18,1.18.4.32.2.88-.06,1.2.1.34.17.38.97.7,1.1.36.15.73.27,1.07.38.37.12.94-.63,1.28-.55.39.09.71.13,1.04.17.43.06.76.18,1.05.19.39.03.76.33,1.16.35s.78-.15,1.19-.13.78-.05,1.18-.05.79.69,1.2.68c.4,0,.75-.95,1.13-.97s.81.52,1.2.49.78-.12,1.16-.16.73-.46,1.11-.51.94.96,1.31.9.8-.08,1.17-.15c.39-.07.71-.54,1.08-.62.3-.06.35-.96.69-1.08.29-.1.78.34,1.1.19.28-.13.96.45,1.27.28.28-.15.56-.39.86-.57.33-.2.41-.83.71-1.05.32-.23.14-1.04.42-1.28.3-.26,1.32.28,1.58.02.28-.28.13-.97.36-1.24.26-.31.69-.47.89-.75.25-.34.71-.53.89-.81.19-.35.23-.8.39-1.14.18-.36-.34-1.01-.19-1.36.15-.37.98-.46,1.11-.82.13-.38-.44-.96-.34-1.32.11-.39.44-.69.51-1.05.08-.4-.4-.84-.35-1.21.05-.41.99-.69,1.01-1.05.02-.42-.36-.82-.36-1.16-.01-.46.2-.85.17-1.16-.04-.35,0-.71-.06-1.04-.06-.35-.21-.68-.28-1-.08-.36-.65-.56-.74-.86-.11-.39.67-1.01.58-1.27-.13-.36-.46-.65-.59-1s-.49-.64-.63-.98c-.15-.36-.84-.47-.99-.8-.16-.36.58-1.11.42-1.44-.17-.35-.57-.59-.74-.91-.19-.35-.28-.74-.47-1.05-.16-.25-.75-.3-.96-.64-.18-.27.1-.9-.11-1.21-.19-.27-1.03-.09-1.26-.37-.21-.27.28-1.15.03-1.42-.23-.26-.44-.6-.69-.86-.18-.18-1.23.33-1.6-.01-.25-.23-.45-.56-.79-.83-.28-.23-.52-.53-.85-.77-.3-.21-.14-1.2-.48-1.41-.32-.2-1.32.77-1.67.58-.33-.18-.46-.74-.83-.9s-.52-.8-.9-.93-.8-.08-1.19-.19-.74-.32-1.13-.39-.79-.14-1.19-.17-.81.74-1.2.74c-.37,0-.78-1.11-1.13-1.08-.37.03-.72.53-1.07.58-.37.05-.73.17-1.08.24-.37.08-.59.66-.93.76-.36.11-.96-.51-1.29-.38-.36.14-.54.69-.85.83-.36.16-.7.29-.99.45-.37.2-.81.17-1.07.33Z"/>
    </g>
    <g>
      <path class="cls-7" d="M64.84,97.42c-.1-.19-.13-.36-.08-.4.06-.05.23.04.41.22.23.19.77.58,1.56.7,1.06.16,1.86-.27,2.11-.42.03-.02.07-.05.1-.07.02-.02.12-.14.29-.14.08,0,.14.03.17.05-.06.12-.16.29-.32.46-.05.05-.23.29-.55.42-.26.1-.63.21-1.09.24-.7.05-1.25-.12-1.57-.24-.21-.1-.47-.26-.72-.5-.12-.11-.22-.23-.31-.34Z"/>
      <path class="cls-4" d="M57.78,81.97c-.1.05-.14.16-.1.23.04.08.17.12.28.05.22-.14.61-.33,1.11-.36.03,0,.13,0,.27,0,.26.02.74.09,1.33.46.11.08.24.1.29.05.07-.06.06-.24-.09-.39-.13-.13-.65-.58-1.45-.62-.91-.05-1.52.48-1.64.59Z"/>
      <path class="cls-4" d="M73.94,82.14c-.08.02-.16,0-.21-.07-.05-.08-.03-.19.05-.26.07-.06.18-.14.32-.22.48-.24.98-.14,1.42-.06.21.04.49.11.81.25.05.01.43.14.46.38,0,.06,0,.16-.06.19-.05.02-.11-.01-.16-.04-.09-.06-.23-.13-.42-.21-.13-.06-.32-.12-.55-.17-.12-.02-.26-.05-.45-.04-.23,0-.34.06-.66.14-.13.03-.32.07-.55.11Z"/>
      <ellipse class="cls-5" cx="62.81" cy="97.75" rx=".47" ry=".53"/>
      <path class="cls-5" d="M72.3,96.71c-.19.04-.35.23-.35.23h0c-.14.3-.06.61.14.75.2.13.46.03.48.02.04-.02.23-.1.31-.31.06-.14.04-.27.03-.33,0-.06-.02-.13-.07-.2-.1-.15-.32-.21-.54-.16Z"/>
      <ellipse class="cls-6" cx="75.26" cy="89.6" rx="6.06" ry="4.62" transform="translate(-23.34 152.6) rotate(-82.55)"/>
      <ellipse class="cls-6" cx="59.31" cy="89.6" rx="6.06" ry="4.62" transform="translate(-33.75 143.32) rotate(-86.49)"/>
      <ellipse class="cls-1" cx="60.34" cy="89.75" rx="3.41" ry="4.65" transform="translate(-5.58 4.02) rotate(-3.64)"/>
      <ellipse class="cls-1" cx="73.92" cy="89.97" rx="4.65" ry="3.41" transform="translate(-20.56 158.02) rotate(-86.36)"/>
    </g>
  </g>
  <text class="cls-3" transform="translate(79.93 112.92)"><tspan x="0" y="0">U</tspan></text>
  <text class="cls-3" transform="translate(5.5 241.3)"><tspan x="0" y="0">Y</tspan></text>
  <text class="cls-3" transform="translate(80.78 245.2)"><tspan x="0" y="0">U</tspan></text>
</svg>