<?xml version="1.0" encoding="UTF-8"?>
<svg id="Camada_1" xmlns="http://www.w3.org/2000/svg" xmlns:xlink="http://www.w3.org/1999/xlink" version="1.1" viewBox="0 0 178.2 122.8">
  <!-- Generator: Adobe Illustrator 29.3.1, SVG Export Plug-In . SVG Version: 2.1.0 Build 151)  -->
  <defs>
    <style>
      .st0 {
        fill: #010101;
      }

      .st1 {
        fill: #252128;
      }

      .st2 {
        fill: url(#Gradiente_sem_nome_32);
      }

      .st3 {
        fill: #926bab;
      }

      .st4 {
        isolation: isolate;
      }

      .st5 {
        fill: #8a64a5;
      }

      .st6 {
        fill: #6e5085;
      }

      .st7 {
        opacity: .4;
      }

      .st8 {
        fill: #ebecec;
        stroke: #0e0915;
        stroke-miterlimit: 10;
        stroke-width: .2px;
      }

      .st9 {
        fill: #353039;
      }

      .st10 {
        fill: #dc9ac2;
      }
    </style>
    <linearGradient id="Gradiente_sem_nome_32" data-name="Gradiente sem nome 32" x1="120.1" y1="90" x2="120.1" y2="51.1" gradientTransform="translate(8.9 3.4) rotate(0) scale(1 1) skewX(0)" gradientUnits="userSpaceOnUse">
      <stop offset="0" stop-color="#c4b0d3"/>
      <stop offset=".5" stop-color="#c2aed1"/>
      <stop offset=".7" stop-color="#bda7cb"/>
      <stop offset=".8" stop-color="#b39bc2"/>
      <stop offset=".9" stop-color="#a68ab4"/>
      <stop offset="1" stop-color="#9474a2"/>
      <stop offset="1" stop-color="#8c6a99"/>
    </linearGradient>
  </defs>
  <g class="st4">
    <path class="st5" d="M43.6,81.6c-9.3-1.2-16.8-4.2-22.7-9.1-5.9-4.9-9.8-11.3-11.9-19.1-2.1-7.9-2-16.7.1-26.4.8-2,1.7-3.6,2.8-4.8,1.1-1.3,2.5-2.3,4.4-3.1,1.9-.8,4.2-.9,7.2-.4,3.3.5,5.9,1.4,7.6,2.8,1.8,1.4,3,2.8,3.7,4.3s1.2,3.4,1.5,5.6c-.4,8.3-.3,14.6.2,18.9s1.9,6.7,4,7.2c1.1,0,2.4-.5,3.9-1.8s3-3.2,4.3-5.6c1.4-2.4,2.4-5.1,3.1-8.2s.9-6.3.4-9.6c-.4-2.2-.5-4.2-.2-5.8.2-1.6,1-3.1,2.3-4.6s3.4-2.5,6.4-3.1c3.5-.7,6.5-.6,8.9.3s4.3,2.1,5.7,3.5c1.4,1.5,2.8,3.4,4,5.9,1.3,5.5,1.6,11.1,1.1,17-.5,5.9-2.2,11.4-4.9,16.6-2.7,5.2-6.7,9.6-12,13.1-5.3,3.5-12,5.7-20.1,6.4h.2ZM44.8,112.1c-2.9,0-5.3-.5-7.2-1.6s-3.3-2.3-4.4-3.7c-1.1-1.4-2.1-3.1-2.9-5.3-1.1-5.8-1.6-11.5-1.5-17.1,0-5.7.4-11.1,1-16.4l27.1.7c-.6,6.3-.9,12.5-.8,18.4,0,5.9.3,11.2.8,15.7-.3,1.9-.8,3.4-1.5,4.6s-1.9,2.3-3.6,3.2c-1.7.9-4,1.4-7,1.4h0Z"/>
  </g>
  <g>
    <g class="st4">
      <g class="st4">
        <path class="st5" d="M126.3,112.1c-8.4-.6-15.7-2.7-22-6.3-6.2-3.6-11.2-9.1-14.7-16.3-3.6-7.3-5.5-16.7-5.9-28.2V24.6c.5-1.8,1.1-3.2,1.8-4.3.7-1.1,1.9-2.1,3.4-3,1.6-.9,3.7-1.3,6.4-1.3s6.7.6,8.9,1.9c2.2,1.3,3.8,2.7,4.9,4.4,1.1,1.7,1.9,3.8,2.5,6.3l.6,34.3c0,5.7.8,10.3,2.1,13.8,1.3,3.6,2.9,6.2,4.8,7.9,1.9,1.7,3.8,2.8,5.6,3.1,3-.5,5.5-1.9,7.3-4.2,1.9-2.3,3.2-5.9,4.1-10.8.9-4.9,1.3-11.5,1.3-19.8l-.3-25.3c0-2.1.4-3.9,1-5.3s1.7-2.7,3.4-3.7c1.7-1.1,4.2-1.6,7.4-1.6s6.1.6,8.2,1.8c2.1,1.2,3.8,2.6,5,4.3s2,3.4,2.6,5.2c.5,1.8,1,3.8,1.2,6.2l.7,26.1c0,7-.6,13.6-1.8,19.7-1.2,6.1-3.3,11.5-6.3,16.2s-7.1,8.4-12.4,11.1c-5.3,2.7-12,4.2-20.1,4.5h.3Z"/>
      </g>
    </g>
    <g>
      <path class="st6" d="M115.5,88.2h9.4c-.2,1.2-.5,2.4-.7,3.6-.1,1.8-1.5,3.2-3.3,3.4-1.8.2-3.4-.9-3.9-2.6-.5-1.5-1-2.9-1.5-4.4Z"/>
      <path class="st6" d="M124.9,88.2h9.4c-.2,1.2-.5,2.4-.7,3.6-.1,1.8-1.5,3.2-3.3,3.4-1.8.2-3.4-.9-3.9-2.6-.5-1.5-1-2.9-1.5-4.4Z"/>
      <path class="st2" d="M117.3,56.8c-.3.2-.9.1-1.2.3s-1,0-1.3.2.2,1.5-.1,1.7-.6.5-.9.8-.7.4-1,.7-.9.3-1.1.6c-.3.3-.2.8-.4,1.1s-1.2.2-1.4.5-.2.9-.3,1.2-.7.6-.8.9.3,1,.2,1.4-.3.7-.5,1.1c-.1.3-.6.5-.7.8s.6,1,.4,1.3-.3.6-.4.9-.2.6-.3,1-.6.6-.7.9c0,.4-.2.8-.3,1.2s0,.8,0,1.2-.4.9-.4,1.2.6.8.6,1.2c0,.3.7.6.8.9s-.2.7,0,1.1.4.6.5.9-.6,1-.5,1.3c.1.3.7.5.8.8s.4.6.5.9.4.6.5.9.4.6.6.9c.2.3-.2,1,0,1.4s.6.5.9.8,1.3-.3,1.6,0,.3.8.6,1.1.4.7.8.9c.3.2.9,0,1.2.1s.7,0,1.1.2.4.9.8,1,.7.4,1,.5.8,0,1.1,0,.8,0,1.1,0c.4,0,.8-.4,1.2-.4s.7,1,1.1,1,.8-.4,1.2-.4.8.4,1.2.4c.4,0,.8-.3,1.2-.3s.8.5,1.2.4.7-1,1.1-1,.8.5,1.2.4.7-.9,1-.9.8.2,1.2.1.9.6,1.3.5c.3,0,.5-.8.8-1s.9.5,1.2.3.3-.9.6-1,.6-.2.9-.4c.3-.2.8-.2,1.1-.5s.1-1.1.4-1.3.6-.5.8-.7.9-.2,1.2-.5,0-1,.1-1.3.9-.4,1-.6c.2-.3.9-.4,1.1-.8s-.7-1.2-.5-1.5.7-.6.8-.9,1-.5,1.1-.9-.7-1-.7-1.4.8-.7.8-1,.3-.8.3-1.2,0-.9,0-1.2-.4-.9-.4-1.2c0-.3-.2-.7-.3-1s-.9-.5-.9-.8,0-.7-.2-1-.1-.7-.2-1c-.1-.4.3-.9.2-1.3s.2-.9,0-1.3-.7-.6-.8-.9-.4-.7-.6-1-.3-.7-.4-1.1-.8-.4-1-.7c-.2-.3-.4-.5-.6-.9s0-.8-.3-1.1-.9-.1-1.2-.4-.4-.5-.7-.8,0-.9-.3-1.1c-.2-.2-.6-.3-1-.6s.1-1.3-.2-1.5-.7-.4-1-.7-1.1.3-1.4,0-.3-1-.7-1.2-.9.1-1.3,0-.6-.6-1-.8-1,.6-1.4.5-.6-.7-1-.7-.8-.1-1.2-.2-.8-.8-1.2-.8c-.4,0-.7.6-1.1.6s-.6.8-1,.9-.9-.8-1.2-.7-.9-.3-1.2-.2-.3,1.3-.7,1.5-.9-.2-1.2,0-.3,1-.6,1.1-.8,0-1.1.2Z"/>
      <g class="st7">
        <path class="st3" d="M116.8,56.1c-.3.2-.3.9-.7,1.2s-.8.2-1.1.5-.2,1-.5,1.2-.5.6-.8.8-1.1,0-1.3.3-.8.4-1,.7c-.3.3,0,1-.2,1.3s-.9.3-1.1.7-.2.8-.4,1.1-.1.8-.3,1.2,0,.9,0,1.2-.6.6-.7.9c-.1.3-.9.4-1.1.7s-.1.7-.3,1.1,0,.7-.2,1.1.1.7,0,1.1,0,.7-.1,1c0,.4-.6.7-.7,1.1s0,.8,0,1.2-.2.8-.1,1.2,1.2.7,1.2,1c0,.3-.3.7-.2,1.1s-.6.8-.5,1.2,1.1.4,1.2.7,0,.7.2,1c.1.3-.5,1-.4,1.3s.2.7.4,1,1.5,0,1.6.3-.5,1.1-.3,1.4c.2.3.8.3,1.1.7s.3.7.6,1,.2.9.5,1.2,1.1-.1,1.4.1,0,1.2.4,1.5c.3.2,1.1-.4,1.4-.3s.4,1,.7,1.2.8,0,1.2,0,.6.7,1,.7.8,0,1.1.1.9-.9,1.2-.9c.4,0,.7,1.3,1.1,1.3s.8-.1,1.2-.1.8-.6,1.2-.6.8,0,1.2,0c.4,0,.8.3,1.2.3s.8.4,1.2.4.7-.7,1.1-.7.9.4,1.2.4.7-.8,1.1-.9.7-.3,1.1-.4.8,0,1.2-.1c.3,0,.6,0,1-.2s.5-.5.8-.6.7,0,1-.2.9.3,1.2,0c.3-.2,0-1.3.3-1.6s.6-.4.9-.6.8-.3,1-.5.8-.3,1.1-.6.7-.5.9-.8.3-.8.5-1.1c.2-.3-.2-1,0-1.3s1.1-.4,1.3-.7.4-.7.5-1.1-.1-.9,0-1.2-.3-.9-.3-1.3,0-.8.1-1.1.7-.7.7-1.1.2-.8.2-1.2,0-.9,0-1.2c0-.3.1-.7,0-1.1s-1.2-.5-1.2-.8-.3-.6-.4-.9.9-1.1.8-1.3c-.1-.4-.5-.6-.7-1s-.2-.8-.3-1.1-.6-.6-.7-.9-.7-.5-.9-.8-.1-.8-.3-1.1,0-.9-.2-1.2c-.2-.3-.2-.7-.4-1s-1-.2-1.2-.5.3-1.1.1-1.4-1.1,0-1.3-.3,0-.9-.3-1.2c-.2-.2-.6-.3-1-.7s-.5-.6-.8-.8-1,.1-1.4-.1-.2-1.1-.6-1.3-1.1.5-1.5.3,0-1.6-.4-1.8-.9,0-1.3-.1-.8-.3-1.1-.4-.8-.2-1.2-.2-.9.6-1.3.5-.7,0-1.1,0c-.4,0-.7.1-1.1.2s-.7.3-1,.3-.7-.1-1.1,0-1-.8-1.3-.7-.4,1.3-.7,1.4-.6.3-1,.4-1.2-.8-1.5-.6-.6.6-.8.8Z"/>
      </g>
      <g>
        <path class="st1" d="M122.7,80.7c-.1-.2-.1-.4,0-.4,0,0,.2,0,.4.2.2.2.8.6,1.6.7,1.1.2,1.9-.3,2.1-.4,0,0,0,0,.1,0,0,0,.1-.1.3-.1,0,0,.1,0,.2,0,0,.1-.2.3-.3.5,0,0-.2.3-.6.4-.3.1-.6.2-1.1.2-.7,0-1.3-.1-1.6-.2-.2-.1-.5-.3-.7-.5-.1-.1-.2-.2-.3-.3Z"/>
        <path class="st9" d="M115.6,65.2c-.1,0-.1.2-.1.2,0,0,.2.1.3,0,.2-.1.6-.3,1.1-.4,0,0,.1,0,.3,0,.3,0,.7,0,1.3.5.1,0,.2,0,.3,0,0,0,0-.2,0-.4-.1-.1-.6-.6-1.4-.6-.9,0-1.5.5-1.6.6Z"/>
        <path class="st9" d="M131.8,65.4c0,0-.2,0-.2,0,0,0,0-.2,0-.3,0,0,.2-.1.3-.2.5-.2,1-.1,1.4,0,.2,0,.5.1.8.2,0,0,.4.1.5.4,0,0,0,.2,0,.2,0,0-.1,0-.2,0,0,0-.2-.1-.4-.2-.1,0-.3-.1-.6-.2-.1,0-.3,0-.4,0-.2,0-.3,0-.7.1-.1,0-.3,0-.5.1Z"/>
        <ellipse class="st10" cx="120.6" cy="81" rx=".5" ry=".5"/>
        <path class="st10" d="M130.1,80c-.2,0-.4.2-.4.2h0c-.1.3,0,.6.1.7.2.1.5,0,.5,0,0,0,.2,0,.3-.3,0-.1,0-.3,0-.3,0,0,0-.1,0-.2-.1-.1-.3-.2-.5-.2Z"/>
        <ellipse class="st8" cx="133.1" cy="72.9" rx="6.1" ry="4.6" transform="translate(43.6 195.4) rotate(-82.5)"/>
        <ellipse class="st8" cx="117.1" cy="72.9" rx="6.1" ry="4.6" transform="translate(37.2 185.3) rotate(-86.5)"/>
        <ellipse class="st0" cx="118.2" cy="73" rx="3.4" ry="4.6" transform="translate(-4.4 7.7) rotate(-3.6)"/>
        <ellipse class="st0" cx="131.7" cy="73.2" rx="4.6" ry="3.4" transform="translate(50.3 200.1) rotate(-86.4)"/>
      </g>
    </g>
  </g>
</svg>