<?xml version="1.0" encoding="UTF-8"?>
<svg xmlns="http://www.w3.org/2000/svg" xmlns:xlink="http://www.w3.org/1999/xlink" viewBox="0 0 55.7 70.81">
  <defs>
    <style>
      .cls-1 {
        opacity: .75;
      }

      .cls-1, .cls-2, .cls-3 {
        fill: #45b4b9;
        mix-blend-mode: multiply;
      }

      .cls-2 {
        opacity: .35;
      }

      .cls-3 {
        opacity: .2;
      }

      .cls-4 {
        fill: #010101;
      }

      .cls-5 {
        fill: url(#Gradiente_sem_nome_3);
      }

      .cls-6 {
        fill: url(#linear-gradient);
      }

      .cls-7 {
        isolation: isolate;
      }

      .cls-8 {
        fill: url(#New_Gradient_Swatch_copy_9);
      }

      .cls-9 {
        fill: #fff;
      }

      .cls-10 {
        fill: url(#New_Gradient_Swatch_copy_9-2);
      }

      .cls-11 {
        fill: #926cac;
      }

      .cls-12 {
        fill: #353039;
      }

      .cls-13 {
        opacity: .31;
      }

      .cls-14 {
        fill: #dc9bc3;
      }

      .cls-15 {
        fill: #8a63a5;
      }

      .cls-16 {
        fill: #ececed;
        stroke: #0e0915;
        stroke-miterlimit: 10;
        stroke-width: .25px;
      }

      .cls-17 {
        fill: #252128;
      }
    </style>
    <linearGradient id="Gradiente_sem_nome_3" data-name="Gradiente sem nome 3" x1="11.67" y1="40.57" x2="11.67" y2="1.56" gradientTransform="translate(15.9 4.04) rotate(-.05) scale(.97 .98) skewX(-.1)" gradientUnits="userSpaceOnUse">
      <stop offset="0" stop-color="#c5b1d4"/>
      <stop offset=".43" stop-color="#c3afd2"/>
      <stop offset=".59" stop-color="#bea8ce"/>
      <stop offset=".7" stop-color="#b49cc7"/>
      <stop offset=".79" stop-color="#a78bbe"/>
      <stop offset=".87" stop-color="#9675b1"/>
      <stop offset=".94" stop-color="#815ba1"/>
      <stop offset="1" stop-color="#683b8e"/>
      <stop offset="1" stop-color="#673a8e"/>
    </linearGradient>
    <linearGradient id="New_Gradient_Swatch_copy_9" data-name="New Gradient Swatch copy 9" x1="-468.74" y1="-906.08" x2="-468.74" y2="-710.22" gradientTransform="translate(102.09 139.04) rotate(-2.57) scale(.15 .13)" gradientUnits="userSpaceOnUse">
      <stop offset="0" stop-color="#b0d8bb"/>
      <stop offset=".16" stop-color="#a8d5ba"/>
      <stop offset=".39" stop-color="#93ceba"/>
      <stop offset=".67" stop-color="#72c3b9"/>
      <stop offset=".98" stop-color="#45b4b9"/>
    </linearGradient>
    <linearGradient id="New_Gradient_Swatch_copy_9-2" data-name="New Gradient Swatch copy 9" x1="-411.75" y1="-717.22" x2="-298.76" y2="-548.76" xlink:href="#New_Gradient_Swatch_copy_9"/>
    <linearGradient id="linear-gradient" x1="-420.02" y1="-739.07" x2="-518.78" y2="-874.61" gradientTransform="translate(102.09 139.04) rotate(-2.57) scale(.15 .13)" gradientUnits="userSpaceOnUse">
      <stop offset=".02" stop-color="#45b4b9"/>
      <stop offset=".33" stop-color="#72c3b9"/>
      <stop offset=".61" stop-color="#93ceba"/>
      <stop offset=".84" stop-color="#a8d5ba"/>
      <stop offset="1" stop-color="#b0d8bb"/>
    </linearGradient>
  </defs>
  <g class="cls-7">
    <g id="Camada_1" data-name="Camada 1">
      <g>
        <g>
          <path class="cls-15" d="M17.38,40.32h9.42c-.25,1.2-.49,2.4-.74,3.61-.14,1.79-1.55,3.23-3.32,3.4-1.75.17-3.4-.94-3.9-2.64-.49-1.46-.97-2.91-1.46-4.37Z"/>
          <path class="cls-15" d="M26.8,40.32h9.42c-.25,1.2-.49,2.4-.74,3.61-.14,1.79-1.55,3.23-3.32,3.4-1.75.17-3.4-.94-3.9-2.64-.49-1.46-.97-2.91-1.46-4.37Z"/>
          <path class="cls-15" d="M12.02,21.83l.17,9.42c-1.21-.22-2.41-.45-3.62-.67-1.79-.1-3.26-1.49-3.46-3.26-.2-1.75.88-3.41,2.57-3.95,1.45-.51,2.9-1.03,4.34-1.54Z"/>
          <path class="cls-15" d="M42.33,31.25l-.15-9.42c1.21.23,2.41.46,3.62.68,1.79.11,3.25,1.5,3.45,3.27.2,1.75-.89,3.41-2.58,3.94-1.45.51-2.9,1.02-4.35,1.53Z"/>
        </g>
        <path class="cls-5" d="M19.25,9.12c-.35.21-1.14-.29-1.45-.08-.34.23-.57.6-.87.84-.32.25-.73.4-1.02.65-.31.27-.45.71-.72.98-.3.3-.32.81-.56,1.09-.29.32-.47.66-.69.93-.25.32-.29.74-.51,1.05-.23.33-1.47-.02-1.67.31-.21.34-.47.68-.65,1.02s.67,1.23.5,1.57-1.12.34-1.28.7.28.97.12,1.33c-.14.34-.38.62-.51.93s-1.1.34-1.22.67.48.92.38,1.26.34.79.26,1.14c-.07.33-.85.53-.91.89-.06.4.43.85.4,1.23-.03.41.1.78.09,1.15,0,.42.17.76.19,1.13.02.43-.59.85-.54,1.2.05.32.51.58.59.95.07.33-.75.88-.66,1.24.09.33.71.53.82.88.11.33,0,.74.14,1.08.13.34.67.49.8.8.15.33.67.44.82.74.17.33-.31.97-.14,1.25.19.32.15.76.33,1.03.17.27.36.66.63,1.02.22.28,1.1.05,1.38.36.25.27.34.69.64.97.28.25.81.15,1.14.4.3.23.03,1.29.37,1.5.32.2.64.44.96.61.34.17.62.56.95.69.36.15.79.19,1.12.3.37.12.84-.09,1.18-.01.39.09.8-.05,1.13,0,.43.06.83-.28,1.12-.26.39.03.72,1.04,1.13,1.06s.83-1.01,1.24-.99.77.95,1.18.95.81.17,1.21.16c.4,0,.75-1.16,1.13-1.17s.86,1,1.24.97.68-1.19,1.07-1.23.93,1.14,1.31,1.09.59-1.45.97-1.51.74-.21,1.12-.28c.39-.07,1.06,1.28,1.43,1.2.3-.06.69-.21,1.02-.33.29-.1.41-.79.73-.93.28-.13.29-.82.6-.99.28-.15.97.41,1.27.23.33-.2.48-.7.77-.92.32-.23.66-.41.94-.65.3-.26.09-1.01.35-1.27.28-.28,1.35.2,1.59-.08.26-.31.61-.57.82-.86.25-.34.59-.65.76-.93.19-.35-.6-1.23-.43-1.56.18-.36.53-.61.67-.96.15-.37,1.16-.42,1.28-.77.13-.38-.61-1.03-.51-1.39.11-.39-.22-.84-.15-1.2.08-.4,1.22-.6,1.27-.96.05-.41-.78-.88-.76-1.24.02-.42.57-.79.56-1.14-.01-.46.14-.88.1-1.18-.04-.35-.29-.67-.34-1.01-.06-.35.1-.75.03-1.07-.08-.36-.1-.74-.18-1.04-.11-.39-.72-.58-.81-.83-.13-.36.14-.87,0-1.22s-.27-.72-.41-1.07c-.15-.36-1.16-.34-1.31-.67-.16-.36-.07-.8-.23-1.13-.17-.35-.55-.56-.72-.88-.19-.35.42-1.12.24-1.43-.16-.25-.45-.5-.67-.83-.18-.27-.04-.81-.26-1.12-.19-.27-1.2.03-1.42-.26-.21-.27-.65-.33-.89-.61-.23-.26-.16-.77-.42-1.03-.18-.18.04-1.01-.33-1.35-.25-.23-.94-.04-1.28-.31-.28-.23-.8-.16-1.13-.4-.3-.21-.51-.57-.86-.78-.32-.2-.59-.49-.94-.68-.33-.18-.82,0-1.19-.17s-.65-.36-1.02-.49-.65-.41-1.04-.51-.66-.59-1.05-.66-.8.05-1.19.02-.78.62-1.18.61c-.37,0-.78-1.34-1.13-1.31-.37.03-.65,1.02-1,1.07-.37.05-.83-.43-1.17-.36-.37.08-.84-.15-1.18-.05-.36.11-.72.32-1.05.45-.36.14-.33,1.15-.65,1.3-.36.16-1.18-.66-1.47-.5-.37.2-.04,1.5-.3,1.66Z"/>
        <g class="cls-13">
          <path class="cls-11" d="M19.34,8.53c-.35.21-.3.98-.61,1.2-.34.23-1.04-.07-1.34.16-.32.25-.16,1.05-.44,1.3-.31.27-1.47-.39-1.74-.12-.3.3-.54.66-.79.94-.29.32.1,1.18-.12,1.45-.25.32-1.02.23-1.24.54-.23.33-.28.79-.48,1.11-.21.34.25,1.04.07,1.38s-.61.55-.77.9-.44.65-.6,1.01-.19.76-.35,1.12c-.14.34-.65.5-.78.82s-.58.55-.7.87-.49.61-.59.95.55.89.47,1.24c-.07.33-.53.61-.59.98-.06.4.65.88.61,1.26-.03.41-.27.77-.28,1.14,0,.42-.65.83-.63,1.2.02.43.17.84.21,1.19.05.32,0,.72.07,1.09.07.33,1.15.43,1.25.79.09.33.04.68.15,1.03.11.33.33.6.46.94.13.34-.26.86-.13,1.17.15.33-.13.87.02,1.17.17.33.92.32,1.08.61.19.32.6.46.78.73.17.27.5.48.77.83.22.28-.47,1.37-.18,1.68.25.27,1.05.06,1.36.33.28.25.27.89.6,1.14.3.23.82.2,1.17.42.32.2.36.94.68,1.1.34.17.96-.21,1.29-.08.36.15.82-.07,1.16.03.37.12.6.68.94.76.39.09.75.33,1.08.37.43.06.88-.77,1.18-.75.39.03.77.24,1.17.26s.76.6,1.16.61.8-.75,1.2-.75.79.79,1.2.78c.4,0,.78-.35,1.16-.37s.78-.14,1.16-.17.83.4,1.21.36.82.12,1.2.07.82.05,1.2,0,.8-.13,1.17-.2c.39-.07.61-1.01.98-1.09.3-.06.64-.02.97-.14.29-.1.45-.54.77-.69.28-.13.42-.51.73-.68.28-.15.6-.19.89-.37.33-.2.52-.52.82-.73.32-.23.86-.1,1.14-.34.3-.26,1.14.06,1.4-.2.28-.28.57-.6.8-.87.26-.31-.44-1.35-.24-1.63.25-.34,1.27-.11,1.44-.39.19-.35.02-.9.18-1.23.18-.36.34-.71.48-1.06.15-.37-.3-.94-.18-1.29.13-.38.61-.6.71-.96.11-.39.67-.65.74-1.01.08-.4-.52-.88-.47-1.25.05-.41.11-.75.13-1.11.02-.42.31-.78.3-1.12-.01-.46-.37-.79-.41-1.09-.04-.35.43-.75.38-1.08-.06-.35-.11-.69-.19-1.01-.08-.36.09-.77,0-1.07-.11-.39-.23-.74-.32-1-.13-.36-.39-.68-.52-1.02s-.98-.43-1.12-.77c-.15-.36-.19-.74-.34-1.07-.16-.36.39-1.02.24-1.35-.17-.35-1.03-.33-1.2-.65-.19-.35.56-1.21.37-1.52-.16-.25-1.31.05-1.53-.28-.18-.27-.44-.49-.66-.8-.19-.27-.25-.63-.48-.92-.21-.27-.09-.81-.34-1.08-.23-.26-.79-.19-1.05-.45-.18-.18.18-1.14-.2-1.48-.25-.23-.97,0-1.31-.27-.28-.23-.4-.71-.74-.95-.3-.21-.97.12-1.32-.09-.32-.2-.55-.52-.9-.71-.33-.18-.44-.85-.8-1s-1.01.52-1.38.38-.56-.7-.94-.8-.74-.15-1.13-.21-.74-.18-1.14-.21-.76.4-1.16.4c-.37,0-.76-1.1-1.12-1.08-.37.03-.67.77-1.02.82-.37.05-.63.49-.97.57-.37.08-.74-.04-1.08.06-.36.11-.6.43-.93.56-.36.14-.89-.25-1.2-.1-.36.16-.91-.11-1.2.05-.37.2-.54.66-.8.82Z"/>
        </g>
        <g>
          <path class="cls-17" d="M24.53,32.82c-.1-.19-.13-.36-.08-.4.06-.05.23.04.41.22.23.19.77.58,1.56.7,1.06.16,1.86-.27,2.11-.42.03-.02.07-.05.1-.07.02-.02.12-.14.29-.14.08,0,.14.03.17.05-.06.12-.16.29-.32.46-.05.05-.23.29-.55.42-.26.1-.63.21-1.09.24-.7.05-1.25-.12-1.57-.24-.21-.1-.47-.26-.72-.5-.12-.11-.22-.23-.31-.34Z"/>
          <path class="cls-12" d="M17.47,17.37c-.1.05-.14.16-.1.23.04.08.17.12.28.05.22-.14.61-.33,1.11-.36.03,0,.13,0,.27,0,.26.02.74.09,1.33.46.11.08.24.1.29.05.07-.06.06-.24-.09-.39-.13-.13-.65-.58-1.45-.62-.91-.05-1.52.48-1.64.59Z"/>
          <path class="cls-12" d="M33.63,17.54c-.08.02-.16,0-.21-.07-.05-.08-.03-.19.05-.26.07-.06.18-.14.32-.22.48-.24.98-.14,1.42-.06.21.04.49.11.81.25.05.01.43.14.46.38,0,.06,0,.16-.06.19-.05.02-.11-.01-.16-.04-.09-.06-.23-.13-.42-.21-.13-.06-.32-.12-.55-.17-.12-.02-.26-.05-.45-.04-.23,0-.34.06-.66.14-.13.03-.32.07-.55.11Z"/>
          <ellipse class="cls-14" cx="22.5" cy="33.16" rx=".47" ry=".53"/>
          <path class="cls-14" d="M31.99,32.11c-.19.04-.35.23-.35.23h0c-.14.3-.06.61.14.75.2.13.46.03.48.02.04-.02.23-.1.31-.31.06-.14.04-.27.03-.33,0-.06-.02-.13-.07-.2-.1-.15-.32-.21-.54-.16Z"/>
          <ellipse class="cls-16" cx="34.95" cy="25" rx="6.06" ry="4.62" transform="translate(5.63 56.41) rotate(-82.55)"/>
          <ellipse class="cls-16" cx="19" cy="25" rx="6.06" ry="4.62" transform="translate(-7.11 42.44) rotate(-86.49)"/>
          <ellipse class="cls-4" cx="20.03" cy="25.15" rx="3.41" ry="4.65" transform="translate(-1.56 1.32) rotate(-3.64)"/>
          <ellipse class="cls-4" cx="33.61" cy="25.37" rx="4.65" ry="3.41" transform="translate(6.16 57.3) rotate(-86.36)"/>
        </g>
      </g>
      <g>
        <g>
          <path class="cls-8" d="M44.77,43.53c-.03,1.51-.29,2.88-.89,3.83-.01.02-.02.04-.03.06h0c-.19.29-.41.54-.67.74-.38.3-1.01.58-1.85.83-.27.08-.57.17-.89.25h0c-.21.05-.42.1-.64.15h0c-.4.09-.82.17-1.27.26-1.38.26-2.97.48-4.68.66-.54.06-1.1.11-1.66.16-.42.04-.84.07-1.26.1-8.17.62-17.61.38-19.38-1.16-.17-.15-.33-.32-.48-.51-.08-.1-.15-.2-.22-.31-.16-.25-.3-.52-.43-.81,0-.02-.02-.04-.03-.06-.2-.46-.36-.98-.49-1.54h0c-.05-.22-.1-.44-.14-.68h0c-.09-.52-.16-1.08-.21-1.64-.15-1.8-.07-3.78.15-5.61.03-.22.06-.44.09-.65.05-.33.1-.65.15-.97.21-1.23.49-2.34.8-3.21,1.01-2.88,29.28-1.84,31.36-.38.48.34,1.13,1.76,1.67,3.61.07.23.13.46.19.7.19.71.35,1.47.49,2.24.13.77.23,1.56.29,2.34.04.55.06,1.09.05,1.61Z"/>
          <path class="cls-9" d="M43.95,37.34l-5.51-2.77c-.3-.15-.65-.17-.98-.07l-9.04,2.9c-.36.12-.76.13-1.13.04l-10.44-2.63c-.31-.08-.65-.04-.93.11l-6.22,3.32c.03-.22.06-.44.09-.65l5.81-3.1c.43-.23.96-.29,1.45-.17l10.44,2.63c.24.06.49.05.73-.02l9.04-2.9c.51-.16,1.06-.12,1.52.11l4.99,2.51c.07.23.13.46.19.7Z"/>
          <g>
            <path class="cls-9" d="M39.5,49.36c.1.02.2.04.3.04-.4.09-.82.17-1.27.26l-9.66-2.43c-.24-.06-.49-.05-.73.02l-9.04,2.9c-.51.16-1.06.12-1.52-.11l-7.68-3.86h0c-.05-.22-.1-.44-.14-.68l8.14,4.09c.3.15.65.17.98.07l9.04-2.9c.36-.12.76-.13,1.13-.04l10.44,2.63Z"/>
            <path class="cls-9" d="M43.85,47.42c-.19.29-.41.54-.67.74-.5.39-1.46.76-2.74,1.08l3.41-1.82Z"/>
          </g>
        </g>
        <path class="cls-1" d="M43.88,47.36c.14-.83.46-2.91-.55-3.05-1.25-.17-3.7,1.2-3.7,1.2l1.69,3.48c-.27.08-.57.17-.89.25h0c-.21.05-.42.1-.64.15h0c-.4.09-.82.17-1.27.26-2.15.4-4.8.71-7.6.92.09-1.02-.15-2.76-1.43-2.58-1.69.24-6.27,2.15-11.36,2.24-3.67.06-6.12-1.06-7.07-1.33-.26-.34-.49-.73-.68-1.18l-.16-1.21s3.34-1.57,3.91-1.75c.57-.19,7.19-1.16,9.88-1.41s17.53-4.49,17.76-4.5c.12,0,1.37.34,2.66.73.5,2.9.55,6.03-.55,7.78Z"/>
        <path class="cls-1" d="M44.77,43.53c-.33.1-.72.18-1.15.22-2.03.18-4.26,1.13-4.26,1.13l-1.61,3.18-3.91,2.24c-.54.06-1.1.11-1.66.16.01-.55-.02-1.28-.24-1.93-.42-1.22-.84-2.09-2.23-1.49-1.39.6-6.84,2.19-11.77,2.33-4.17.11-6.48-.58-7.1-.79-.16-.25-.3-.52-.43-.81l27.84-8,6.47,2.14c.04.55.06,1.09.05,1.61Z"/>
        <path class="cls-9" d="M38.64,35.72c.02.4-.36.75-.84.77-.48.02-.89-.29-.91-.69s.36-.75.84-.77c.48-.02.89.29.91.69Z"/>
        <g>
          <path class="cls-10" d="M48.35,59.66c0,.09,0,.18,0,.27-.01.14-.04.29-.07.43-1.17,4.58-7.03,6.06-9.98,6.51-.73.11-1.42-.23-1.68-.77-.06-.12-.09-.25-.1-.39-.09-1.31-.21-2.57-.37-3.76h0c-.01-.11-.03-.21-.04-.32-.31-2.22-.72-4.21-1.2-6h0c-.03-.11-.06-.21-.09-.32-.73-2.68-1.6-4.86-2.42-6.58-.04-.09-.09-.18-.13-.27-.17-.34-.33-.66-.49-.96-1.21-2.29-2.22-3.48-2.4-3.68-.02-.02-.03-.03-.03-.03h.05s7.88-1.71,7.88-1.71l1.58-.34c.18.26.37.51.55.77.63.9,1.23,1.79,1.8,2.68.14.22.27.43.41.65.06.1.12.2.18.3.53.86,1.03,1.71,1.5,2.54.73,1.29,1.39,2.53,1.96,3.67h0c.05.1.1.19.15.29,1.44,2.89,2.37,5.16,2.78,6.21.1.26.16.54.17.81Z"/>
          <g>
            <path class="cls-9" d="M41.8,46.14l-1.98-.34c-.08-.01-.17,0-.24.05l-2.29,1.59c-.1.07-.23.11-.36.12l-3.37.11c-.08,0-.16.04-.21.09l-.94.99c-.04-.09-.09-.18-.13-.27l.83-.87c.11-.11.27-.18.45-.19l3.37-.11c.06,0,.12-.02.17-.06l2.29-1.59c.14-.1.33-.14.51-.11l1.73.3c.06.1.12.2.18.3Z"/>
            <path class="cls-9" d="M45.41,52.64l-2.16-.38c-.1-.02-.2,0-.28.06l-2.54,1.77c-.11.08-.25.12-.39.13l-3.74.13c-.09,0-.19.04-.25.11l-1.14,1.2c-.03-.11-.06-.21-.09-.32l.99-1.03c.12-.12.3-.2.48-.21l3.74-.13c.07,0,.15-.03.2-.07l2.54-1.77c.15-.11.35-.15.55-.12l1.95.34h0c.05.1.1.19.15.29Z"/>
            <path class="cls-9" d="M48.35,59.66c0,.09,0,.18,0,.27l-2.39-.74c-.11-.03-.22-.02-.32.03l-3.01,1.53c-.13.06-.28.09-.43.08l-3.95-.36c-.11,0-.21.02-.29.08l-1.81,1.41c-.01-.11-.03-.21-.04-.31l1.64-1.28c.15-.11.34-.17.54-.15l3.95.36c.08,0,.16,0,.23-.04l3.01-1.53c.18-.09.39-.11.59-.05l2.28.71Z"/>
          </g>
        </g>
        <path class="cls-1" d="M41.21,45.2c-1.48.74-3.21,1.1-4.9,1.43-1.51.3-3.02.6-4.53.89-.18-.34-.36-.66-.53-.95-.97-1.67-1.72-2.56-1.87-2.73,0-.01.01-.03.02-.04l7.88-1.7c.72.11,1.43.25,2.13.42.5.72.99,1.43,1.45,2.14.12.18.23.36.35.54Z"/>
        <path class="cls-1" d="M40.86,44.66c-1.63.56-3.44.87-5.22,1.17-1.46.25-2.92.49-4.39.74-.97-1.67-1.72-2.56-1.87-2.73,0-.01.01-.03.02-.04l7.88-1.7c.72.11,1.43.25,2.13.42.5.72.99,1.43,1.45,2.14Z"/>
        <path class="cls-2" d="M42.19,40.06s-.32.04-.9.11c-4.09.5-21.17,2.58-31.75,3.69-.14-1.69-.08-3.54.11-5.28.01-.11.02-.22.04-.34.03-.22.06-.44.09-.65.05-.33.1-.65.15-.97,3.12,1.11,5.04,1.67,14.26,1.2,8.98-.46,15.09-2.95,15.09-2.95l2.92,5.19Z"/>
        <path class="cls-2" d="M41.3,40.17c-4.09.5-21.17,2.58-31.75,3.69-.14-1.69-.08-3.54.11-5.28,2.85.84,5.13,1.2,13.69.4,8.95-.84,14.9-3.59,14.9-3.59l3.06,4.77Z"/>
        <path class="cls-9" d="M28.83,35.47c.02.4-.36.75-.84.77-.48.02-.89-.29-.91-.69-.02-.4.36-.75.84-.77s.89.29.91.69Z"/>
        <path class="cls-9" d="M17.3,36.24c.02.4-.36.75-.84.77-.48.02-.89-.29-.91-.69-.02-.4.36-.75.84-.77.48-.02.89.29.91.69Z"/>
        <g>
          <path class="cls-6" d="M48.21,40.72h0c0,.31-.2.67-.68,1.16-.43.31-.96.57-1.56.81h0c-.1.04-.21.08-.31.12-1.38.51-3.12.92-5.14,1.34-.95.2-1.95.41-3.01.63-.12.03-.25.05-.38.08-1.88.4-3.91.87-6.03,1.46h0c-.13.04-.27.08-.4.11-.11.03-.23.07-.35.1-.89.26-1.79.55-2.7.86-1.6.55-3.2.95-4.76,1.23-.12.02-.23.04-.35.06-2.23.37-4.38.48-6.34.42-.13,0-.25,0-.38-.01-2.12-.09-4.01-.39-5.54-.79-.16-.04-.31-.08-.47-.13-1.1-.32-2.78-.54-2.36-2.04,0,0,0-.02,0-.03.46-1.55-.4-3.58-.78-5.07-.41-1.63-.24-2.63,2.85-1.67.3.09.63.15.96.21.1.02.21.04.32.06,1.6.26,3.43.34,5.38.3.12,0,.25,0,.37-.01,1.58-.05,3.22-.18,4.87-.37.12-.01.24-.03.36-.04h0c1.95-.24,3.89-.55,5.71-.9.11-.02.23-.04.34-.07,2.6-.51,4.91-1.09,6.58-1.61.12-.04.24-.07.35-.11.81-.26,1.44-.51,1.86-.72,2.45-1.24,4.4-1.92,6.01-2.15.11-.02.22-.03.33-.04.91-.1,1.73.16,2.35.59.82.58,1.29,1.48,1.15,2.27-.44,2.48,1.76,2.86,1.73,3.94Z"/>
          <path class="cls-9" d="M10.44,44.02c.05.1.05.22,0,.32l-1.03,2.68c-.02.07-.01.14.03.2l.83,1.1c-.16-.04-.31-.08-.47-.13l-.63-.83c-.09-.12-.11-.27-.06-.41l1.03-2.68s.02-.1,0-.15l-1.03-2.3c-.06-.14-.04-.3.05-.43l1.33-1.8c.1.02.21.04.32.06l-1.39,1.87c-.05.06-.06.14-.03.21l1.03,2.29Z"/>
          <path class="cls-9" d="M16.09,44.45c.04.1.05.22,0,.32l-1.03,2.68c-.02.07-.01.14.03.2l1.11,1.47c-.13,0-.25,0-.38-.01l-1-1.31c-.09-.12-.11-.27-.06-.41l1.03-2.68s.02-.1,0-.15l-1.03-2.3c-.06-.14-.05-.3.05-.43l1.39-1.88c.12,0,.25,0,.37-.01l-1.49,2.02c-.05.06-.06.14-.02.21l1.03,2.3Z"/>
          <path class="cls-9" d="M22.9,48.63c-.12.02-.23.04-.35.06l-1.27-1.27c-.11-.11-.16-.26-.12-.4l.62-2.76c.01-.05,0-.11-.03-.15l-1.36-2.17c-.09-.14-.09-.29-.01-.43l1.07-1.95c.12-.01.24-.03.36-.04l-1.15,2.1c-.04.07-.03.14,0,.21l1.37,2.17c.06.1.08.21.06.32l-.62,2.76c-.02.07,0,.14.06.19l1.37,1.38Z"/>
          <path class="cls-9" d="M30.71,46.44c-.11.03-.23.07-.35.1l-1.04-.7c-.13-.09-.21-.23-.21-.37l-.03-2.8c0-.05-.02-.1-.06-.14l-1.85-1.9c-.11-.12-.15-.27-.11-.42l.46-1.59c.11-.02.23-.04.34-.07l-.49,1.71c-.02.07,0,.15.05.2l1.85,1.9c.08.09.13.19.13.3v1.14s.01.06.01.06l.02,1.6c0,.07.04.13.1.18l1.19.8Z"/>
          <path class="cls-9" d="M37.51,44.78c-.12.03-.25.05-.38.08l-.92-.62c-.13-.09-.21-.23-.21-.37l-.02-1.49-.02-1.3c0-.05-.02-.1-.06-.14l-1.85-1.9c-.11-.12-.15-.27-.11-.42l.48-1.67c.12-.04.24-.07.35-.11l-.53,1.84c-.02.07,0,.15.05.2l1.85,1.9c.08.09.13.19.13.3v1.24s.03,1.55.03,1.55c0,.07.04.13.1.18l1.1.74Z"/>
          <path class="cls-9" d="M45.97,42.69c-.1.04-.21.08-.31.12l-1.39-.94c-.13-.09-.21-.23-.21-.37l-.03-2.8c0-.05-.02-.1-.06-.14l-1.85-1.9c-.12-.12-.16-.27-.11-.42l.66-2.28c.11-.02.22-.03.33-.04l-.69,2.38c-.02.07,0,.15.05.2l1.85,1.9c.08.09.13.19.13.3l.03,2.8c0,.07.04.13.1.18l1.51,1.02Z"/>
        </g>
        <path class="cls-2" d="M48.21,40.72c-.03-.62-.81-.97-2.34-1.15-1.98-.23-4.47,1.33-7.67,1.63-3.2.3-1.98-1.03-1.03-1.4,1.75-.69,6.48-1.42,7.85-2.67,1.12-1.02.63-1.94.31-2.63.82.58,1.29,1.48,1.15,2.27-.44,2.48,1.76,2.86,1.73,3.94Z"/>
        <path class="cls-1" d="M46.37,38.96c-.24-.28-.55-1.46-.49-1.81,0,0-.89,1.65-4.29,2.19-3.4.54-1.06.5-.43.41.63-.09,3.29-.94,5.21-.78Z"/>
        <path class="cls-3" d="M20.77,44.45c-.56,1.35-2.39,1.95-6.28,1.57-2.8-.28-5.54-.22-7.02.13,0,0,0-.02,0-.03.46-1.55-.4-3.58-.78-5.07.28.42.68.88,1.23,1.36,2.04,1.8,6.76,1.16,8.82,1.11s4.57-.42,4.02.94Z"/>
        <path class="cls-3" d="M48.35,59.66c0,.09,0,.18,0,.27-.01.14-.04.29-.07.43-1.17,4.58-7.03,6.06-9.98,6.51-.73.11-1.42-.23-1.68-.77,1.53-.06,3.03-.2,4.4-.76,2.78-1.14,4.32-3.77,4.57-6.33.25-2.55-.56-5.07-1.37-7.53-.31-.94-.62-1.88-.93-2.82.73,1.29,1.39,2.53,1.96,3.67h0c.05.1.1.19.15.29,1.44,2.89,2.37,5.16,2.78,6.21.1.26.16.54.17.81Z"/>
      </g>
    </g>
  </g>
</svg>