<?xml version="1.0" encoding="UTF-8"?>
<svg id="Camada_1" data-name="Camada 1" xmlns="http://www.w3.org/2000/svg" xmlns:xlink="http://www.w3.org/1999/xlink" viewBox="0 0 55.7 70.81">
  <defs>
    <style>
      .cls-1 {
        fill: #010101;
      }

      .cls-2 {
        fill: url(#Gradiente_sem_nome_3);
      }

      .cls-3 {
        fill: #e8ba25;
      }

      .cls-4 {
        fill: #926cac;
      }

      .cls-5 {
        fill: #050504;
      }

      .cls-6 {
        fill: #353039;
      }

      .cls-7 {
        opacity: .31;
      }

      .cls-8 {
        fill: #dc9bc3;
      }

      .cls-9 {
        fill: #8a63a5;
      }

      .cls-10 {
        fill: #ececed;
        stroke: #0e0915;
        stroke-miterlimit: 10;
        stroke-width: .25px;
      }

      .cls-11 {
        fill: #252128;
      }
    </style>
    <linearGradient id="Gradiente_sem_nome_3" data-name="Gradiente sem nome 3" x1="21.26" y1="50.51" x2="21.26" y2="11.61" gradientTransform="translate(6.21 3.79) rotate(-.05) scale(.97 .98) skewX(-.1)" gradientUnits="userSpaceOnUse">
      <stop offset="0" stop-color="#c5b1d4"/>
      <stop offset=".43" stop-color="#c3afd2"/>
      <stop offset=".59" stop-color="#bea8ce"/>
      <stop offset=".7" stop-color="#b49cc7"/>
      <stop offset=".79" stop-color="#a78bbe"/>
      <stop offset=".87" stop-color="#9675b1"/>
      <stop offset=".94" stop-color="#815ba1"/>
      <stop offset="1" stop-color="#683b8e"/>
      <stop offset="1" stop-color="#673a8e"/>
    </linearGradient>
  </defs>
  <g>
    <g>
      <path class="cls-9" d="M17.19,49.79h9.42c-.25,1.2-.49,2.4-.74,3.61-.14,1.79-1.55,3.23-3.32,3.4-1.75.17-3.4-.94-3.9-2.64-.49-1.46-.97-2.91-1.46-4.37Z"/>
      <path class="cls-9" d="M26.61,49.79h9.42c-.25,1.2-.49,2.4-.74,3.61-.14,1.79-1.55,3.23-3.32,3.4-1.75.17-3.4-.94-3.9-2.64-.49-1.46-.97-2.91-1.46-4.37Z"/>
      <path class="cls-9" d="M11.82,31.3l.17,9.42c-1.21-.22-2.41-.45-3.62-.67-1.79-.1-3.26-1.49-3.46-3.26-.2-1.75.88-3.41,2.57-3.95,1.45-.51,2.9-1.03,4.34-1.54Z"/>
      <path class="cls-9" d="M42.14,40.72l-.15-9.42c1.21.23,2.41.46,3.62.68,1.79.11,3.25,1.5,3.45,3.27.2,1.75-.89,3.41-2.58,3.94-1.45.51-2.9,1.02-4.35,1.53Z"/>
    </g>
    <path class="cls-2" d="M18.65,17.93c-.35.21-.96.04-1.27.26-.34.23.08,1.47-.22,1.7-.32.25-1.47-.5-1.75-.25-.31.27-.33.88-.59,1.15-.3.3.04,1.15-.21,1.43-.29.32-1.45-.14-1.67.13-.25.32-.09.96-.31,1.27-.23.33.09,1-.11,1.33-.21.34-1.25.19-1.43.53s-.43.69-.59,1.04-.35.72-.5,1.08.5,1.07.34,1.43c-.14.34-.96.37-1.09.69s.01.78-.11,1.11-.28.65-.38.99.66.87.58,1.23c-.07.33-.78.53-.83.89-.06.4-.85.73-.89,1.1-.03.41,1.1.87,1.1,1.24,0,.42-.6.81-.58,1.18.02.43.78.73.83,1.08.05.32-.97.85-.9,1.22.07.33,1.24.41,1.34.77.09.33-.82.96-.71,1.31.11.33,1,.39,1.13.73.13.34-.26.87-.12,1.18.15.33.4.61.55.9.17.33.48.55.65.84.19.32.21.72.39.99.17.27,1.01.13,1.29.49.22.28.42.54.71.85.25.27-.08,1.12.23,1.4.28.25.77.27,1.1.51.3.23.62.42.97.64.32.2.45.73.76.89.34.17.55.67.88.8.36.15.84,0,1.17.11.37.12.97-.77,1.31-.69.39.09.54,1.32.87,1.36.43.06.87-.57,1.17-.56.39.03.74.76,1.14.78s.79.28,1.19.29.81-.26,1.21-.25.79-.42,1.19-.43c.4,0,.76-.6,1.14-.62s.8.37,1.19.34.76-.3,1.14-.34.9.85,1.28.8.67-.9,1.05-.96.72-.42,1.09-.49c.39-.07,1,.97,1.37.9.3-.06.47-.8.81-.92.29-.1.34-.8.66-.94.28-.13,1.13.86,1.44.69.28-.15.21-.96.5-1.14.33-.2,1.08.19,1.38-.03.32-.23-.03-1.29.25-1.53.3-.26.36-.69.62-.95.28-.28,1.27.13,1.51-.14.26-.31.05-.97.26-1.25.25-.34,1.09-.26,1.26-.54.19-.35-.59-1.2-.42-1.54.18-.36.72-.51.87-.86.15-.37.96-.49,1.08-.84.13-.38.46-.73.56-1.08.11-.39-.21-.9-.13-1.26.08-.4-.4-.88-.35-1.24.05-.41.9-.73.92-1.09.02-.42-1.01-.83-1.02-1.18-.01-.46.4-.85.36-1.16-.04-.35.36-.76.3-1.1-.06-.35-.24-.69-.31-1.01-.08-.36-1.1-.45-1.18-.75-.11-.39.59-.97.5-1.22-.13-.36-.34-.69-.48-1.04s-1.08-.39-1.22-.73c-.15-.36.83-1.18.68-1.52-.16-.36-1.04-.38-1.19-.71-.17-.35-.13-.79-.3-1.11-.19-.35-.18-.79-.37-1.09-.16-.25-.84-.24-1.06-.58-.18-.27.32-1.04.11-1.35-.19-.27-1.1-.03-1.33-.32-.21-.27-.61-.36-.85-.63-.23-.26-.26-.67-.51-.93-.18-.18-.6-.29-.97-.63-.25-.23-.09-.99-.42-1.26-.28-.23-.81-.15-1.15-.39-.3-.21-.29-.93-.64-1.15-.32-.2-.68-.39-1.03-.58-.33-.18-.73-.28-1.1-.44s-.91.25-1.29.12-.49-1.05-.87-1.15-.95.77-1.34.7-.61-1.24-1.01-1.28-.83.68-1.22.67c-.37,0-.75-.35-1.1-.32-.37.03-.7.41-1.05.46-.37.05-.67.34-1.01.42-.37.08-.65.33-.98.43-.36.11-1.01-.67-1.33-.55-.36.14-.35,1.11-.66,1.25-.36.16-.66.3-.95.46-.37.2-1.01-.21-1.27-.05Z"/>
    <g class="cls-7">
      <path class="cls-4" d="M18.83,17.48c-.35.21-.31,1.04-.62,1.25-.34.23-1.01.02-1.31.25-.32.25-.47.74-.75.99-.31.27-.56.61-.82.88-.3.3-.51.66-.76.93-.29.32-.85.39-1.07.66-.25.32.29,1.22.07,1.52-.23.33-1.12.21-1.32.54-.21.34-.06.89-.24,1.22s-.38.69-.55,1.03-.38.69-.53,1.04-.31.71-.46,1.07c-.14.34-.86.42-.99.74s.99,1.15.87,1.48-.71.47-.82.81-.65.55-.73.91c-.07.33-.34.66-.4,1.03-.06.4.8.91.77,1.28-.03.41-.71.76-.72,1.14,0,.42.37.81.39,1.17.02.43.15.79.19,1.14.05.32.27.62.35.99.07.33.02.68.12,1.04.09.33-.59.9-.48,1.25.11.33.95.41,1.08.76.13.34.7.45.84.76.15.33-.31.92-.16,1.22.17.33-.21.95-.04,1.24.19.32.81.36.99.63.17.27.02.89.3,1.25.22.28,1.02.14,1.31.45.25.27.75.28,1.06.56.28.25-.2,1.46.12,1.7.3.23.78.33,1.12.54.32.2.97-.17,1.29,0,.34.17.87-.17,1.2-.04.36.15.53.66.86.77.37.12.53,1.02.87,1.09.39.09.91-.57,1.23-.53.43.06.8-.01,1.09,0,.39.03.73.96,1.13.99s.83-1.03,1.24-1.02.77.89,1.18.89.79-.7,1.19-.71c.4,0,.81.56,1.19.54s.8.02,1.19,0,.68-1.24,1.06-1.28.92,1.08,1.3,1.03.61-1.26.99-1.32.9.64,1.28.58c.39-.07.87.29,1.24.21.3-.06.38-1.01.72-1.13.29-.1.69.08,1.02-.07.28-.13.39-.61.7-.78.28-.15.61-.19.91-.37.33-.2.4-.72.69-.94.32-.23.65-.34.92-.58.3-.26.65-.38.91-.64.28-.28,1.3.13,1.54-.14.26-.31.35-.77.55-1.06.25-.34.49-.68.66-.96.19-.35.25-.79.41-1.12.18-.36.81-.53.96-.88.15-.37-.76-1.15-.64-1.5.13-.38.6-.62.7-.98.11-.39.7-.66.77-1.02.08-.4-.34-.88-.29-1.25.05-.41.74-.76.76-1.11.02-.42-.14-.86-.15-1.2-.01-.46-1.04-.77-1.07-1.08-.04-.35-.3-.62-.35-.95-.06-.35.92-.89.85-1.21-.08-.36-.93-.5-1.02-.8-.11-.39-.23-.68-.32-.93-.13-.36.01-.82-.12-1.16s-.55-.6-.69-.94c-.15-.36-.12-.77-.27-1.11-.16-.36-.06-.81-.22-1.14-.17-.35-.79-.45-.96-.77-.19-.35-.42-.6-.61-.91-.16-.25.6-1.15.38-1.49-.18-.27-.21-.7-.43-1.01-.19-.27-1.47.25-1.7-.04-.21-.27-.07-.82-.31-1.1-.23-.26-.48-.49-.74-.75-.18-.18-.28-.66-.65-1-.25-.23-.68-.33-1.01-.6-.28-.23-.65-.36-.99-.6-.3-.21-.26-1-.61-1.21-.32-.2-.79-.2-1.15-.39-.33-.18-.59-.59-.96-.75s-1.14.82-1.51.69-.65-.33-1.04-.43-.59-.78-.98-.85-.74-.35-1.14-.39-.79-.46-1.19-.46c-.37,0-.78.19-1.13.21-.37.03-.78-.01-1.13.04-.37.05-.76.19-1.1.26-.37.08-.42,1.33-.75,1.43-.36.11-.74,0-1.07.13-.36.14-1.03-.53-1.34-.39-.36.16-.5.72-.79.87-.37.2-1.07-.25-1.32-.09Z"/>
    </g>
    <g>
      <path class="cls-11" d="M24.33,42.29c-.1-.19-.13-.36-.08-.4.06-.05.23.04.41.22.23.19.77.58,1.56.7,1.06.16,1.86-.27,2.11-.42.03-.02.07-.05.1-.07.02-.02.12-.14.29-.14.08,0,.14.03.17.05-.06.12-.16.29-.32.46-.05.05-.23.29-.55.42-.26.1-.63.21-1.09.24-.7.05-1.25-.12-1.57-.24-.21-.1-.47-.26-.72-.5-.12-.11-.22-.23-.31-.34Z"/>
      <path class="cls-6" d="M17.27,26.85c-.1.05-.14.16-.1.23.04.08.17.12.28.05.22-.14.61-.33,1.11-.36.03,0,.13,0,.27,0,.26.02.74.09,1.33.46.11.08.24.1.29.05.07-.06.06-.24-.09-.39-.13-.13-.65-.58-1.45-.62-.91-.05-1.52.48-1.64.59Z"/>
      <path class="cls-6" d="M33.44,27.01c-.08.02-.16,0-.21-.07-.05-.08-.03-.19.05-.26.07-.06.18-.14.32-.22.48-.24.98-.14,1.42-.06.21.04.49.11.81.25.05.01.43.14.46.38,0,.06,0,.16-.06.19-.05.02-.11-.01-.16-.04-.09-.06-.23-.13-.42-.21-.13-.06-.32-.12-.55-.17-.12-.02-.26-.05-.45-.04-.23,0-.34.06-.66.14-.13.03-.32.07-.55.11Z"/>
      <ellipse class="cls-8" cx="22.31" cy="42.63" rx=".47" ry=".53"/>
      <path class="cls-8" d="M31.79,41.58c-.19.04-.35.23-.35.23h0c-.14.3-.06.61.14.75.2.13.46.03.48.02.04-.02.23-.1.31-.31.06-.14.04-.27.03-.33,0-.06-.02-.13-.07-.2-.1-.15-.32-.21-.54-.16Z"/>
      <ellipse class="cls-10" cx="34.76" cy="34.47" rx="6.06" ry="4.62" transform="translate(-3.93 64.46) rotate(-82.55)"/>
      <ellipse class="cls-10" cx="18.81" cy="34.47" rx="6.06" ry="4.62" transform="translate(-16.75 51.14) rotate(-86.49)"/>
      <ellipse class="cls-1" cx="19.83" cy="34.63" rx="3.41" ry="4.65" transform="translate(-2.16 1.33) rotate(-3.64)"/>
      <ellipse class="cls-1" cx="33.42" cy="34.84" rx="4.65" ry="3.41" transform="translate(-3.48 65.98) rotate(-86.36)"/>
    </g>
  </g>
  <g>
    <path class="cls-5" d="M10.61,44.37c.41,1.23,1.32,3.36,3.36,5.17,2.25,2,4.67,2.68,6.16,2.89,1.22.17,2.53.3,3.91.37,3.69.19,6.97-.12,9.72-.59,1.36-.39,3.98-1.36,6.35-3.75,1.54-1.56,2.43-3.17,2.93-4.3-10.81.07-21.62.13-32.43.2Z"/>
    <path class="cls-3" d="M27.96,45.12h-2.33c-.38,0-.7.29-.7.64v2.78c0,.35.31.64.7.64h2.33c.38,0,.7-.29.7-.64v-2.78c0-.35-.31-.64-.7-.64ZM28.28,48.13c0,.35-.31.64-.7.64h-1.58c-.38,0-.7-.29-.7-.64v-1.96c0-.35.31-.64.7-.64h1.58c.38,0,.7.29.7.64v1.96Z"/>
  </g>
</svg>