<?xml version="1.0" encoding="UTF-8"?>
<svg id="Camada_1" data-name="Camada 1" xmlns="http://www.w3.org/2000/svg" viewBox="0 0 55.7 59.67">
  <defs>
    <style>
      .cls-1 {
        fill: #d11617;
      }

      .cls-2 {
        fill: #fff;
      }

      .cls-3 {
        fill: #ffd23e;
      }

      .cls-4 {
        fill: #ea5141;
      }
    </style>
  </defs>
  <path class="cls-2" d="M41.84,2.88c.13.09.13.25,0,.34-.12.1-.32.1-.45,0-.13-.09-.13-.25,0-.34.12-.1.32-.1.45,0Z"/>
  <path class="cls-2" d="M41.95,5.52c-.1-.12-.2-.24-.29-.36.08,0,.17.02.24.07.11.08.13.2.06.29Z"/>
  <path class="cls-2" d="M43.08,4.43s-.08-.03-.12-.05c-.07-.05-.1-.11-.1-.18.06.07.13.15.21.23Z"/>
  <path class="cls-2" d="M43.45,6.38c.13.09.13.25,0,.34-.12.1-.32.1-.45,0-.13-.09-.13-.25,0-.34.12-.1.32-.1.45,0Z"/>
  <g>
    <path class="cls-1" d="M34.91,26.35c-1.91.76-3.82,1.52-5.74,2.28-1.44-.72-2.88-1.44-4.31-2.16-6.24-.13-12.48-.26-18.71-.4.42,1.58,1.28,3.85,3.12,6.01.57.68,1.16,1.24,1.72,1.72,4.23,1.86,10.15,3.7,17.18,3.69,2.76,0,6.83-.51,11.27-1.87,1.54-.47,4.45-1.59,7.11-4.21,2-1.96,3.07-4.01,3.64-5.34l-15.29.27Z"/>
    <path class="cls-3" d="M7.76,29.92c.31.69.81,1.6,1.64,2.49,1.68,1.8,3.67,2.42,4.6,2.65,9.62-.26,19.25-.52,28.87-.78.97-.59,2.13-1.41,3.3-2.55.8-.78,1.45-1.56,1.97-2.26-13.46.15-26.92.3-40.38.46Z"/>
    <polygon class="cls-4" points="6.19 25.05 24.19 25.02 29.05 27.1 34.35 24.91 50.15 24.89 50.15 26.35 34.91 26.35 29.17 28.63 24.21 26.51 6.19 26.69 6.19 25.05"/>
    <circle class="cls-4" cx="18.45" cy="32.39" r="1.97"/>
  </g>
</svg>