<?xml version="1.0" encoding="UTF-8"?>
<svg id="Camada_1" data-name="Camada 1" xmlns="http://www.w3.org/2000/svg" viewBox="0 0 55.7 59.67">
  <defs>
    <style>
      .cls-1 {
        fill: #e4f2f7;
      }

      .cls-2 {
        fill: #d11617;
      }

      .cls-3 {
        fill: #87afb9;
      }

      .cls-4 {
        fill: #fff;
      }

      .cls-5 {
        fill: #0074ab;
      }
    </style>
  </defs>
  <path class="cls-4" d="M41.84,2.88c.13.09.13.25,0,.34-.12.1-.32.1-.45,0-.13-.09-.13-.25,0-.34.12-.1.32-.1.45,0Z"/>
  <path class="cls-4" d="M41.95,5.52c-.1-.12-.2-.24-.29-.36.08,0,.17.02.24.07.11.08.13.2.06.29Z"/>
  <path class="cls-4" d="M43.08,4.43s-.08-.03-.12-.05c-.07-.05-.1-.11-.1-.18.06.07.13.15.21.23Z"/>
  <path class="cls-4" d="M43.45,6.38c.13.09.13.25,0,.34-.12.1-.32.1-.45,0-.13-.09-.13-.25,0-.34.12-.1.32-.1.45,0Z"/>
  <g>
    <path class="cls-2" d="M35.69,25.65c-2.15.69-4.29,1.39-6.44,2.08-2.53-.8-5.06-1.6-7.6-2.41-4.35-.04-8.7-.07-13.04-.11.4,1.5,1.22,3.67,2.97,5.72.55.64,1.11,1.18,1.64,1.63,4.03,1.77,9.67,3.53,16.36,3.52,2.63,0,6.5-.48,10.73-1.78,1.47-.45,4.24-1.51,6.77-4.01,1.9-1.87,2.93-3.82,3.47-5.08l-14.86.43Z"/>
    <path class="cls-1" d="M10.07,29.26c.42.6.95,1.29,1.64,1.98.53.53,1.04.97,1.52,1.33,10.55-.15,21.09-.31,31.64-.46.58-.41,1.21-.91,1.86-1.52.63-.59,1.17-1.17,1.61-1.7-12.76.12-25.51.25-38.27.37Z"/>
    <path class="cls-5" d="M33.24,25.11c-.93.38-1.86.76-2.8,1.14-.86-.38-1.72-.76-2.59-1.14-6.38.06-12.77.11-19.15.17-.01.46.02,1.11.24,1.85.3,1.01.81,1.73,1.15,2.14,12.75-.12,25.5-.25,38.26-.37.46-.5,1.01-1.21,1.49-2.14.35-.69.58-1.33.73-1.86-5.77.07-11.55.14-17.32.21Z"/>
    <polygon class="cls-3" points="8.65 24.24 25.79 24.21 30.42 26.19 35.47 24.1 50.51 24.09 50.51 25.48 36 25.48 30.54 27.65 25.81 25.63 8.65 25.8 8.65 24.24"/>
  </g>
</svg>