<?xml version="1.0" encoding="UTF-8"?>
<svg xmlns="http://www.w3.org/2000/svg" viewBox="0 0 55.7 59.67">
  <defs>
    <style>
      .cls-1, .cls-2, .cls-3 {
        mix-blend-mode: multiply;
      }

      .cls-1, .cls-3, .cls-4 {
        opacity: .5;
      }

      .cls-1, .cls-5 {
        fill: #5e2d87;
      }

      .cls-2 {
        opacity: .6;
      }

      .cls-2, .cls-6 {
        fill: #eadac0;
      }

      .cls-3, .cls-7 {
        fill: #309737;
      }

      .cls-8 {
        opacity: .4;
      }

      .cls-8, .cls-4 {
        mix-blend-mode: overlay;
      }

      .cls-8, .cls-4, .cls-9 {
        fill: #fff;
      }

      .cls-10 {
        isolation: isolate;
      }

      .cls-11 {
        fill: #422774;
      }
    </style>
  </defs>
  <g class="cls-10">
    <g id="Camada_1" data-name="Camada 1">
      <path class="cls-9" d="M41.84,2.88c.13.09.13.25,0,.34-.12.1-.32.1-.45,0-.13-.09-.13-.25,0-.34.12-.1.32-.1.45,0Z"/>
      <path class="cls-9" d="M41.95,5.52c-.1-.12-.2-.24-.29-.36.08,0,.17.02.24.07.11.08.13.2.06.29Z"/>
      <path class="cls-9" d="M43.08,4.43s-.08-.03-.12-.05c-.07-.05-.1-.11-.1-.18.06.07.13.15.21.23Z"/>
      <path class="cls-9" d="M43.45,6.38c.13.09.13.25,0,.34-.12.1-.32.1-.45,0-.13-.09-.13-.25,0-.34.12-.1.32-.1.45,0Z"/>
      <g>
        <g>
          <path class="cls-7" d="M25.89,38.53c9.8,0,16.76-4.59,19.25-6.52.28-.22.09-.67-.26-.62-3.68.55-6.59.24-6.59.24-1.31-5.26-3.47-8.87-3.9-9.55-.05-.08-.12-.14-.21-.19-.61-.31-3.34-1.54-8.3-1.54s-7.69,1.23-8.3,1.54c-.09.04-.15.11-.21.19-.43.69-2.59,4.29-3.9,9.55,0,0-2.91.31-6.59-.24-.35-.05-.54.4-.26.62,2.49,1.93,9.46,6.52,19.25,6.52Z"/>
          <g>
            <path class="cls-3" d="M32.84,26.22c0,.2-.16.36-.36.36s-.36-.16-.36-.36.16-.36.36-.36.36.16.36.36Z"/>
            <path class="cls-3" d="M30.79,28.74c0,.16-.13.3-.3.3s-.3-.13-.3-.3.13-.3.3-.3.3.13.3.3Z"/>
            <circle class="cls-3" cx="30.79" cy="27.07" r=".24"/>
            <path class="cls-3" d="M30.13,30.14c0,.1-.08.18-.18.18s-.18-.08-.18-.18.08-.18.18-.18.18.08.18.18Z"/>
            <circle class="cls-3" cx="32.25" cy="28.03" r=".24"/>
            <path class="cls-4" d="M31.32,26.22c0,.07-.05.12-.12.12s-.12-.05-.12-.12.05-.12.12-.12.12.05.12.12Z"/>
            <path class="cls-4" d="M29.88,28.26c0,.1-.08.18-.18.18s-.18-.08-.18-.18.08-.18.18-.18.18.08.18.18Z"/>
            <circle class="cls-4" cx="31.8" cy="29.73" r=".18"/>
            <polygon class="cls-4" points="33.44 24.9 33.5 24.37 33.56 24.9 34.09 24.96 33.56 25.02 33.5 25.56 33.44 25.02 32.9 24.96 33.44 24.9"/>
            <polygon class="cls-4" points="28.11 30.25 28.19 29.58 28.26 30.25 28.93 30.32 28.26 30.4 28.19 31.06 28.11 30.4 27.45 30.32 28.11 30.25"/>
            <path class="cls-3" d="M18.76,25.56c0,.2.16.36.36.36s.36-.16.36-.36-.16-.36-.36-.36-.36.16-.36.36Z"/>
            <path class="cls-3" d="M20.1,28.98c0,.16.13.3.3.3s.3-.13.3-.3-.13-.3-.3-.3-.3.13-.3.3Z"/>
            <circle class="cls-3" cx="20.4" cy="25.9" r=".24"/>
            <circle class="cls-3" cx="21.05" cy="30.76" r=".18"/>
            <circle class="cls-3" cx="19.35" cy="27.36" r=".24"/>
            <path class="cls-4" d="M20.16,24.73c0,.07.05.12.12.12s.12-.05.12-.12-.05-.12-.12-.12-.12.05-.12.12Z"/>
            <circle class="cls-4" cx="21.72" cy="29.16" r=".18"/>
            <circle class="cls-4" cx="19.11" cy="30.11" r=".18"/>
            <polygon class="cls-4" points="18.16 24.24 18.1 23.71 18.04 24.24 17.51 24.3 18.04 24.36 18.1 24.9 18.16 24.36 18.7 24.3 18.16 24.24"/>
            <polygon class="cls-4" points="22.29 31.73 22.22 31.06 22.14 31.73 21.47 31.8 22.14 31.88 22.22 32.55 22.29 31.88 22.96 31.8 22.29 31.73"/>
          </g>
          <path class="cls-3" d="M25.89,32.73c4,0,8.94-.92,8.94-.92,0,0-4.32,2.21-8.94,2.21s-8.94-2.21-8.94-2.21c0,0,4.94.92,8.94.92Z"/>
          <path class="cls-3" d="M14.66,32.21c.15.07.32.11.49.11.66,0,1.19-.53,1.19-1.19s-.53-1.19-1.19-1.19c-.1,0-.19.02-.28.04-.13-.48-.29-.96-.47-1.43-.33.94-.64,1.97-.91,3.07,0,0-1.86.2-4.48,0,1.38,1.42,4.07,1.69,5.66.59ZM13.99,31.37s0,.01,0,.02c-.1-.04-.19-.08-.29-.12.1.03.19.07.29.1Z"/>
        </g>
        <g>
          <path class="cls-5" d="M7.84,29.92c2.21-.02,4.87.39,6.77,1.57-1.85,1.75-6.03,1.06-6.77-1.57Z"/>
          <path class="cls-11" d="M7.84,29.92c1.61.48,3.37.96,5.02,1.23.57.11,1.14.19,1.76.35-1.13.55-2.43.6-3.65.34-1.2-.29-2.4-.87-3.12-1.92h0Z"/>
          <path class="cls-1" d="M10.68,30.14c.45.2.89.43,1.34.65.34.16.89.3,1.19.56.29.24.44.47.69.65.26-.14.5-.3.71-.5-1.13-.7-2.52-1.13-3.93-1.36Z"/>
          <path class="cls-5" d="M6.5,27.54c2.85-1.21,7.49.63,8.23,3.77-1.4-.36-2.79-.97-4.12-1.53-1.43-.6-2.89-1.26-4.11-2.24Z"/>
          <path class="cls-11" d="M6.5,27.54c3.07-.25,6.65,1,8.23,3.77-2.62-1.68-5.36-2.54-8.23-3.77h0Z"/>
          <path class="cls-1" d="M13.28,30.84c.48.17.97.34,1.46.46-.38-1.63-1.82-2.9-3.51-3.59.38,1.19,1.06,2.39,2.05,3.13Z"/>
          <path class="cls-5" d="M12.3,22.65c.36,1.39.56,2.79,1.12,4.12.61,1.44,1.25,2.96,1.32,4.54-2.84-1.41-5.15-6.08-2.44-8.66Z"/>
          <path class="cls-11" d="M12.3,22.65c-.32,3.24,1.43,5.68,2.44,8.66-2.29-2.12-4.29-5.66-2.44-8.66h0Z"/>
          <g>
            <circle class="cls-6" cx="14.74" cy="30.71" r="1.19"/>
            <path class="cls-2" d="M15.48,29.8c.01.07.02.14.02.21,0,.66-.53,1.19-1.19,1.19-.29,0-.54-.1-.75-.27.1.56.58.98,1.17.98.66,0,1.19-.53,1.19-1.19,0-.37-.17-.7-.44-.92Z"/>
            <circle class="cls-8" cx="14.74" cy="29.92" r=".28"/>
            <circle class="cls-8" cx="14.14" cy="30.06" r=".2"/>
          </g>
        </g>
      </g>
    </g>
  </g>
</svg>