<?xml version="1.0" encoding="UTF-8"?>
<svg xmlns="http://www.w3.org/2000/svg" viewBox="0 0 55.7 59.67">
  <defs>
    <style>
      .cls-1, .cls-2 {
        fill: #e3f1f1;
      }

      .cls-1, .cls-3, .cls-4 {
        mix-blend-mode: multiply;
        opacity: .5;
      }

      .cls-3, .cls-5 {
        fill: #ffd704;
      }

      .cls-6 {
        isolation: isolate;
      }

      .cls-7 {
        fill: #fff;
      }

      .cls-4, .cls-8 {
        fill: #2e2b27;
      }

      .cls-9 {
        fill: #e1a103;
      }
    </style>
  </defs>
  <g class="cls-6">
    <g id="Camada_1" data-name="Camada 1">
      <path class="cls-7" d="M41.84,2.88c.13.09.13.25,0,.34-.12.1-.32.1-.45,0-.13-.09-.13-.25,0-.34.12-.1.32-.1.45,0Z"/>
      <path class="cls-7" d="M41.95,5.52c-.1-.12-.2-.24-.29-.36.08,0,.17.02.24.07.11.08.13.2.06.29Z"/>
      <path class="cls-7" d="M43.08,4.43s-.08-.03-.12-.05c-.07-.05-.1-.11-.1-.18.06.07.13.15.21.23Z"/>
      <path class="cls-7" d="M43.45,6.38c.13.09.13.25,0,.34-.12.1-.32.1-.45,0-.13-.09-.13-.25,0-.34.12-.1.32-.1.45,0Z"/>
      <g>
        <path class="cls-2" d="M34.65,30.86c-2.18.73-4.36,1.45-6.53,2.18-2.57-.84-5.14-1.68-7.71-2.51-4.41-.04-8.82-.08-13.23-.12.35,1.35,1.13,3.67,3.02,5.98,1.55,1.9,3.23,3.04,4.36,3.69,4.08.48,8.75.78,13.9.67,3.96-.09,7.6-.4,10.89-.84,1.49-.47,4.3-1.58,6.87-4.19,1.93-1.95,2.97-3.99,3.52-5.31-5.03.15-10.05.3-15.08.45Z"/>
        <path class="cls-1" d="M20.74,35.2c.74,1.57,1.82,1.38,3.09.65.7-.4,1.35-.87,2.02-1.31.75-.51,1.46-1.53,2.4-1.62.62-.06.98.22,1.39.62.92.9,1.64,1.79,2.82,2.43.84.46,1.99.87,2.92.31.61-.37.98-1.68,1.13-2.31.08-.35.14-.7.18-1.06l-5.58-1.56-2.77,1.12-2.76-1.12-5.59,1.56c.18.78.41,1.55.75,2.27Z"/>
        <g>
          <g>
            <path class="cls-8" d="M29.01,34.63c0,.27-.25.49-.55.49s-.55-.22-.55-.49.25-.49.55-.49.55.22.55.49Z"/>
            <path class="cls-4" d="M28.45,34.87c-.26,0-.47-.16-.53-.37-.01.04-.02.08-.02.12,0,.27.25.49.55.49s.55-.22.55-.49c0-.04,0-.08-.02-.12-.06.21-.28.37-.53.37Z"/>
          </g>
          <g>
            <path class="cls-8" d="M29.01,37.24c0,.27-.25.49-.55.49s-.55-.22-.55-.49.25-.49.55-.49.55.22.55.49Z"/>
            <path class="cls-4" d="M28.45,37.48c-.26,0-.47-.16-.53-.37-.01.04-.02.08-.02.12,0,.27.25.49.55.49s.55-.22.55-.49c0-.04,0-.08-.02-.12-.06.21-.28.37-.53.37Z"/>
          </g>
          <g>
            <path class="cls-8" d="M29.01,39.84c0,.27-.25.49-.55.49s-.55-.22-.55-.49.25-.49.55-.49.55.22.55.49Z"/>
            <path class="cls-4" d="M28.45,40.09c-.26,0-.47-.16-.53-.37-.01.04-.02.08-.02.12,0,.27.25.49.55.49s.55-.22.55-.49c0-.04,0-.08-.02-.12-.06.21-.28.37-.53.37Z"/>
          </g>
        </g>
        <g>
          <path class="cls-8" d="M16.61,30.66l1.31,9.91h1.29l-1.16-10.21c-.01-.09-.12-.16-.23-.13l-1.08.26c-.08.02-.14.09-.13.16Z"/>
          <path class="cls-4" d="M17.45,32.72c.26.31.58.44.93.46l-.32-2.81c-.01-.09-.12-.16-.23-.13l-1.08.26c-.08.02-.14.09-.13.16l.13.96c.22.38.42.76.71,1.1Z"/>
        </g>
        <g>
          <path class="cls-5" d="M27.6,31.95s-2.15-2.12-5.45-2.33c-.28-.02-.52.21-.51.49.03,1.07.18,3.67.81,6.38.07.28.37.44.64.33.99-.4,3.19-1.44,4.51-3.31v-1.57Z"/>
          <path class="cls-5" d="M29.1,31.95s2.15-2.12,5.45-2.33c.28-.02.52.21.51.49-.03,1.07-.18,3.67-.81,6.38-.07.28-.37.44-.64.33-.99-.4-3.19-1.44-4.51-3.31v-1.57Z"/>
          <path class="cls-9" d="M24.12,32.75c.36.61.92.38,1.49.27.58-.12,1.24-.32,1.94-.18-.86.57-1.81,1.14-2.88.84-.4-.12-.69-.58-.54-.93h0Z"/>
          <path class="cls-9" d="M29.14,32.84c.61-.04,4.11.59,3.29-.56.59,0,.52.87.08,1.1-1.12.58-2.47.26-3.37-.53h0Z"/>
          <path class="cls-3" d="M31.81,35.07c-.04-.16.04-.34.02-.5-.07-.48-.25-.6-.46-.93-.22-.33-.36-.29-.43-.72-.09-.52.43-.95.4-1.41-.03-.55-.38-.68-.77-.64-.94.55-1.47,1.08-1.47,1.08v1.57c.91,1.29,2.25,2.19,3.31,2.75-.28-.31-.49-.71-.6-1.2Z"/>
          <path class="cls-3" d="M24.89,35.07c.04-.16-.04-.34-.02-.5.07-.48.25-.6.46-.93.22-.33.36-.29.43-.72.09-.52-.43-.95-.4-1.41.03-.55.38-.68.77-.64.94.55,1.47,1.08,1.47,1.08v1.57c-.91,1.29-2.25,2.19-3.31,2.75.28-.31.49-.71.6-1.2Z"/>
          <rect class="cls-5" x="27.59" y="31.81" width="1.52" height="1.93" rx=".59" ry=".59"/>
        </g>
        <g>
          <path class="cls-8" d="M39.26,30.88l-1.26,9.52h-1.24l1.11-9.81c.01-.09.12-.15.22-.12l1.04.25c.08.02.13.08.12.15Z"/>
          <path class="cls-4" d="M38.46,32.86c-.25.3-.56.42-.89.44l.31-2.7c.01-.09.12-.15.22-.12l1.04.25c.08.02.13.08.12.15l-.12.92c-.21.36-.4.73-.68,1.06Z"/>
        </g>
      </g>
    </g>
  </g>
</svg>