<?xml version="1.0" encoding="UTF-8"?>
<svg id="Camada_1" data-name="Camada 1" xmlns="http://www.w3.org/2000/svg" viewBox="0 0 55.7 59.67">
  <defs>
    <style>
      .cls-1 {
        fill: #412719;
      }

      .cls-2 {
        fill: #83563f;
      }

      .cls-3 {
        fill: #db924f;
      }

      .cls-4 {
        fill: #ba7c41;
      }

      .cls-5 {
        fill: #603825;
      }

      .cls-6 {
        fill: #4f2e1e;
      }

      .cls-7 {
        fill: #f4b57b;
      }

      .cls-8 {
        fill: #f4a661;
      }
    </style>
  </defs>
  <path class="cls-5" d="M35.47,31.97l-5.51.66h-6.38l-5.51-.66s0-.62.04-1.57c.06-1.66.19-4.31.52-6.32.06-.38.13-.72.2-1.04.15-.64.33-1.15.54-1.44.26-.36.49-.64.7-.88.77-.87,1.23-1.13,1.44-1.97.02-.09.04-.17.07-.25.26-.91.63-1.51,1.65-1.66.02,0,.04,0,.06,0,.61-.08,1.04.58,1.59,1.22.12.14.24.27.37.4.12.12.25.23.38.32.03.02.06.04.09.06.04.03.08.05.12.07,0,0,.01,0,.02,0,.04.02.08.04.12.06.03.02.06.03.09.04.06.03.12.05.19.07.02,0,.05.01.07.02.04,0,.08.02.13.03,0,0,.02,0,.02,0,.05,0,.09.01.14.02.05,0,.1,0,.16,0,.11,0,.22,0,.32-.03.05,0,.09-.02.13-.03.04,0,.07-.02.11-.03.01,0,.02,0,.03,0,0,0,.01,0,.02,0,.05-.02.1-.03.14-.06.05-.02.1-.05.15-.07.02,0,.03-.02.05-.03.04-.02.08-.04.12-.07.03-.02.07-.05.11-.08.15-.11.29-.23.42-.37.67-.67,1.13-1.54,1.78-1.56.04,0,.07,0,.11,0,.97.12,1.38.64,1.64,1.42.05.16.1.32.14.5.2.8.63,1.07,1.34,1.86.24.26.5.58.8.98.29.4.51,1.2.69,2.2h0c.36,2.03.5,4.84.56,6.57.03.96.04,1.6.04,1.6Z"/>
  <path class="cls-5" d="M46.77,33.21c-4.13,5.03-10.07,9.64-19.96,9.64-6.93,0-14.69-2.33-19.06-7.56-.61-.72-5.01-6.93-2.88-7.43.12-.03.57.05,1.23.19h0c1.84.39,5.27,1.28,7.53,1.84.63.16,1.16.28,1.55.37,2.08.45,4.18.93,6.32,1.05.02,0,.05,0,.08,0,2.78.11,5.62-.08,8.22-.09,1.12,0,2.24-.04,3.36-.12,2.27-.16,4.56-.76,6.77-1.26,2.44-.55,4.69-1.25,6.98-2.08h0c.38-.14.76-.28,1.15-.42.23-.09.75-.35.96-.18.78.62-.16,3.52-2.25,6.06Z"/>
  <path class="cls-6" d="M43.82,32.16s-3.71,3.61-4.74,4.14c-1.04.53-5.66,4.02-15.05,3.23-9.39-.79-14.65-7.45-14.65-7.45,0,0,2.1.59,3.37-.11,1.28-.71.88-2.09.88-2.09.63.16,1.16.28,1.55.37,2.08.45,4.18.93,6.32,1.05.02,0,.05,0,.08,0,2.78.11,5.62-.08,8.22-.09,1.12,0,2.24-.04,3.36-.12,2.27-.16,4.56-.76,6.77-1.26,0,0-.85.89-.12,2.15.73,1.26,4.01.19,4.01.19Z"/>
  <path class="cls-6" d="M21.99,20.7c-.51.7-1.35.36-1.92.01.77-.87,1.23-1.13,1.44-1.97.02-.09.04-.17.07-.25.43.62.9,1.55.42,2.2Z"/>
  <path class="cls-6" d="M33.38,20.61c-.56.37-1.53.86-2.09.09-.55-.74.15-1.86.61-2.45.05.16.1.32.14.5.2.8.63,1.07,1.34,1.86Z"/>
  <path class="cls-1" d="M18.07,31.5s2.33,5.7,8.7,5.74c6.37.04,8.67-5.68,8.67-5.68,0,0-7.22.95-7.37.95s-10-1.01-10-1.01Z"/>
  <path class="cls-6" d="M30.4,17.41c-.22,2.45-2.54,4.65-4.89,3.73-1.38-.54-2.78-2.66-2.31-4.27,0,0,0-.02.01-.03.02,0,.04,0,.06,0,.61-.08,1.04.58,1.59,1.22.12.14.24.27.37.4.04.04.08.07.12.11.09.08.17.15.26.21.03.02.06.04.09.06.04.03.08.05.12.07,0,0,.01,0,.02,0,.04.02.08.04.12.06.03.01.06.03.09.04.06.03.12.05.19.07.02,0,.05.01.07.02.04,0,.08.02.13.03,0,0,.02,0,.02,0,.05,0,.09.01.14.02.05,0,.1,0,.16,0,.11,0,.22,0,.32-.03.05,0,.09-.02.13-.03.04,0,.07-.02.11-.03.01,0,.02,0,.03,0,0,0,.01,0,.02,0,.05-.02.1-.03.14-.06.05-.02.1-.05.15-.07.02,0,.03-.02.05-.03.04-.02.08-.05.12-.07.03-.02.07-.05.11-.08.05-.04.11-.08.16-.12.09-.07.18-.16.26-.24.67-.67,1.13-1.54,1.78-1.56.16.15.27.36.25.59Z"/>
  <path class="cls-6" d="M29.96,32.63h-6.38s-5.5-1.28-5.47-2.23c.06-1.66.19-4.31.52-6.32.06-.38.13-.72.2-1.04,0,0,.02,4.44,7.24,4.84,7.22.4,8.8-4.08,8.8-4.08h0c.36,2.03.5,4.84.56,6.57.03.96-5.47,2.26-5.47,2.26Z"/>
  <path class="cls-1" d="M35.43,30.37c-.69.5-1.41.99-1.41.99l-.95.06c-.43-.04-.84-.12-.84-.12,0,0,.58-.41,1.76-1.75,1.18-1.34,1.25-2.56,1.25-2.56h0c.1,1.24.15,2.45.18,3.36Z"/>
  <path class="cls-1" d="M21.13,31.31s-.37.07-.78.12l-.86-.06s-.7-.47-1.37-.96c.02-.76.07-1.74.14-2.76.15.48.46,1.18,1.12,1.93,1.18,1.34,1.76,1.75,1.76,1.75Z"/>
  <g>
    <path class="cls-8" d="M35.45,31.56s-.02.02-.07.04c0,0-.02.01-.03.02,0,0,0,0-.01,0,0,0-.01,0-.02.02-.01,0-.03.01-.04.02-.04.02-.08.04-.12.07-.03.02-.07.04-.11.06-.02.01-.05.02-.08.04-.02,0-.04.02-.06.03-.02,0-.03.02-.05.02-.07.03-.14.06-.22.1,0,0-.02,0-.02,0-.01,0-.03.01-.04.02-.03.01-.07.03-.1.04-.12.05-.26.1-.41.16-.1.04-.21.07-.32.11-.05.02-.09.03-.14.04-.09.03-.18.06-.28.08-.17.05-.34.09-.53.14-.12.03-.25.06-.39.09h0c-1.32.3-3.12.54-5.47.54-.7,0-1.35-.02-1.95-.05-.37-.02-.71-.05-1.05-.08-.91-.09-1.7-.2-2.38-.34-.06-.01-.12-.02-.18-.04-.06-.01-.12-.02-.18-.04-.25-.06-.49-.11-.71-.17-.09-.02-.17-.05-.25-.07-.05-.01-.09-.03-.14-.04-.32-.1-.6-.19-.84-.29-.26-.1-.48-.2-.65-.28-.03-.02-.07-.03-.1-.05-.31-.16-.45-.26-.45-.26l.05-1.5s.02.01.07.04c.01,0,.03.02.05.03.1.05.27.13.5.23h0c.09.04.18.08.29.12.06.03.13.05.2.08.11.04.22.09.35.13.04.02.08.03.13.05.02,0,.04.02.07.02.05.02.09.03.14.05.15.05.32.11.49.16.1.03.2.06.31.09.06.02.12.03.18.05.4.11.84.22,1.32.32h0c.57.12,1.19.22,1.87.29.31.04.64.07.98.09.59.04,1.22.06,1.88.06,1.75-.02,3.24-.2,4.46-.45.27-.05.52-.11.76-.17.12-.03.23-.06.34-.09.02,0,.03,0,.05-.01.09-.02.18-.05.27-.07.21-.06.41-.12.6-.18.09-.03.18-.06.26-.09.26-.09.49-.18.69-.26.24-.09.43-.18.59-.26.05-.02.09-.04.13-.06.22-.11.34-.18.34-.18l.03,1.57Z"/>
    <path class="cls-3" d="M21.55,32.73c-.99-.2-1.74-.44-2.29-.65h0c-.83-.32-1.19-.59-1.19-.59l.05-1.5s.21.12.61.3h0c.47.21,1.19.49,2.15.75,0,0-.28.37-.1.84.17.46.73.82.76.84Z"/>
    <path class="cls-3" d="M35.45,31.56s-.4.28-1.29.6c-.45.17-1.03.35-1.76.51.03-.03.26-.29.24-.72-.02-.45-.49-.76-.49-.76.94-.23,1.68-.48,2.22-.7.7-.28,1.06-.5,1.06-.5l.03,1.57Z"/>
    <path class="cls-4" d="M19.26,32.09c-.83-.32-1.19-.59-1.19-.59l.05-1.5s.21.12.61.3h0c0,.05-.04.76.1,1.12.14.35.39.64.42.67Z"/>
    <path class="cls-4" d="M34.49,31.33c.07-.54-.13-.84-.13-.84.7-.28,1.06-.5,1.06-.5l.05,1.55s-.42.29-1.32.62c.08-.1.28-.41.33-.83Z"/>
  </g>
  <path class="cls-1" d="M28.1,18.62v.04c-.04.66-.33,1.35-1.08,1.55-.77.2-1.4-.28-1.59-.94-.06-.21-.1-.47-.07-.71.09.08.17.15.26.21.03.02.06.04.09.06.04.03.08.05.12.07,0,0,.01,0,.02,0,.04.02.08.04.12.06.03.01.06.03.09.04.06.03.12.05.19.07.02,0,.05.01.07.02.04,0,.08.02.13.03,0,0,.02,0,.02,0,.05,0,.09.01.14.02.05,0,.1,0,.16,0,.11,0,.22,0,.32-.03.05,0,.09-.02.13-.03.04,0,.07-.02.11-.03.01,0,.02,0,.03,0,0,0,.01,0,.02,0,.05-.02.1-.03.14-.06.05-.02.1-.05.15-.07.02,0,.03-.02.05-.03.04-.02.08-.05.12-.07.03-.02.07-.05.11-.08.05-.04.11-.08.16-.12Z"/>
  <path class="cls-7" d="M31.39,31.36s-1.16,1.31-4.79,1.22c-3.53-.09-4.4-1.22-4.4-1.22h0c.57.12,1.19.22,1.87.29.31.04.64.07.98.09.59.04,1.22.06,1.88.06,1.75-.02,3.24-.2,4.46-.45h0Z"/>
  <path class="cls-2" d="M46.77,33.21c-4.13,5.03-10.07,9.64-19.96,9.64-6.93,0-14.69-2.33-19.06-7.56-.61-.72-5.01-6.93-2.88-7.43.12-.03.57.05,1.23.19-.04.01-.96.32-.13,2.11.85,1.83,2.34,5.01,5.29,7.09,2.95,2.08,6.11,3.18,8.54,3.82,2.43.65,6.87.9,9.15.73,2.28-.17,5.01-.84,7.36-1.83,2.34-.99,5.56-3.33,6.72-4.38,1.16-1.05,4.01-4.68,4.35-5.59s.7-1.67.34-1.95c-.36-.28-.8-.29-.8-.29h0c.38-.14.76-.28,1.15-.42.23-.09.75-.35.96-.18.78.62-.16,3.52-2.25,6.06Z"/>
</svg>