<?xml version="1.0" encoding="UTF-8"?>
<svg xmlns="http://www.w3.org/2000/svg" xmlns:xlink="http://www.w3.org/1999/xlink" viewBox="0 0 55.7 59.67">
  <defs>
    <style>
      .cls-1 {
        opacity: .75;
      }

      .cls-1, .cls-2, .cls-3 {
        fill: #45b4b9;
        mix-blend-mode: multiply;
      }

      .cls-2 {
        opacity: .35;
      }

      .cls-3 {
        opacity: .2;
      }

      .cls-4 {
        fill: url(#linear-gradient);
      }

      .cls-5 {
        isolation: isolate;
      }

      .cls-6 {
        fill: url(#New_Gradient_Swatch_copy_9);
      }

      .cls-7 {
        fill: #fff;
      }

      .cls-8 {
        fill: url(#New_Gradient_Swatch_copy_9-2);
      }
    </style>
    <linearGradient id="New_Gradient_Swatch_copy_9" data-name="New Gradient Swatch copy 9" x1="-490" y1="-432.8" x2="-490" y2="-236.94" gradientTransform="translate(95.93 70.34) rotate(-2.57) scale(.14)" gradientUnits="userSpaceOnUse">
      <stop offset="0" stop-color="#b0d8bb"/>
      <stop offset=".16" stop-color="#a8d5ba"/>
      <stop offset=".39" stop-color="#93ceba"/>
      <stop offset=".67" stop-color="#72c3b9"/>
      <stop offset=".98" stop-color="#45b4b9"/>
    </linearGradient>
    <linearGradient id="New_Gradient_Swatch_copy_9-2" data-name="New Gradient Swatch copy 9" x1="-433.01" y1="-243.95" x2="-320.02" y2="-75.49" xlink:href="#New_Gradient_Swatch_copy_9"/>
    <linearGradient id="linear-gradient" x1="-441.28" y1="-265.79" x2="-540.04" y2="-401.33" gradientTransform="translate(95.93 70.34) rotate(-2.57) scale(.14)" gradientUnits="userSpaceOnUse">
      <stop offset=".02" stop-color="#45b4b9"/>
      <stop offset=".33" stop-color="#72c3b9"/>
      <stop offset=".61" stop-color="#93ceba"/>
      <stop offset=".84" stop-color="#a8d5ba"/>
      <stop offset="1" stop-color="#b0d8bb"/>
    </linearGradient>
  </defs>
  <g class="cls-5">
    <g id="Camada_1" data-name="Camada 1">
      <g>
        <g>
          <path class="cls-6" d="M42.22,29.81c-.02,1.67-.24,3.18-.79,4.23-.01.02-.02.04-.03.06h0c-.17.32-.38.6-.61.82-.35.32-.93.63-1.7.9-.25.09-.52.18-.82.26h0c-.19.06-.39.11-.59.16h0c-.37.09-.76.19-1.17.27-1.27.27-2.74.5-4.31.69-.5.06-1.01.12-1.53.17-.38.04-.77.07-1.17.1-7.54.62-16.25.27-17.9-1.44-.16-.17-.31-.36-.45-.57-.07-.11-.14-.22-.2-.34-.15-.27-.28-.57-.4-.9,0-.02-.02-.05-.03-.07-.19-.52-.34-1.09-.47-1.71h0c-.05-.24-.09-.49-.13-.75h0c-.09-.58-.16-1.19-.21-1.82-.15-1.99-.1-4.18.09-6.21.02-.24.05-.49.07-.72.04-.36.08-.72.13-1.07.19-1.36.43-2.58.71-3.55.9-3.17,27.01-1.8,28.94-.16.45.38,1.06,1.95,1.57,4.01.06.25.12.51.18.78.18.79.34,1.63.47,2.48.13.86.23,1.73.29,2.59.04.6.06,1.2.06,1.78Z"/>
          <path class="cls-7" d="M41.41,22.96l-5.11-3.11c-.27-.17-.6-.2-.9-.08l-8.32,3.14c-.33.12-.7.14-1.04.03l-9.66-3c-.29-.09-.6-.05-.86.11l-5.71,3.62c.02-.24.05-.49.07-.72l5.33-3.38c.4-.25.89-.32,1.34-.18l9.66,3c.22.07.46.06.67-.02l8.32-3.14c.46-.18.98-.13,1.4.13l4.63,2.82c.06.25.12.51.18.78Z"/>
          <g>
            <path class="cls-7" d="M37.4,36.21c.09.03.18.04.27.04-.37.09-.76.19-1.17.27l-8.94-2.77c-.22-.07-.46-.06-.67.02l-8.32,3.14c-.47.17-.98.13-1.4-.13l-7.12-4.34h0c-.05-.24-.09-.49-.13-.75l7.55,4.6c.27.17.6.2.9.08l8.32-3.14c.33-.13.7-.14,1.04-.03l9.66,3Z"/>
            <path class="cls-7" d="M41.4,34.11c-.17.32-.38.6-.61.82-.46.43-1.34.83-2.52,1.17l3.13-1.98Z"/>
          </g>
        </g>
        <path class="cls-1" d="M41.43,34.04c.12-.92.4-3.21-.53-3.37-1.15-.2-3.41,1.29-3.41,1.29l1.59,3.87c-.25.09-.52.18-.82.26h0c-.19.06-.39.11-.59.16h0c-.37.09-.76.19-1.17.27-1.98.42-4.42.74-7.01.96.07-1.13-.16-3.05-1.34-2.86-1.56.25-5.77,2.33-10.46,2.38-3.39.04-5.66-1.22-6.54-1.53-.24-.38-.46-.82-.63-1.31l-.16-1.34s3.07-1.7,3.59-1.91c.53-.2,6.62-1.22,9.11-1.48s16.14-4.82,16.35-4.83c.11,0,1.27.39,2.46.83.49,3.21.56,6.68-.45,8.6Z"/>
        <path class="cls-1" d="M42.22,29.81c-.31.11-.66.19-1.06.23-1.87.18-3.92,1.22-3.92,1.22l-1.46,3.51-3.59,2.45c-.5.06-1.01.12-1.53.17,0-.61-.03-1.42-.24-2.14-.4-1.36-.8-2.31-2.07-1.66-1.28.65-6.3,2.37-10.84,2.48-3.84.09-5.99-.69-6.56-.93-.15-.27-.28-.57-.4-.9l25.63-8.62,5.99,2.42c.04.6.06,1.2.06,1.78Z"/>
        <path class="cls-7" d="M36.5,21.11c.02.44-.33.82-.77.84-.45.02-.82-.32-.84-.77s.33-.82.77-.84c.45-.02.82.32.84.77Z"/>
        <g>
          <path class="cls-8" d="M45.66,47.69c0,.1,0,.2,0,.3,0,.16-.03.32-.06.47-1.04,5.06-6.44,6.64-9.16,7.13-.68.12-1.31-.26-1.55-.86-.05-.13-.09-.28-.1-.43-.09-1.46-.22-2.84-.38-4.16h0c-.01-.12-.03-.23-.04-.35-.3-2.45-.7-4.67-1.16-6.65h0c-.03-.12-.05-.24-.08-.36-.7-2.97-1.51-5.39-2.29-7.3-.04-.1-.08-.2-.12-.3-.16-.37-.31-.73-.46-1.06-1.14-2.54-2.08-3.87-2.24-4.09-.02-.02-.02-.03-.02-.03h.04s7.26-1.83,7.26-1.83l1.46-.37c.17.28.34.57.51.85.59,1,1.15,2,1.68,2.98.13.24.26.48.38.72.06.11.12.22.17.33.5.96.97,1.9,1.41,2.82.69,1.44,1.3,2.81,1.84,4.08h0c.05.11.09.22.14.32,1.35,3.21,2.23,5.72,2.62,6.9.1.29.15.59.16.9Z"/>
          <g>
            <path class="cls-7" d="M39.5,32.67l-1.83-.4c-.08-.02-.16,0-.22.05l-2.1,1.74c-.09.08-.21.12-.33.13l-3.11.1c-.07,0-.15.04-.2.1l-.86,1.08c-.04-.1-.08-.2-.12-.3l.76-.96c.1-.13.25-.2.41-.21l3.11-.1c.06,0,.11-.02.16-.06l2.1-1.74c.13-.11.3-.15.47-.11l1.6.35c.06.11.12.22.17.33Z"/>
            <path class="cls-7" d="M42.89,39.89l-2-.43c-.09-.02-.19,0-.26.06l-2.33,1.94c-.1.08-.23.13-.36.14l-3.45.11c-.08,0-.17.05-.23.12l-1.05,1.31c-.03-.12-.05-.24-.08-.35l.9-1.14c.11-.14.27-.22.44-.22l3.45-.11c.07,0,.13-.03.19-.07l2.33-1.94c.14-.12.33-.16.5-.12l1.8.39h0c.05.11.09.22.14.32Z"/>
            <path class="cls-7" d="M45.66,47.69c0,.1,0,.2,0,.3l-2.21-.84c-.1-.04-.2-.03-.29.03l-2.77,1.67c-.12.07-.26.1-.4.08l-3.65-.43c-.1-.01-.2.02-.27.09l-1.66,1.54c-.01-.12-.03-.23-.04-.35l1.51-1.4c.13-.12.31-.18.5-.16l3.65.43c.07,0,.15,0,.21-.05l2.77-1.67c.17-.1.36-.12.54-.05l2.11.8Z"/>
          </g>
        </g>
        <path class="cls-1" d="M38.94,31.63c-1.36.81-2.96,1.19-4.51,1.54-1.39.32-2.78.63-4.17.95-.17-.38-.33-.73-.49-1.05-.91-1.86-1.61-2.85-1.75-3.04,0-.01.01-.03.02-.04l7.26-1.82c.66.12,1.32.29,1.97.49.47.8.92,1.59,1.35,2.38.11.2.22.4.33.6Z"/>
        <path class="cls-1" d="M38.62,31.03c-1.5.61-3.17.94-4.81,1.25-1.35.26-2.69.52-4.04.78-.91-1.86-1.61-2.85-1.75-3.04,0-.01.01-.03.02-.04l7.26-1.82c.66.12,1.32.29,1.97.49.47.8.92,1.59,1.35,2.38Z"/>
        <path class="cls-2" d="M39.81,25.95s-.29.04-.83.11c-3.77.52-19.52,2.67-29.28,3.82-.14-1.87-.1-3.91.06-5.84.01-.12.02-.25.03-.37.02-.24.05-.49.07-.72.04-.36.08-.72.13-1.07,2.89,1.25,4.67,1.89,13.17,1.45,8.28-.43,13.91-3.14,13.91-3.14l2.73,5.76Z"/>
        <path class="cls-2" d="M38.98,26.06c-3.77.52-19.52,2.67-29.28,3.82-.14-1.87-.1-3.91.06-5.84,2.64.95,4.75,1.37,12.64.55,8.25-.85,13.73-3.84,13.73-3.84l2.86,5.31Z"/>
        <path class="cls-7" d="M27.44,20.76c.02.44-.33.82-.77.84-.45.02-.82-.32-.84-.77-.02-.44.33-.82.77-.84s.82.32.84.77Z"/>
        <path class="cls-7" d="M16.81,21.52c.02.44-.33.82-.77.84-.45.02-.82-.32-.84-.77-.02-.44.33-.82.77-.84.45-.02.82.32.84.77Z"/>
        <g>
          <path class="cls-4" d="M45.38,26.73h0c0,.34-.18.74-.61,1.28-.39.34-.88.62-1.44.88h0c-.09.05-.19.09-.29.13-1.27.56-2.88.99-4.73,1.45-.87.21-1.8.43-2.77.67-.11.03-.23.06-.35.09-1.73.43-3.6.93-5.55,1.57h0c-.12.04-.24.08-.37.12-.11.04-.21.07-.32.11-.82.28-1.65.59-2.49.93-1.47.6-2.94,1.03-4.38,1.32-.11.02-.21.04-.32.06-2.06.39-4.04.5-5.85.41-.12,0-.23-.01-.35-.02-1.96-.12-3.71-.46-5.12-.92-.15-.05-.29-.1-.43-.14-1.02-.36-2.57-.62-2.19-2.28,0-.01,0-.02,0-.03.41-1.71-.4-3.96-.76-5.62-.39-1.81-.24-2.91,2.62-1.82.28.11.58.17.89.23.1.02.19.04.29.07,1.47.3,3.17.41,4.97.37.11,0,.23,0,.34,0,1.46-.04,2.97-.18,4.49-.37.11-.01.22-.03.33-.04h0c1.8-.24,3.59-.57,5.26-.95.1-.02.21-.05.31-.07,2.39-.54,4.52-1.17,6.06-1.73.11-.04.22-.08.32-.12.74-.28,1.33-.55,1.71-.78,2.25-1.35,4.04-2.09,5.53-2.33.1-.02.21-.03.31-.05.84-.1,1.6.19,2.17.68.76.65,1.2,1.65,1.08,2.53-.39,2.74,1.65,3.18,1.63,4.38Z"/>
          <path class="cls-7" d="M10.54,30.06c.04.11.05.24.01.36l-.92,2.96c-.02.07-.01.15.03.22l.78,1.22c-.15-.05-.29-.1-.43-.14l-.59-.93c-.09-.14-.11-.3-.06-.45l.92-2.96c.02-.05.01-.12,0-.17l-.97-2.55c-.06-.16-.04-.33.05-.48l1.21-1.98c.1.02.19.04.29.07l-1.26,2.06c-.04.07-.05.15-.02.23l.97,2.55Z"/>
          <path class="cls-7" d="M15.75,30.59c.04.11.05.24.01.35l-.92,2.96c-.02.07-.01.15.03.22l1.04,1.63c-.12,0-.23-.01-.35-.02l-.93-1.46c-.09-.14-.11-.3-.06-.45l.92-2.96c.02-.05.01-.11,0-.17l-.97-2.55c-.06-.16-.04-.33.04-.48l1.27-2.07c.11,0,.23,0,.34,0l-1.36,2.22c-.04.07-.05.15-.02.23l.97,2.55Z"/>
          <path class="cls-7" d="M22.08,35.28c-.11.02-.21.04-.32.06l-1.18-1.42c-.1-.12-.15-.29-.12-.44l.55-3.05c0-.06,0-.12-.03-.17l-1.28-2.41c-.08-.15-.09-.33-.02-.48l.97-2.15c.11-.01.22-.03.33-.04l-1.04,2.31c-.03.07-.03.16,0,.23l1.28,2.41c.06.11.08.23.06.35l-.55,3.05c-.01.08,0,.15.06.21l1.28,1.54Z"/>
          <path class="cls-7" d="M29.26,32.91c-.11.04-.21.07-.32.11l-.97-.79c-.12-.1-.2-.25-.2-.41l-.05-3.1c0-.06-.02-.11-.06-.16l-1.72-2.12c-.11-.13-.14-.3-.11-.47l.41-1.75c.1-.02.21-.05.31-.07l-.44,1.89c-.02.08,0,.16.05.22l1.72,2.12c.08.09.12.21.12.33l.02,1.26v.07s.03,1.77.03,1.77c0,.08.04.15.1.2l1.1.9Z"/>
          <path class="cls-7" d="M35.53,31.13c-.11.03-.23.06-.35.09l-.85-.69c-.12-.1-.2-.25-.2-.41l-.03-1.65-.02-1.44c0-.06-.02-.11-.06-.16l-1.72-2.12c-.11-.13-.14-.3-.11-.47l.43-1.84c.11-.04.22-.08.32-.12l-.48,2.03c-.02.08,0,.16.05.22l1.72,2.12c.08.09.12.21.12.33l.02,1.38.03,1.72c0,.08.04.15.1.2l1.02.83Z"/>
          <path class="cls-7" d="M43.32,28.88c-.09.05-.19.09-.29.13l-1.29-1.05c-.12-.1-.2-.25-.2-.41l-.05-3.1c0-.06-.02-.11-.06-.16l-1.72-2.12c-.11-.13-.15-.3-.11-.47l.59-2.51c.1-.02.21-.03.31-.05l-.62,2.62c-.02.08,0,.16.05.22l1.72,2.12c.08.09.12.21.12.33l.05,3.1c0,.08.04.15.1.2l1.4,1.14Z"/>
        </g>
        <path class="cls-2" d="M45.38,26.73c-.03-.69-.75-1.08-2.17-1.29-1.83-.27-4.11,1.43-7.06,1.74-2.95.31-1.84-1.15-.96-1.56,1.61-.75,5.97-1.51,7.23-2.89,1.03-1.12.57-2.15.26-2.91.76.65,1.2,1.65,1.08,2.53-.39,2.74,1.65,3.18,1.63,4.38Z"/>
        <path class="cls-1" d="M43.66,24.76c-.23-.31-.52-1.61-.47-2.01,0,0-.81,1.82-3.95,2.38-3.14.57-.98.54-.39.44.58-.1,3.03-1.01,4.8-.82Z"/>
        <path class="cls-3" d="M20.07,30.63c-.5,1.49-2.19,2.14-5.78,1.68-2.59-.33-5.11-.29-6.48.08,0-.01,0-.02,0-.03.41-1.71-.4-3.96-.76-5.62.26.47.63.98,1.15,1.52,1.9,2,6.25,1.33,8.15,1.3s4.22-.43,3.71,1.07Z"/>
        <path class="cls-3" d="M45.66,47.69c0,.1,0,.2,0,.3,0,.16-.03.32-.06.47-1.04,5.06-6.44,6.64-9.16,7.13-.68.12-1.31-.26-1.55-.86,1.41-.05,2.79-.2,4.05-.81,2.55-1.23,3.96-4.14,4.17-6.96.21-2.82-.56-5.62-1.32-8.34-.29-1.04-.58-2.08-.88-3.12.69,1.44,1.3,2.81,1.84,4.08h0c.05.11.09.22.14.32,1.35,3.21,2.23,5.72,2.62,6.9.1.29.15.59.16.9Z"/>
      </g>
    </g>
  </g>
</svg>