<?xml version="1.0" encoding="UTF-8"?>
<svg id="Camada_1" data-name="Camada 1" xmlns="http://www.w3.org/2000/svg" viewBox="0 0 55.7 59.67">
  <defs>
    <style>
      .cls-1 {
        fill: #161616;
      }
    </style>
  </defs>
  <path class="cls-1" d="M18.51,41.38c.07-.32.14-.65.2-.99-1.23.14-2.52.18-3.21.2.35.45.96.82,1.82,1.1.33.11.68.19,1.06.27.05-.19.09-.39.13-.58Z"/>
  <path class="cls-1" d="M17.17,34.08c-.02.32-.05.65-.09.97.67,0,1.35-.05,2.05-.14,0-.24-.01-.48-.03-.71,0-.08,0-.16-.01-.24-.71.06-1.39.09-1.92.1Z"/>
  <path class="cls-1" d="M17.12,31.85s-.03,0-.05,0c.02.17.05.35.06.52.02.22.03.45.04.67.6,0,1.21-.05,1.82-.12-.03-.3-.07-.6-.11-.89-.58-.05-1.16-.11-1.77-.18Z"/>
  <path class="cls-1" d="M15.62,39.54c1.27.01,2.43-.13,3.27-.28.01-.1.03-.2.04-.3.01-.09.02-.19.03-.29.02-.16.03-.32.05-.48-1.08.11-2.17.14-2.82.16-.21.51-.42.91-.57,1.19Z"/>
  <path class="cls-1" d="M16.57,37.31c.95,0,1.82-.1,2.52-.21.02-.37.03-.73.04-1.07,0-.02,0-.03,0-.05-.83.07-1.63.1-2.23.12-.09.41-.2.82-.33,1.21Z"/>
  <path class="cls-1" d="M19.01,33.07c-.62.07-1.23.11-1.83.12,0,.24,0,.49,0,.73.52-.02,1.19-.05,1.9-.1-.02-.22-.03-.43-.05-.63,0-.04,0-.08-.01-.12Z"/>
  <path class="cls-1" d="M16.93,35.94c.6-.02,1.39-.05,2.2-.12,0-.26,0-.51,0-.76-.7.09-1.39.13-2.07.14-.03.24-.08.48-.13.74Z"/>
  <path class="cls-1" d="M16.25,38.2c.66-.02,1.72-.06,2.77-.16.02-.26.04-.53.06-.79-.71.11-1.6.2-2.56.2-.08.25-.17.49-.27.74Z"/>
  <path class="cls-1" d="M18.82,39.75h0c.02-.11.03-.22.05-.33-.87.15-2.04.3-3.33.27-.14.24-.24.4-.28.46.04.1.08.2.14.29.66-.01,2.05-.05,3.34-.2.03-.16.05-.32.08-.48Z"/>
  <path class="cls-1" d="M23.21,32.3c-.75-.02-1.54-.06-2.33-.11-.55-.04-1.09-.08-1.6-.12-.07,0-.14-.01-.21-.02.05.34.09.7.13,1.06,1.19-.04,3.95-.09,5.97.21-.07-.34-.15-.67-.24-1-.56,0-1.13,0-1.71-.03Z"/>
  <path class="cls-1" d="M18.32,42.81c-.15.53-.31,1.06-.49,1.58.33.11,1.73.58,3.54.83,1.62.23,3.1.23,4.42,0,0-.05.01-.14.02-.26-.61-.33-2.76-1.38-7.41-2.41-.02.09-.05.17-.07.26Z"/>
  <path class="cls-1" d="M19.27,34.28c.03.54.04,1.1.03,1.67,1.56-.04,4.35-.05,6.32.29-.05-.48-.11-.92-.18-1.33-.89-.22-2.83-.58-6.17-.62Z"/>
  <path class="cls-1" d="M19.14,38.61c1.39.08,4.61.31,6.73.89-.02-.52-.05-1.05-.09-1.58-.92-.24-2.96-.64-6.52-.7-.03.45-.07.92-.12,1.39Z"/>
  <path class="cls-1" d="M18.69,41.34c1.23.22,4.95.92,7.2,1.84.02-.66.03-1.32.02-1.96-.93-.35-3.02-.98-6.94-1.37-.08.52-.18,1.01-.28,1.49Z"/>
  <path class="cls-1" d="M20.97,32.04c.74.05,1.46.08,2.16.1.27-2.25.45-5.5-.2-8.41-.57.07-1.18.13-1.92.21.27,2.04.48,5.07-.04,8.1Z"/>
  <path class="cls-1" d="M36.76,21.03c-.36.16-.73.3-1.09.42-.28.1-.61.2-.97.3.37,2.4.63,5.98-.12,9.59.83-.16,1.65-.34,2.43-.55.29-1.87.63-5.56-.25-9.76Z"/>
  <path class="cls-1" d="M13.24,24.62c-.37.03-.75.05-1.12.08-.03,0-.11,0-.18.14-.24.54.2,2.2.63,2.65.37.39.42,1.8.4,2.92,0,.38.28.71.69.78.22.04.47.08.77.13.04-1.78-.05-4.35-.66-6.74l-.53.04Z"/>
  <path class="cls-1" d="M45.57,22.35c-.1-.13-.24-.25-.39-.37-.48-.4-1.02-.85-.27-1.83.22-.28.27-.56.17-.83-.22-.55-1.07-.96-1.66-1.13.4,2.19.9,6.36,0,10.56,2.34-.96,2.52-1.61,2.37-2.16-.21-.76.06-1.2.28-1.55.1-.17.2-.32.21-.46.04-.46-.26-1.67-.69-2.22Z"/>
  <path class="cls-1" d="M40.33,19.13c-.12.07-.25.15-.38.22-.4.23-.81.48-1.26.72.4,2.12.94,6.19.16,10.2.63-.18,1.18-.35,1.65-.5.32-1.94.93-6.74-.17-10.65Z"/>
  <path class="cls-1" d="M27.89,23.08c-.59.09-1.22.18-1.85.26.3,2.2.52,5.48-.12,8.82.71,0,1.41-.03,2.06-.07.09,0,.19,0,.28-.01.26-2.12.4-5.37-.37-9Z"/>
  <path class="cls-1" d="M31.63,22.45c-.55.11-1.12.21-1.7.31.39,2.31.72,5.76.13,9.2.58-.05,1.14-.11,1.69-.18.3-2.06.66-5.94-.12-9.32Z"/>
  <path class="cls-1" d="M17.22,31.71c.69.08,1.34.15,1.98.2.2-1.82.33-4.62-.21-7.76-.65.06-1.35.13-2.15.2.33,1.81.65,4.53.38,7.37Z"/>
  <path class="cls-1" d="M43.24,18.15s-.1-.02-.14-.03c-.75-.11-1.63.35-2.62.92,1.11,3.89.53,8.67.2,10.68,1.02-.32,1.86-.62,2.55-.89.94-4.26.42-8.5.01-10.68Z"/>
  <path class="cls-1" d="M34.54,21.79c-.76.21-1.68.42-2.74.63.78,3.38.43,7.25.13,9.33.85-.11,1.68-.24,2.48-.39.76-3.6.5-7.17.13-9.58Z"/>
  <path class="cls-1" d="M23.3,32.15c.84.02,1.67.03,2.45.02.64-3.32.42-6.6.12-8.8-.88.12-1.81.23-2.77.34.65,2.92.47,6.18.2,8.43Z"/>
  <path class="cls-1" d="M17.05,31.69c.27-2.82-.05-5.53-.38-7.33-.87.07-1.8.15-2.75.22.6,2.41.69,4.99.65,6.77.79.13,1.62.24,2.47.34Z"/>
  <path class="cls-1" d="M38.53,20.16c-.56.31-1.1.57-1.62.8.89,4.19.56,7.88.27,9.79.31-.08.63-.17.95-.27.18-.05.36-.1.54-.15.79-3.98.27-8.03-.13-10.17Z"/>
  <path class="cls-1" d="M29.77,22.79c-.55.09-1.13.18-1.72.27.77,3.63.63,6.89.38,9.02.52-.03,1-.06,1.46-.11.59-3.43.27-6.87-.12-9.18Z"/>
  <path class="cls-1" d="M19.37,31.92c.46.04.94.08,1.44.11.52-3.01.32-6.04.04-8.07-.56.06-1.12.11-1.69.17.54,3.16.41,5.97.21,7.79Z"/>
  <path class="cls-1" d="M19.2,33.26c.03.28.05.57.06.88,3.28.04,5.23.39,6.15.61-.07-.42-.14-.85-.23-1.27-2.01-.31-4.79-.26-5.99-.22Z"/>
  <path class="cls-1" d="M19.3,36.1c0,.31-.02.63-.03.96,3.51.06,5.54.45,6.5.69-.03-.46-.08-.92-.13-1.36-2.03-.36-5.05-.33-6.34-.3Z"/>
  <path class="cls-1" d="M25.87,39.66c-2.1-.59-5.36-.82-6.75-.9-.04.33-.08.64-.13.94,3.84.38,5.95,1,6.91,1.36,0-.47-.01-.93-.03-1.39Z"/>
  <path class="cls-1" d="M18.43,42.41c4.42.98,6.57,1.95,7.38,2.39.02-.29.04-.79.07-1.45-2.22-.93-5.99-1.64-7.23-1.86-.07.3-.14.61-.22.92Z"/>
</svg>