<?xml version="1.0" encoding="UTF-8"?>
<svg id="Camada_1" data-name="Camada 1" xmlns="http://www.w3.org/2000/svg" viewBox="0 0 55.7 26.67">
  <defs>
    <style>
      .cls-1 {
        fill: #e8ba25;
      }

      .cls-2 {
        fill: #d6151d;
      }

      .cls-3 {
        fill: #0f0d08;
      }
    </style>
  </defs>
  <path class="cls-2" d="M47.64,6.82c-.11,1.46-.49,3.65-1.71,5.99-2.34,4.48-6.22,6.53-7.7,7.22-2.19.78-5.69,1.74-10.06,1.72-4.02-.02-7.27-.86-9.39-1.59-2.84-1.19-4.32-2.83-5.02-3.77-1.18-1.57-1.69-3.17-2.57-5.93-.51-1.59-.83-2.92-1.03-3.83,1.58,1.42,8.21,7.06,18.45,7.2,10.55.15,17.49-5.65,19.03-7Z"/>
  <path class="cls-1" d="M29.88,15.39h-2.33c-.38,0-.7.29-.7.64v2.78c0,.35.31.64.7.64h2.33c.38,0,.7-.29.7-.64v-2.78c0-.35-.31-.64-.7-.64ZM30.2,18.4c0,.35-.31.64-.7.64h-1.58c-.38,0-.7-.29-.7-.64v-1.96c0-.35.31-.64.7-.64h1.58c.38,0,.7.29.7.64v1.96Z"/>
  <path class="cls-3" d="M26.92,18.86h-10.43c-1-.95-1.99-1.89-2.99-2.84,4.47-.02,8.94-.03,13.41-.05v2.89Z"/>
  <path class="cls-3" d="M30.58,18.86c3.31-.08,6.62-.17,9.93-.25.53-.38,1.09-.82,1.66-1.33.64-.56,1.19-1.11,1.68-1.63-4.43.11-8.85.21-13.28.32v2.89Z"/>
</svg>