<?xml version="1.0" encoding="UTF-8"?>
<svg id="Camada_1" data-name="Camada 1" xmlns="http://www.w3.org/2000/svg" viewBox="0 0 55.7 59.67">
  <defs>
    <style>
      .cls-1 {
        fill: #e8ba25;
      }

      .cls-2 {
        fill: #050504;
      }
    </style>
  </defs>
  <path class="cls-2" d="M11.51,25.34c.41,1.23,1.32,3.36,3.36,5.17,2.25,2,4.67,2.68,6.16,2.89,1.22.17,2.53.3,3.91.37,3.69.19,6.97-.12,9.72-.59,1.36-.39,3.98-1.36,6.35-3.75,1.54-1.56,2.43-3.17,2.93-4.3-10.81.07-21.62.13-32.43.2Z"/>
  <path class="cls-1" d="M28.85,26.1h-2.33c-.38,0-.7.29-.7.64v2.78c0,.35.31.64.7.64h2.33c.38,0,.7-.29.7-.64v-2.78c0-.35-.31-.64-.7-.64ZM29.18,29.1c0,.35-.31.64-.7.64h-1.58c-.38,0-.7-.29-.7-.64v-1.96c0-.35.31-.64.7-.64h1.58c.38,0,.7.29.7.64v1.96Z"/>
</svg>