<svg width="37" height="37" viewBox="0 0 37 37" fill="none" xmlns="http://www.w3.org/2000/svg">
<path d="M3.7002 31.4501L2.91933 30.8254C2.67919 31.1255 2.63237 31.5368 2.79889 31.8832C2.96541 32.2297 3.31579 32.4501 3.7002 32.4501V31.4501ZM11.8402 21.2751L12.6211 20.6504C12.4313 20.4131 12.144 20.2751 11.8402 20.2751C11.5364 20.2751 11.2491 20.4131 11.0593 20.6504L11.8402 21.2751ZM14.8002 24.975L14.0193 25.5997C14.2091 25.837 14.4964 25.975 14.8002 25.975C15.104 25.975 15.3913 25.837 15.5811 25.5997L14.8002 24.975ZM21.4602 16.65L22.2411 16.0254C22.0513 15.7881 21.764 15.6501 21.4602 15.65C21.1564 15.65 20.8691 15.7881 20.6793 16.0254L21.4602 16.65ZM33.3002 31.4501V32.4501C33.6846 32.4501 34.035 32.2297 34.2015 31.8832C34.368 31.5368 34.3212 31.1255 34.0811 30.8254L33.3002 31.4501ZM11.9502 8.32505C11.9502 9.30535 11.1555 10.1 10.1752 10.1V12.1C12.2601 12.1 13.9502 10.4099 13.9502 8.32505H11.9502ZM10.1752 10.1C9.19489 10.1 8.4002 9.30535 8.4002 8.32505H6.40019C6.40019 10.4099 8.09032 12.1 10.1752 12.1V10.1ZM8.4002 8.32505C8.4002 7.34474 9.19489 6.55005 10.1752 6.55005V4.55005C8.09032 4.55005 6.40019 6.24017 6.40019 8.32505H8.4002ZM10.1752 6.55005C11.1555 6.55005 11.9502 7.34474 11.9502 8.32505H13.9502C13.9502 6.24017 12.2601 4.55005 10.1752 4.55005V6.55005ZM4.48106 32.0747L12.6211 21.8997L11.0593 20.6504L2.91933 30.8254L4.48106 32.0747ZM11.0593 21.8997L14.0193 25.5997L15.5811 24.3504L12.6211 20.6504L11.0593 21.8997ZM15.5811 25.5997L22.2411 17.2747L20.6793 16.0254L14.0193 24.3504L15.5811 25.5997ZM20.6793 17.2747L32.5193 32.0747L34.0811 30.8254L22.2411 16.0254L20.6793 17.2747ZM33.3002 30.4501H3.7002V32.4501H33.3002V30.4501Z" fill="#B49BC7"/>
<path d="M3.7002 31.4501L2.91933 30.8254C2.67919 31.1255 2.63237 31.5368 2.79889 31.8832C2.96541 32.2297 3.31579 32.4501 3.7002 32.4501V31.4501ZM11.8402 21.2751L12.6211 20.6504C12.4313 20.4131 12.144 20.2751 11.8402 20.2751C11.5364 20.2751 11.2491 20.4131 11.0593 20.6504L11.8402 21.2751ZM14.8002 24.975L14.0193 25.5997C14.2091 25.837 14.4964 25.975 14.8002 25.975C15.104 25.975 15.3913 25.837 15.5811 25.5997L14.8002 24.975ZM21.4602 16.65L22.2411 16.0254C22.0513 15.7881 21.764 15.6501 21.4602 15.65C21.1564 15.65 20.8691 15.7881 20.6793 16.0254L21.4602 16.65ZM33.3002 31.4501V32.4501C33.6846 32.4501 34.035 32.2297 34.2015 31.8832C34.368 31.5368 34.3212 31.1255 34.0811 30.8254L33.3002 31.4501ZM11.9502 8.32505C11.9502 9.30535 11.1555 10.1 10.1752 10.1V12.1C12.2601 12.1 13.9502 10.4099 13.9502 8.32505H11.9502ZM10.1752 10.1C9.19489 10.1 8.4002 9.30535 8.4002 8.32505H6.40019C6.40019 10.4099 8.09032 12.1 10.1752 12.1V10.1ZM8.4002 8.32505C8.4002 7.34474 9.19489 6.55005 10.1752 6.55005V4.55005C8.09032 4.55005 6.40019 6.24017 6.40019 8.32505H8.4002ZM10.1752 6.55005C11.1555 6.55005 11.9502 7.34474 11.9502 8.32505H13.9502C13.9502 6.24017 12.2601 4.55005 10.1752 4.55005V6.55005ZM4.48106 32.0747L12.6211 21.8997L11.0593 20.6504L2.91933 30.8254L4.48106 32.0747ZM11.0593 21.8997L14.0193 25.5997L15.5811 24.3504L12.6211 20.6504L11.0593 21.8997ZM15.5811 25.5997L22.2411 17.2747L20.6793 16.0254L14.0193 24.3504L15.5811 25.5997ZM20.6793 17.2747L32.5193 32.0747L34.0811 30.8254L22.2411 16.0254L20.6793 17.2747ZM33.3002 30.4501H3.7002V32.4501H33.3002V30.4501Z" fill="black" fill-opacity="0.6"/>
</svg>
