<svg width="26" height="31" viewBox="0 0 26 31" fill="none" xmlns="http://www.w3.org/2000/svg">
<path d="M3.35686 1H10.6604V30H3.35686C2.16461 30 1.14258 28.9918 1.14258 27.6786V3.32143C1.14258 2.00818 2.1646 1 3.35686 1ZM22.6426 30H15.339V1H22.6426C23.8348 1 24.8569 2.00819 24.8569 3.32143V27.6786C24.8569 28.9918 23.8348 30 22.6426 30ZM20.6962 14.3077C20.6962 13.0223 19.6795 11.9238 18.3569 11.9238C17.0343 11.9238 16.0176 13.0223 16.0176 14.3077V16.6923C16.0176 17.9778 17.0343 19.0763 18.3569 19.0763C19.6795 19.0763 20.6962 17.9778 20.6962 16.6923V14.3077ZM9.98186 14.3077C9.98186 13.0223 8.96519 11.9238 7.64258 11.9238C6.31997 11.9238 5.30329 13.0223 5.30329 14.3077V16.6923C5.30329 17.9778 6.31997 19.0763 7.64258 19.0763C8.96519 19.0763 9.98186 17.9778 9.98186 16.6923V14.3077Z" stroke="#B49BC7" stroke-width="2"/>
<path d="M3.35686 1H10.6604V30H3.35686C2.16461 30 1.14258 28.9918 1.14258 27.6786V3.32143C1.14258 2.00818 2.1646 1 3.35686 1ZM22.6426 30H15.339V1H22.6426C23.8348 1 24.8569 2.00819 24.8569 3.32143V27.6786C24.8569 28.9918 23.8348 30 22.6426 30ZM20.6962 14.3077C20.6962 13.0223 19.6795 11.9238 18.3569 11.9238C17.0343 11.9238 16.0176 13.0223 16.0176 14.3077V16.6923C16.0176 17.9778 17.0343 19.0763 18.3569 19.0763C19.6795 19.0763 20.6962 17.9778 20.6962 16.6923V14.3077ZM9.98186 14.3077C9.98186 13.0223 8.96519 11.9238 7.64258 11.9238C6.31997 11.9238 5.30329 13.0223 5.30329 14.3077V16.6923C5.30329 17.9778 6.31997 19.0763 7.64258 19.0763C8.96519 19.0763 9.98186 17.9778 9.98186 16.6923V14.3077Z" stroke="black" stroke-opacity="0.6" stroke-width="2"/>
</svg>
