<svg width="33" height="33" viewBox="0 0 33 33" fill="none" xmlns="http://www.w3.org/2000/svg">
<path d="M4.125 9.625L8.25 5.5H12.375C12.375 6.0417 12.4817 6.5781 12.689 7.07857C12.8963 7.57904 13.2001 8.03377 13.5832 8.41682C13.9662 8.79986 14.421 9.1037 14.9214 9.311C15.4219 9.5183 15.9583 9.625 16.5 9.625C17.0417 9.625 17.5781 9.5183 18.0786 9.311C18.579 9.1037 19.0338 8.79986 19.4168 8.41682C19.7999 8.03377 20.1037 7.57904 20.311 7.07857C20.5183 6.5781 20.625 6.0417 20.625 5.5H24.75L28.875 9.625L28.1875 16.5L24.75 14.4375V27.5H8.25V14.4375L4.8125 16.5L4.125 9.625Z" stroke="#B49BC7" stroke-width="2" stroke-linecap="round" stroke-linejoin="round"/>
<path d="M4.125 9.625L8.25 5.5H12.375C12.375 6.0417 12.4817 6.5781 12.689 7.07857C12.8963 7.57904 13.2001 8.03377 13.5832 8.41682C13.9662 8.79986 14.421 9.1037 14.9214 9.311C15.4219 9.5183 15.9583 9.625 16.5 9.625C17.0417 9.625 17.5781 9.5183 18.0786 9.311C18.579 9.1037 19.0338 8.79986 19.4168 8.41682C19.7999 8.03377 20.1037 7.57904 20.311 7.07857C20.5183 6.5781 20.625 6.0417 20.625 5.5H24.75L28.875 9.625L28.1875 16.5L24.75 14.4375V27.5H8.25V14.4375L4.8125 16.5L4.125 9.625Z" stroke="black" stroke-opacity="0.6" stroke-width="2" stroke-linecap="round" stroke-linejoin="round"/>
</svg>
