<svg width="35" height="35" viewBox="0 0 35 35" fill="none" xmlns="http://www.w3.org/2000/svg">
<path d="M22.75 12.25V7.875C22.75 4.97551 20.3995 2.625 17.5 2.625C14.6005 2.625 12.25 4.97551 12.25 7.875V12.25M6.89394 32.375H28.1061C29.9805 32.375 31.5 30.8837 31.5 29.0441L29.3258 11.375C29.3258 9.53537 27.8062 8.0441 25.9318 8.0441H8.64394C6.76952 8.0441 5.25 9.53537 5.25 11.375L3.5 29.0441C3.5 30.8837 5.01952 32.375 6.89394 32.375Z" stroke="#B49BC7" stroke-width="2" stroke-linecap="round" stroke-linejoin="round"/>
<path d="M22.75 12.25V7.875C22.75 4.97551 20.3995 2.625 17.5 2.625C14.6005 2.625 12.25 4.97551 12.25 7.875V12.25M6.89394 32.375H28.1061C29.9805 32.375 31.5 30.8837 31.5 29.0441L29.3258 11.375C29.3258 9.53537 27.8062 8.0441 25.9318 8.0441H8.64394C6.76952 8.0441 5.25 9.53537 5.25 11.375L3.5 29.0441C3.5 30.8837 5.01952 32.375 6.89394 32.375Z" stroke="black" stroke-opacity="0.6" stroke-width="2" stroke-linecap="round" stroke-linejoin="round"/>
</svg>
