<svg width="28" height="28" viewBox="0 0 28 28" fill="none" xmlns="http://www.w3.org/2000/svg">
<g clip-path="url(#clip0_1247_3182)">
<mask id="path-1-inside-1_1247_3182" fill="white">
<path fill-rule="evenodd" clip-rule="evenodd" d="M4.2537 0.334662C4.44344 0.121761 4.71506 0 5.00024 0H23.0002C23.2854 0 23.557 0.121761 23.7468 0.334662C23.9364 0.547564 24.0264 0.831348 23.9936 1.11465L22.0738 17.7489H5.92662L4.00684 1.11465C3.97414 0.831348 4.06396 0.547564 4.2537 0.334662ZM6.21516 20.249L6.76354 25.0004H1.54785C0.719424 25.0004 0.0478516 25.672 0.0478516 26.5004C0.0478516 27.3288 0.719424 28.0004 1.54785 28.0004H26.4526C27.281 28.0004 27.9526 27.3288 27.9526 26.5004C27.9526 25.672 27.281 25.0004 26.4526 25.0004H21.237L21.7852 20.249H6.21516Z"/>
</mask>
<path d="M4.2537 0.334662L2.76061 -0.996002L2.76061 -0.996L4.2537 0.334662ZM23.7468 0.334662L25.2404 -0.995452L25.2397 -0.996237L23.7468 0.334662ZM23.9936 1.11465L22.0069 0.884627L22.0068 0.885347L23.9936 1.11465ZM22.0738 17.7489V19.7489H23.8563L24.0607 17.9782L22.0738 17.7489ZM5.92662 17.7489L3.93981 17.9782L4.14417 19.7489H5.92662V17.7489ZM4.00684 1.11465L5.99366 0.88535L5.99365 0.885323L4.00684 1.11465ZM6.21516 20.249V18.249H3.97106L4.22835 20.4783L6.21516 20.249ZM6.76354 25.0004V27.0004H9.00765L8.75035 24.7711L6.76354 25.0004ZM21.237 25.0004L19.2502 24.7712L18.993 27.0004H21.237V25.0004ZM21.7852 20.249L23.7721 20.4782L24.0293 18.249H21.7852V20.249ZM5.7468 1.66533C5.55704 1.87824 5.28542 2 5.00024 2V-2C4.14471 -2 3.32984 -1.63472 2.76061 -0.996002L5.7468 1.66533ZM5.00024 2H23.0002V-2H5.00024V2ZM23.0002 2C22.715 2 22.4435 1.8782 22.254 1.66556L25.2397 -0.996237C24.6706 -1.63468 23.8559 -2 23.0002 -2V2ZM22.2533 1.66478C22.0645 1.45278 21.974 1.16928 22.0069 0.884627L25.9804 1.34467C26.0789 0.49342 25.8084 -0.357649 25.2404 -0.995452L22.2533 1.66478ZM22.0068 0.885347L20.087 17.5196L24.0607 17.9782L25.9805 1.34395L22.0068 0.885347ZM22.0738 15.7489H5.92662V19.7489H22.0738V15.7489ZM7.91344 17.5196L5.99366 0.88535L2.02003 1.34395L3.93981 17.9782L7.91344 17.5196ZM5.99365 0.885323C6.02636 1.16866 5.93652 1.45244 5.7468 1.66532L2.76061 -0.996C2.1914 -0.357314 1.92193 0.494036 2.02004 1.34398L5.99365 0.885323ZM4.22835 20.4783L4.77673 25.2297L8.75035 24.7711L8.20197 20.0197L4.22835 20.4783ZM6.76354 23.0004H1.54785V27.0004H6.76354V23.0004ZM1.54785 23.0004C-0.385169 23.0004 -1.95215 24.5675 -1.95215 26.5004H2.04785C2.04785 26.7765 1.82402 27.0004 1.54785 27.0004V23.0004ZM-1.95215 26.5004C-1.95215 28.4333 -0.385169 30.0004 1.54785 30.0004V26.0004C1.82402 26.0004 2.04785 26.2243 2.04785 26.5004H-1.95215ZM1.54785 30.0004H26.4526V26.0004H1.54785V30.0004ZM26.4526 30.0004C28.3856 30.0004 29.9526 28.4334 29.9526 26.5004H25.9526C25.9526 26.2242 26.1765 26.0004 26.4526 26.0004V30.0004ZM29.9526 26.5004C29.9526 24.5674 28.3856 23.0004 26.4526 23.0004V27.0004C26.1765 27.0004 25.9526 26.7766 25.9526 26.5004H29.9526ZM26.4526 23.0004H21.237V27.0004H26.4526V23.0004ZM23.2239 25.2296L23.7721 20.4782L19.7984 20.0198L19.2502 24.7712L23.2239 25.2296ZM21.7852 18.249H6.21516V22.249H21.7852V18.249Z" fill="#B49BC7" mask="url(#path-1-inside-1_1247_3182)"/>
<path d="M4.2537 0.334662L2.76061 -0.996002L2.76061 -0.996L4.2537 0.334662ZM23.7468 0.334662L25.2404 -0.995452L25.2397 -0.996237L23.7468 0.334662ZM23.9936 1.11465L22.0069 0.884627L22.0068 0.885347L23.9936 1.11465ZM22.0738 17.7489V19.7489H23.8563L24.0607 17.9782L22.0738 17.7489ZM5.92662 17.7489L3.93981 17.9782L4.14417 19.7489H5.92662V17.7489ZM4.00684 1.11465L5.99366 0.88535L5.99365 0.885323L4.00684 1.11465ZM6.21516 20.249V18.249H3.97106L4.22835 20.4783L6.21516 20.249ZM6.76354 25.0004V27.0004H9.00765L8.75035 24.7711L6.76354 25.0004ZM21.237 25.0004L19.2502 24.7712L18.993 27.0004H21.237V25.0004ZM21.7852 20.249L23.7721 20.4782L24.0293 18.249H21.7852V20.249ZM5.7468 1.66533C5.55704 1.87824 5.28542 2 5.00024 2V-2C4.14471 -2 3.32984 -1.63472 2.76061 -0.996002L5.7468 1.66533ZM5.00024 2H23.0002V-2H5.00024V2ZM23.0002 2C22.715 2 22.4435 1.8782 22.254 1.66556L25.2397 -0.996237C24.6706 -1.63468 23.8559 -2 23.0002 -2V2ZM22.2533 1.66478C22.0645 1.45278 21.974 1.16928 22.0069 0.884627L25.9804 1.34467C26.0789 0.49342 25.8084 -0.357649 25.2404 -0.995452L22.2533 1.66478ZM22.0068 0.885347L20.087 17.5196L24.0607 17.9782L25.9805 1.34395L22.0068 0.885347ZM22.0738 15.7489H5.92662V19.7489H22.0738V15.7489ZM7.91344 17.5196L5.99366 0.88535L2.02003 1.34395L3.93981 17.9782L7.91344 17.5196ZM5.99365 0.885323C6.02636 1.16866 5.93652 1.45244 5.7468 1.66532L2.76061 -0.996C2.1914 -0.357314 1.92193 0.494036 2.02004 1.34398L5.99365 0.885323ZM4.22835 20.4783L4.77673 25.2297L8.75035 24.7711L8.20197 20.0197L4.22835 20.4783ZM6.76354 23.0004H1.54785V27.0004H6.76354V23.0004ZM1.54785 23.0004C-0.385169 23.0004 -1.95215 24.5675 -1.95215 26.5004H2.04785C2.04785 26.7765 1.82402 27.0004 1.54785 27.0004V23.0004ZM-1.95215 26.5004C-1.95215 28.4333 -0.385169 30.0004 1.54785 30.0004V26.0004C1.82402 26.0004 2.04785 26.2243 2.04785 26.5004H-1.95215ZM1.54785 30.0004H26.4526V26.0004H1.54785V30.0004ZM26.4526 30.0004C28.3856 30.0004 29.9526 28.4334 29.9526 26.5004H25.9526C25.9526 26.2242 26.1765 26.0004 26.4526 26.0004V30.0004ZM29.9526 26.5004C29.9526 24.5674 28.3856 23.0004 26.4526 23.0004V27.0004C26.1765 27.0004 25.9526 26.7766 25.9526 26.5004H29.9526ZM26.4526 23.0004H21.237V27.0004H26.4526V23.0004ZM23.2239 25.2296L23.7721 20.4782L19.7984 20.0198L19.2502 24.7712L23.2239 25.2296ZM21.7852 18.249H6.21516V22.249H21.7852V18.249Z" fill="black" fill-opacity="0.6" mask="url(#path-1-inside-1_1247_3182)"/>
</g>
<defs>
<clipPath id="clip0_1247_3182">
<rect width="28" height="28" fill="white"/>
</clipPath>
</defs>
</svg>
