<?xml version="1.0" encoding="UTF-8"?>
<svg id="Camada_1" data-name="Camada 1" xmlns="http://www.w3.org/2000/svg" xmlns:xlink="http://www.w3.org/1999/xlink" viewBox="0 0 55.7 70.81">
  <defs>
    <style>
      .cls-1 {
        fill: #412719;
      }

      .cls-2 {
        fill: #83563f;
      }

      .cls-3 {
        fill: #010101;
      }

      .cls-4 {
        fill: url(#Gradiente_sem_nome_3);
      }

      .cls-5 {
        fill: #db924f;
      }

      .cls-6 {
        fill: #926cac;
      }

      .cls-7 {
        fill: #ba7c41;
      }

      .cls-8 {
        fill: #353039;
      }

      .cls-9 {
        opacity: .31;
      }

      .cls-10 {
        fill: #dc9bc3;
      }

      .cls-11 {
        fill: #603825;
      }

      .cls-12 {
        fill: #8a63a5;
      }

      .cls-13 {
        fill: #ececed;
        stroke: #0e0915;
        stroke-miterlimit: 10;
        stroke-width: .25px;
      }

      .cls-14 {
        fill: #4f2e1e;
      }

      .cls-15 {
        fill: #252128;
      }

      .cls-16 {
        fill: #f4b57b;
      }

      .cls-17 {
        fill: #f4a661;
      }
    </style>
    <linearGradient id="Gradiente_sem_nome_3" data-name="Gradiente sem nome 3" x1="6.48" y1="50.09" x2="6.48" y2="11.08" gradientTransform="translate(20.75 4.16) rotate(-.05) scale(.97 .98) skewX(-.1)" gradientUnits="userSpaceOnUse">
      <stop offset="0" stop-color="#c5b1d4"/>
      <stop offset=".43" stop-color="#c3afd2"/>
      <stop offset=".59" stop-color="#bea8ce"/>
      <stop offset=".7" stop-color="#b49cc7"/>
      <stop offset=".79" stop-color="#a78bbe"/>
      <stop offset=".87" stop-color="#9675b1"/>
      <stop offset=".94" stop-color="#815ba1"/>
      <stop offset="1" stop-color="#683b8e"/>
      <stop offset="1" stop-color="#673a8e"/>
    </linearGradient>
  </defs>
  <g>
    <g>
      <path class="cls-12" d="M17.19,49.79h9.42c-.25,1.2-.49,2.4-.74,3.61-.14,1.79-1.55,3.23-3.32,3.4-1.75.17-3.4-.94-3.9-2.64-.49-1.46-.97-2.91-1.46-4.37Z"/>
      <path class="cls-12" d="M26.61,49.79h9.42c-.25,1.2-.49,2.4-.74,3.61-.14,1.79-1.55,3.23-3.32,3.4-1.75.17-3.4-.94-3.9-2.64-.49-1.46-.97-2.91-1.46-4.37Z"/>
      <path class="cls-12" d="M11.82,31.3l.17,9.42c-1.21-.22-2.41-.45-3.62-.67-1.79-.1-3.26-1.49-3.46-3.26-.2-1.75.88-3.41,2.57-3.95,1.45-.51,2.9-1.03,4.34-1.54Z"/>
      <path class="cls-12" d="M42.14,40.72l-.15-9.42c1.21.23,2.41.46,3.62.68,1.79.11,3.25,1.5,3.45,3.27.2,1.75-.89,3.41-2.58,3.94-1.45.51-2.9,1.02-4.35,1.53Z"/>
    </g>
    <path class="cls-4" d="M19.06,18.6c-.35.21-1.14-.29-1.45-.08-.34.23-.57.6-.87.84-.32.25-.73.4-1.02.65-.31.27-.45.71-.72.98-.3.3-.32.81-.56,1.09-.29.32-.47.66-.69.93-.25.32-.29.74-.51,1.05-.23.33-1.47-.02-1.67.31-.21.34-.47.68-.65,1.02s.67,1.23.5,1.57-1.12.34-1.28.7.28.97.12,1.33c-.14.34-.38.62-.51.93s-1.1.34-1.22.67.48.92.38,1.26.34.79.26,1.14c-.07.33-.85.53-.91.89-.06.4.43.85.4,1.23-.03.41.1.78.09,1.15,0,.42.17.76.19,1.13.02.43-.59.85-.54,1.2.05.32.51.58.59.95.07.33-.75.88-.66,1.24.09.33.71.53.82.88.11.33,0,.74.14,1.08.13.34.67.49.8.8.15.33.67.44.82.74.17.33-.31.97-.14,1.25.19.32.15.76.33,1.03.17.27.36.66.63,1.02.22.28,1.1.05,1.38.36.25.27.34.69.64.97.28.25.81.15,1.14.4.3.23.03,1.29.37,1.5.32.2.64.44.96.61.34.17.62.56.95.69.36.15.79.19,1.12.3.37.12.84-.09,1.18-.01.39.09.8-.05,1.13,0,.43.06.83-.28,1.12-.26.39.03.72,1.04,1.13,1.06s.83-1.01,1.24-.99.77.95,1.18.95.81.17,1.21.16c.4,0,.75-1.16,1.13-1.17s.86,1,1.24.97.68-1.19,1.07-1.23.93,1.14,1.31,1.09.59-1.45.97-1.51.74-.21,1.12-.28c.39-.07,1.06,1.28,1.43,1.2.3-.06.69-.21,1.02-.33.29-.1.41-.79.73-.93.28-.13.29-.82.6-.99.28-.15.97.41,1.27.23.33-.2.48-.7.77-.92.32-.23.66-.41.94-.65.3-.26.09-1.01.35-1.27.28-.28,1.35.2,1.59-.08.26-.31.61-.57.82-.86.25-.34.59-.65.76-.93.19-.35-.6-1.23-.43-1.56.18-.36.53-.61.67-.96.15-.37,1.16-.42,1.28-.77.13-.38-.61-1.03-.51-1.39.11-.39-.22-.84-.15-1.2.08-.4,1.22-.6,1.27-.96.05-.41-.78-.88-.76-1.24.02-.42.57-.79.56-1.14-.01-.46.14-.88.1-1.18-.04-.35-.29-.67-.34-1.01-.06-.35.1-.75.03-1.07-.08-.36-.1-.74-.18-1.04-.11-.39-.72-.58-.81-.83-.13-.36.14-.87,0-1.22s-.27-.72-.41-1.07c-.15-.36-1.16-.34-1.31-.67-.16-.36-.07-.8-.23-1.13-.17-.35-.55-.56-.72-.88-.19-.35.42-1.12.24-1.43-.16-.25-.45-.5-.67-.83-.18-.27-.04-.81-.26-1.12-.19-.27-1.2.03-1.42-.26-.21-.27-.65-.33-.89-.61-.23-.26-.16-.77-.42-1.03-.18-.18.04-1.01-.33-1.35-.25-.23-.94-.04-1.28-.31-.28-.23-.8-.16-1.13-.4-.3-.21-.51-.57-.86-.78-.32-.2-.59-.49-.94-.68-.33-.18-.82,0-1.19-.17s-.65-.36-1.02-.49-.65-.41-1.04-.51-.66-.59-1.05-.66-.8.05-1.19.02-.78.62-1.18.61c-.37,0-.78-1.34-1.13-1.31-.37.03-.65,1.02-1,1.07-.37.05-.83-.43-1.17-.36-.37.08-.84-.15-1.18-.05-.36.11-.72.32-1.05.45-.36.14-.33,1.15-.65,1.3-.36.16-1.18-.66-1.47-.5-.37.2-.04,1.5-.3,1.66Z"/>
    <g class="cls-9">
      <path class="cls-6" d="M19.15,18c-.35.21-.3.98-.61,1.2-.34.23-1.04-.07-1.34.16-.32.25-.16,1.05-.44,1.3-.31.27-1.47-.39-1.74-.12-.3.3-.54.66-.79.94-.29.32.1,1.18-.12,1.45-.25.32-1.02.23-1.24.54-.23.33-.28.79-.48,1.11-.21.34.25,1.04.07,1.38s-.61.55-.77.9-.44.65-.6,1.01-.19.76-.35,1.12c-.14.34-.65.5-.78.82s-.58.55-.7.87-.49.61-.59.95.55.89.47,1.24c-.07.33-.53.61-.59.98-.06.4.65.88.61,1.26-.03.41-.27.77-.28,1.14,0,.42-.65.83-.63,1.2.02.43.17.84.21,1.19.05.32,0,.72.07,1.09.07.33,1.15.43,1.25.79.09.33.04.68.15,1.03.11.33.33.6.46.94.13.34-.26.86-.13,1.17.15.33-.13.87.02,1.17.17.33.92.32,1.08.61.19.32.6.46.78.73.17.27.5.48.77.83.22.28-.47,1.37-.18,1.68.25.27,1.05.06,1.36.33.28.25.27.89.6,1.14.3.23.82.2,1.17.42.32.2.36.94.68,1.1.34.17.96-.21,1.29-.08.36.15.82-.07,1.16.03.37.12.6.68.94.76.39.09.75.33,1.08.37.43.06.88-.77,1.18-.75.39.03.77.24,1.17.26s.76.6,1.16.61.8-.75,1.2-.75.79.79,1.2.78c.4,0,.78-.35,1.16-.37s.78-.14,1.16-.17.83.4,1.21.36.82.12,1.2.07.82.05,1.2,0,.8-.13,1.17-.2c.39-.07.61-1.01.98-1.09.3-.06.64-.02.97-.14.29-.1.45-.54.77-.69.28-.13.42-.51.73-.68.28-.15.6-.19.89-.37.33-.2.52-.52.82-.73.32-.23.86-.1,1.14-.34.3-.26,1.14.06,1.4-.2.28-.28.57-.6.8-.87.26-.31-.44-1.35-.24-1.63.25-.34,1.27-.11,1.44-.39.19-.35.02-.9.18-1.23.18-.36.34-.71.48-1.06.15-.37-.3-.94-.18-1.29.13-.38.61-.6.71-.96.11-.39.67-.65.74-1.01.08-.4-.52-.88-.47-1.25.05-.41.11-.75.13-1.11.02-.42.31-.78.3-1.12-.01-.46-.37-.79-.41-1.09-.04-.35.43-.75.38-1.08-.06-.35-.11-.69-.19-1.01-.08-.36.09-.77,0-1.07-.11-.39-.23-.74-.32-1-.13-.36-.39-.68-.52-1.02s-.98-.43-1.12-.77c-.15-.36-.19-.74-.34-1.07-.16-.36.39-1.02.24-1.35-.17-.35-1.03-.33-1.2-.65-.19-.35.56-1.21.37-1.52-.16-.25-1.31.05-1.53-.28-.18-.27-.44-.49-.66-.8-.19-.27-.25-.63-.48-.92-.21-.27-.09-.81-.34-1.08-.23-.26-.79-.19-1.05-.45-.18-.18.18-1.14-.2-1.48-.25-.23-.97,0-1.31-.27-.28-.23-.4-.71-.74-.95-.3-.21-.97.12-1.32-.09-.32-.2-.55-.52-.9-.71-.33-.18-.44-.85-.8-1s-1.01.52-1.38.38-.56-.7-.94-.8-.74-.15-1.13-.21-.74-.18-1.14-.21-.76.4-1.16.4c-.37,0-.76-1.1-1.12-1.08-.37.03-.67.77-1.02.82-.37.05-.63.49-.97.57-.37.08-.74-.04-1.08.06-.36.11-.6.43-.93.56-.36.14-.89-.25-1.2-.1-.36.16-.91-.11-1.2.05-.37.2-.54.66-.8.82Z"/>
    </g>
    <g>
      <path class="cls-15" d="M24.33,42.29c-.1-.19-.13-.36-.08-.4.06-.05.23.04.41.22.23.19.77.58,1.56.7,1.06.16,1.86-.27,2.11-.42.03-.02.07-.05.1-.07.02-.02.12-.14.29-.14.08,0,.14.03.17.05-.06.12-.16.29-.32.46-.05.05-.23.29-.55.42-.26.1-.63.21-1.09.24-.7.05-1.25-.12-1.57-.24-.21-.1-.47-.26-.72-.5-.12-.11-.22-.23-.31-.34Z"/>
      <path class="cls-8" d="M17.27,26.85c-.1.05-.14.16-.1.23.04.08.17.12.28.05.22-.14.61-.33,1.11-.36.03,0,.13,0,.27,0,.26.02.74.09,1.33.46.11.08.24.1.29.05.07-.06.06-.24-.09-.39-.13-.13-.65-.58-1.45-.62-.91-.05-1.52.48-1.64.59Z"/>
      <path class="cls-8" d="M33.44,27.01c-.08.02-.16,0-.21-.07-.05-.08-.03-.19.05-.26.07-.06.18-.14.32-.22.48-.24.98-.14,1.42-.06.21.04.49.11.81.25.05.01.43.14.46.38,0,.06,0,.16-.06.19-.05.02-.11-.01-.16-.04-.09-.06-.23-.13-.42-.21-.13-.06-.32-.12-.55-.17-.12-.02-.26-.05-.45-.04-.23,0-.34.06-.66.14-.13.03-.32.07-.55.11Z"/>
      <ellipse class="cls-10" cx="22.31" cy="42.63" rx=".47" ry=".53"/>
      <path class="cls-10" d="M31.79,41.58c-.19.04-.35.23-.35.23h0c-.14.3-.06.61.14.75.2.13.46.03.48.02.04-.02.23-.1.31-.31.06-.14.04-.27.03-.33,0-.06-.02-.13-.07-.2-.1-.15-.32-.21-.54-.16Z"/>
      <ellipse class="cls-13" cx="34.76" cy="34.47" rx="6.06" ry="4.62" transform="translate(-3.93 64.46) rotate(-82.55)"/>
      <ellipse class="cls-13" cx="18.81" cy="34.47" rx="6.06" ry="4.62" transform="translate(-16.75 51.14) rotate(-86.49)"/>
      <ellipse class="cls-3" cx="19.83" cy="34.63" rx="3.41" ry="4.65" transform="translate(-2.16 1.33) rotate(-3.64)"/>
      <ellipse class="cls-3" cx="33.42" cy="34.84" rx="4.65" ry="3.41" transform="translate(-3.48 65.98) rotate(-86.36)"/>
    </g>
  </g>
  <g>
    <path class="cls-11" d="M35.06,17.96l-5.51.66h-6.38l-5.51-.66s0-.62.04-1.57c.06-1.66.19-4.31.52-6.32.06-.38.13-.72.2-1.04.15-.64.33-1.15.54-1.44.26-.36.49-.64.7-.88.77-.87,1.23-1.13,1.44-1.97.02-.09.04-.17.07-.25.26-.91.63-1.51,1.65-1.66.02,0,.04,0,.06,0,.61-.08,1.04.58,1.59,1.22.12.14.24.27.37.4.12.12.25.23.38.32.03.02.06.04.09.06.04.03.08.05.12.07,0,0,.01,0,.02,0,.04.02.08.04.12.06.03.02.06.03.09.04.06.03.12.05.19.07.02,0,.05.01.07.02.04,0,.08.02.13.03,0,0,.02,0,.02,0,.05,0,.09.01.14.02.05,0,.1,0,.16,0,.11,0,.22,0,.32-.03.05,0,.09-.02.13-.03.04,0,.07-.02.11-.03.01,0,.02,0,.03,0,0,0,.01,0,.02,0,.05-.02.1-.03.14-.06.05-.02.1-.05.15-.07.02,0,.03-.02.05-.03.04-.02.08-.04.12-.07.03-.02.07-.05.11-.08.15-.11.29-.23.42-.37.67-.67,1.13-1.54,1.78-1.56.04,0,.07,0,.11,0,.97.12,1.38.64,1.64,1.42.05.16.1.32.14.5.2.8.63,1.07,1.34,1.86.24.26.5.58.8.98.29.4.51,1.2.69,2.2h0c.36,2.03.5,4.84.56,6.57.03.96.04,1.6.04,1.6Z"/>
    <path class="cls-11" d="M46.36,19.2c-4.13,5.03-10.07,9.64-19.96,9.64-6.93,0-14.69-2.33-19.06-7.56-.61-.72-5.01-6.93-2.88-7.43.12-.03.57.05,1.23.19h0c1.84.39,5.27,1.28,7.53,1.84.63.16,1.16.28,1.55.37,2.08.45,4.18.93,6.32,1.05.02,0,.05,0,.08,0,2.78.11,5.62-.08,8.22-.09,1.12,0,2.24-.04,3.36-.12,2.27-.16,4.56-.76,6.77-1.26,2.44-.55,4.69-1.25,6.98-2.08h0c.38-.14.76-.28,1.15-.42.23-.09.75-.35.96-.18.78.62-.16,3.52-2.25,6.06Z"/>
    <path class="cls-14" d="M43.41,18.16s-3.71,3.61-4.74,4.14c-1.04.53-5.66,4.02-15.05,3.23-9.39-.79-14.65-7.45-14.65-7.45,0,0,2.1.59,3.37-.11,1.28-.71.88-2.09.88-2.09.63.16,1.16.28,1.55.37,2.08.45,4.18.93,6.32,1.05.02,0,.05,0,.08,0,2.78.11,5.62-.08,8.22-.09,1.12,0,2.24-.04,3.36-.12,2.27-.16,4.56-.76,6.77-1.26,0,0-.85.89-.12,2.15.73,1.26,4.01.19,4.01.19Z"/>
    <path class="cls-14" d="M21.58,6.69c-.51.7-1.35.36-1.92.01.77-.87,1.23-1.13,1.44-1.97.02-.09.04-.17.07-.25.43.62.9,1.55.42,2.2Z"/>
    <path class="cls-14" d="M32.97,6.6c-.56.37-1.53.86-2.09.09-.55-.74.15-1.86.61-2.45.05.16.1.32.14.5.2.8.63,1.07,1.34,1.86Z"/>
    <path class="cls-1" d="M17.66,17.49s2.33,5.7,8.7,5.74c6.37.04,8.67-5.68,8.67-5.68,0,0-7.22.95-7.37.95s-10-1.01-10-1.01Z"/>
    <path class="cls-14" d="M29.99,3.4c-.22,2.45-2.54,4.65-4.89,3.73-1.38-.54-2.78-2.66-2.31-4.27,0,0,0-.02.01-.03.02,0,.04,0,.06,0,.61-.08,1.04.58,1.59,1.22.12.14.24.27.37.4.04.04.08.07.12.11.09.08.17.15.26.21.03.02.06.04.09.06.04.03.08.05.12.07,0,0,.01,0,.02,0,.04.02.08.04.12.06.03.01.06.03.09.04.06.03.12.05.19.07.02,0,.05.01.07.02.04,0,.08.02.13.03,0,0,.02,0,.02,0,.05,0,.09.01.14.02.05,0,.1,0,.16,0,.11,0,.22,0,.32-.03.05,0,.09-.02.13-.03.04,0,.07-.02.11-.03.01,0,.02,0,.03,0,0,0,.01,0,.02,0,.05-.02.1-.03.14-.06.05-.02.1-.05.15-.07.02,0,.03-.02.05-.03.04-.02.08-.05.12-.07.03-.02.07-.05.11-.08.05-.04.11-.08.16-.12.09-.07.18-.16.26-.24.67-.67,1.13-1.54,1.78-1.56.16.15.27.36.25.59Z"/>
    <path class="cls-14" d="M29.55,18.62h-6.38s-5.5-1.28-5.47-2.23c.06-1.66.19-4.31.52-6.32.06-.38.13-.72.2-1.04,0,0,.02,4.44,7.24,4.84,7.22.4,8.8-4.08,8.8-4.08h0c.36,2.03.5,4.84.56,6.57.03.96-5.47,2.26-5.47,2.26Z"/>
    <path class="cls-1" d="M35.02,16.36c-.69.5-1.41.99-1.41.99l-.95.06c-.43-.04-.84-.12-.84-.12,0,0,.58-.41,1.76-1.75,1.18-1.34,1.25-2.56,1.25-2.56h0c.1,1.24.15,2.45.18,3.36Z"/>
    <path class="cls-1" d="M20.72,17.3s-.37.07-.78.12l-.86-.06s-.7-.47-1.37-.96c.02-.76.07-1.74.14-2.76.15.48.46,1.18,1.12,1.93,1.18,1.34,1.76,1.75,1.76,1.75Z"/>
    <g>
      <path class="cls-17" d="M35.03,17.55s-.02.02-.07.04c0,0-.02.01-.03.02,0,0,0,0-.01,0,0,0-.01,0-.02.02-.01,0-.03.01-.04.02-.04.02-.08.04-.12.07-.03.02-.07.04-.11.06-.02.01-.05.02-.08.04-.02,0-.04.02-.06.03-.02,0-.03.02-.05.02-.07.03-.14.06-.22.1,0,0-.02,0-.02,0-.01,0-.03.01-.04.02-.03.01-.07.03-.1.04-.12.05-.26.1-.41.16-.1.04-.21.07-.32.11-.05.02-.09.03-.14.04-.09.03-.18.06-.28.08-.17.05-.34.09-.53.14-.12.03-.25.06-.39.09h0c-1.32.3-3.12.54-5.47.54-.7,0-1.35-.02-1.95-.05-.37-.02-.71-.05-1.05-.08-.91-.09-1.7-.2-2.38-.34-.06-.01-.12-.02-.18-.04-.06-.01-.12-.02-.18-.04-.25-.06-.49-.11-.71-.17-.09-.02-.17-.05-.25-.07-.05-.01-.09-.03-.14-.04-.32-.1-.6-.19-.84-.29-.26-.1-.48-.2-.65-.28-.03-.02-.07-.03-.1-.05-.31-.16-.45-.26-.45-.26l.05-1.5s.02.01.07.04c.01,0,.03.02.05.03.1.05.27.13.5.23h0c.09.04.18.08.29.12.06.03.13.05.2.08.11.04.22.09.35.13.04.02.08.03.13.05.02,0,.04.02.07.02.05.02.09.03.14.05.15.05.32.11.49.16.1.03.2.06.31.09.06.02.12.03.18.05.4.11.84.22,1.32.32h0c.57.12,1.19.22,1.87.29.31.04.64.07.98.09.59.04,1.22.06,1.88.06,1.75-.02,3.24-.2,4.46-.45.27-.05.52-.11.76-.17.12-.03.23-.06.34-.09.02,0,.03,0,.05-.01.09-.02.18-.05.27-.07.21-.06.41-.12.6-.18.09-.03.18-.06.26-.09.26-.09.49-.18.69-.26.24-.09.43-.18.59-.26.05-.02.09-.04.13-.06.22-.11.34-.18.34-.18l.03,1.57Z"/>
      <path class="cls-5" d="M21.14,18.72c-.99-.2-1.74-.44-2.29-.65h0c-.83-.32-1.19-.59-1.19-.59l.05-1.5s.21.12.61.3h0c.47.21,1.19.49,2.15.75,0,0-.28.37-.1.84.17.46.73.82.76.84Z"/>
      <path class="cls-5" d="M35.03,17.55s-.4.28-1.29.6c-.45.17-1.03.35-1.76.51.03-.03.26-.29.24-.72-.02-.45-.49-.76-.49-.76.94-.23,1.68-.48,2.22-.7.7-.28,1.06-.5,1.06-.5l.03,1.57Z"/>
      <path class="cls-7" d="M18.85,18.08c-.83-.32-1.19-.59-1.19-.59l.05-1.5s.21.12.61.3h0c0,.05-.04.76.1,1.12.14.35.39.64.42.67Z"/>
      <path class="cls-7" d="M34.08,17.32c.07-.54-.13-.84-.13-.84.7-.28,1.06-.5,1.06-.5l.05,1.55s-.42.29-1.32.62c.08-.1.28-.41.33-.83Z"/>
    </g>
    <path class="cls-1" d="M27.69,4.61v.04c-.04.66-.33,1.35-1.08,1.55-.77.2-1.4-.28-1.59-.94-.06-.21-.1-.47-.07-.71.09.08.17.15.26.21.03.02.06.04.09.06.04.03.08.05.12.07,0,0,.01,0,.02,0,.04.02.08.04.12.06.03.01.06.03.09.04.06.03.12.05.19.07.02,0,.05.01.07.02.04,0,.08.02.13.03,0,0,.02,0,.02,0,.05,0,.09.01.14.02.05,0,.1,0,.16,0,.11,0,.22,0,.32-.03.05,0,.09-.02.13-.03.04,0,.07-.02.11-.03.01,0,.02,0,.03,0,0,0,.01,0,.02,0,.05-.02.1-.03.14-.06.05-.02.1-.05.15-.07.02,0,.03-.02.05-.03.04-.02.08-.05.12-.07.03-.02.07-.05.11-.08.05-.04.11-.08.16-.12Z"/>
    <path class="cls-16" d="M30.98,17.35s-1.16,1.31-4.79,1.22c-3.53-.09-4.4-1.22-4.4-1.22h0c.57.12,1.19.22,1.87.29.31.04.64.07.98.09.59.04,1.22.06,1.88.06,1.75-.02,3.24-.2,4.46-.45h0Z"/>
    <path class="cls-2" d="M46.36,19.2c-4.13,5.03-10.07,9.64-19.96,9.64-6.93,0-14.69-2.33-19.06-7.56-.61-.72-5.01-6.93-2.88-7.43.12-.03.57.05,1.23.19-.04.01-.96.32-.13,2.11.85,1.83,2.34,5.01,5.29,7.09,2.95,2.08,6.11,3.18,8.54,3.82,2.43.65,6.87.9,9.15.73,2.28-.17,5.01-.84,7.36-1.83,2.34-.99,5.56-3.33,6.72-4.38,1.16-1.05,4.01-4.68,4.35-5.59s.7-1.67.34-1.95c-.36-.28-.8-.29-.8-.29h0c.38-.14.76-.28,1.15-.42.23-.09.75-.35.96-.18.78.62-.16,3.52-2.25,6.06Z"/>
  </g>
</svg>